<svg width="24" height="24" viewBox="0 0 24 24" fill="none" xmlns="http://www.w3.org/2000/svg">
<mask id="mask0_1391_3930" style="mask-type:alpha" maskUnits="userSpaceOnUse" x="0" y="0" width="24" height="24">
<rect width="24" height="24" fill="#D9D9D9"/>
</mask>
<g mask="url(#mask0_1391_3930)">
<path d="M14.5264 3.84193C15.12 3.0769 15.5227 2.04969 15.4165 1C14.5477 1.04452 13.4874 1.5907 12.8736 2.35633C12.3224 3.01197 11.8346 4.0822 11.9618 5.08788C12.9371 5.17506 13.9115 4.5855 14.5264 3.84193Z" fill="black"/>
<path d="M15.4067 5.2842C13.9903 5.19726 12.7861 6.11261 12.1097 6.11261C11.4329 6.11261 10.3971 5.32802 9.27682 5.34917C7.8187 5.37124 6.46573 6.22084 5.7258 7.5721C4.20388 10.2753 5.32417 14.2851 6.80415 16.4867C7.52287 17.5759 8.38904 18.7752 9.53036 18.7321C10.6087 18.6885 11.0314 18.0125 12.3422 18.0125C13.652 18.0125 14.0327 18.7321 15.1742 18.7103C16.358 18.6885 17.098 17.6206 17.8168 16.5303C18.6413 15.2887 18.9788 14.0898 19 14.0239C18.9788 14.0022 16.7174 13.1081 16.6964 10.4274C16.675 8.18279 18.4719 7.11513 18.5564 7.04892C17.5417 5.5024 15.9563 5.32802 15.4067 5.2842Z" fill="black"/>
</g>
</svg>
