<svg width="32" height="32" viewBox="0 0 32 32" fill="none" xmlns="http://www.w3.org/2000/svg">
<path d="M25.333 9.33331V6.66665H22.6663V3.99998H25.333V1.33331H27.9997V3.99998H30.6663V6.66665H27.9997V9.33331H25.333ZM14.6663 23.3333C16.333 23.3333 17.7497 22.75 18.9163 21.5833C20.083 20.4166 20.6663 19 20.6663 17.3333C20.6663 15.6666 20.083 14.25 18.9163 13.0833C17.7497 11.9166 16.333 11.3333 14.6663 11.3333C12.9997 11.3333 11.583 11.9166 10.4163 13.0833C9.24967 14.25 8.66634 15.6666 8.66634 17.3333C8.66634 19 9.24967 20.4166 10.4163 21.5833C11.583 22.75 12.9997 23.3333 14.6663 23.3333ZM14.6663 20.6666C13.733 20.6666 12.9441 20.3444 12.2997 19.7C11.6552 19.0555 11.333 18.2666 11.333 17.3333C11.333 16.4 11.6552 15.6111 12.2997 14.9666C12.9441 14.3222 13.733 14 14.6663 14C15.5997 14 16.3886 14.3222 17.033 14.9666C17.6775 15.6111 17.9997 16.4 17.9997 17.3333C17.9997 18.2666 17.6775 19.0555 17.033 19.7C16.3886 20.3444 15.5997 20.6666 14.6663 20.6666ZM3.99967 28C3.26634 28 2.63856 27.7389 2.11634 27.2166C1.59412 26.6944 1.33301 26.0666 1.33301 25.3333V9.33331C1.33301 8.59998 1.59412 7.9722 2.11634 7.44998C2.63856 6.92776 3.26634 6.66665 3.99967 6.66665H8.19967L10.6663 3.99998H19.9997V9.33331H22.6663V12H27.9997V25.3333C27.9997 26.0666 27.7386 26.6944 27.2163 27.2166C26.6941 27.7389 26.0663 28 25.333 28H3.99967Z" fill="#DDDDDD"/>
</svg>
