<svg width="24" height="24" viewBox="0 0 24 24" fill="none" xmlns="http://www.w3.org/2000/svg">
<path d="M15.2459 12.4209L14.2798 11.4548C14.4088 10.7423 14.2056 10.1017 13.6701 9.53317C13.1346 8.9646 12.4776 8.74484 11.6989 8.87388L10.7327 7.90773C10.9269 7.82059 11.1259 7.75525 11.33 7.71169C11.534 7.66811 11.7574 7.64633 12 7.64633C12.9761 7.64633 13.8047 7.98686 14.4857 8.66793C15.1668 9.349 15.5073 10.1776 15.5073 11.1537C15.5073 11.3963 15.4856 11.6224 15.442 11.832C15.3984 12.0415 15.3331 12.2378 15.2459 12.4209ZM17.9824 15.0978L17.0327 14.2077C17.5776 13.7919 18.0615 13.3367 18.4845 12.842C18.9075 12.3473 19.2695 11.7846 19.5706 11.1537C18.8537 9.70551 17.8249 8.55486 16.4843 7.70173C15.1437 6.8486 13.6489 6.42204 12 6.42204C11.5842 6.42204 11.1755 6.45071 10.7741 6.50807C10.3726 6.56542 9.9783 6.65145 9.59117 6.76616L8.58862 5.76361C9.13237 5.54743 9.6877 5.38805 10.2546 5.28548C10.8215 5.1829 11.4033 5.13161 12 5.13161C14.0162 5.13161 15.8344 5.68749 17.4546 6.79926C19.0748 7.91103 20.2566 9.3625 21 11.1537C20.6812 11.9224 20.2696 12.6399 19.765 13.306C19.2604 13.9722 18.6662 14.5695 17.9824 15.0978ZM18.6772 20.0742L15.1963 16.6198C14.7552 16.7831 14.2663 16.9165 13.7297 17.0202C13.1931 17.1239 12.6165 17.1757 12 17.1757C9.97831 17.1757 8.16012 16.6199 6.54541 15.5081C4.93071 14.3963 3.7489 12.9448 3 11.1537C3.31765 10.3937 3.72795 9.68482 4.23089 9.02691C4.73384 8.36901 5.28752 7.79852 5.89193 7.31543L3.50955 4.9066L4.41618 4L19.5838 19.1676L18.6772 20.0742ZM6.79853 8.22202C6.34413 8.58379 5.90212 9.01863 5.47252 9.52655C5.04291 10.0345 4.6952 10.5768 4.42938 11.1537C5.1463 12.6018 6.17507 13.7525 7.5157 14.6056C8.85633 15.4587 10.3511 15.8853 12 15.8853C12.3915 15.8853 12.7815 15.8522 13.1697 15.786C13.5579 15.7199 13.8872 15.6515 14.1574 15.5809L13.0688 14.4658C12.9221 14.5253 12.7522 14.5728 12.5592 14.6081C12.3662 14.6434 12.1798 14.661 12 14.661C11.0239 14.661 10.1953 14.3205 9.51426 13.6394C8.83319 12.9583 8.49265 12.1298 8.49265 11.1537C8.49265 10.9794 8.5103 10.7971 8.5456 10.6069C8.58091 10.4166 8.62833 10.2426 8.68788 10.0849L6.79853 8.22202Z" fill="#828282"/>
</svg>
