<svg width="106" height="106" viewBox="0 0 106 106" fill="none" xmlns="http://www.w3.org/2000/svg">
<path d="M53.7951 71.6295C52.9847 73.8246 51.9357 75.5879 49.6401 75.5879H19.6156C19.2961 75.6072 18.9759 75.5616 18.6744 75.4538C18.3729 75.3461 18.0963 75.1786 17.8613 74.9612C17.6262 74.7438 17.4376 74.4811 17.3067 74.189C17.1757 73.8968 17.1053 73.5812 17.0995 73.2611C17.0937 72.941 17.1528 72.623 17.2731 72.3263C17.3933 72.0296 17.5724 71.7603 17.7995 71.5346C18.0265 71.3089 18.2969 71.1315 18.5943 71.013C18.8917 70.8944 19.21 70.8373 19.5301 70.845H41.7194C42.5559 70.8416 43.3649 70.546 44.0067 70.0094C44.6484 69.4728 45.0825 68.7289 45.234 67.9062L52.8207 32.3416C53.3496 30.0267 54.8855 28.3804 57.1822 28.3804L62.4137 28.3666L64.452 28.3633H93.4126C95.5431 28.3633 97.2965 30.1366 97.2965 32.2914C97.2965 34.4461 95.5431 36.2194 93.4126 36.2194H68.0875L64.6524 36.2697C64.1407 36.2696 63.6341 36.3716 63.1623 36.5695C62.6904 36.7674 62.2627 37.0574 61.9041 37.4224C61.1741 38.1614 60.7657 39.159 60.7679 40.1977C60.7679 42.3354 62.4523 44.0728 64.553 44.1225C64.5861 44.1258 64.6193 44.1258 64.6524 44.1258H74.0858C76.2014 44.1589 77.9195 45.9256 77.9206 48.0506C77.9206 50.196 76.1722 51.9704 74.0362 51.9792L61.6303 51.9753C61.2993 51.9751 60.9697 52.0177 60.6498 52.1023C59.9807 52.2824 59.3712 52.6363 58.8831 53.1281C58.2855 53.7424 57.8988 54.5309 57.779 55.3795" fill="#12AD2A"/>
<path d="M54.981 50.2728C55.0075 50.0672 55.0509 49.8641 55.1107 49.6655L54.981 50.2728Z" fill="#12AD2A"/>
<path d="M38.6166 39.1074H11.8853C9.57594 39.1074 8.02073 41.806 8.93718 44.223L15.1868 60.7099C15.6958 62.0492 16.8535 62.9182 18.1349 62.9182H35.7199C37.2508 62.9182 38.5686 61.6843 38.8667 59.9729L41.7652 43.4904C42.161 41.2213 40.6433 39.1074 38.6166 39.1074ZM33.2614 57.4498C32.9053 57.8518 32.4195 58.1024 31.8774 58.1024H21.0896C20.0081 58.1024 19.1331 57.1042 19.1331 55.8709C19.1282 55.2929 19.3314 54.7325 19.7056 54.2919C20.0617 53.89 20.5475 53.6394 21.0896 53.6394H31.8785C32.96 53.6394 33.835 54.6414 33.835 55.8709C33.8406 56.449 33.6373 57.0097 33.2625 57.4498H33.2614ZM35.218 48.3261C34.8619 48.728 34.3761 48.9787 33.8339 48.9787H16.1761C15.0946 48.9787 14.2195 47.9805 14.2195 46.7472C14.2137 46.1691 14.4168 45.6084 14.7915 45.1682C14.9622 44.9667 15.1741 44.8042 15.4129 44.6916C15.6518 44.579 15.9121 44.519 16.1761 44.5156H33.835C34.9166 44.5156 35.7916 45.5138 35.7916 46.7472C35.7972 47.3252 35.5939 47.8859 35.2191 48.3261H35.218Z" fill="#12AD2A"/>
<path d="M30.496 91.3738C32.648 91.3738 34.3926 89.6292 34.3926 87.4772C34.3926 85.3251 32.648 83.5806 30.496 83.5806C28.3439 83.5806 26.5994 85.3251 26.5994 87.4772C26.5994 89.6292 28.3439 91.3738 30.496 91.3738Z" fill="#12AD2A"/>
<path d="M46.2343 91.3738C48.3863 91.3738 50.1309 89.6292 50.1309 87.4772C50.1309 85.3251 48.3863 83.5806 46.2343 83.5806C44.0822 83.5806 42.3376 85.3251 42.3376 87.4772C42.3376 89.6292 44.0822 91.3738 46.2343 91.3738Z" fill="#12AD2A"/>
</svg>
