<svg width="28" height="26" viewBox="0 0 28 26" fill="none" xmlns="http://www.w3.org/2000/svg">
<defs>
<linearGradient id="paint0_linear_677_8582" x1="0.932453" y1="0" x2="0.932453" y2="26.0003" gradientUnits="userSpaceOnUse">
<stop stop-color="#00B2FF"/>
<stop offset="1" stop-color="#006AFF"/>
</linearGradient>
</defs>
<path fill-rule="evenodd" clip-rule="evenodd" d="M14 0C6.63808 0 0.932617 5.36486 0.932617 12.6104C0.932617 16.4006 2.49439 19.6755 5.03687 21.9381C5.24984 22.1291 5.37867 22.3932 5.38919 22.6784L5.46018 24.9907C5.48384 25.7283 6.24895 26.207 6.9273 25.9114L9.51974 24.7736C9.74059 24.6768 9.98511 24.6585 10.2165 24.7212C11.4075 25.0482 12.6775 25.2208 14 25.2208C21.3619 25.2208 27.0673 19.856 27.0673 12.6104C27.0673 5.36486 21.3619 0 14 0Z" fill="url(#paint0_linear_677_8582)"/>
<path fill-rule="evenodd" clip-rule="evenodd" d="M6.15381 16.4273L9.99286 10.3777C10.6029 9.41648 11.9124 9.17617 12.8274 9.85792L15.8803 12.133C16.1616 12.342 16.5455 12.3394 16.8243 12.1304L20.9473 9.02205C21.4968 8.60674 22.2173 9.26236 21.8466 9.84224L18.0102 15.8892C17.4001 16.8504 16.0906 17.0907 15.1756 16.409L12.1227 14.1339C11.8414 13.9249 11.4575 13.9275 11.1788 14.1365L7.0531 17.2475C6.50353 17.6628 5.78306 17.0072 6.15381 16.4273Z" fill="white"/>
</svg>
