<svg width="24" height="24" viewBox="0 0 24 24" fill="none" xmlns="http://www.w3.org/2000/svg">
<path fill-rule="evenodd" clip-rule="evenodd" d="M6.07067 8.18234C6.33321 7.83908 6.74063 7.62225 7.18492 7.58876C7.62921 7.55611 8.06648 7.71015 8.37994 8.00904C10.0052 9.54448 14.1338 13.481 15.752 15.024C16.0699 15.3262 16.2332 15.7465 16.1981 16.1735C16.1638 16.6005 15.9347 16.9915 15.572 17.2443C15.5694 17.246 15.5668 17.2476 15.565 17.2493C12.9001 19.0518 9.17897 18.8199 6.79331 16.5461C4.40765 14.2705 4.16531 10.7208 6.06628 8.18736C6.06804 8.18569 6.06892 8.18401 6.07067 8.18234Z" fill="#828282"/>
<path fill-rule="evenodd" clip-rule="evenodd" d="M3.65854 21C3.29502 21 3 20.7187 3 20.3721C3 20.0255 3.29502 19.7442 3.65854 19.7442H13.3171C13.6806 19.7442 13.9756 20.0255 13.9756 20.3721C13.9756 20.7187 13.6806 21 13.3171 21H3.65854Z" fill="#828282"/>
<path fill-rule="evenodd" clip-rule="evenodd" d="M12.0721 12.401C11.8149 12.6455 11.3978 12.6455 11.1405 12.401C10.8841 12.1557 10.8841 11.758 11.1405 11.5127L12.5006 10.2167C12.757 9.97144 13.175 9.97144 13.4314 10.2167C13.6886 10.4612 13.6886 10.8597 13.4314 11.1042L12.0721 12.401Z" fill="#828282"/>
<path fill-rule="evenodd" clip-rule="evenodd" d="M15.0731 4.25581C14.7096 4.25581 14.4146 3.97451 14.4146 3.62791C14.4146 3.2813 14.7096 3 15.0731 3C18.3438 3 20.9999 5.53256 20.9999 8.65116C20.9999 8.99777 20.7049 9.27907 20.3414 9.27907C19.9779 9.27907 19.6828 8.99777 19.6828 8.65116C19.6828 6.22493 17.6177 4.25581 15.0731 4.25581Z" fill="#828282"/>
<path fill-rule="evenodd" clip-rule="evenodd" d="M14.6341 6.76744C14.2706 6.76744 13.9756 6.48614 13.9756 6.13953C13.9756 5.79293 14.2706 5.51162 14.6341 5.51162C16.694 5.51162 18.3658 7.10567 18.3658 9.06976C18.3658 9.41637 18.0708 9.69767 17.7073 9.69767C17.3438 9.69767 17.0488 9.41637 17.0488 9.06976C17.0488 7.79888 15.967 6.76744 14.6341 6.76744Z" fill="#828282"/>
<path d="M13.9756 11.5814C15.0667 11.5814 15.9512 10.738 15.9512 9.69766C15.9512 8.65731 15.0667 7.81394 13.9756 7.81394C12.8845 7.81394 12 8.65731 12 9.69766C12 10.738 12.8845 11.5814 13.9756 11.5814Z" fill="#828282"/>
<path fill-rule="evenodd" clip-rule="evenodd" d="M12.2038 19.2619L12.6024 20.1176C12.6919 20.3118 12.6735 20.5362 12.5523 20.7145C12.4303 20.8928 12.2231 21 12 21H4.99848C4.786 21 4.58668 20.902 4.46287 20.7379C4.33907 20.573 4.30658 20.362 4.37507 20.1703L5.65087 16.5887C5.81331 16.7779 5.98717 16.9613 6.17244 17.1379C7.82317 18.7119 10.042 19.4193 12.2038 19.2619Z" fill="#828282"/>
</svg>
