<svg width="32" height="32" viewBox="0 0 32 32" fill="none" xmlns="http://www.w3.org/2000/svg">
<circle cx="16" cy="16" r="16" fill="#74CA45"/>
<path d="M7 11H24V24C24 24.5523 23.5523 25 23 25H8C7.44772 25 7 24.5523 7 24V11Z" fill="white"/>
<path d="M7.41267 8.94C7.77815 8.35524 8.41909 8 9.10867 8H12.0002V14.5C12.0002 15.3284 11.3286 16 10.5002 16H6.60867C5.03779 16 4.08011 14.2721 4.91267 12.94L7.41267 8.94Z" fill="#74CA45"/>
<path d="M12 8H19V14.5C19 15.3284 18.3284 16 17.5 16H13.5C12.6716 16 12 15.3284 12 14.5V8Z" fill="#74CA45"/>
<path d="M19 8H22.0743C22.7774 8 23.4288 8.36912 23.79 8.97221L26.1862 12.9722C26.9848 14.3053 26.0245 16 24.4705 16H20.5C19.6716 16 19 15.3284 19 14.5V8Z" fill="#74CA45"/>
<path d="M7.41272 7.94C7.7782 7.35524 8.41914 7 9.10872 7H12.0002V13C12.0002 14.1046 11.1048 15 10.0002 15H7.51084C5.54725 15 4.35014 12.8401 5.39084 11.175L7.41272 7.94Z" fill="white"/>
<path d="M12 7H19V13C19 14.1046 18.1046 15 17 15H14C12.8954 15 12 14.1046 12 13V7Z" fill="white"/>
<path d="M19 7H22.0743C22.7774 7 23.4288 7.36912 23.79 7.97221L25.7328 11.2153C26.731 12.8816 25.5306 15 23.5881 15H21C19.8954 15 19 14.1046 19 13V7Z" fill="white"/>
<path d="M17 18H14C13.4477 18 13 18.4477 13 19V22C13 22.5523 13.4477 23 14 23H17C17.5523 23 18 22.5523 18 22V19C18 18.4477 17.5523 18 17 18Z" fill="#74CA45"/>
</svg>
