<svg width="24" height="24" viewBox="0 0 24 24" fill="none" xmlns="http://www.w3.org/2000/svg">
<path d="M7 19C6.16667 19 5.45833 18.7083 4.875 18.125C4.29167 17.5417 4 16.8333 4 16H3C2.71667 16 2.47917 15.9042 2.2875 15.7125C2.09583 15.5208 2 15.2833 2 15V13C2 11.9 2.39167 10.9583 3.175 10.175C3.95833 9.39167 4.9 9 6 9H8C8.55 9 9.02083 9.19583 9.4125 9.5875C9.80417 9.97917 10 10.45 10 11V14H13.5L17 9.65V7H15C14.7167 7 14.4792 6.90417 14.2875 6.7125C14.0958 6.52083 14 6.28333 14 6C14 5.71667 14.0958 5.47917 14.2875 5.2875C14.4792 5.09583 14.7167 5 15 5H17C17.55 5 18.0208 5.19583 18.4125 5.5875C18.8042 5.97917 19 6.45 19 7V9.65C19 9.88333 18.9625 10.1042 18.8875 10.3125C18.8125 10.5208 18.7083 10.7167 18.575 10.9L15.1 15.25C14.9167 15.4833 14.6833 15.6667 14.4 15.8C14.1167 15.9333 13.825 16 13.525 16H10C10 16.8333 9.70833 17.5417 9.125 18.125C8.54167 18.7083 7.83333 19 7 19ZM7 17C7.28333 17 7.52083 16.9042 7.7125 16.7125C7.90417 16.5208 8 16.2833 8 16H6C6 16.2833 6.09583 16.5208 6.2875 16.7125C6.47917 16.9042 6.71667 17 7 17ZM9 8H6C5.71667 8 5.47917 7.90417 5.2875 7.7125C5.09583 7.52083 5 7.28333 5 7C5 6.71667 5.09583 6.47917 5.2875 6.2875C5.47917 6.09583 5.71667 6 6 6H9C9.28333 6 9.52083 6.09583 9.7125 6.2875C9.90417 6.47917 10 6.71667 10 7C10 7.28333 9.90417 7.52083 9.7125 7.7125C9.52083 7.90417 9.28333 8 9 8ZM19 19C18.1667 19 17.4583 18.7083 16.875 18.125C16.2917 17.5417 16 16.8333 16 16C16 15.1667 16.2917 14.4583 16.875 13.875C17.4583 13.2917 18.1667 13 19 13C19.8333 13 20.5417 13.2917 21.125 13.875C21.7083 14.4583 22 15.1667 22 16C22 16.8333 21.7083 17.5417 21.125 18.125C20.5417 18.7083 19.8333 19 19 19ZM19 17C19.2833 17 19.5208 16.9042 19.7125 16.7125C19.9042 16.5208 20 16.2833 20 16C20 15.7167 19.9042 15.4792 19.7125 15.2875C19.5208 15.0958 19.2833 15 19 15C18.7167 15 18.4792 15.0958 18.2875 15.2875C18.0958 15.4792 18 15.7167 18 16C18 16.2833 18.0958 16.5208 18.2875 16.7125C18.4792 16.9042 18.7167 17 19 17Z" fill="#828282"/>
</svg>
