<svg width="16" height="16" viewBox="0 0 16 16" fill="none" xmlns="http://www.w3.org/2000/svg">
<path d="M1.81522 14C1.693 14 1.58189 13.9694 1.48189 13.9083C1.38189 13.8472 1.30411 13.7667 1.24856 13.6667C1.193 13.5667 1.16245 13.4583 1.15689 13.3417C1.15134 13.225 1.18189 13.1111 1.24856 13L7.41522 2.33333C7.48189 2.22222 7.568 2.13889 7.67356 2.08333C7.77911 2.02778 7.88745 2 7.99856 2C8.10967 2 8.218 2.02778 8.32356 2.08333C8.42911 2.13889 8.51522 2.22222 8.58189 2.33333L14.7486 13C14.8152 13.1111 14.8458 13.225 14.8402 13.3417C14.8347 13.4583 14.8041 13.5667 14.7486 13.6667C14.693 13.7667 14.6152 13.8472 14.5152 13.9083C14.4152 13.9694 14.3041 14 14.1819 14H1.81522ZM7.99856 12C8.18745 12 8.34578 11.9361 8.47356 11.8083C8.60134 11.6806 8.66522 11.5222 8.66522 11.3333C8.66522 11.1444 8.60134 10.9861 8.47356 10.8583C8.34578 10.7306 8.18745 10.6667 7.99856 10.6667C7.80967 10.6667 7.65133 10.7306 7.52356 10.8583C7.39578 10.9861 7.33189 11.1444 7.33189 11.3333C7.33189 11.5222 7.39578 11.6806 7.52356 11.8083C7.65133 11.9361 7.80967 12 7.99856 12ZM7.99856 10C8.18745 10 8.34578 9.93611 8.47356 9.80833C8.60134 9.68056 8.66522 9.52222 8.66522 9.33333V7.33333C8.66522 7.14444 8.60134 6.98611 8.47356 6.85833C8.34578 6.73056 8.18745 6.66667 7.99856 6.66667C7.80967 6.66667 7.65133 6.73056 7.52356 6.85833C7.39578 6.98611 7.33189 7.14444 7.33189 7.33333V9.33333C7.33189 9.52222 7.39578 9.68056 7.52356 9.80833C7.65133 9.93611 7.80967 10 7.99856 10Z" fill="white"/>
</svg>
