<svg width="24" height="24" viewBox="0 0 24 24" fill="none" xmlns="http://www.w3.org/2000/svg">
<mask id="mask0_1521_4040" style="mask-type:alpha" maskUnits="userSpaceOnUse" x="0" y="0" width="24" height="24">
<rect width="24" height="24" fill="#D9D9D9"/>
</mask>
<g mask="url(#mask0_1521_4040)">
<path fill-rule="evenodd" clip-rule="evenodd" d="M7.95121 4.60892L9.44275 8.33734C9.54091 8.58272 9.47978 8.84992 9.28462 9.02815L7.51182 10.6494C7.29628 10.8466 7.24548 11.1565 7.38755 11.412C8.58032 13.5573 10.3769 15.368 12.5119 16.5785C12.7676 16.7235 13.0808 16.6738 13.2791 16.4569L14.7775 14.8184C14.956 14.6232 15.2229 14.5621 15.4686 14.6605L19.1967 16.1515C19.484 16.2663 19.6419 16.5679 19.5727 16.8696L19.0268 19.2468C18.7685 20.3733 17.7164 21.1169 16.5687 20.9849C14.6633 20.7659 12.722 20.1175 10.903 19.0554C8.44342 17.6198 6.33196 15.4954 4.91217 13.0266C3.83908 11.1603 3.19964 9.1682 3.0108 7.22062C2.90088 6.08439 3.64076 5.05779 4.75289 4.80236L7.23343 4.23324C7.53506 4.16407 7.83641 4.32163 7.95121 4.60892ZM12.3363 4.09806C12.0332 4.09806 11.7873 3.8521 11.7873 3.54903C11.7873 3.24596 12.0332 3 12.3363 3C13.5107 3 14.6888 3.2296 15.7978 3.68909C16.864 4.13078 17.861 4.78313 18.7238 5.64557C19.6178 6.53986 20.2856 7.57621 20.727 8.68289C21.1842 9.83002 21.3969 11.0535 21.3644 12.2724C21.357 12.5749 21.1056 12.814 20.8034 12.8062C20.5009 12.7988 20.2618 12.5473 20.2693 12.2451C20.2977 11.1755 20.1105 10.0998 19.7076 9.08928C19.321 8.11922 18.7338 7.20914 17.9471 6.42219C17.1846 5.65963 16.3087 5.08534 15.3762 4.69904C14.4087 4.29839 13.3741 4.09806 12.3363 4.09806ZM12.3363 9.28731C12.0332 9.28731 11.7873 9.04164 11.7873 8.73856C11.7873 8.4352 12.0332 8.18953 12.3363 8.18953C12.8342 8.18953 13.3356 8.28769 13.8095 8.484C14.2644 8.67227 14.6885 8.94951 15.0542 9.31515C15.4551 9.7158 15.7487 10.1833 15.9356 10.6821C16.1287 11.1973 16.2065 11.7483 16.1692 12.2951C16.1491 12.5967 15.8882 12.8249 15.5866 12.8048C15.2849 12.7847 15.057 12.5238 15.0771 12.2222C15.1035 11.8347 15.0467 11.4404 14.9072 11.0676C14.7741 10.7123 14.5643 10.3782 14.2776 10.0918C14.0121 9.82629 13.709 9.62712 13.3879 9.49395C13.0555 9.35647 12.6973 9.28731 12.3363 9.28731ZM12.3363 6.81624C12.0332 6.81624 11.7873 6.57057 11.7873 6.26721C11.7873 5.96414 12.0332 5.71818 12.3363 5.71818C13.1562 5.71818 13.9799 5.8789 14.7563 6.20062C15.5022 6.50972 16.1993 6.96548 16.8014 7.5676C17.4351 8.20101 17.9061 8.93889 18.2149 9.72757C18.5341 10.5435 18.677 11.414 18.6434 12.2799C18.6316 12.5815 18.3776 12.8165 18.076 12.8048C17.7744 12.793 17.5396 12.539 17.5511 12.2374C17.5792 11.5239 17.4604 10.8044 17.1958 10.1279C16.9423 9.48046 16.552 8.87144 16.0248 8.34423C15.5228 7.84226 14.9468 7.46428 14.3344 7.21058C13.6998 6.94768 13.0196 6.81624 12.3363 6.81624Z" fill="#4F9C24"/>
</g>
</svg>
