<svg width="24" height="24" viewBox="0 0 24 24" fill="none" xmlns="http://www.w3.org/2000/svg">
<mask id="mask0_1518_4020" style="mask-type:alpha" maskUnits="userSpaceOnUse" x="0" y="0" width="24" height="24">
<rect width="24" height="24" fill="#D9D9D9"/>
</mask>
<g mask="url(#mask0_1518_4020)">
<mask id="mask1_1518_4020" style="mask-type:luminance" maskUnits="userSpaceOnUse" x="3" y="3" width="18" height="18">
<path fill-rule="evenodd" clip-rule="evenodd" d="M7.09202 3.00884C6.6906 3.02312 6.17323 3.05452 5.93807 3.10198C5.57912 3.17447 5.24013 3.28437 4.95822 3.42805C4.627 3.59685 4.33015 3.81222 4.07382 4.06815C3.81691 4.32456 3.60068 4.6217 3.4312 4.95341C3.28792 5.2338 3.17808 5.57072 3.10528 5.92765C3.05686 6.16517 3.02484 6.68639 3.01032 7.09041C3.00444 7.25554 3.00142 7.46924 3.00142 7.5678L3 16.4308C3 16.5289 3.00299 16.7427 3.00885 16.908C3.02311 17.3094 3.05452 17.8268 3.10201 18.0619C3.17447 18.4209 3.2844 18.7599 3.42805 19.0418C3.59689 19.373 3.81222 19.6698 4.06815 19.9262C4.32457 20.1831 4.62173 20.3993 4.95341 20.5688C5.23384 20.7121 5.57076 20.8219 5.92766 20.8947C6.16518 20.9431 6.68644 20.9752 7.09045 20.9896C7.25552 20.9956 7.46926 20.9986 7.56782 20.9986L16.4308 21C16.529 21 16.7428 20.997 16.908 20.9912C17.3095 20.9769 17.8269 20.9455 18.062 20.898C18.4209 20.8255 18.76 20.7156 19.0418 20.5719C19.3731 20.4031 19.6699 20.1877 19.9262 19.9319C20.1831 19.6754 20.3994 19.3783 20.5689 19.0466C20.7121 18.7662 20.822 18.4293 20.8948 18.0724C20.9432 17.8348 20.9752 17.3135 20.9897 16.9096C20.9957 16.7445 20.9986 16.5308 20.9986 16.4322L21.0001 7.56922C21.0001 7.47103 20.9971 7.25727 20.9912 7.09198C20.9769 6.69059 20.9455 6.17322 20.8981 5.93806C20.8256 5.57911 20.7157 5.24012 20.572 4.95822C20.4032 4.62697 20.1878 4.33014 19.9319 4.07379C19.6755 3.81694 19.3783 3.60068 19.0466 3.4312C18.7662 3.28792 18.4293 3.17805 18.0724 3.10528C17.8349 3.05686 17.3136 3.02484 16.9096 3.01036C16.7445 3.00441 16.5308 3.00142 16.4322 3.00142L7.56924 3C7.47105 3 7.25728 3.00296 7.09202 3.00884Z" fill="white"/>
</mask>
<g mask="url(#mask1_1518_4020)">
<path d="M7.09202 3.00884C6.6906 3.02312 6.17323 3.05452 5.93807 3.10198C5.57912 3.17447 5.24013 3.28437 4.95822 3.42805C4.627 3.59685 4.33015 3.81222 4.07382 4.06815C3.81691 4.32456 3.60068 4.6217 3.4312 4.95341C3.28792 5.2338 3.17808 5.57072 3.10528 5.92765C3.05686 6.16517 3.02484 6.68639 3.01032 7.09041C3.00444 7.25554 3.00142 7.46924 3.00142 7.5678L3 16.4308C3 16.5289 3.00299 16.7427 3.00885 16.908C3.02311 17.3094 3.05452 17.8268 3.10201 18.0619C3.17447 18.4209 3.2844 18.7599 3.42805 19.0418C3.59689 19.373 3.81222 19.6698 4.06815 19.9262C4.32457 20.1831 4.62173 20.3993 4.95341 20.5688C5.23384 20.7121 5.57076 20.8219 5.92766 20.8947C6.16518 20.9431 6.68644 20.9752 7.09045 20.9896C7.25552 20.9956 7.46926 20.9986 7.56782 20.9986L16.4308 21C16.529 21 16.7428 20.997 16.908 20.9912C17.3095 20.9769 17.8269 20.9455 18.062 20.898C18.4209 20.8255 18.76 20.7156 19.0418 20.5719C19.3731 20.4031 19.6699 20.1877 19.9262 19.9319C20.1831 19.6754 20.3994 19.3783 20.5689 19.0466C20.7121 18.7662 20.822 18.4293 20.8948 18.0724C20.9432 17.8348 20.9752 17.3135 20.9897 16.9096C20.9957 16.7445 20.9986 16.5308 20.9986 16.4322L21.0001 7.56922C21.0001 7.47103 20.9971 7.25727 20.9912 7.09198C20.9769 6.69059 20.9455 6.17322 20.8981 5.93806C20.8256 5.57911 20.7157 5.24012 20.572 4.95822C20.4032 4.62697 20.1878 4.33014 19.9319 4.07379C19.6755 3.81694 19.3783 3.60068 19.0466 3.4312C18.7662 3.28792 18.4293 3.17805 18.0724 3.10528C17.8349 3.05686 17.3136 3.02484 16.9096 3.01036C16.7445 3.00441 16.5308 3.00142 16.4322 3.00142L7.56924 3C7.47105 3 7.25728 3.00296 7.09202 3.00884Z" fill="url(#paint0_linear_1518_4020)"/>
<path fill-rule="evenodd" clip-rule="evenodd" d="M15.1203 13.1847C14.96 13.1045 14.1718 12.7168 14.0248 12.6633C13.8779 12.6098 13.771 12.5831 13.6641 12.7435C13.5573 12.904 13.25 13.2649 13.1565 13.3719C13.063 13.4789 12.9695 13.4923 12.8091 13.412C12.6488 13.3318 12.1322 13.1626 11.5199 12.6165C11.0433 12.1916 10.7215 11.6667 10.628 11.5063C10.5345 11.3458 10.618 11.2591 10.6983 11.1792C10.7704 11.1074 10.8586 10.992 10.9388 10.8984C11.0189 10.8048 11.0457 10.7379 11.0991 10.631C11.1525 10.524 11.1258 10.4304 11.0857 10.3502C11.0457 10.27 10.725 9.48113 10.5914 9.16023C10.4613 8.84772 10.3291 8.89001 10.2307 8.88511C10.1373 8.88045 10.0303 8.87947 9.92346 8.87947C9.81658 8.87947 9.64291 8.91959 9.49593 9.08001C9.34898 9.24046 8.93482 9.62823 8.93482 10.4171C8.93482 11.2059 9.5093 11.968 9.58947 12.075C9.66963 12.182 10.72 13.8008 12.3282 14.495C12.7107 14.6601 13.0093 14.7587 13.2422 14.8326C13.6262 14.9546 13.9757 14.9374 14.252 14.8961C14.56 14.8501 15.2005 14.5084 15.3341 14.134C15.4677 13.7597 15.4677 13.4388 15.4276 13.3719C15.3875 13.3051 15.2807 13.2649 15.1203 13.1847ZM12.195 17.1775H12.1928C11.2359 17.1772 10.2973 16.9202 9.47851 16.4344L9.28376 16.3189L7.26535 16.8482L7.80411 14.8809L7.67729 14.6792C7.14346 13.8304 6.86152 12.8493 6.86192 11.8419C6.86309 8.9025 9.25547 6.51105 12.1971 6.51105C13.6215 6.51161 14.9605 7.06688 15.9674 8.07456C16.9743 9.08227 17.5285 10.4217 17.5279 11.8463C17.5267 14.7859 15.1344 17.1775 12.195 17.1775ZM16.734 7.30885C15.5227 6.09644 13.9116 5.42842 12.1952 5.42775C8.65867 5.42775 5.78033 8.30497 5.77891 11.8416C5.77845 12.972 6.07388 14.0756 6.63536 15.0482L5.7251 18.3721L9.12648 17.4802C10.0636 17.9911 11.1188 18.2604 12.1927 18.2609H12.1953H12.1953C15.7315 18.2609 18.6101 15.3833 18.6116 11.8467C18.6122 10.1328 17.9455 8.52123 16.734 7.30885Z" fill="white"/>
</g>
</g>
<defs>
<linearGradient id="paint0_linear_1518_4020" x1="2.99998" y1="21" x2="2.99998" y2="2.99998" gradientUnits="userSpaceOnUse">
<stop stop-color="#25CF43"/>
<stop offset="1" stop-color="#61FD7D"/>
</linearGradient>
</defs>
</svg>
