<svg width="24" height="24" viewBox="0 0 24 24" fill="none" xmlns="http://www.w3.org/2000/svg">
<path d="M5 12C2.79 12 1 13.79 1 16C1 16.75 1.21 17.46 1.58 18.06C2.27 19.22 3.54 20 5 20C6.46 20 7.73 19.22 8.42 18.06C8.79 17.46 9 16.75 9 16C9 13.79 7.21 12 5 12ZM6.49 16.73H5.75V17.51C5.75 17.92 5.41 18.26 5 18.26C4.59 18.26 4.25 17.92 4.25 17.51V16.73H3.51C3.1 16.73 2.76 16.39 2.76 15.98C2.76 15.57 3.1 15.23 3.51 15.23H4.25V14.52C4.25 14.11 4.59 13.77 5 13.77C5.41 13.77 5.75 14.11 5.75 14.52V15.23H6.49C6.9 15.23 7.24 15.57 7.24 15.98C7.24 16.39 6.91 16.73 6.49 16.73Z" fill="#50B21C"/>
<path d="M21.5 9.5H19C17.9 9.5 17 10.4 17 11.5C17 12.6 17.9 13.5 19 13.5H21.5C21.78 13.5 22 13.28 22 13V10C22 9.72 21.78 9.5 21.5 9.5Z" fill="#88CF62"/>
<path d="M21.8694 15.66C21.2594 17.72 19.4994 19 17.0994 19H10.5994C10.2094 19 9.95938 18.57 10.1194 18.21C10.4194 17.51 10.6094 16.72 10.6094 16C10.6094 12.97 8.13938 10.5 5.10938 10.5C4.34938 10.5 3.60938 10.66 2.92938 10.96C2.55938 11.12 2.10938 10.87 2.10938 10.47V9C2.10938 6.28 3.74938 4.38 6.29938 4.06C6.54938 4.02 6.81937 4 7.09937 4H17.0994C17.3594 4 17.6094 4.01 17.8494 4.05C19.8694 4.28 21.3294 5.51 21.8694 7.34C21.9694 7.67 21.7294 8 21.3894 8H19.0994C16.9294 8 15.2094 9.98 15.6794 12.23C16.0094 13.87 17.5294 15 19.1994 15H21.3894C21.7394 15 21.9694 15.34 21.8694 15.66Z" fill="#BDEAA5"/>
</svg>
