<svg width="160" height="100" viewBox="0 0 160 100" fill="none" xmlns="http://www.w3.org/2000/svg">
<rect x="11.8516" y="11.9404" width="136.296" height="76.1191" rx="3.53268" fill="#C2DBF2"/>
<rect x="23.7041" y="23.8804" width="38.5185" height="38.8058" rx="1.76634" fill="white"/>
<rect x="74.0742" y="23.8804" width="47.4074" height="5.97012" fill="white"/>
<rect x="74.0742" y="43.2832" width="62.2222" height="5.97012" fill="white"/>
<rect x="74.0742" y="55.2241" width="62.2222" height="2.98506" fill="white"/>
<rect x="74.0742" y="64.1787" width="62.2222" height="2.98506" fill="white"/>
<rect x="74.0742" y="73.1338" width="62.2222" height="2.98506" fill="white"/>
<rect x="23.7041" y="73.1338" width="38.5185" height="2.98506" fill="white"/>
<rect y="0.000244141" width="3.36472" height="15.2542" rx="1.68236" fill="#93BDE3"/>
<rect y="3.38989" width="3.38982" height="15.1412" rx="1.69491" transform="rotate(-90 0 3.38989)" fill="#93BDE3"/>
<rect width="3.36472" height="15.2542" rx="1.68236" transform="matrix(1 0 0 -1 0 100)" fill="#93BDE3"/>
<rect width="3.38982" height="15.1412" rx="1.69491" transform="matrix(-4.55536e-08 1 1 4.19437e-08 0 96.6101)" fill="#93BDE3"/>
<rect width="3.36472" height="15.2542" rx="1.68236" transform="matrix(-1 0 0 1 159.823 0.00012207)" fill="#93BDE3"/>
<rect width="3.38982" height="15.1412" rx="1.69491" transform="matrix(4.55536e-08 -1 -1 -4.19437e-08 159.823 3.38977)" fill="#93BDE3"/>
<rect x="160" y="100" width="4.44444" height="14.9253" rx="2.22222" transform="rotate(180 160 100)" fill="#93BDE3"/>
<rect x="160" y="95.5222" width="4.47759" height="14.8148" rx="2.2388" transform="rotate(90 160 95.5222)" fill="#93BDE3"/>
<path fill-rule="evenodd" clip-rule="evenodd" d="M38.2063 46.7394C33.7484 46.7394 30.1345 50.3892 30.1345 54.8915C30.1345 57.5929 32.3028 59.7828 34.9776 59.7828H51.1211C53.7958 59.7828 55.9641 57.5929 55.9641 54.8915C55.9641 50.3892 52.3503 46.7394 47.8924 46.7394H38.2063Z" fill="#C5E0F8"/>
<path fill-rule="evenodd" clip-rule="evenodd" d="M43.0493 27.1742C38.5914 27.1742 34.9775 30.824 34.9775 35.3263C34.9775 39.8287 38.5914 43.4785 43.0493 43.4785C47.5072 43.4785 51.121 39.8287 51.121 35.3263C51.121 30.824 47.5072 27.1742 43.0493 27.1742Z" fill="#C5E0F8"/>
<rect y="0.000244141" width="160" height="99.9997" rx="1.50661" fill="#3C73A4" fill-opacity="0.1"/>
<path d="M96.6862 50.0002C96.6862 59.1962 89.3069 66.6382 80.2197 66.6382C71.1326 66.6382 63.7533 59.1962 63.7533 50.0002C63.7533 40.8042 71.1326 33.3622 80.2197 33.3622C89.3069 33.3622 96.6862 40.8042 96.6862 50.0002Z" fill="#5CC23C" stroke="white" stroke-width="1.50661"/>
<path d="M80.2197 54.9817C81.3408 54.9817 82.2937 54.5854 83.0785 53.7929C83.8632 53.0003 84.2556 52.0379 84.2556 50.9056C84.2556 49.7734 83.8632 48.811 83.0785 48.0184C82.2937 47.2258 81.3408 46.8295 80.2197 46.8295C79.0986 46.8295 78.1457 47.2258 77.361 48.0184C76.5762 48.811 76.1838 49.7734 76.1838 50.9056C76.1838 52.0379 76.5762 53.0003 77.361 53.7929C78.1457 54.5854 79.0986 54.9817 80.2197 54.9817ZM80.2197 53.1701C79.5919 53.1701 79.0613 52.9512 78.6278 52.5134C78.1943 52.0756 77.9776 51.5397 77.9776 50.9056C77.9776 50.2716 78.1943 49.7356 78.6278 49.2978C79.0613 48.86 79.5919 48.6411 80.2197 48.6411C80.8475 48.6411 81.3782 48.86 81.8116 49.2978C82.2451 49.7356 82.4619 50.2716 82.4619 50.9056C82.4619 51.5397 82.2451 52.0756 81.8116 52.5134C81.3782 52.9512 80.8475 53.1701 80.2197 53.1701ZM73.0448 58.152C72.5515 58.152 72.1293 57.9746 71.778 57.6198C71.4267 57.2651 71.2511 56.8386 71.2511 56.3404V45.4708C71.2511 44.9727 71.4267 44.5462 71.778 44.1914C72.1293 43.8366 72.5515 43.6593 73.0448 43.6593H75.8699L76.991 42.4364C77.1554 42.2553 77.3535 42.1118 77.5852 42.0062C77.8169 41.9005 78.0598 41.8477 78.3139 41.8477H82.1255C82.3796 41.8477 82.6225 41.9005 82.8542 42.0062C83.0859 42.1118 83.284 42.2553 83.4484 42.4364L84.5695 43.6593H87.3946C87.8879 43.6593 88.3101 43.8366 88.6614 44.1914C89.0127 44.5462 89.1883 44.9727 89.1883 45.4708V56.3404C89.1883 56.8386 89.0127 57.2651 88.6614 57.6198C88.3101 57.9746 87.8879 58.152 87.3946 58.152H73.0448Z" fill="white"/>
</svg>
