<svg width="160" height="100" viewBox="0 0 160 100" fill="none" xmlns="http://www.w3.org/2000/svg">
<rect x="11.8516" y="11.9404" width="136.296" height="76.1193" rx="3.53268" fill="#C2DBF2"/>
<rect x="21.5244" y="23.1885" width="62.2222" height="5.97014" fill="white"/>
<rect x="21.5244" y="35.1289" width="62.2222" height="2.98507" fill="white"/>
<rect x="21.5244" y="44.2031" width="52.3767" height="2.89855" fill="white"/>
<rect width="3.36472" height="15.2542" rx="1.68236" fill="#93BDE3"/>
<rect y="3.38965" width="3.38982" height="15.1412" rx="1.69491" transform="rotate(-90 0 3.38965)" fill="#93BDE3"/>
<rect width="3.36472" height="15.2542" rx="1.68236" transform="matrix(1 0 0 -1 0 100)" fill="#93BDE3"/>
<rect width="3.38982" height="15.1412" rx="1.69491" transform="matrix(-4.33877e-08 1 1 4.40375e-08 0 96.6099)" fill="#93BDE3"/>
<rect width="3.36472" height="15.2542" rx="1.68236" transform="matrix(-1 0 0 1 159.823 0)" fill="#93BDE3"/>
<rect width="3.38982" height="15.1412" rx="1.69491" transform="matrix(4.33877e-08 -1 -1 -4.40375e-08 159.823 3.38965)" fill="#93BDE3"/>
<rect x="160" y="100" width="4.44444" height="14.9254" rx="2.22222" transform="rotate(180 160 100)" fill="#93BDE3"/>
<rect x="160" y="95.522" width="4.47761" height="14.8148" rx="2.2388" transform="rotate(90 160 95.522)" fill="#93BDE3"/>
<rect x="12.1973" y="60.145" width="135.605" height="16.6667" fill="white" fill-opacity="0.8"/>
<rect width="160" height="100" rx="1.50661" fill="#3C73A4" fill-opacity="0.1"/>
<path d="M96.8248 50.0002C96.8248 59.1962 89.4455 66.6382 80.3584 66.6382C71.2713 66.6382 63.892 59.1962 63.892 50.0002C63.892 40.8042 71.2713 33.3622 80.3584 33.3622C89.4455 33.3622 96.8248 40.8042 96.8248 50.0002Z" fill="#5CC23C" stroke="white" stroke-width="1.50661"/>
<path d="M80.3583 54.9817C81.4794 54.9817 82.4323 54.5854 83.2171 53.7929C84.0018 53.0003 84.3942 52.0379 84.3942 50.9056C84.3942 49.7734 84.0018 48.811 83.2171 48.0184C82.4323 47.2258 81.4794 46.8295 80.3583 46.8295C79.2372 46.8295 78.2843 47.2258 77.4996 48.0184C76.7148 48.811 76.3224 49.7734 76.3224 50.9056C76.3224 52.0379 76.7148 53.0003 77.4996 53.7929C78.2843 54.5854 79.2372 54.9817 80.3583 54.9817ZM80.3583 53.1701C79.7305 53.1701 79.1999 52.9512 78.7664 52.5134C78.3329 52.0756 78.1162 51.5397 78.1162 50.9056C78.1162 50.2716 78.3329 49.7356 78.7664 49.2978C79.1999 48.86 79.7305 48.6411 80.3583 48.6411C80.9861 48.6411 81.5168 48.86 81.9502 49.2978C82.3837 49.7356 82.6005 50.2716 82.6005 50.9056C82.6005 51.5397 82.3837 52.0756 81.9502 52.5134C81.5168 52.9512 80.9861 53.1701 80.3583 53.1701ZM73.1834 58.152C72.6902 58.152 72.2679 57.9746 71.9166 57.6198C71.5653 57.2651 71.3897 56.8386 71.3897 56.3404V45.4708C71.3897 44.9727 71.5653 44.5462 71.9166 44.1914C72.2679 43.8366 72.6902 43.6593 73.1834 43.6593H76.0085L77.1296 42.4364C77.294 42.2553 77.4921 42.1118 77.7238 42.0062C77.9555 41.9005 78.1984 41.8477 78.4525 41.8477H82.2641C82.5183 41.8477 82.7612 41.9005 82.9928 42.0062C83.2245 42.1118 83.4226 42.2553 83.587 42.4364L84.7081 43.6593H87.5332C88.0265 43.6593 88.4488 43.8366 88.8 44.1914C89.1513 44.5462 89.3269 44.9727 89.3269 45.4708V56.3404C89.3269 56.8386 89.1513 57.2651 88.8 57.6198C88.4488 57.9746 88.0265 58.152 87.5332 58.152H73.1834Z" fill="white"/>
<path d="M110.732 34.6855C110.62 34.605 110.553 34.5044 110.529 34.3836C110.505 34.2628 110.541 34.138 110.636 34.0092C111.625 32.6404 112.864 31.5776 114.355 30.8208C115.846 30.0639 117.436 29.6855 119.127 29.6855C120.817 29.6855 122.411 30.0519 123.91 30.7845C125.409 31.5172 126.66 32.576 127.665 33.9609C127.76 34.1058 127.792 34.2346 127.76 34.3473C127.728 34.4601 127.665 34.5567 127.569 34.6372C127.473 34.7177 127.362 34.7539 127.234 34.7459C127.107 34.7378 126.995 34.6694 126.899 34.5406C126.022 33.2845 124.894 32.3224 123.515 31.6541C122.136 30.9858 120.673 30.6517 119.127 30.6517C117.58 30.6517 116.129 30.9858 114.774 31.6541C113.419 32.3224 112.294 33.2845 111.402 34.5406C111.306 34.6855 111.194 34.766 111.067 34.7821C110.939 34.7982 110.828 34.766 110.732 34.6855ZM121.829 46.5937C120.171 46.175 118.816 45.3417 117.763 44.0937C116.711 42.8457 116.185 41.32 116.185 39.5164C116.185 38.7113 116.472 38.0349 117.046 37.4874C117.62 36.9399 118.313 36.6662 119.127 36.6662C119.94 36.6662 120.633 36.9399 121.207 37.4874C121.781 38.0349 122.068 38.7113 122.068 39.5164C122.068 40.0478 122.268 40.4947 122.666 40.857C123.065 41.2193 123.535 41.4005 124.077 41.4005C124.619 41.4005 125.082 41.2193 125.464 40.857C125.847 40.4947 126.038 40.0478 126.038 39.5164C126.038 37.6485 125.361 36.0784 124.005 34.8063C122.65 33.5341 121.032 32.8981 119.15 32.8981C117.269 32.8981 115.651 33.5341 114.295 34.8063C112.94 36.0784 112.263 37.6404 112.263 39.4923C112.263 39.8787 112.298 40.3618 112.37 40.9415C112.442 41.5213 112.613 42.1976 112.884 42.9705C112.932 43.1155 112.928 43.2443 112.872 43.357C112.817 43.4697 112.725 43.5502 112.597 43.5986C112.47 43.6469 112.346 43.6428 112.227 43.5865C112.107 43.5301 112.023 43.4375 111.976 43.3087C111.736 42.6807 111.565 42.0567 111.461 41.4367C111.358 40.8168 111.306 40.1767 111.306 39.5164C111.306 37.3747 112.075 35.5792 113.614 34.13C115.152 32.6807 116.99 31.956 119.127 31.956C121.279 31.956 123.129 32.6807 124.675 34.13C126.222 35.5792 126.995 37.3747 126.995 39.5164C126.995 40.3216 126.712 40.9939 126.146 41.5333C125.58 42.0728 124.89 42.3425 124.077 42.3425C123.264 42.3425 122.567 42.0728 121.985 41.5333C121.403 40.9939 121.112 40.3216 121.112 39.5164C121.112 38.985 120.916 38.5382 120.526 38.1758C120.135 37.8135 119.669 37.6324 119.127 37.6324C118.584 37.6324 118.118 37.8135 117.727 38.1758C117.337 38.5382 117.142 38.985 117.142 39.5164C117.142 41.0784 117.6 42.3828 118.517 43.4295C119.433 44.4762 120.617 45.2089 122.068 45.6275C122.212 45.6758 122.307 45.7564 122.355 45.8691C122.403 45.9818 122.411 46.1026 122.379 46.2314C122.347 46.3441 122.284 46.4407 122.188 46.5213C122.092 46.6018 121.973 46.6259 121.829 46.5937ZM113.841 29.6372C113.714 29.7177 113.586 29.7378 113.458 29.6976C113.331 29.6573 113.235 29.5728 113.171 29.444C113.108 29.3151 113.092 29.1984 113.124 29.0937C113.155 28.9891 113.235 28.8965 113.363 28.8159C114.256 28.3329 115.188 27.9625 116.161 27.7048C117.134 27.4472 118.122 27.3184 119.127 27.3184C120.147 27.3184 121.144 27.4432 122.116 27.6928C123.089 27.9424 124.029 28.3006 124.938 28.7676C125.082 28.8482 125.165 28.9448 125.189 29.0575C125.213 29.1702 125.201 29.2829 125.153 29.3957C125.106 29.5084 125.026 29.5969 124.914 29.6614C124.803 29.7258 124.667 29.7177 124.508 29.6372C123.663 29.2024 122.79 28.8683 121.889 28.6348C120.988 28.4013 120.067 28.2845 119.127 28.2845C118.202 28.2845 117.293 28.3932 116.4 28.6106C115.507 28.828 114.654 29.1702 113.841 29.6372ZM116.663 46.2556C115.722 45.2572 115.001 44.2387 114.499 43.2C113.997 42.1614 113.745 40.9335 113.745 39.5164C113.745 38.0511 114.272 36.8151 115.324 35.8087C116.376 34.8023 117.644 34.299 119.127 34.299C120.609 34.299 121.885 34.8023 122.953 35.8087C124.021 36.8151 124.556 38.0511 124.556 39.5164C124.556 39.6614 124.512 39.7781 124.424 39.8667C124.336 39.9552 124.221 39.9995 124.077 39.9995C123.95 39.9995 123.838 39.9552 123.742 39.8667C123.647 39.7781 123.599 39.6614 123.599 39.5164C123.599 38.3087 123.156 37.2982 122.272 36.485C121.387 35.6718 120.338 35.2652 119.127 35.2652C117.915 35.2652 116.874 35.6718 116.005 36.485C115.137 37.2982 114.702 38.3087 114.702 39.5164C114.702 40.8208 114.925 41.9279 115.372 42.8377C115.818 43.7475 116.472 44.6614 117.333 45.5792C117.429 45.6758 117.476 45.7886 117.476 45.9174C117.476 46.0462 117.429 46.1589 117.333 46.2556C117.237 46.3522 117.126 46.4005 116.998 46.4005C116.87 46.4005 116.759 46.3522 116.663 46.2556ZM123.886 44.613C122.467 44.613 121.235 44.13 120.191 43.1638C119.146 42.1976 118.624 40.9818 118.624 39.5164C118.624 39.3876 118.668 39.2749 118.756 39.1783C118.844 39.0816 118.959 39.0333 119.103 39.0333C119.246 39.0333 119.362 39.0816 119.449 39.1783C119.537 39.2749 119.581 39.3876 119.581 39.5164C119.581 40.7242 120.011 41.7145 120.872 42.4874C121.733 43.2604 122.738 43.6469 123.886 43.6469C123.982 43.6469 124.117 43.6388 124.292 43.6227C124.468 43.6066 124.651 43.5825 124.843 43.5502C124.986 43.518 125.11 43.5382 125.213 43.6106C125.317 43.6831 125.385 43.7918 125.417 43.9367C125.448 44.0655 125.425 44.1783 125.345 44.2749C125.265 44.3715 125.161 44.4359 125.034 44.4681C124.747 44.5486 124.496 44.5929 124.281 44.601C124.065 44.609 123.934 44.613 123.886 44.613Z" fill="#8DAECC"/>
</svg>
