<svg width="40" height="40" viewBox="0 0 40 40" fill="none" xmlns="http://www.w3.org/2000/svg">
<path d="M19.9997 29.1667C22.083 29.1667 23.8538 28.4375 25.3122 26.9792C26.7705 25.5208 27.4997 23.75 27.4997 21.6667C27.4997 19.5833 26.7705 17.8125 25.3122 16.3542C23.8538 14.8958 22.083 14.1667 19.9997 14.1667C17.9163 14.1667 16.1455 14.8958 14.6872 16.3542C13.2288 17.8125 12.4997 19.5833 12.4997 21.6667C12.4997 23.75 13.2288 25.5208 14.6872 26.9792C16.1455 28.4375 17.9163 29.1667 19.9997 29.1667ZM19.9997 25.8333C18.833 25.8333 17.8469 25.4306 17.0413 24.625C16.2358 23.8194 15.833 22.8333 15.833 21.6667C15.833 20.5 16.2358 19.5139 17.0413 18.7083C17.8469 17.9028 18.833 17.5 19.9997 17.5C21.1663 17.5 22.1525 17.9028 22.958 18.7083C23.7636 19.5139 24.1663 20.5 24.1663 21.6667C24.1663 22.8333 23.7636 23.8194 22.958 24.625C22.1525 25.4306 21.1663 25.8333 19.9997 25.8333ZM6.66634 35C5.74967 35 4.96495 34.6736 4.31217 34.0208C3.6594 33.3681 3.33301 32.5833 3.33301 31.6667V11.6667C3.33301 10.75 3.6594 9.96528 4.31217 9.3125C4.96495 8.65972 5.74967 8.33333 6.66634 8.33333H11.9163L14.9997 5H24.9997L28.083 8.33333H33.333C34.2497 8.33333 35.0344 8.65972 35.6872 9.3125C36.34 9.96528 36.6663 10.75 36.6663 11.6667V31.6667C36.6663 32.5833 36.34 33.3681 35.6872 34.0208C35.0344 34.6736 34.2497 35 33.333 35H6.66634Z" fill="#BDBDBD"/>
</svg>
