<svg width="20" height="20" viewBox="0 0 20 20" fill="none" xmlns="http://www.w3.org/2000/svg">
<path d="M1.66602 7.49478C1.66602 4.73624 3.89647 2.5 6.66657 2.5H13.3321C16.0938 2.5 18.3327 4.74565 18.3327 7.49478V17.5H6.66657C3.90484 17.5 1.66602 15.2543 1.66602 12.5052V7.49478ZM16.666 15.8333V7.49478C16.666 5.66283 15.1701 4.16667 13.3321 4.16667H6.66657C4.81983 4.16667 3.33268 5.65382 3.33268 7.49478V12.5052C3.33268 14.3372 4.82862 15.8333 6.66657 15.8333H16.666ZM11.666 9.16667H13.3327V10.8333H11.666V9.16667ZM6.66602 9.16667H8.33268V10.8333H6.66602V9.16667Z" fill="#828282"/>
</svg>
