<svg width="16" height="16" viewBox="0 0 16 16" fill="none" xmlns="http://www.w3.org/2000/svg">
<path d="M2.66699 12.6666V6.66665C2.66699 6.45554 2.71421 6.25554 2.80866 6.06665C2.9031 5.87776 3.03366 5.7222 3.20033 5.59998L7.20033 2.59998C7.43366 2.4222 7.70033 2.33331 8.00033 2.33331C8.30033 2.33331 8.56699 2.4222 8.80033 2.59998L12.8003 5.59998C12.967 5.7222 13.0975 5.87776 13.192 6.06665C13.2864 6.25554 13.3337 6.45554 13.3337 6.66665V12.6666C13.3337 13.0333 13.2031 13.3472 12.942 13.6083C12.6809 13.8694 12.367 14 12.0003 14H10.0003C9.81144 14 9.6531 13.9361 9.52533 13.8083C9.39755 13.6805 9.33366 13.5222 9.33366 13.3333V9.99998C9.33366 9.81109 9.26977 9.65276 9.14199 9.52498C9.01421 9.3972 8.85588 9.33331 8.66699 9.33331H7.33366C7.14477 9.33331 6.98644 9.3972 6.85866 9.52498C6.73088 9.65276 6.66699 9.81109 6.66699 9.99998V13.3333C6.66699 13.5222 6.6031 13.6805 6.47533 13.8083C6.34755 13.9361 6.18921 14 6.00033 14H4.00033C3.63366 14 3.31977 13.8694 3.05866 13.6083C2.79755 13.3472 2.66699 13.0333 2.66699 12.6666Z" fill="#BDBDBD"/>
</svg>
