<svg width="24" height="24" viewBox="0 0 24 24" fill="none" xmlns="http://www.w3.org/2000/svg">
<rect x="7" y="8" width="10" height="9" fill="white"/>
<path d="M21.7091 8.76022C19.5382 8.76022 18.6507 7.26852 19.7301 5.43886C20.3538 4.37835 19.982 3.0265 18.8906 2.4205L16.8156 1.26676C15.8681 0.719026 14.6447 1.04534 14.081 1.96599L13.949 2.18742C12.8696 4.01708 11.0945 4.01708 10.003 2.18742L9.87106 1.96599C9.33133 1.04534 8.10795 0.719026 7.16042 1.26676L5.08546 2.4205C3.994 3.0265 3.62219 4.39 4.24588 5.45051C5.33733 7.26852 4.44978 8.76022 2.27886 8.76022C1.03148 8.76022 0 9.7508 0 10.9745V13.0255C0 14.2375 1.01949 15.2398 2.27886 15.2398C4.44978 15.2398 5.33733 16.7315 4.24588 18.5611C3.62219 19.6216 3.994 20.9735 5.08546 21.5795L7.16042 22.7332C8.10795 23.281 9.33133 22.9547 9.89505 22.034L10.027 21.8126C11.1064 19.9829 12.8816 19.9829 13.973 21.8126L14.1049 22.034C14.6687 22.9547 15.8921 23.281 16.8396 22.7332L18.9145 21.5795C20.006 20.9735 20.3778 19.61 19.7541 18.5611C18.6627 16.7315 19.5502 15.2398 21.7211 15.2398C22.9685 15.2398 24 14.2492 24 13.0255V10.9745C23.988 9.76245 22.9685 8.76022 21.7091 8.76022ZM11.994 15.7875C9.84708 15.7875 8.09595 14.086 8.09595 12C8.09595 9.91395 9.84708 8.21248 11.994 8.21248C14.1409 8.21248 15.8921 9.91395 15.8921 12C15.8921 14.086 14.1409 15.7875 11.994 15.7875Z" fill="url(#paint0_linear_2209_9359)"/>
<defs>
<linearGradient id="paint0_linear_2209_9359" x1="12" y1="1" x2="12" y2="23" gradientUnits="userSpaceOnUse">
<stop stop-color="#6584D7"/>
<stop offset="1" stop-color="#8398D8"/>
</linearGradient>
</defs>
</svg>
