<svg width="24" height="24" viewBox="0 0 24 24" fill="none" xmlns="http://www.w3.org/2000/svg">
<rect x="4" y="4" width="16" height="17" fill="white"/>
<path d="M16.6168 1H7.39419C3.38819 1 1 3.387 1 7.391V16.598C1 20.613 3.38819 23 7.39419 23H16.6058C20.6118 23 23 20.613 23 16.609V7.391C23.011 3.387 20.6228 1 16.6168 1ZM7.19609 18.765C7.19609 19.216 6.8219 19.59 6.37068 19.59C5.91945 19.59 5.54527 19.216 5.54527 18.765V16.488C5.54527 16.037 5.91945 15.663 6.37068 15.663C6.8219 15.663 7.19609 16.037 7.19609 16.488V18.765ZM12.8309 18.765C12.8309 19.216 12.4567 19.59 12.0055 19.59C11.5543 19.59 11.1801 19.216 11.1801 18.765V14.2C11.1801 13.749 11.5543 13.375 12.0055 13.375C12.4567 13.375 12.8309 13.749 12.8309 14.2V18.765ZM18.4657 18.765C18.4657 19.216 18.0915 19.59 17.6403 19.59C17.1891 19.59 16.8149 19.216 16.8149 18.765V11.923C16.8149 11.472 17.1891 11.098 17.6403 11.098C18.0915 11.098 18.4657 11.472 18.4657 11.923V18.765ZM18.4657 8.447C18.4657 8.898 18.0915 9.272 17.6403 9.272C17.1891 9.272 16.8149 8.898 16.8149 8.447V7.38C14.0085 10.262 10.4977 12.297 6.56877 13.276C6.50274 13.298 6.43671 13.298 6.37068 13.298C5.99649 13.298 5.66633 13.045 5.56728 12.671C5.45722 12.231 5.72135 11.78 6.17258 11.67C9.88142 10.746 13.1831 8.799 15.8024 6.049H14.4267C13.9755 6.049 13.6013 5.675 13.6013 5.224C13.6013 4.773 13.9755 4.399 14.4267 4.399H17.6513C17.6953 4.399 17.7283 4.421 17.7724 4.421C17.8274 4.432 17.8824 4.432 17.9374 4.454C17.9925 4.476 18.0365 4.509 18.0915 4.542C18.1245 4.564 18.1576 4.575 18.1906 4.597C18.2016 4.608 18.2016 4.619 18.2126 4.619C18.2566 4.663 18.2896 4.707 18.3226 4.751C18.3556 4.795 18.3887 4.828 18.3997 4.872C18.4217 4.916 18.4217 4.96 18.4327 5.015C18.4437 5.07 18.4657 5.125 18.4657 5.191C18.4657 5.202 18.4767 5.213 18.4767 5.224V8.447H18.4657Z" fill="url(#paint0_linear_2209_9364)"/>
<defs>
<linearGradient id="paint0_linear_2209_9364" x1="12" y1="1" x2="12" y2="23" gradientUnits="userSpaceOnUse">
<stop stop-color="#F04941"/>
<stop offset="1" stop-color="#FE6763"/>
</linearGradient>
</defs>
</svg>
