<svg width="22" height="26" viewBox="0 0 22 26" fill="none" xmlns="http://www.w3.org/2000/svg">
<path d="M13.3171 0H8.03256C7.30292 0 6.71143 0.58203 6.71143 1.3V2.6C6.71143 3.31797 7.30292 3.9 8.03256 3.9H13.3171C14.0468 3.9 14.6383 3.31797 14.6383 2.6V1.3C14.6383 0.58203 14.0468 0 13.3171 0Z" fill="#F56462"/>
<path d="M19.2622 1.30002H15.9594V2.60002C15.9594 3.28958 15.681 3.9509 15.1855 4.4385C14.6899 4.92609 14.0179 5.20002 13.3171 5.20002H8.03254C7.33177 5.20002 6.65969 4.92609 6.16417 4.4385C5.66865 3.9509 5.39027 3.28958 5.39027 2.60002V1.30002H2.08742C1.56184 1.30002 1.05778 1.50546 0.686141 1.87116C0.314499 2.23686 0.105713 2.73285 0.105713 3.25002V24.05C0.105713 24.5672 0.314499 25.0632 0.686141 25.4289C1.05778 25.7946 1.56184 26 2.08742 26H19.2622C19.7878 26 20.2919 25.7946 20.6635 25.4289C21.0351 25.0632 21.2439 24.5672 21.2439 24.05V3.25002C21.2439 2.73285 21.0351 2.23686 20.6635 1.87116C20.2919 1.50546 19.7878 1.30002 19.2622 1.30002Z" fill="url(#paint0_linear_2097_6873)"/>
<path fill-rule="evenodd" clip-rule="evenodd" d="M5.12731 7.09094C3.82191 7.09094 2.76367 8.14918 2.76367 9.45458V21.2728C2.76367 22.5782 3.82191 23.6364 5.12731 23.6364H16.3546C17.66 23.6364 18.7182 22.5782 18.7182 21.2728V9.45458C18.7182 8.14918 17.66 7.09094 16.3546 7.09094H5.12731ZM4.64164 10.6363C4.23371 10.6363 3.90301 10.967 3.90301 11.3749C3.90301 11.7829 4.23371 12.1136 4.64164 12.1136H16.8397C17.2476 12.1136 17.5783 11.7829 17.5783 11.3749C17.5783 10.967 17.2476 10.6363 16.8397 10.6363H4.64164ZM3.90301 15.2159C3.90301 14.808 4.23371 14.4773 4.64164 14.4773H14.5605C14.9684 14.4773 15.2991 14.808 15.2991 15.2159C15.2991 15.6238 14.9684 15.9545 14.5605 15.9545H4.64164C4.2337 15.9545 3.90301 15.6238 3.90301 15.2159ZM4.64164 18.3182C4.23371 18.3182 3.90301 18.6489 3.90301 19.0569C3.90301 19.4648 4.23371 19.7955 4.64164 19.7955H10.002C10.41 19.7955 10.7407 19.4648 10.7407 19.0569C10.7407 18.6489 10.41 18.3182 10.002 18.3182H4.64164Z" fill="white"/>
<defs>
<linearGradient id="paint0_linear_2097_6873" x1="10.6748" y1="1.30002" x2="10.6748" y2="26" gradientUnits="userSpaceOnUse">
<stop stop-color="#FFA952"/>
<stop offset="1" stop-color="#F56462"/>
</linearGradient>
</defs>
</svg>
