<svg width="23" height="26" viewBox="0 0 23 26" fill="none" xmlns="http://www.w3.org/2000/svg">
<rect x="2.39624" y="1.61774" width="17.0735" height="22.7647" fill="#34B4A0"/>
<rect x="5.81091" y="1.61774" width="13.6588" height="22.7647" fill="white"/>
<path d="M1.81771 2.26839V3.60986C0.813435 3.60986 0 4.41028 0 5.39849C0 6.3867 0.813435 7.18712 1.81771 7.18712H3.63543C3.88537 7.18712 4.08986 7.38834 4.08986 7.63428C4.08986 7.88022 3.88537 8.08144 3.63543 8.08144H1.81771V11.2117C0.813435 11.2117 0 12.0121 0 13.0003C0 13.9885 0.813435 14.7889 1.81771 14.7889H3.63543C3.88537 14.7889 4.08986 14.9902 4.08986 15.2361C4.08986 15.482 3.88537 15.6833 3.63543 15.6833H1.81771V18.8135C0.813435 18.8135 0 19.6139 0 20.6021C0 21.5904 0.813435 22.3908 1.81771 22.3908H3.63543C3.88537 22.3908 4.08986 22.592 4.08986 22.8379C4.08986 23.0839 3.88537 23.2851 3.63543 23.2851H1.81771V23.7322C1.81771 24.7205 2.63115 25.5209 3.63543 25.5209H5.45314V0.480042H3.63543C2.63115 0.480042 1.81771 1.28046 1.81771 2.26867V2.26839ZM1.81771 6.29266C1.31783 6.29266 0.908857 5.89024 0.908857 5.39835C0.908857 4.90646 1.31783 4.50403 1.81771 4.50403V6.29266ZM1.81771 13.8942C1.31783 13.8942 0.908857 13.4918 0.908857 12.9999C0.908857 12.508 1.31783 12.1056 1.81771 12.1056V13.8942ZM1.81771 21.4957C1.31783 21.4957 0.908857 21.0933 0.908857 20.6014C0.908857 20.1095 1.31783 19.7071 1.81771 19.7071V21.4957Z" fill="url(#paint0_linear_2075_6825)"/>
<path d="M14.9963 12.7764C14.9963 13.3722 14.0874 13.3722 14.0874 12.7764C14.0874 12.1805 14.9963 12.1805 14.9963 12.7764Z" fill="url(#paint1_linear_2075_6825)"/>
<path d="M14.5417 14.1177C12.1901 14.1177 10.2496 15.8862 10.0201 18.142H19.0622C18.8338 15.8861 16.8934 14.1177 14.5406 14.1177H14.5417Z" fill="url(#paint2_linear_2075_6825)"/>
<path d="M19.5404 19.0366H9.54293C9.29186 19.0366 9.0885 19.2367 9.0885 19.4838C9.0885 19.7308 9.29186 19.9309 9.54293 19.9309H19.5404C19.7914 19.9309 19.9948 19.7308 19.9948 19.4838C19.9948 19.2367 19.7914 19.0366 19.5404 19.0366Z" fill="url(#paint3_linear_2075_6825)"/>
<path d="M20.9035 0.479492H6.36182V25.5203H20.9035C21.9078 25.5203 22.7212 24.7199 22.7212 23.7317V2.26812C22.7212 1.27991 21.9078 0.479492 20.9035 0.479492ZM9.08839 3.60974H19.9947C20.2457 3.60974 20.4491 3.80984 20.4491 4.0569C20.4491 4.30395 20.2457 4.50406 19.9947 4.50406H9.08839C8.83732 4.50406 8.63396 4.30395 8.63396 4.0569C8.63396 3.80984 8.83732 3.60974 9.08839 3.60974ZM18.6312 6.73999C18.6312 6.98704 18.4279 7.18714 18.1768 7.18714H10.906C10.6549 7.18714 10.4515 6.98704 10.4515 6.73999C10.4515 6.49293 10.6549 6.29283 10.906 6.29283H18.1768C18.4279 6.29283 18.6312 6.49293 18.6312 6.73999ZM19.5401 20.8255H9.54267C8.7906 20.8255 8.17939 20.2241 8.17939 19.4841C8.17939 18.8949 8.57021 18.3986 9.10755 18.2186C9.27456 15.8386 11.0196 13.8835 13.3223 13.3635C13.2337 13.1858 13.1792 12.9879 13.1792 12.7766C13.1792 12.0366 13.7904 11.4352 14.5425 11.4352C15.2945 11.4352 15.9058 12.0366 15.9058 12.7766C15.9058 12.9879 15.8512 13.1858 15.7626 13.3635C18.0643 13.8834 19.8104 15.8385 19.9774 18.2186C20.5148 18.3986 20.9055 18.8949 20.9055 19.4841C20.9055 20.2241 20.2943 20.8255 19.5423 20.8255H19.5401Z" fill="url(#paint4_linear_2075_6825)"/>
<defs>
<linearGradient id="paint0_linear_2075_6825" x1="2.72657" y1="0.480042" x2="2.72657" y2="25.5209" gradientUnits="userSpaceOnUse">
<stop stop-color="#32D4B5"/>
<stop offset="1" stop-color="#79DFAA"/>
</linearGradient>
<linearGradient id="paint1_linear_2075_6825" x1="14.5418" y1="12.3295" x2="14.5418" y2="13.2232" gradientUnits="userSpaceOnUse">
<stop stop-color="#32D4B5"/>
<stop offset="1" stop-color="#79DFAA"/>
</linearGradient>
<linearGradient id="paint2_linear_2075_6825" x1="14.5412" y1="14.1177" x2="14.5412" y2="18.142" gradientUnits="userSpaceOnUse">
<stop stop-color="#32D4B5"/>
<stop offset="1" stop-color="#79DFAA"/>
</linearGradient>
<linearGradient id="paint3_linear_2075_6825" x1="14.5416" y1="19.0366" x2="14.5416" y2="19.9309" gradientUnits="userSpaceOnUse">
<stop stop-color="#32D4B5"/>
<stop offset="1" stop-color="#79DFAA"/>
</linearGradient>
<linearGradient id="paint4_linear_2075_6825" x1="14.5415" y1="0.479492" x2="14.5415" y2="25.5203" gradientUnits="userSpaceOnUse">
<stop stop-color="#32D4B5"/>
<stop offset="1" stop-color="#79DFAA"/>
</linearGradient>
</defs>
</svg>
