<svg width="24" height="24" viewBox="0 0 24 24" fill="none" xmlns="http://www.w3.org/2000/svg">
<path d="M6.74157 5.32632L10.0974 0.938158C10.3371 0.615351 10.6217 0.378289 10.9513 0.226974C11.2809 0.0756579 11.6255 0 11.985 0C12.3446 0 12.6891 0.0756579 13.0187 0.226974C13.3483 0.378289 13.633 0.615351 13.8727 0.938158L17.2285 5.32632L22.3221 7.05132C22.8414 7.21272 23.2509 7.51031 23.5506 7.94408C23.8502 8.37785 24 8.85702 24 9.38158C24 9.62368 23.965 9.86579 23.8951 10.1079C23.8252 10.35 23.7104 10.582 23.5506 10.8039L20.2547 15.525L20.3745 20.4882C20.3945 21.1943 20.1648 21.7895 19.6854 22.2737C19.206 22.7579 18.6467 23 18.0075 23C17.9675 23 17.7478 22.9697 17.3483 22.9092L11.985 21.3961L6.62172 22.9092C6.52185 22.9496 6.41198 22.9748 6.29213 22.9849C6.17228 22.995 6.06242 23 5.96255 23C5.32335 23 4.76404 22.7579 4.28464 22.2737C3.80524 21.7895 3.57553 21.1943 3.59551 20.4882L3.71536 15.4947L0.449438 10.8039C0.289638 10.582 0.174782 10.35 0.104869 10.1079C0.0349563 9.86579 0 9.62368 0 9.38158C0 8.87719 0.144819 8.40811 0.434457 7.97434C0.724095 7.54057 1.12859 7.23289 1.64794 7.05132L6.74157 5.32632Z" fill="#FFBE3A"/>
</svg>
