<svg width="24" height="24" viewBox="0 0 24 24" fill="none" xmlns="http://www.w3.org/2000/svg">
<path d="M22.9969 16.8C22.706 19.9412 20.3663 22 16.9719 22H6.06139C2.7155 22 0 19.3647 0 16.1176V7.88235C0 4.68235 1.98814 2.44706 5.07945 2.07059C5.39464 2.02353 5.72195 2 6.06139 2H16.9719C17.2871 2 17.5902 2.01176 17.8811 2.05882C20.7785 2.38824 22.7423 4.35294 22.9969 7.2C23.0333 7.54118 22.7423 7.82353 22.3908 7.82353H20.5118C19.348 7.82353 18.269 8.25882 17.4932 9.03529C16.5718 9.90588 16.1112 11.1294 16.2203 12.3529C16.4143 14.4941 18.3539 16.1765 20.6572 16.1765H22.3908C22.7423 16.1765 23.0333 16.4588 22.9969 16.8Z" fill="url(#paint0_linear_2209_9370)"/>
<path d="M24 10.9951V13.0049C24 13.5415 23.4853 13.9805 22.8302 14H20.5374C19.274 14 18.116 13.2293 18.0107 12.1756C17.9405 11.561 18.2212 10.9854 18.7125 10.5854C19.1454 10.2146 19.742 10 20.397 10H22.8302C23.4853 10.0195 24 10.4585 24 10.9951Z" fill="#2CA862"/>
<defs>
<linearGradient id="paint0_linear_2209_9370" x1="11.5" y1="2" x2="11.5" y2="22" gradientUnits="userSpaceOnUse">
<stop stop-color="#36C373"/>
<stop offset="1" stop-color="#49CF86"/>
</linearGradient>
</defs>
</svg>
