<svg width="26" height="26" viewBox="0 0 26 26" fill="none" xmlns="http://www.w3.org/2000/svg">
<rect x="8.27271" y="4.72726" width="8.27273" height="14.1818" fill="white"/>
<path d="M13.0463 24.7605L12.7523 21.2324H12.4582C9.67495 21.2324 7.31307 20.2621 5.37261 18.3217C3.43215 16.3812 2.46191 14.0193 2.46191 11.236C2.46191 8.45275 3.43215 6.09088 5.37261 4.15041C7.31307 2.20995 9.67495 1.23972 12.4582 1.23972C13.8499 1.23972 15.1484 1.49942 16.3539 2.01884C17.5593 2.53826 18.6177 3.25368 19.5292 4.16511C20.4406 5.07654 21.156 6.13498 21.6754 7.34042C22.1949 8.54586 22.4546 9.8444 22.4546 11.236C22.4546 12.7061 22.2145 14.1173 21.7343 15.4698C21.254 16.8222 20.5974 18.0767 19.7644 19.2331C18.9314 20.3895 17.9415 21.4382 16.7949 22.379C15.6482 23.3198 14.3987 24.1137 13.0463 24.7605ZM12.4288 17.6749C12.7621 17.6749 13.0463 17.5573 13.2815 17.322C13.5167 17.0868 13.6343 16.8026 13.6343 16.4694C13.6343 16.1362 13.5167 15.852 13.2815 15.6168C13.0463 15.3816 12.7621 15.264 12.4288 15.264C12.0956 15.264 11.8114 15.3816 11.5762 15.6168C11.341 15.852 11.2234 16.1362 11.2234 16.4694C11.2234 16.8026 11.341 17.0868 11.5762 17.322C11.8114 17.5573 12.0956 17.6749 12.4288 17.6749ZM11.5762 13.9409H13.3403C13.3403 13.3529 13.3991 12.9413 13.5167 12.7061C13.6343 12.4709 14.0067 12.0397 14.6339 11.4125C14.9867 11.0596 15.2807 10.6774 15.5159 10.2658C15.7512 9.8542 15.8688 9.41319 15.8688 8.94277C15.8688 7.94314 15.5306 7.19341 14.8544 6.6936C14.1782 6.19378 13.3795 5.94387 12.4582 5.94387C11.5958 5.94387 10.8706 6.18398 10.2826 6.6642C9.69455 7.14441 9.28294 7.72753 9.04773 8.41355L10.6942 9.06037C10.7922 8.72716 10.9784 8.39885 11.2528 8.07544C11.5272 7.75203 11.929 7.59033 12.4582 7.59033C12.9875 7.59033 13.3844 7.73733 13.649 8.03134C13.9136 8.32535 14.0459 8.64876 14.0459 9.00157C14.0459 9.33478 13.9479 9.63369 13.7519 9.8983C13.5559 10.1629 13.3207 10.4324 13.0463 10.7068C12.3602 11.2948 11.9437 11.7604 11.7967 12.1034C11.6497 12.4464 11.5762 13.0589 11.5762 13.9409Z" fill="url(#paint0_linear_2075_6835)"/>
<defs>
<linearGradient id="paint0_linear_2075_6835" x1="17.7272" y1="18.9091" x2="7.68171" y2="2.95459" gradientUnits="userSpaceOnUse">
<stop stop-color="#0E93F5"/>
<stop offset="0.59" stop-color="#45ABFE"/>
<stop offset="1" stop-color="#45ABFE"/>
</linearGradient>
</defs>
</svg>
