<svg width="28" height="17" viewBox="0 0 28 17" fill="none" xmlns="http://www.w3.org/2000/svg">
<rect x="1" y="2" width="26" height="13" rx="1" fill="#7957E3"/>
<path fill-rule="evenodd" clip-rule="evenodd" d="M0 1C0 0.447715 0.447715 0 1 0H27C27.5523 0 28 0.447715 28 1V16C28 16.5523 27.5523 17 27 17H1C0.447715 17 0 16.5523 0 16V1ZM6.9638 11.5739H14.6662C14.7279 11.5756 14.7888 11.5603 14.842 11.5296C14.8953 11.4989 14.9387 11.4541 14.9674 11.4003C14.996 11.3466 15.0087 11.2859 15.0041 11.2254C14.9994 11.1649 14.9776 11.1068 14.941 11.0579L13.8786 9.63835C13.8509 9.60058 13.8152 9.56913 13.774 9.54616C13.7328 9.52318 13.687 9.50922 13.6398 9.50521C13.5927 9.50121 13.5452 9.50726 13.5006 9.52295C13.456 9.53864 13.4154 9.56361 13.3815 9.59614L12.2898 10.6186L9.75545 7.23282C9.7239 7.19052 9.68238 7.15639 9.63447 7.13336C9.58656 7.11033 9.53368 7.09909 9.48038 7.1006C9.42708 7.10211 9.37495 7.11632 9.32846 7.14203C9.28197 7.16773 9.24252 7.20415 9.2135 7.24817L6.67918 11.0732C6.6465 11.1227 6.62818 11.1801 6.6262 11.2391C6.62422 11.2981 6.63865 11.3565 6.66795 11.4081C6.69724 11.4596 6.74028 11.5023 6.79242 11.5315C6.84456 11.5607 6.90382 11.5754 6.9638 11.5739ZM14.368 6.13754C14.368 6.76579 13.8504 7.27508 13.2119 7.27508C12.5735 7.27508 12.0559 6.76579 12.0559 6.13754C12.0559 5.50929 12.5735 5 13.2119 5C13.8504 5 14.368 5.50929 14.368 6.13754Z" fill="url(#paint0_linear_2077_6859)"/>
<rect x="14" y="5" width="11" height="1" rx="0.5" fill="#F5F1FB"/>
<rect x="14" y="8" width="11" height="1" rx="0.5" fill="#F5F1FB"/>
<rect x="14" y="11" width="7" height="1" rx="0.5" fill="#F5F1FB"/>
<defs>
<linearGradient id="paint0_linear_2077_6859" x1="27" y1="15" x2="1" y2="2" gradientUnits="userSpaceOnUse">
<stop stop-color="#8C69D0"/>
<stop offset="0.751073" stop-color="#BD94F1"/>
<stop offset="1" stop-color="#BD94F1"/>
</linearGradient>
</defs>
</svg>
