<svg width="24" height="24" viewBox="0 0 24 24" fill="none" xmlns="http://www.w3.org/2000/svg">
<path d="M3 21V19.4789H5V4.52113C5 4.09859 5.14583 3.73944 5.4375 3.44366C5.72917 3.14789 6.08333 3 6.5 3H17.5C17.9167 3 18.2708 3.14789 18.5625 3.44366C18.8542 3.73944 19 4.09859 19 4.52113V19.4789H21V21H3ZM15 19.4789H17.5V4.52113H13.15V4.1662C13.6833 4.2507 14.125 4.50845 14.475 4.93944C14.825 5.37042 15 5.85634 15 6.39718V19.4789ZM11.025 12.6338C11.225 12.6338 11.3958 12.5577 11.5375 12.4056C11.6792 12.2535 11.75 12.0676 11.75 11.8479C11.75 11.6451 11.6792 11.4718 11.5375 11.3282C11.3958 11.1845 11.2167 11.1127 11 11.1127C10.8 11.1127 10.625 11.1845 10.475 11.3282C10.325 11.4718 10.25 11.6535 10.25 11.8732C10.25 12.0761 10.325 12.2535 10.475 12.4056C10.625 12.5577 10.8083 12.6338 11.025 12.6338Z" fill="#828282"/>
</svg>
