<svg width="24" height="24" viewBox="0 0 24 24" fill="none" xmlns="http://www.w3.org/2000/svg">
<mask id="mask0_2207_9316" style="mask-type:alpha" maskUnits="userSpaceOnUse" x="0" y="0" width="24" height="24">
<rect width="24" height="24" fill="#D9D9D9"/>
</mask>
<g mask="url(#mask0_2207_9316)">
<path d="M8.30524 6.46741C8.41559 6.46741 8.52142 6.42357 8.59946 6.34554C8.67749 6.2675 8.72132 6.16167 8.72132 6.05132V3.41609C8.72132 3.30574 8.67749 3.1999 8.59946 3.12187C8.52142 3.04384 8.41559 3 8.30524 3C8.19488 3 8.08905 3.04384 8.01102 3.12187C7.93298 3.1999 7.88915 3.30574 7.88915 3.41609V6.03745C7.88729 6.09325 7.89667 6.14885 7.91675 6.20094C7.93682 6.25304 7.96718 6.30056 8.006 6.34067C8.04483 6.38079 8.09133 6.41269 8.14274 6.43446C8.19414 6.45623 8.24941 6.46744 8.30524 6.46741Z" fill="#E1E1E1"/>
<path d="M11.9999 6.46741C12.1103 6.46741 12.2161 6.42357 12.2942 6.34554C12.3722 6.2675 12.416 6.16167 12.416 6.05132V3.41609C12.416 3.30574 12.3722 3.1999 12.2942 3.12187C12.2161 3.04384 12.1103 3 11.9999 3C11.8896 3 11.7838 3.04384 11.7057 3.12187C11.6277 3.1999 11.5838 3.30574 11.5838 3.41609V6.03745C11.582 6.09325 11.5914 6.14885 11.6115 6.20094C11.6315 6.25304 11.6619 6.30056 11.7007 6.34067C11.7395 6.38079 11.786 6.41269 11.8374 6.43446C11.8888 6.45623 11.9441 6.46744 11.9999 6.46741Z" fill="#E1E1E1"/>
<path d="M18.1803 4.48959H16.8988V6.04299C16.9066 6.20576 16.8813 6.36843 16.8244 6.52113C16.7675 6.67384 16.6801 6.8134 16.5677 6.93136C16.4553 7.04932 16.3201 7.14323 16.1703 7.2074C16.0205 7.27156 15.8592 7.30465 15.6963 7.30465C15.5333 7.30465 15.372 7.27156 15.2222 7.2074C15.0724 7.14323 14.9372 7.04932 14.8248 6.93136C14.7124 6.8134 14.6251 6.67384 14.5681 6.52113C14.5112 6.36843 14.4859 6.20576 14.4938 6.04299V4.48959H13.2011V6.04299C13.2011 6.36155 13.0746 6.66705 12.8493 6.8923C12.6241 7.11756 12.3186 7.2441 12 7.2441C11.6814 7.2441 11.3759 7.11756 11.1507 6.8923C10.9254 6.66705 10.7989 6.36155 10.7989 6.04299V4.48959H9.50347V6.04299C9.51129 6.20576 9.48598 6.36843 9.42908 6.52113C9.37218 6.67384 9.28486 6.8134 9.17243 6.93136C9.06 7.04932 8.92479 7.14323 8.77499 7.2074C8.6252 7.27156 8.46393 7.30465 8.30097 7.30465C8.13801 7.30465 7.97675 7.27156 7.82695 7.2074C7.67715 7.14323 7.54194 7.04932 7.42951 6.93136C7.31708 6.8134 7.22977 6.67384 7.17286 6.52113C7.11596 6.36843 7.09066 6.20576 7.09848 6.04299V4.48959H5.81969C5.33708 4.48959 4.87424 4.68131 4.53298 5.02257C4.19172 5.36383 4 5.82668 4 6.30929V20.3148C4 20.7974 4.19172 21.2603 4.53298 21.6016C4.87424 21.9428 5.33708 22.1345 5.81969 22.1345H18.1803C18.4193 22.1345 18.6559 22.0875 18.8767 21.996C19.0974 21.9046 19.298 21.7705 19.467 21.6016C19.636 21.4326 19.77 21.232 19.8615 21.0112C19.9529 20.7904 20 20.5538 20 20.3148V6.30929C20 6.07032 19.9529 5.8337 19.8615 5.61292C19.77 5.39215 19.636 5.19154 19.467 5.02257C19.298 4.8536 19.0974 4.71956 18.8767 4.62811C18.6559 4.53666 18.4193 4.48959 18.1803 4.48959ZM16.7739 18.595H7.22608C7.11572 18.595 7.00989 18.5512 6.93186 18.4731C6.85382 18.3951 6.80999 18.2893 6.80999 18.1789C6.80999 18.0686 6.85382 17.9627 6.93186 17.8847C7.00989 17.8067 7.11572 17.7628 7.22608 17.7628H16.7739C16.8843 17.7628 16.9901 17.8067 17.0681 17.8847C17.1462 17.9627 17.19 18.0686 17.19 18.1789C17.19 18.2893 17.1462 18.3951 17.0681 18.4731C16.9901 18.5512 16.8843 18.595 16.7739 18.595ZM16.7739 15.1304H7.22608C7.11572 15.1304 7.00989 15.0865 6.93186 15.0085C6.85382 14.9305 6.80999 14.8246 6.80999 14.7143C6.80999 14.6039 6.85382 14.4981 6.93186 14.4201C7.00989 14.342 7.11572 14.2982 7.22608 14.2982H16.7739C16.8843 14.2982 16.9901 14.342 17.0681 14.4201C17.1462 14.4981 17.19 14.6039 17.19 14.7143C17.19 14.8246 17.1462 14.9305 17.0681 15.0085C16.9901 15.0865 16.8843 15.1304 16.7739 15.1304ZM16.7739 11.6685H7.22608C7.11572 11.6685 7.00989 11.6247 6.93186 11.5466C6.85382 11.4686 6.80999 11.3628 6.80999 11.2524C6.80999 11.1421 6.85382 11.0362 6.93186 10.9582C7.00989 10.8802 7.11572 10.8363 7.22608 10.8363H16.7739C16.8843 10.8363 16.9901 10.8802 17.0681 10.9582C17.1462 11.0362 17.19 11.1421 17.19 11.2524C17.19 11.3628 17.1462 11.4686 17.0681 11.5466C16.9901 11.6247 16.8843 11.6685 16.7739 11.6685Z" fill="#E1E1E1"/>
<path d="M15.6949 6.46741C15.8052 6.46741 15.9111 6.42357 15.9891 6.34554C16.0671 6.2675 16.111 6.16167 16.111 6.05132V3.41609C16.111 3.30574 16.0671 3.1999 15.9891 3.12187C15.9111 3.04384 15.8052 3 15.6949 3C15.5845 3 15.4787 3.04384 15.4007 3.12187C15.3226 3.1999 15.2788 3.30574 15.2788 3.41609V6.03745C15.2769 6.09325 15.2863 6.14885 15.3064 6.20094C15.3265 6.25304 15.3568 6.30056 15.3957 6.34067C15.4345 6.38079 15.481 6.41269 15.5324 6.43446C15.5838 6.45623 15.6391 6.46744 15.6949 6.46741Z" fill="#E1E1E1"/>
</g>
</svg>
