<svg width="16" height="16" viewBox="0 0 16 16" fill="none" xmlns="http://www.w3.org/2000/svg">
<path d="M10.8512 11.4854L10.6174 11.2517C10.5349 11.1692 10.4364 11.1279 10.3218 11.1279C10.2072 11.1279 10.1087 11.1692 10.0262 11.2517C9.9437 11.3342 9.90245 11.4304 9.90245 11.5404C9.90245 11.6504 9.9437 11.7467 10.0262 11.8292L10.5624 12.3654C10.6449 12.4479 10.7412 12.4892 10.8512 12.4892C10.9612 12.4892 11.0574 12.4479 11.1399 12.3654L12.4737 11.0592C12.5562 10.9767 12.5974 10.8781 12.5974 10.7636C12.5974 10.649 12.5562 10.5504 12.4737 10.4679C12.3912 10.3854 12.2926 10.3442 12.1781 10.3442C12.0635 10.3442 11.9649 10.3854 11.8824 10.4679L10.8512 11.4854ZM10.6999 6.46672C10.8558 6.46672 10.9864 6.41402 11.0918 6.3086C11.1972 6.20318 11.2499 6.07256 11.2499 5.91673C11.2499 5.7609 11.1972 5.63027 11.0918 5.52486C10.9864 5.41944 10.8558 5.36673 10.6999 5.36673H5.19998C5.04415 5.36673 4.91353 5.41944 4.80811 5.52486C4.7027 5.63027 4.64999 5.7609 4.64999 5.91673C4.64999 6.07256 4.7027 6.20318 4.80811 6.3086C4.91353 6.41402 5.04415 6.46672 5.19998 6.46672H10.6999ZM11.2499 14.1667C10.4891 14.1667 9.84057 13.8985 9.30433 13.3623C8.76808 12.8261 8.49996 12.1775 8.49996 11.4167C8.49996 10.6559 8.76808 10.0073 9.30433 9.47108C9.84057 8.93483 10.4891 8.66671 11.2499 8.66671C12.0108 8.66671 12.6593 8.93483 13.1955 9.47108C13.7318 10.0073 13.9999 10.6559 13.9999 11.4167C13.9999 12.1775 13.7318 12.8261 13.1955 13.3623C12.6593 13.8985 12.0108 14.1667 11.2499 14.1667ZM3 13.5479V4.26674C3 3.96424 3.10771 3.70529 3.32312 3.48987C3.53854 3.27446 3.79749 3.16675 4.09999 3.16675H11.7999C12.1024 3.16675 12.3614 3.27446 12.5768 3.48987C12.7922 3.70529 12.8999 3.96424 12.8999 4.26674V7.29172C12.8999 7.44755 12.8358 7.57359 12.7074 7.66984C12.5791 7.76609 12.437 7.7913 12.2812 7.74546C12.0245 7.6813 11.7633 7.63547 11.4974 7.60797C11.2316 7.58047 10.9658 7.56672 10.6999 7.56672H5.19998C5.04415 7.56672 4.91353 7.61942 4.80811 7.72484C4.7027 7.83026 4.64999 7.96088 4.64999 8.11671C4.64999 8.27254 4.7027 8.40317 4.80811 8.50858C4.91353 8.614 5.04415 8.66671 5.19998 8.66671H8.55496C8.39913 8.82254 8.25475 8.99212 8.12184 9.17545C7.98892 9.35879 7.87205 9.55587 7.77121 9.7667H5.19998C5.04415 9.7667 4.91353 9.81941 4.80811 9.92482C4.7027 10.0302 4.64999 10.1609 4.64999 10.3167C4.64999 10.4725 4.7027 10.6032 4.80811 10.7086C4.91353 10.814 5.04415 10.8667 5.19998 10.8667H7.44122C7.42288 10.9584 7.41143 11.0477 7.40684 11.1348C7.40226 11.2219 7.39997 11.3159 7.39997 11.4167C7.39997 11.655 7.42288 11.8888 7.46872 12.1179C7.51455 12.3471 7.57413 12.5763 7.64747 12.8054C7.6933 12.9063 7.67497 12.9865 7.59247 13.0461C7.50997 13.1056 7.43205 13.0988 7.35872 13.0254L7.31747 12.9842C7.26247 12.9292 7.1983 12.9017 7.12497 12.9017C7.05164 12.9017 6.98747 12.9292 6.93247 12.9842L6.49247 13.4242C6.43747 13.4792 6.37331 13.5067 6.29998 13.5067C6.22664 13.5067 6.16248 13.4792 6.10748 13.4242L5.66748 12.9842C5.61248 12.9292 5.54831 12.9017 5.47498 12.9017C5.40165 12.9017 5.33748 12.9292 5.28248 12.9842L4.84249 13.4242C4.78749 13.4792 4.72332 13.5067 4.64999 13.5067C4.57666 13.5067 4.51249 13.4792 4.45749 13.4242L4.01749 12.9842C3.96249 12.9292 3.89833 12.9017 3.82499 12.9017C3.75166 12.9017 3.68749 12.9292 3.6325 12.9842L3.1925 13.4242L3 13.5479Z" fill="#BDBDBD"/>
</svg>
