<svg width="24" height="24" viewBox="0 0 24 24" fill="none" xmlns="http://www.w3.org/2000/svg">
<mask id="mask0_2201_9184" style="mask-type:alpha" maskUnits="userSpaceOnUse" x="0" y="0" width="24" height="24">
<rect width="24" height="24" fill="#D9D9D9"/>
</mask>
<g mask="url(#mask0_2201_9184)">
<path d="M8.30499 6.46741C8.41535 6.46741 8.52118 6.42357 8.59921 6.34554C8.67724 6.2675 8.72108 6.16167 8.72108 6.05132V3.41609C8.72108 3.30574 8.67724 3.1999 8.59921 3.12187C8.52118 3.04384 8.41535 3 8.30499 3C8.19464 3 8.0888 3.04384 8.01077 3.12187C7.93274 3.1999 7.8889 3.30574 7.8889 3.41609V6.03745C7.88704 6.09325 7.89643 6.14885 7.9165 6.20094C7.93658 6.25304 7.96693 6.30056 8.00576 6.34067C8.04458 6.38079 8.09108 6.41269 8.14249 6.43446C8.1939 6.45623 8.24916 6.46744 8.30499 6.46741Z" fill="#828282"/>
<path d="M12.0003 6.46741C12.1107 6.46741 12.2165 6.42357 12.2945 6.34554C12.3726 6.2675 12.4164 6.16167 12.4164 6.05132V3.41609C12.4164 3.30574 12.3726 3.1999 12.2945 3.12187C12.2165 3.04384 12.1107 3 12.0003 3C11.89 3 11.7841 3.04384 11.7061 3.12187C11.6281 3.1999 11.5842 3.30574 11.5842 3.41609V6.03745C11.5824 6.09325 11.5917 6.14885 11.6118 6.20094C11.6319 6.25304 11.6622 6.30056 11.7011 6.34067C11.7399 6.38079 11.7864 6.41269 11.8378 6.43446C11.8892 6.45623 11.9445 6.46744 12.0003 6.46741Z" fill="#828282"/>
<path d="M18.1803 4.48962H16.8988V6.04302C16.9066 6.20579 16.8813 6.36846 16.8244 6.52116C16.7675 6.67387 16.6801 6.81343 16.5677 6.93139C16.4553 7.04935 16.3201 7.14326 16.1703 7.20743C16.0205 7.27159 15.8592 7.30468 15.6963 7.30468C15.5333 7.30468 15.372 7.27159 15.2222 7.20743C15.0724 7.14326 14.9372 7.04935 14.8248 6.93139C14.7124 6.81343 14.6251 6.67387 14.5681 6.52116C14.5112 6.36846 14.4859 6.20579 14.4938 6.04302V4.48962H13.2011V6.04302C13.2011 6.36158 13.0746 6.66708 12.8493 6.89233C12.6241 7.11759 12.3186 7.24413 12 7.24413C11.6814 7.24413 11.3759 7.11759 11.1507 6.89233C10.9254 6.66708 10.7989 6.36158 10.7989 6.04302V4.48962H9.50347V6.04302C9.51129 6.20579 9.48598 6.36846 9.42908 6.52116C9.37218 6.67387 9.28486 6.81343 9.17243 6.93139C9.06 7.04935 8.92479 7.14326 8.77499 7.20743C8.6252 7.27159 8.46393 7.30468 8.30097 7.30468C8.13801 7.30468 7.97675 7.27159 7.82695 7.20743C7.67715 7.14326 7.54194 7.04935 7.42951 6.93139C7.31708 6.81343 7.22977 6.67387 7.17286 6.52116C7.11596 6.36846 7.09066 6.20579 7.09848 6.04302V4.48962H5.81969C5.33708 4.48962 4.87424 4.68134 4.53298 5.0226C4.19172 5.36386 4 5.82671 4 6.30932V20.3149C4 20.7975 4.19172 21.2603 4.53298 21.6016C4.87424 21.9428 5.33708 22.1346 5.81969 22.1346H18.1803C18.4193 22.1346 18.6559 22.0875 18.8767 21.996C19.0974 21.9046 19.298 21.7706 19.467 21.6016C19.636 21.4326 19.77 21.232 19.8615 21.0112C19.9529 20.7905 20 20.5538 20 20.3149V6.30932C20 6.07035 19.9529 5.83373 19.8615 5.61295C19.77 5.39218 19.636 5.19157 19.467 5.0226C19.298 4.85363 19.0974 4.71959 18.8767 4.62814C18.6559 4.53669 18.4193 4.48962 18.1803 4.48962ZM16.7739 18.595H7.22608C7.11572 18.595 7.00989 18.5512 6.93186 18.4732C6.85382 18.3951 6.80999 18.2893 6.80999 18.1789C6.80999 18.0686 6.85382 17.9628 6.93186 17.8847C7.00989 17.8067 7.11572 17.7629 7.22608 17.7629H16.7739C16.8843 17.7629 16.9901 17.8067 17.0681 17.8847C17.1462 17.9628 17.19 18.0686 17.19 18.1789C17.19 18.2893 17.1462 18.3951 17.0681 18.4732C16.9901 18.5512 16.8843 18.595 16.7739 18.595ZM16.7739 15.1304H7.22608C7.11572 15.1304 7.00989 15.0866 6.93186 15.0085C6.85382 14.9305 6.80999 14.8247 6.80999 14.7143C6.80999 14.604 6.85382 14.4981 6.93186 14.4201C7.00989 14.3421 7.11572 14.2982 7.22608 14.2982H16.7739C16.8843 14.2982 16.9901 14.3421 17.0681 14.4201C17.1462 14.4981 17.19 14.604 17.19 14.7143C17.19 14.8247 17.1462 14.9305 17.0681 15.0085C16.9901 15.0866 16.8843 15.1304 16.7739 15.1304ZM16.7739 11.6685H7.22608C7.11572 11.6685 7.00989 11.6247 6.93186 11.5467C6.85382 11.4686 6.80999 11.3628 6.80999 11.2525C6.80999 11.1421 6.85382 11.0363 6.93186 10.9582C7.00989 10.8802 7.11572 10.8364 7.22608 10.8364H16.7739C16.8843 10.8364 16.9901 10.8802 17.0681 10.9582C17.1462 11.0363 17.19 11.1421 17.19 11.2525C17.19 11.3628 17.1462 11.4686 17.0681 11.5467C16.9901 11.6247 16.8843 11.6685 16.7739 11.6685Z" fill="#828282"/>
<path d="M15.6956 6.46741C15.806 6.46741 15.9118 6.42357 15.9898 6.34554C16.0679 6.2675 16.1117 6.16167 16.1117 6.05132V3.41609C16.1117 3.30574 16.0679 3.1999 15.9898 3.12187C15.9118 3.04384 15.806 3 15.6956 3C15.5853 3 15.4794 3.04384 15.4014 3.12187C15.3234 3.1999 15.2795 3.30574 15.2795 3.41609V6.03745C15.2777 6.09325 15.2871 6.14885 15.3071 6.20094C15.3272 6.25304 15.3576 6.30056 15.3964 6.34067C15.4352 6.38079 15.4817 6.41269 15.5331 6.43446C15.5845 6.45623 15.6398 6.46744 15.6956 6.46741Z" fill="#828282"/>
</g>
</svg>
