<svg width="16" height="16" viewBox="0 0 16 16" fill="none" xmlns="http://www.w3.org/2000/svg">
<path d="M4.23489 13C3.71202 13 3.26757 12.817 2.90156 12.451C2.53555 12.0849 2.35254 11.6405 2.35254 11.1176V6.09802C2.35254 5.92024 2.41267 5.77122 2.53293 5.65096C2.65319 5.5307 2.80221 5.47057 2.97999 5.47057H13.0192C13.197 5.47057 13.346 5.5307 13.4663 5.65096C13.5865 5.77122 13.6467 5.92024 13.6467 6.09802V11.1176C13.6467 11.6405 13.4637 12.0849 13.0976 12.451C12.7316 12.817 12.2872 13 11.7643 13H4.23489ZM6.11725 3.58821V2.96076C6.11725 2.78299 6.17738 2.63397 6.29764 2.51371C6.4179 2.39344 6.56692 2.33331 6.7447 2.33331H9.2545C9.43228 2.33331 9.5813 2.39344 9.70156 2.51371C9.82182 2.63397 9.88195 2.78299 9.88195 2.96076V3.58821H13.0192C13.197 3.58821 13.346 3.64835 13.4663 3.76861C13.5865 3.88887 13.6467 4.03789 13.6467 4.21567C13.6467 4.39344 13.5865 4.54246 13.4663 4.66272C13.346 4.78299 13.197 4.84312 13.0192 4.84312H2.97999C2.80221 4.84312 2.65319 4.78299 2.53293 4.66272C2.41267 4.54246 2.35254 4.39344 2.35254 4.21567C2.35254 4.03789 2.41267 3.88887 2.53293 3.76861C2.65319 3.64835 2.80221 3.58821 2.97999 3.58821H6.11725Z" fill="#BDBDBD"/>
</svg>
