<svg width="15" height="15" viewBox="0 0 15 15" fill="none" xmlns="http://www.w3.org/2000/svg">
<path d="M10 6.875C9.82292 6.875 9.67448 6.8151 9.55469 6.69531C9.4349 6.57552 9.375 6.42708 9.375 6.25C9.375 6.07292 9.4349 5.92448 9.55469 5.80469C9.67448 5.6849 9.82292 5.625 10 5.625C10.1771 5.625 10.3255 5.6849 10.4453 5.80469C10.5651 5.92448 10.625 6.07292 10.625 6.25C10.625 6.42708 10.5651 6.57552 10.4453 6.69531C10.3255 6.8151 10.1771 6.875 10 6.875ZM7.5 6.875C7.32292 6.875 7.17448 6.8151 7.05469 6.69531C6.9349 6.57552 6.875 6.42708 6.875 6.25C6.875 6.07292 6.9349 5.92448 7.05469 5.80469C7.17448 5.6849 7.32292 5.625 7.5 5.625C7.67708 5.625 7.82552 5.6849 7.94531 5.80469C8.0651 5.92448 8.125 6.07292 8.125 6.25C8.125 6.42708 8.0651 6.57552 7.94531 6.69531C7.82552 6.8151 7.67708 6.875 7.5 6.875ZM5 6.875C4.82292 6.875 4.67448 6.8151 4.55469 6.69531C4.4349 6.57552 4.375 6.42708 4.375 6.25C4.375 6.07292 4.4349 5.92448 4.55469 5.80469C4.67448 5.6849 4.82292 5.625 5 5.625C5.17708 5.625 5.32552 5.6849 5.44531 5.80469C5.5651 5.92448 5.625 6.07292 5.625 6.25C5.625 6.42708 5.5651 6.57552 5.44531 6.69531C5.32552 6.8151 5.17708 6.875 5 6.875ZM13.75 13.75V2.5C13.75 2.15625 13.6276 1.86198 13.3828 1.61719C13.138 1.3724 12.8438 1.25 12.5 1.25H2.5C2.15625 1.25 1.86198 1.3724 1.61719 1.61719C1.3724 1.86198 1.25 2.15625 1.25 2.5V10C1.25 10.3438 1.3724 10.638 1.61719 10.8828C1.86198 11.1276 2.15625 11.25 2.5 11.25H11.25L13.75 13.75ZM11.7812 10H2.5V2.5H12.5V10.7031L11.7812 10Z" fill="#BDBDBD"/>
</svg>
