<svg width="24" height="24" viewBox="0 0 24 24" fill="none" xmlns="http://www.w3.org/2000/svg">
<path d="M15.46 10.5C15.4601 10.891 15.3076 11.2666 15.0349 11.5468C14.7621 11.8269 14.3908 11.9896 14 12H9.99996C9.60214 12 9.2206 11.842 8.9393 11.5607C8.658 11.2794 8.49996 10.8978 8.49996 10.5C8.49996 10.8978 8.34193 11.2794 8.06062 11.5607C7.77932 11.842 7.39779 12 6.99996 12H3.45996V20C3.45996 20.2652 3.56532 20.5196 3.75285 20.7071C3.94039 20.8946 4.19474 21 4.45996 21H19.46C19.7252 21 19.9795 20.8946 20.1671 20.7071C20.3546 20.5196 20.46 20.2652 20.46 20V12H17C16.7996 12.0053 16.6003 11.9705 16.4136 11.8975C16.227 11.8245 16.0569 11.7149 15.9133 11.5751C15.7698 11.4352 15.6557 11.2681 15.5778 11.0834C15.5 10.8988 15.4599 10.7004 15.46 10.5Z" fill="#E1E1E1"/>
<path d="M22.19 7.22L20.25 4C20.0755 3.69772 19.8249 3.44638 19.5232 3.27095C19.2215 3.09551 18.8791 3.0021 18.53 3H5.53003C5.19014 2.99932 4.85569 3.08527 4.55824 3.24974C4.2608 3.41421 4.01017 3.65177 3.83003 3.94L1.83003 7.17C1.58981 7.55212 1.45751 7.99215 1.44719 8.44339C1.43686 8.89463 1.5489 9.34025 1.7714 9.73296C1.9939 10.1257 2.31856 10.4508 2.71094 10.6739C3.10332 10.897 3.54878 11.0097 4.00003 11H6.46003C6.72268 11 6.98275 10.9483 7.2254 10.8478C7.46805 10.7472 7.68853 10.5999 7.87425 10.4142C8.05996 10.2285 8.20728 10.008 8.30779 9.76536C8.4083 9.52271 8.46003 9.26264 8.46003 9C8.46003 9.53043 8.67075 10.0391 9.04582 10.4142C9.42089 10.7893 9.9296 11 10.46 11H13.46C13.9905 11 14.4992 10.7893 14.8742 10.4142C15.2493 10.0391 15.46 9.53043 15.46 9C15.46 9.53043 15.6707 10.0391 16.0458 10.4142C16.4209 10.7893 16.9296 11 17.46 11H20.05C20.4912 10.9987 20.9241 10.8806 21.3049 10.6579C21.6857 10.4351 22.0008 10.1156 22.2181 9.73167C22.4355 9.34776 22.5474 8.91318 22.5424 8.47205C22.5375 8.03092 22.4159 7.59894 22.19 7.22Z" fill="#E1E1E1"/>
<rect x="10" y="14" width="4" height="5" rx="1" fill="white"/>
</svg>
