<svg width="24" height="24" viewBox="0 0 24 24" fill="none" xmlns="http://www.w3.org/2000/svg">
<path d="M15.4609 10.5C15.4611 10.891 15.3085 11.2666 15.0358 11.5468C14.7631 11.8269 14.3918 11.9896 14.0009 12H10.0009C9.60311 12 9.22158 11.842 8.94028 11.5607C8.65897 11.2794 8.50094 10.8978 8.50094 10.5C8.50094 10.8978 8.3429 11.2794 8.0616 11.5607C7.78029 11.842 7.39876 12 7.00094 12H3.46094V20C3.46094 20.2652 3.56629 20.5196 3.75383 20.7071C3.94137 20.8946 4.19572 21 4.46094 21H19.4609C19.7262 21 19.9805 20.8946 20.168 20.7071C20.3556 20.5196 20.4609 20.2652 20.4609 20V12H17.0009C16.8006 12.0053 16.6013 11.9705 16.4146 11.8975C16.228 11.8245 16.0579 11.7149 15.9143 11.5751C15.7708 11.4352 15.6567 11.2681 15.5788 11.0834C15.5009 10.8988 15.4609 10.7004 15.4609 10.5Z" fill="#828282"/>
<path d="M22.1908 7.22L20.2508 4C20.0763 3.69773 19.8257 3.44638 19.5239 3.27095C19.2222 3.09552 18.8798 3.00211 18.5308 3H5.53077C5.19088 2.99932 4.85642 3.08528 4.55897 3.24975C4.26153 3.41422 4.01091 3.65178 3.83076 3.94L1.83076 7.17C1.59054 7.55212 1.45824 7.99216 1.44792 8.4434C1.4376 8.89464 1.54963 9.34026 1.77213 9.73296C1.99463 10.1257 2.3193 10.4508 2.71168 10.6739C3.10405 10.897 3.54951 11.0097 4.00076 11H6.46076C6.72341 11 6.98348 10.9483 7.22613 10.8478C7.46878 10.7473 7.68926 10.5999 7.87498 10.4142C8.0607 10.2285 8.20801 10.008 8.30852 9.76537C8.40903 9.52272 8.46076 9.26265 8.46076 9C8.46076 9.53044 8.67148 10.0391 9.04655 10.4142C9.42162 10.7893 9.93033 11 10.4608 11H13.4608C13.9912 11 14.4999 10.7893 14.875 10.4142C15.2501 10.0391 15.4608 9.53044 15.4608 9C15.4608 9.53044 15.6715 10.0391 16.0466 10.4142C16.4216 10.7893 16.9303 11 17.4608 11H20.0508C20.4919 10.9987 20.9249 10.8807 21.3057 10.6579C21.6865 10.4351 22.0015 10.1156 22.2189 9.73168C22.4362 9.34777 22.5481 8.91319 22.5432 8.47206C22.5382 8.03092 22.4166 7.59895 22.1908 7.22Z" fill="#828282"/>
<rect x="10" y="14" width="4" height="5" rx="1" fill="white"/>
</svg>
