<svg width="16" height="16" viewBox="0 0 16 16" fill="none" xmlns="http://www.w3.org/2000/svg">
<g clip-path="url(#clip0_2053_12356)">
<path d="M4.00004 13.6001C3.33337 13.6001 2.76669 13.3667 2.30002 12.9001C1.83335 12.4334 1.60002 11.8667 1.60002 11.2001H0.800008C0.573339 11.2001 0.383337 11.1234 0.230002 10.9701C0.0766674 10.8167 0 10.6267 0 10.4V8.80003C0 7.92002 0.313336 7.16668 0.94001 6.54001C1.56668 5.91333 2.32002 5.6 3.20003 5.6H4.80005C5.24005 5.6 5.61672 5.75666 5.93006 6.07C6.2434 6.38334 6.40006 6.76001 6.40006 7.20001V9.60004H9.20009L12.0001 6.12V3.99998H10.4001C10.1734 3.99998 9.98343 3.92331 9.8301 3.76998C9.67676 3.61664 9.6001 3.42664 9.6001 3.19997C9.6001 2.9733 9.67676 2.7833 9.8301 2.62997C9.98343 2.47663 10.1734 2.39996 10.4001 2.39996H12.0001C12.4401 2.39996 12.8168 2.55663 13.1301 2.86997C13.4435 3.1833 13.6001 3.55998 13.6001 3.99998V6.12C13.6001 6.30667 13.5701 6.48334 13.5101 6.65001C13.4501 6.81668 13.3668 6.97334 13.2601 7.12001L10.4801 10.6C10.3334 10.7867 10.1468 10.9334 9.9201 11.0401C9.69343 11.1467 9.4601 11.2001 9.22009 11.2001H6.40006C6.40006 11.8667 6.16673 12.4334 5.70006 12.9001C5.23339 13.3667 4.66671 13.6001 4.00004 13.6001ZM4.00004 12.0001C4.22671 12.0001 4.41671 11.9234 4.57005 11.7701C4.72338 11.6167 4.80005 11.4267 4.80005 11.2001H3.20003C3.20003 11.4267 3.2767 11.6167 3.43003 11.7701C3.58337 11.9234 3.77337 12.0001 4.00004 12.0001ZM5.60006 4.79999H3.20003C2.97336 4.79999 2.78336 4.72332 2.63003 4.56999C2.47669 4.41665 2.40002 4.22665 2.40002 3.99998C2.40002 3.77331 2.47669 3.58331 2.63003 3.42997C2.78336 3.27664 2.97336 3.19997 3.20003 3.19997H5.60006C5.82673 3.19997 6.01673 3.27664 6.17006 3.42997C6.3234 3.58331 6.40006 3.77331 6.40006 3.99998C6.40006 4.22665 6.3234 4.41665 6.17006 4.56999C6.01673 4.72332 5.82673 4.79999 5.60006 4.79999ZM13.6001 13.6001C12.9335 13.6001 12.3668 13.3667 11.9001 12.9001C11.4334 12.4334 11.2001 11.8667 11.2001 11.2001C11.2001 10.5334 11.4334 9.96671 11.9001 9.50004C12.3668 9.03336 12.9335 8.80003 13.6001 8.80003C14.2668 8.80003 14.8335 9.03336 15.3002 9.50004C15.7668 9.96671 16.0002 10.5334 16.0002 11.2001C16.0002 11.8667 15.7668 12.4334 15.3002 12.9001C14.8335 13.3667 14.2668 13.6001 13.6001 13.6001ZM13.6001 12.0001C13.8268 12.0001 14.0168 11.9234 14.1701 11.7701C14.3235 11.6167 14.4001 11.4267 14.4001 11.2001C14.4001 10.9734 14.3235 10.7834 14.1701 10.63C14.0168 10.4767 13.8268 10.4 13.6001 10.4C13.3735 10.4 13.1835 10.4767 13.0301 10.63C12.8768 10.7834 12.8001 10.9734 12.8001 11.2001C12.8001 11.4267 12.8768 11.6167 13.0301 11.7701C13.1835 11.9234 13.3735 12.0001 13.6001 12.0001Z" fill="#BDBDBD"/>
</g>
<defs>
<clipPath id="clip0_2053_12356">
<rect width="16" height="16" fill="white"/>
</clipPath>
</defs>
</svg>
