<svg width="26" height="27" viewBox="0 0 26 27" fill="none" xmlns="http://www.w3.org/2000/svg">
<g clip-path="url(#clip0_663_8520)">
<path fill-rule="evenodd" clip-rule="evenodd" d="M22.0916 4.14789C19.6562 1.69166 16.4174 0.338214 12.972 0.336914C5.85595 0.336914 0.0704355 6.16604 0.0676407 13.3311C0.0640919 15.7777 0.747806 18.1754 2.03972 20.2469L2.28953 20.6471C2.30741 20.6758 2.31918 20.708 2.32411 20.7416C2.32903 20.7751 2.32699 20.8094 2.31813 20.8421L1.15505 25.1228C1.14351 25.1644 1.14309 25.2084 1.15384 25.2503C1.16458 25.2921 1.18611 25.3304 1.21624 25.3612C1.24638 25.392 1.28404 25.4142 1.32543 25.4256C1.36682 25.437 1.41046 25.4371 1.45194 25.4261L5.82671 24.2698C5.85793 24.2616 5.89045 24.2596 5.9224 24.2641C5.95436 24.2686 5.98512 24.2795 6.0129 24.296L6.39622 24.5255C8.38391 25.7115 10.6515 26.3371 12.9615 26.3367H12.9669C20.0765 26.3367 25.8629 20.5071 25.8661 13.3415C25.8672 9.86934 24.5267 6.60412 22.0916 4.14789Z" fill="#02E677"/>
<path fill-rule="evenodd" clip-rule="evenodd" d="M9.09286 6.65086C8.77812 5.88888 8.45844 5.99201 8.22045 5.97923C7.9945 5.96796 7.73587 5.96558 7.47724 5.96558C7.21861 5.96558 6.79874 6.06329 6.44315 6.45435C6.08756 6.84541 5.08594 7.79155 5.08594 9.71437C5.08594 11.6372 6.47561 13.4948 6.66932 13.7554C6.86302 14.0161 9.40374 17.9622 13.2937 19.6543C14.0157 19.9678 14.7537 20.2426 15.5044 20.4776C16.4334 20.7749 17.2787 20.7328 17.9469 20.6323C18.6918 20.5203 20.241 19.6873 20.5641 18.7747C20.8873 17.8621 20.8866 17.08 20.7903 16.9171C20.694 16.7542 20.4349 16.6571 20.0473 16.4608C19.6597 16.2645 17.753 15.3201 17.3974 15.1897C17.0418 15.0593 16.7836 14.9947 16.525 15.3847C16.2663 15.7747 15.5233 16.6556 15.2972 16.9164C15.071 17.1773 14.8457 17.2098 14.457 17.0142C14.0683 16.8185 12.8197 16.406 11.3397 15.0751C10.1869 14.0393 9.40868 12.7599 9.18252 12.3688C8.95635 11.9778 9.15844 11.7663 9.35257 11.5715C9.52693 11.3965 9.73955 11.1153 9.93411 10.8871C10.1287 10.659 10.1921 10.4971 10.3211 10.2354C10.4501 9.97371 10.3856 9.74644 10.2888 9.5508C10.1921 9.35516 9.41599 7.43299 9.09286 6.65086Z" fill="#F6FEFA"/>
</g>
<defs>
<clipPath id="clip0_663_8520">
<rect width="25.7985" height="26" fill="white" transform="translate(0.0673828 0.336914)"/>
</clipPath>
</defs>
</svg>
