<svg width="24" height="24" viewBox="0 0 24 24" fill="none" xmlns="http://www.w3.org/2000/svg">
<path d="M23.0099 12C23.0099 18.2184 18.0206 23.2467 11.8816 23.2467C5.74264 23.2467 0.753304 18.2184 0.753304 12C0.753304 5.78156 5.74264 0.753304 11.8816 0.753304C18.0206 0.753304 23.0099 5.78156 23.0099 12Z" fill="#5CC23C" stroke="white" stroke-width="1.50661"/>
<path d="M11.8816 15.4373C12.6551 15.4373 13.3126 15.1638 13.8541 14.6169C14.3956 14.0701 14.6663 13.406 14.6663 12.6248C14.6663 11.8435 14.3956 11.1794 13.8541 10.6326C13.3126 10.0857 12.6551 9.81226 11.8816 9.81226C11.108 9.81226 10.4505 10.0857 9.90904 10.6326C9.36756 11.1794 9.09682 11.8435 9.09682 12.6248C9.09682 13.406 9.36756 14.0701 9.90904 14.6169C10.4505 15.1638 11.108 15.4373 11.8816 15.4373ZM11.8816 14.1873C11.4484 14.1873 11.0823 14.0362 10.7831 13.7341C10.484 13.432 10.3345 13.0623 10.3345 12.6248C10.3345 12.1873 10.484 11.8175 10.7831 11.5154C11.0823 11.2133 11.4484 11.0623 11.8816 11.0623C12.3148 11.0623 12.6809 11.2133 12.98 11.5154C13.2791 11.8175 13.4287 12.1873 13.4287 12.6248C13.4287 13.0623 13.2791 13.432 12.98 13.7341C12.6809 14.0362 12.3148 14.1873 11.8816 14.1873ZM6.93091 17.6248C6.59055 17.6248 6.29918 17.5024 6.0568 17.2576C5.81443 17.0128 5.69324 16.7185 5.69324 16.3748V8.87476C5.69324 8.53101 5.81443 8.23673 6.0568 7.99194C6.29918 7.74715 6.59055 7.62476 6.93091 7.62476H8.88023L9.65378 6.78101C9.76723 6.65601 9.90389 6.55705 10.0638 6.48413C10.2236 6.41121 10.3912 6.37476 10.5666 6.37476H13.1966C13.3719 6.37476 13.5395 6.41121 13.6994 6.48413C13.8593 6.55705 13.9959 6.65601 14.1094 6.78101L14.8829 7.62476H16.8323C17.1726 7.62476 17.464 7.74715 17.7064 7.99194C17.9487 8.23673 18.0699 8.53101 18.0699 8.87476V16.3748C18.0699 16.7185 17.9487 17.0128 17.7064 17.2576C17.464 17.5024 17.1726 17.6248 16.8323 17.6248H6.93091Z" fill="white"/>
</svg>
