<svg width="24" height="24" viewBox="0 0 24 24" fill="none" xmlns="http://www.w3.org/2000/svg">
<path d="M12 20C10.8933 20 9.85333 19.79 8.88 19.37C7.90667 18.95 7.06 18.38 6.34 17.66C5.62 16.94 5.05 16.0933 4.63 15.12C4.21 14.1467 4 13.1067 4 12C4 10.8933 4.21 9.85333 4.63 8.88C5.05 7.90667 5.62 7.06 6.34 6.34C7.06 5.62 7.90667 5.05 8.88 4.63C9.85333 4.21 10.8933 4 12 4C13.1067 4 14.1467 4.21 15.12 4.63C16.0933 5.05 16.94 5.62 17.66 6.34C18.38 7.06 18.95 7.90667 19.37 8.88C19.79 9.85333 20 10.8933 20 12C20 13.1067 19.79 14.1467 19.37 15.12C18.95 16.0933 18.38 16.94 17.66 17.66C16.94 18.38 16.0933 18.95 15.12 19.37C14.1467 19.79 13.1067 20 12 20ZM12 18.4C12.72 18.4 13.4133 18.2833 14.08 18.05C14.7467 17.8167 15.36 17.48 15.92 17.04L6.96 8.08C6.52 8.64 6.18333 9.25333 5.95 9.92C5.71667 10.5867 5.6 11.28 5.6 12C5.6 13.7867 6.22 15.3 7.46 16.54C8.7 17.78 10.2133 18.4 12 18.4ZM17.04 15.92C17.48 15.36 17.8167 14.7467 18.05 14.08C18.2833 13.4133 18.4 12.72 18.4 12C18.4 10.2133 17.78 8.7 16.54 7.46C15.3 6.22 13.7867 5.6 12 5.6C11.28 5.6 10.5867 5.71667 9.92 5.95C9.25333 6.18333 8.64 6.52 8.08 6.96L17.04 15.92Z" fill="#EB4D3D"/>
</svg>
