<svg width="16" height="16" viewBox="0 0 16 16" fill="none" xmlns="http://www.w3.org/2000/svg">
<path d="M7.06732 11.0663L11.7673 6.36634L10.834 5.43301L7.06732 9.19967L5.16732 7.29967L4.23398 8.23301L7.06732 11.0663ZM8.00065 14.6663C7.07843 14.6663 6.21176 14.4913 5.40065 14.1413C4.58954 13.7913 3.88398 13.3163 3.28398 12.7163C2.68398 12.1163 2.20898 11.4108 1.85898 10.5997C1.50898 9.78856 1.33398 8.9219 1.33398 7.99967C1.33398 7.07745 1.50898 6.21079 1.85898 5.39967C2.20898 4.58856 2.68398 3.88301 3.28398 3.28301C3.88398 2.68301 4.58954 2.20801 5.40065 1.85801C6.21176 1.50801 7.07843 1.33301 8.00065 1.33301C8.92287 1.33301 9.78954 1.50801 10.6007 1.85801C11.4118 2.20801 12.1173 2.68301 12.7173 3.28301C13.3173 3.88301 13.7923 4.58856 14.1423 5.39967C14.4923 6.21079 14.6673 7.07745 14.6673 7.99967C14.6673 8.9219 14.4923 9.78856 14.1423 10.5997C13.7923 11.4108 13.3173 12.1163 12.7173 12.7163C12.1173 13.3163 11.4118 13.7913 10.6007 14.1413C9.78954 14.4913 8.92287 14.6663 8.00065 14.6663Z" fill="white"/>
</svg>
