<svg width="24" height="24" viewBox="0 0 24 24" fill="none" xmlns="http://www.w3.org/2000/svg">
<circle cx="12" cy="12" r="12" fill="#BDBDBD"/>
<mask id="mask0_1987_7824" style="mask-type:alpha" maskUnits="userSpaceOnUse" x="0" y="0" width="24" height="24">
<rect width="24" height="24" fill="#D9D9D9"/>
</mask>
<g mask="url(#mask0_1987_7824)">
<path d="M8.5 17C7.91667 17 7.42083 16.7917 7.0125 16.375C6.60417 15.9583 6.4 15.4524 6.4 14.8571H5.7C5.50167 14.8571 5.33542 14.7887 5.20125 14.6518C5.06708 14.5149 5 14.3452 5 14.1429V12.7143C5 11.9286 5.27417 11.256 5.8225 10.6964C6.37083 10.1369 7.03 9.85714 7.8 9.85714H9.2C9.585 9.85714 9.91458 9.99702 10.1887 10.2768C10.4629 10.5565 10.6 10.8929 10.6 11.2857V13.4286H13.05L15.5 10.3214V8.42857H14.1C13.9017 8.42857 13.7354 8.36012 13.6012 8.22321C13.4671 8.08631 13.4 7.91667 13.4 7.71429C13.4 7.5119 13.4671 7.34226 13.6012 7.20536C13.7354 7.06845 13.9017 7 14.1 7H15.5C15.885 7 16.2146 7.13988 16.4888 7.41964C16.7629 7.6994 16.9 8.03571 16.9 8.42857V10.3214C16.9 10.4881 16.8737 10.6458 16.8212 10.7946C16.7688 10.9435 16.6958 11.0833 16.6025 11.2143L14.17 14.3214C14.0417 14.4881 13.8783 14.619 13.68 14.7143C13.4817 14.8095 13.2775 14.8571 13.0675 14.8571H10.6C10.6 15.4524 10.3958 15.9583 9.9875 16.375C9.57917 16.7917 9.08333 17 8.5 17ZM8.5 15.5714C8.69833 15.5714 8.86458 15.503 8.99875 15.3661C9.13292 15.2292 9.2 15.0595 9.2 14.8571H7.8C7.8 15.0595 7.86708 15.2292 8.00125 15.3661C8.13542 15.503 8.30167 15.5714 8.5 15.5714ZM9.9 9.14286H7.8C7.60167 9.14286 7.43542 9.0744 7.30125 8.9375C7.16708 8.8006 7.1 8.63095 7.1 8.42857C7.1 8.22619 7.16708 8.05655 7.30125 7.91964C7.43542 7.78274 7.60167 7.71429 7.8 7.71429H9.9C10.0983 7.71429 10.2646 7.78274 10.3987 7.91964C10.5329 8.05655 10.6 8.22619 10.6 8.42857C10.6 8.63095 10.5329 8.8006 10.3987 8.9375C10.2646 9.0744 10.0983 9.14286 9.9 9.14286ZM16.9 17C16.3167 17 15.8208 16.7917 15.4125 16.375C15.0042 15.9583 14.8 15.4524 14.8 14.8571C14.8 14.2619 15.0042 13.756 15.4125 13.3393C15.8208 12.9226 16.3167 12.7143 16.9 12.7143C17.4833 12.7143 17.9792 12.9226 18.3875 13.3393C18.7958 13.756 19 14.2619 19 14.8571C19 15.4524 18.7958 15.9583 18.3875 16.375C17.9792 16.7917 17.4833 17 16.9 17ZM16.9 15.5714C17.0983 15.5714 17.2646 15.503 17.3988 15.3661C17.5329 15.2292 17.6 15.0595 17.6 14.8571C17.6 14.6548 17.5329 14.4851 17.3988 14.3482C17.2646 14.2113 17.0983 14.1429 16.9 14.1429C16.7017 14.1429 16.5354 14.2113 16.4012 14.3482C16.2671 14.4851 16.2 14.6548 16.2 14.8571C16.2 15.0595 16.2671 15.2292 16.4012 15.3661C16.5354 15.503 16.7017 15.5714 16.9 15.5714Z" fill="white"/>
</g>
</svg>
