<svg width="24" height="24" viewBox="0 0 24 24" fill="none" xmlns="http://www.w3.org/2000/svg">
<path d="M15.2 10.95L10.55 6.3C10.7833 6.2 11.0208 6.125 11.2625 6.075C11.5042 6.025 11.75 6 12 6C12.9833 6 13.8125 6.3375 14.4875 7.0125C15.1625 7.6875 15.5 8.51667 15.5 9.5C15.5 9.75 15.475 9.99583 15.425 10.2375C15.375 10.4792 15.3 10.7167 15.2 10.95ZM5.85 17.1C6.7 16.45 7.65 15.9375 8.7 15.5625C9.75 15.1875 10.85 15 12 15C12.3 15 12.5875 15.0125 12.8625 15.0375C13.1375 15.0625 13.425 15.1 13.725 15.15L11.525 12.95C10.7417 12.85 10.0708 12.5208 9.5125 11.9625C8.95417 11.4042 8.625 10.7333 8.525 9.95L5.675 7.1C5.14167 7.78333 4.72917 8.5375 4.4375 9.3625C4.14583 10.1875 4 11.0667 4 12C4 12.9833 4.1625 13.9083 4.4875 14.775C4.8125 15.6417 5.26667 16.4167 5.85 17.1ZM18.3 16.9C18.8333 16.2167 19.25 15.4625 19.55 14.6375C19.85 13.8125 20 12.9333 20 12C20 9.78333 19.2208 7.89583 17.6625 6.3375C16.1042 4.77917 14.2167 4 12 4C11.0667 4 10.1875 4.15 9.3625 4.45C8.5375 4.75 7.78333 5.16667 7.1 5.7L18.3 16.9ZM12 22C10.6333 22 9.34167 21.7375 8.125 21.2125C6.90833 20.6875 5.84583 19.9708 4.9375 19.0625C4.02917 18.1542 3.3125 17.0917 2.7875 15.875C2.2625 14.6583 2 13.3667 2 12C2 10.6167 2.2625 9.32083 2.7875 8.1125C3.3125 6.90417 4.02917 5.84583 4.9375 4.9375C5.84583 4.02917 6.90833 3.3125 8.125 2.7875C9.34167 2.2625 10.6333 2 12 2C13.3833 2 14.6792 2.2625 15.8875 2.7875C17.0958 3.3125 18.1542 4.02917 19.0625 4.9375C19.9708 5.84583 20.6875 6.90417 21.2125 8.1125C21.7375 9.32083 22 10.6167 22 12C22 13.3667 21.7375 14.6583 21.2125 15.875C20.6875 17.0917 19.9708 18.1542 19.0625 19.0625C18.1542 19.9708 17.0958 20.6875 15.8875 21.2125C14.6792 21.7375 13.3833 22 12 22Z" fill="#828282"/>
</svg>
