<svg width="20" height="20" viewBox="0 0 20 20" fill="none" xmlns="http://www.w3.org/2000/svg">
<path fill-rule="evenodd" clip-rule="evenodd" d="M1.55649 8.72802C0.775441 9.50906 0.775441 10.7754 1.55649 11.5564L8.72802 18.728C9.50906 19.509 10.7754 19.509 11.5564 18.728L18.728 11.5564C19.509 10.7754 19.509 9.50906 18.728 8.72802L11.5564 1.55649C10.7754 0.775441 9.50906 0.775441 8.72802 1.55649L1.55649 8.72802ZM6.9997 8.91675V14.1667H8.16636V8.91675H12.9497L12.0164 9.85008L12.833 10.6667L15.1664 8.33341L12.833 6.00008L12.0164 6.81675L12.9497 7.75008H8.16636C7.84553 7.75008 7.57088 7.86432 7.34241 8.09279C7.11393 8.32126 6.9997 8.59591 6.9997 8.91675Z" fill="#828282"/>
</svg>
