<svg width="16" height="16" viewBox="0 0 16 16" fill="none" xmlns="http://www.w3.org/2000/svg">
<path d="M8.00033 10.6667C8.83366 10.6667 9.54199 10.375 10.1253 9.79169C10.7087 9.20835 11.0003 8.50002 11.0003 7.66669C11.0003 6.83335 10.7087 6.12502 10.1253 5.54169C9.54199 4.95835 8.83366 4.66669 8.00033 4.66669C7.16699 4.66669 6.45866 4.95835 5.87533 5.54169C5.29199 6.12502 5.00033 6.83335 5.00033 7.66669C5.00033 8.50002 5.29199 9.20835 5.87533 9.79169C6.45866 10.375 7.16699 10.6667 8.00033 10.6667ZM8.00033 9.46669C7.50033 9.46669 7.07533 9.29169 6.72533 8.94169C6.37533 8.59169 6.20033 8.16669 6.20033 7.66669C6.20033 7.16669 6.37533 6.74169 6.72533 6.39169C7.07533 6.04169 7.50033 5.86669 8.00033 5.86669C8.50033 5.86669 8.92533 6.04169 9.27533 6.39169C9.62533 6.74169 9.80033 7.16669 9.80033 7.66669C9.80033 8.16669 9.62533 8.59169 9.27533 8.94169C8.92533 9.29169 8.50033 9.46669 8.00033 9.46669ZM8.00033 12.6667C6.3781 12.6667 4.90033 12.2139 3.56699 11.3084C2.23366 10.4028 1.26699 9.18891 0.666992 7.66669C1.26699 6.14446 2.23366 4.93058 3.56699 4.02502C4.90033 3.11946 6.3781 2.66669 8.00033 2.66669C9.62255 2.66669 11.1003 3.11946 12.4337 4.02502C13.767 4.93058 14.7337 6.14446 15.3337 7.66669C14.7337 9.18891 13.767 10.4028 12.4337 11.3084C11.1003 12.2139 9.62255 12.6667 8.00033 12.6667ZM8.00033 11.3334C9.25588 11.3334 10.4087 11.0028 11.4587 10.3417C12.5087 9.68058 13.3114 8.78891 13.867 7.66669C13.3114 6.54447 12.5087 5.6528 11.4587 4.99169C10.4087 4.33058 9.25588 4.00002 8.00033 4.00002C6.74477 4.00002 5.59199 4.33058 4.54199 4.99169C3.49199 5.6528 2.68921 6.54447 2.13366 7.66669C2.68921 8.78891 3.49199 9.68058 4.54199 10.3417C5.59199 11.0028 6.74477 11.3334 8.00033 11.3334Z" fill="#BDBDBD"/>
</svg>
