<svg width="24" height="16" viewBox="0 0 24 16" fill="none" xmlns="http://www.w3.org/2000/svg">
<g clip-path="url(#clip0_1881_7172)">
<path d="M0 2C0 0.895431 0.895431 0 2 0H22C23.1046 0 24 0.895431 24 2V14C24 15.1046 23.1046 16 22 16H2C0.89543 16 0 15.1046 0 14V2Z" fill="#F8F8F8"/>
<path d="M14.5044 3.26367L9.33984 3.28143L9.49634 12.7363L14.6609 12.7186L14.5044 3.26367Z" fill="#FF5F00"/>
<path d="M9.6798 8.02796C9.64784 6.10491 10.5093 4.3962 11.8586 3.28785C10.8401 2.48862 9.56328 2.00802 8.17913 2.01276C4.90002 2.02399 2.29181 4.72536 2.34711 8.05308C2.40241 11.3808 5.1001 14.064 8.37922 14.0528C9.76336 14.048 11.0241 13.5587 12.0159 12.7526C10.6302 11.6704 9.71176 9.95102 9.6798 8.02796Z" fill="#EB001B"/>
<path d="M21.6531 7.94699C21.7084 11.2747 19.1002 13.9761 15.8211 13.9873C14.4369 13.992 13.1601 13.5114 12.1416 12.7122C13.5074 11.6038 14.3524 9.89516 14.3204 7.9721C14.2885 6.04905 13.3703 4.34643 11.9843 3.24745C12.9761 2.44134 14.2369 1.95205 15.621 1.94731C18.9001 1.93608 21.5981 4.63599 21.6531 7.94699Z" fill="#F79E1B"/>
</g>
<defs>
<clipPath id="clip0_1881_7172">
<rect width="24" height="16" fill="white"/>
</clipPath>
</defs>
</svg>
