<svg width="24" height="24" viewBox="0 0 24 24" fill="none" xmlns="http://www.w3.org/2000/svg">
<circle cx="12" cy="12" r="12" fill="#BDBDBD"/>
<path d="M11.3333 18.8625V12.3683L6 9.08562V14.7814C6 15.0417 6.05833 15.2783 6.175 15.4912C6.29167 15.7041 6.45556 15.8756 6.66667 16.0058L11.3333 18.8625ZM12.6667 18.8625L17.3333 16.0058C17.5444 15.8756 17.7083 15.7041 17.825 15.4912C17.9417 15.2783 18 15.0417 18 14.7814V9.08562L12.6667 12.3683V18.8625ZM15.3167 9.10336L17.2833 7.87903L12.6667 5.05773C12.4556 4.92761 12.2333 4.86255 12 4.86255C11.7667 4.86255 11.5444 4.92761 11.3333 5.05773L10.0167 5.85621L15.3167 9.10336ZM12 11.1439L13.9833 9.93733L8.7 6.67243L6.7 7.89677L12 11.1439Z" fill="white"/>
</svg>
