<svg width="24" height="24" viewBox="0 0 24 24" fill="none" xmlns="http://www.w3.org/2000/svg">
<mask id="mask0_1391_3931" style="mask-type:alpha" maskUnits="userSpaceOnUse" x="0" y="0" width="24" height="24">
<rect width="24" height="24" fill="#D9D9D9"/>
</mask>
<g mask="url(#mask0_1391_3931)">
<path d="M8.54595 21.2374L8.87318 19.1594L8.14434 19.1425H4.66406L7.0827 3.80827C7.09008 3.76198 7.11458 3.71881 7.15023 3.68816C7.18589 3.65752 7.23164 3.64062 7.27918 3.64062H13.1475C15.0957 3.64062 16.4401 4.04598 17.1421 4.84606C17.4711 5.2214 17.6808 5.61361 17.7821 6.04524C17.8884 6.49816 17.8904 7.03925 17.7865 7.69922L17.7789 7.74738V8.17025L18.1081 8.35667C18.3853 8.50367 18.6053 8.67194 18.7743 8.86462C19.0559 9.18552 19.238 9.59339 19.3149 10.0769C19.3943 10.5743 19.368 11.166 19.238 11.836C19.0878 12.6067 18.8451 13.2779 18.5173 13.8271C18.2156 14.3332 17.8315 14.7529 17.3755 15.0782C16.94 15.3873 16.4226 15.6219 15.8377 15.7721C15.2708 15.9195 14.6246 15.9941 13.9158 15.9941H13.459C13.1325 15.9941 12.8152 16.1117 12.5663 16.3225C12.3167 16.5377 12.1514 16.8316 12.1008 17.1532L12.0664 17.3403L11.4883 21.0028L11.462 21.1373C11.4552 21.18 11.4433 21.2012 11.4258 21.2156C11.4101 21.2286 11.3876 21.2374 11.3656 21.2374H8.54595Z" fill="#253B80"/>
<path d="M18.417 7.79639C18.3995 7.90836 18.3795 8.02283 18.357 8.14043C17.583 12.1133 14.9354 13.4858 11.5539 13.4858H9.83217C9.41868 13.4858 9.0702 13.786 9.00573 14.1939L8.12418 19.7839L7.87457 21.3684C7.83261 21.6361 8.03918 21.8776 8.30931 21.8776H11.3631C11.7248 21.8776 12.0318 21.6149 12.0887 21.2583L12.1188 21.1031L12.6938 17.4549L12.7308 17.2548C12.7869 16.897 13.0947 16.6343 13.4563 16.6343H13.9131C16.8716 16.6343 19.1878 15.4332 19.8647 11.9576C20.1475 10.5056 20.0011 9.29334 19.2528 8.4407C19.0264 8.18359 18.7455 7.97028 18.417 7.79639Z" fill="#179BD7"/>
<path d="M17.6076 7.47305C17.4895 7.43864 17.3674 7.40736 17.2422 7.37922C17.1165 7.3517 16.9875 7.3273 16.855 7.30604C16.3907 7.23097 15.8821 7.19531 15.3372 7.19531H10.7376C10.6243 7.19531 10.5168 7.22095 10.4205 7.26725C10.2083 7.36921 10.0508 7.57002 10.0126 7.81586L9.03395 14.0126L9.00586 14.1934C9.07033 13.7855 9.41881 13.4852 9.8323 13.4852H11.554C14.9356 13.4852 17.5833 12.1122 18.3571 8.13989C18.3802 8.02229 18.3996 7.90782 18.4171 7.79585C18.2213 7.692 18.0092 7.60317 17.7808 7.52747C17.7247 7.50871 17.6665 7.49058 17.6076 7.47305Z" fill="#222D65"/>
<path d="M10.0147 7.81613C10.0529 7.57028 10.2106 7.36948 10.4226 7.26814C10.5197 7.22184 10.6266 7.1962 10.7397 7.1962H15.3395C15.8844 7.1962 16.393 7.23185 16.8571 7.30693C16.9898 7.32819 17.1188 7.35259 17.2445 7.38011C17.3696 7.40827 17.4916 7.43955 17.6099 7.47394C17.6686 7.49146 17.7268 7.5096 17.7837 7.52775C18.012 7.60343 18.2242 7.69289 18.4199 7.79611C18.6503 6.32793 18.4181 5.3283 17.6243 4.42312C16.749 3.42662 15.1693 3 13.1479 3H7.27945C6.86649 3 6.51441 3.30025 6.45048 3.70874L4.00627 19.2006C3.95801 19.507 4.19447 19.7836 4.50351 19.7836H8.1266L9.03624 14.0129L10.0147 7.81613Z" fill="#253B80"/>
</g>
</svg>
