<svg width="24" height="24" viewBox="0 0 24 24" fill="none" xmlns="http://www.w3.org/2000/svg">
<rect width="24" height="24" rx="4" fill="#EEEEEE"/>
<path d="M10.8 8.74072H9.34192L10.2539 3.10226H11.7119L10.8 8.74072Z" fill="#00579F"/>
<path d="M16.0848 3.24005C15.7972 3.12597 15.3411 3 14.777 3C13.3371 3 12.3231 3.76775 12.3169 4.8654C12.305 5.67525 13.0429 6.12505 13.5948 6.39508C14.1589 6.67101 14.3507 6.85111 14.3507 7.09706C14.345 7.47479 13.8949 7.64891 13.4751 7.64891C12.8929 7.64891 12.581 7.55914 12.107 7.34899L11.915 7.2589L11.7109 8.52461C12.0529 8.68039 12.683 8.81864 13.3371 8.8247C14.867 8.8247 15.8631 8.06882 15.8749 6.8991C15.8807 6.25724 15.491 5.76541 14.651 5.36352C14.141 5.10553 13.8287 4.93157 13.8287 4.6676C13.8347 4.42763 14.0928 4.18184 14.6685 4.18184C15.1425 4.1698 15.4908 4.28373 15.7546 4.39774L15.8865 4.45761L16.0848 3.24005Z" fill="#00579F"/>
<path d="M18.0235 6.74325C18.1436 6.41932 18.6056 5.16565 18.6056 5.16565C18.5996 5.17769 18.7255 4.83575 18.7975 4.62584L18.8994 5.11168C18.8994 5.11168 19.1755 6.46134 19.2354 6.74325C19.0076 6.74325 18.3115 6.74325 18.0235 6.74325ZM19.8233 3.10229H18.6955C18.3477 3.10229 18.0835 3.20418 17.9334 3.57012L15.7676 8.74067H17.2975C17.2975 8.74067 17.5494 8.04475 17.6035 7.89487C17.7714 7.89487 19.2597 7.89487 19.4756 7.89487C19.5175 8.09283 19.6496 8.74067 19.6496 8.74067H20.9996L19.8233 3.10229Z" fill="#00579F"/>
<path d="M8.12335 3.10229L6.69539 6.94718L6.53935 6.16739C6.27535 5.26762 5.4474 4.29003 4.52344 3.80395L5.83139 8.73477H7.37329L9.66516 3.10229H8.12335Z" fill="#00579F"/>
<path d="M5.36993 3.10226H3.024L3 3.2162C4.82998 3.68416 6.04193 4.81216 6.53987 6.16796L6.02989 3.57628C5.94593 3.21612 5.68791 3.11414 5.36993 3.10226Z" fill="#FAA61A"/>
<path fill-rule="evenodd" clip-rule="evenodd" d="M12.0277 20.0611C11.1497 20.8189 10.0107 21.2764 8.76598 21.2764C5.98926 21.2764 3.73828 18.9996 3.73828 16.1909C3.73828 13.3823 5.98926 11.1055 8.76598 11.1055C10.0107 11.1055 11.1497 11.563 12.0277 12.3208C12.9057 11.563 14.0447 11.1055 15.2894 11.1055C18.0661 11.1055 20.3171 13.3823 20.3171 16.1909C20.3171 18.9996 18.0661 21.2764 15.2894 21.2764C14.0447 21.2764 12.9057 20.8189 12.0277 20.0611Z" fill="#ED0006"/>
<path fill-rule="evenodd" clip-rule="evenodd" d="M12.0277 20.0611C13.1084 19.1284 13.7937 17.7406 13.7937 16.1909C13.7937 14.6413 13.1084 13.2535 12.0277 12.3208C12.9057 11.563 14.0448 11.1055 15.2894 11.1055C18.0661 11.1055 20.3171 13.3823 20.3171 16.1909C20.3171 18.9996 18.0661 21.2764 15.2894 21.2764C14.0448 21.2764 12.9057 20.8189 12.0277 20.0611Z" fill="#F9A000"/>
<path fill-rule="evenodd" clip-rule="evenodd" d="M12.0277 20.0611C13.1084 19.1284 13.7937 17.7406 13.7937 16.191C13.7937 14.6413 13.1084 13.2535 12.0277 12.3208C10.947 13.2535 10.2617 14.6413 10.2617 16.191C10.2617 17.7406 10.947 19.1284 12.0277 20.0611Z" fill="#FF5E00"/>
</svg>
