<svg width="24" height="24" viewBox="0 0 24 24" fill="none" xmlns="http://www.w3.org/2000/svg">
<path d="M20.6202 8.7C19.5802 4.07 15.5402 2 12.0002 2C12.0002 2 12.0002 2 11.9902 2C8.46024 2 4.43024 4.07 3.38024 8.69C2.20024 13.85 5.36024 18.22 8.22024 20.98C9.28024 22 10.6402 22.51 12.0002 22.51C13.3602 22.51 14.7202 22 15.7702 20.98C18.6302 18.22 21.7902 13.86 20.6202 8.7ZM14.7502 11.75H9.25024C8.84024 11.75 8.50024 11.41 8.50024 11C8.50024 10.59 8.84024 10.25 9.25024 10.25H14.7502C15.1602 10.25 15.5002 10.59 15.5002 11C15.5002 11.41 15.1602 11.75 14.7502 11.75Z" fill="#5CC23C"/>
<circle cx="12" cy="11" r="7" fill="#5CC23C"/>
<path d="M9.0004 15.2C8.50041 15.2 8.07542 15.025 7.72543 14.675C7.37545 14.3251 7.20045 13.9001 7.20045 13.4001H6.60047C6.43047 13.4001 6.28798 13.3426 6.17298 13.2276C6.05799 13.1126 6.00049 12.9701 6.00049 12.8001V11.6001C6.00049 10.9402 6.23548 10.3752 6.70547 9.9052C7.17545 9.43521 7.74043 9.20022 8.40041 9.20022H9.60038C9.93037 9.20022 10.2129 9.31772 10.4479 9.55271C10.6828 9.7877 10.8003 10.0702 10.8003 10.4002V12.2001H12.9003L15.0002 9.59021V8.00026H13.8002C13.6303 8.00026 13.4878 7.94276 13.3728 7.82776C13.2578 7.71276 13.2003 7.57027 13.2003 7.40027C13.2003 7.23028 13.2578 7.08778 13.3728 6.97279C13.4878 6.85779 13.6303 6.80029 13.8002 6.80029H15.0002C15.3302 6.80029 15.6127 6.91779 15.8477 7.15278C16.0827 7.38777 16.2002 7.67027 16.2002 8.00026V9.59021C16.2002 9.7302 16.1777 9.8627 16.1327 9.98769C16.0877 10.1127 16.0252 10.2302 15.9452 10.3402L13.8602 12.9501C13.7502 13.0901 13.6103 13.2001 13.4403 13.2801C13.2703 13.3601 13.0953 13.4001 12.9153 13.4001H10.8003C10.8003 13.9001 10.6253 14.3251 10.2754 14.675C9.92537 15.025 9.50038 15.2 9.0004 15.2ZM9.0004 14.0001C9.17039 14.0001 9.31289 13.9426 9.42788 13.8276C9.54288 13.7126 9.60038 13.5701 9.60038 13.4001H8.40041C8.40041 13.5701 8.45791 13.7126 8.57291 13.8276C8.68791 13.9426 8.8304 14.0001 9.0004 14.0001ZM10.2004 8.60024H8.40041C8.23042 8.60024 8.08792 8.54274 7.97293 8.42774C7.85793 8.31275 7.80043 8.17025 7.80043 8.00026C7.80043 7.83026 7.85793 7.68777 7.97293 7.57277C8.08792 7.45777 8.23042 7.40027 8.40041 7.40027H10.2004C10.3704 7.40027 10.5128 7.45777 10.6278 7.57277C10.7428 7.68777 10.8003 7.83026 10.8003 8.00026C10.8003 8.17025 10.7428 8.31275 10.6278 8.42774C10.5128 8.54274 10.3704 8.60024 10.2004 8.60024ZM16.2002 15.2C15.7002 15.2 15.2752 15.025 14.9252 14.675C14.5752 14.3251 14.4002 13.9001 14.4002 13.4001C14.4002 12.9001 14.5752 12.4751 14.9252 12.1251C15.2752 11.7751 15.7002 11.6001 16.2002 11.6001C16.7002 11.6001 17.1251 11.7751 17.4751 12.1251C17.8251 12.4751 18.0001 12.9001 18.0001 13.4001C18.0001 13.9001 17.8251 14.3251 17.4751 14.675C17.1251 15.025 16.7002 15.2 16.2002 15.2ZM16.2002 14.0001C16.3702 14.0001 16.5127 13.9426 16.6277 13.8276C16.7427 13.7126 16.8002 13.5701 16.8002 13.4001C16.8002 13.2301 16.7427 13.0876 16.6277 12.9726C16.5127 12.8576 16.3702 12.8001 16.2002 12.8001C16.0302 12.8001 15.8877 12.8576 15.7727 12.9726C15.6577 13.0876 15.6002 13.2301 15.6002 13.4001C15.6002 13.5701 15.6577 13.7126 15.7727 13.8276C15.8877 13.9426 16.0302 14.0001 16.2002 14.0001Z" fill="white"/>
</svg>
