<svg width="201" height="201" viewBox="0 0 201 201" fill="none" xmlns="http://www.w3.org/2000/svg">
<path d="M102.008 135.826C100.471 139.988 98.4816 143.332 94.1287 143.332H37.1955C36.5895 143.368 35.9824 143.282 35.4107 143.078C34.839 142.873 34.3145 142.556 33.8688 142.143C33.4231 141.731 33.0654 141.233 32.8171 140.679C32.5689 140.125 32.4353 139.527 32.4243 138.92C32.4134 138.313 32.5253 137.71 32.7534 137.147C32.9815 136.584 33.321 136.074 33.7516 135.646C34.1821 135.218 34.6948 134.881 35.2588 134.657C35.8227 134.432 36.4263 134.324 37.0332 134.338H79.1092C80.6954 134.332 82.2295 133.771 83.4464 132.754C84.6632 131.736 85.4864 130.326 85.7736 128.766L100.16 61.327C101.163 56.9374 104.075 53.8157 108.43 53.8157L118.35 53.7895L122.215 53.7832H177.131C181.171 53.7832 184.496 57.1458 184.496 61.2317C184.496 65.3177 181.171 68.6802 177.131 68.6802H129.109L122.595 68.7755C121.625 68.7754 120.664 68.9687 119.77 69.344C118.875 69.7193 118.064 70.2691 117.384 70.9614C116 72.3627 115.225 74.2543 115.23 76.224C115.23 80.2775 118.424 83.572 122.407 83.6663C122.47 83.6725 122.533 83.6725 122.595 83.6725H140.483C144.495 83.7353 147.753 87.0853 147.755 91.1148C147.755 95.1829 144.439 98.5476 140.389 98.5643L116.865 98.557C116.237 98.5565 115.612 98.6374 115.006 98.7978C113.737 99.1392 112.581 99.8103 111.656 100.743C110.522 101.908 109.789 103.403 109.562 105.012" fill="white"/>
<path d="M104.256 95.3283C104.307 94.9384 104.389 94.5532 104.502 94.1768L104.256 95.3283Z" fill="white"/>
<path d="M73.2259 74.1565H22.5373C18.1582 74.1565 15.2092 79.2736 16.947 83.8568L28.7976 115.12C29.7628 117.659 31.9581 119.307 34.3879 119.307H67.733C70.636 119.307 73.1349 116.967 73.7002 113.722L79.1963 82.4676C79.9469 78.165 77.069 74.1565 73.2259 74.1565ZM63.0713 108.938C62.396 109.7 61.4748 110.175 60.4468 110.175H39.9908C37.94 110.175 36.2807 108.283 36.2807 105.944C36.2714 104.848 36.6568 103.785 37.3663 102.95C38.0415 102.188 38.9628 101.712 39.9908 101.712H60.4488C62.4997 101.712 64.159 103.612 64.159 105.944C64.1695 107.04 63.784 108.103 63.0734 108.938H63.0713ZM66.7814 91.6372C66.1062 92.3993 65.1849 92.8746 64.1569 92.8746H30.6736C28.6228 92.8746 26.9635 90.9819 26.9635 88.6432C26.9525 87.5471 27.3377 86.4839 28.0481 85.6491C28.3717 85.267 28.7736 84.9588 29.2265 84.7454C29.6795 84.5319 30.1729 84.4181 30.6736 84.4117H64.159C66.2098 84.4117 67.8691 86.3044 67.8691 88.6432C67.8797 89.7394 67.4942 90.8025 66.7835 91.6372H66.7814Z" fill="white"/>
<path d="M57.8273 173.265C61.9081 173.265 65.2162 169.957 65.2162 165.876C65.2162 161.796 61.9081 158.488 57.8273 158.488C53.7466 158.488 50.4385 161.796 50.4385 165.876C50.4385 169.957 53.7466 173.265 57.8273 173.265Z" fill="white"/>
<path d="M87.6706 173.265C91.7513 173.265 95.0594 169.957 95.0594 165.876C95.0594 161.796 91.7513 158.488 87.6706 158.488C83.5898 158.488 80.2817 161.796 80.2817 165.876C80.2817 169.957 83.5898 173.265 87.6706 173.265Z" fill="white"/>
</svg>
