<svg width="163" height="32" viewBox="0 0 163 32" fill="none" xmlns="http://www.w3.org/2000/svg">
<g clip-path="url(#clip0_617_10203)">
<path d="M24.0543 21.9725C23.622 23.087 23.0634 23.9828 21.8398 23.9828H5.83462C5.11989 23.9995 4.53136 23.4359 4.53653 22.7678C4.54274 22.1233 5.09921 21.5813 5.78807 21.5734H17.6167C18.532 21.5734 19.3171 20.9477 19.4898 20.0825L23.5351 2.02008C23.8164 0.844491 24.6356 0.00886863 25.8592 0.00886863L28.6478 0.00197081L29.7338 0H45.1733C46.309 0 47.244 0.900659 47.244 1.99446C47.244 3.08826 46.309 3.98891 45.1733 3.98891H31.6722C31.0619 3.99778 30.4517 4.00567 29.8414 4.01454C29.2694 4.01454 28.7512 4.23822 28.3768 4.59986C28.0034 4.95954 27.7707 5.45815 27.7707 6.00998C27.7707 7.09589 28.6685 7.97783 29.7887 8.00345C29.8062 8.00542 29.8238 8.00542 29.8414 8.00542H34.8703C35.9988 8.02217 36.9142 8.91988 36.9142 9.99889C36.9142 11.0878 35.9822 11.9914 34.8434 11.9934C33.1906 11.9934 29.8828 11.9924 28.2299 11.9914C28.0986 11.9914 27.9165 12.0032 27.7076 12.0554C27.2028 12.1835 26.8822 12.4644 26.7674 12.5767C26.3092 13.0192 26.2068 13.5385 26.1788 13.7198" fill="#12AD2A"/>
<path d="M24.6858 11.1273C24.6993 11.0218 24.7241 10.9184 24.7552 10.8188L24.6858 11.1273Z" fill="#12AD2A"/>
<path d="M15.9638 5.45605H1.71385C0.483 5.45605 -0.345498 6.82675 0.141671 8.05456L3.47325 16.4275C3.74424 17.1075 4.36174 17.5489 5.04543 17.5489H14.4185C15.2346 17.5489 15.9369 16.9222 16.0962 16.0531L17.6415 7.68208C17.8525 6.52916 17.0436 5.45605 15.9638 5.45605ZM13.1091 14.7711C12.9187 14.9751 12.6602 15.1022 12.3716 15.1022H6.62071C6.04459 15.1022 5.57811 14.5957 5.57811 13.969C5.57811 13.6566 5.69499 13.3738 5.88323 13.1668C6.07355 12.9629 6.33213 12.8357 6.62071 12.8357H12.3716C12.9477 12.8357 13.4142 13.3442 13.4142 13.969C13.4142 14.2813 13.2973 14.5661 13.1091 14.7711ZM14.1527 10.1377C13.9624 10.3417 13.7038 10.4688 13.4152 10.4688H4.00075C3.42463 10.4688 2.95815 9.96231 2.95815 9.33559C2.95815 9.02322 3.07503 8.73843 3.26328 8.53347C3.45153 8.32949 3.71425 8.20237 4.00075 8.20237H13.4152C13.9913 8.20237 14.4578 8.70887 14.4578 9.33559C14.4578 9.64796 14.3409 9.93274 14.1527 10.1377Z" fill="#12AD2A"/>
<path d="M11.6341 32.0001C12.7812 32.0001 13.7111 31.1142 13.7111 30.0214C13.7111 28.9286 12.7812 28.0427 11.6341 28.0427C10.4871 28.0427 9.55719 28.9286 9.55719 30.0214C9.55719 31.1142 10.4871 32.0001 11.6341 32.0001Z" fill="#12AD2A"/>
<path d="M20.0236 32.0001C21.1706 32.0001 22.1005 31.1142 22.1005 30.0214C22.1005 28.9286 21.1706 28.0427 20.0236 28.0427C18.8765 28.0427 17.9467 28.9286 17.9467 30.0214C17.9467 31.1142 18.8765 32.0001 20.0236 32.0001Z" fill="#12AD2A"/>
<path d="M48.5577 21.869L47.4685 10.9892C47.3103 9.40368 45.9129 8.1936 44.2414 8.1936C43.0343 8.1936 41.9276 8.83116 41.368 9.85105L35.0835 21.2995C34.9283 21.5823 34.858 21.8769 34.858 22.1637C34.858 23.1432 35.6813 24.033 36.8201 24.033C37.5907 24.033 38.2888 23.6043 38.6064 22.9362L39.7162 20.6038C39.769 20.4924 39.8879 20.4264 40.0162 20.4264C40.0162 20.4264 40.0172 20.4264 40.0182 20.4264H44.0614C44.2331 20.4264 44.3738 20.5565 44.379 20.7201L44.4214 22.1134C44.4379 22.6485 44.6758 23.1284 45.0492 23.4733C45.4236 23.8201 45.9336 24.032 46.4952 24.032C47.7199 24.032 48.6766 23.0269 48.5608 21.8671L48.5577 21.869ZM41.6835 17.5027C41.4529 17.5027 41.2987 17.2761 41.3949 17.075L42.0735 15.6502C42.7892 14.1395 42.8358 14.0794 43.5008 12.5205C43.5494 12.3628 43.7077 12.2673 43.8597 12.2889C43.9818 12.3067 44.0852 12.3983 44.1194 12.5205C44.139 12.9216 44.1587 13.3256 44.1711 13.7345C44.1887 14.3051 44.1887 14.6638 44.2218 15.6511L44.2693 17.1923C44.2745 17.3628 44.1307 17.5037 43.9518 17.5037H41.6835V17.5027Z" fill="#12AD2A"/>
<path d="M51.189 20.0775C51.8716 19.5641 52.8325 19.5759 53.511 20.0942C54.2578 20.6648 55.1329 21.0117 55.9852 21.0117C57.1622 21.0117 57.9287 20.5002 57.9287 19.6232C57.9287 18.9167 57.1871 18.5994 56.0358 17.9175L54.6033 17.0651C53.0683 16.1388 52.1478 14.9938 52.1478 13.02C52.1478 10.1693 54.8846 7.90283 58.2607 7.90283C59.5091 7.90283 60.7265 8.28517 61.796 8.9651C62.7517 9.57211 62.8604 10.8719 62.0236 11.6217C61.4154 12.1667 60.4959 12.2327 59.8008 11.7932C59.2836 11.4661 58.7344 11.267 58.1066 11.267C56.9295 11.267 56.342 11.876 56.342 12.6318C56.342 13.29 57.0578 13.5817 58.3879 14.3868L59.9229 15.2884C61.5343 16.2147 62.1736 17.2139 62.1736 19.0655C62.1736 21.9655 59.6674 24.3295 55.6769 24.3295C54.1544 24.3295 52.5791 23.9028 51.1683 22.8435C50.2343 22.1419 50.2539 20.783 51.1879 20.0814L51.189 20.0775Z" fill="#12AD2A"/>
<path d="M65.7089 11.5332H65.6779C64.6001 11.5332 63.7902 10.5971 63.995 9.58998C64.1512 8.82235 64.8566 8.26855 65.6779 8.26855H74.6683C75.746 8.26855 76.5559 9.20469 76.3511 10.2118C76.1949 10.9794 75.4895 11.5332 74.6683 11.5332H73.2947C72.4765 11.5332 71.7721 12.084 71.6139 12.8497L69.598 22.5658C69.4118 23.4615 68.5874 24.1069 67.6286 24.1069C66.3636 24.1069 65.4141 23.0063 65.6592 21.8238L67.3897 13.4823C67.5986 12.4733 66.7887 11.5332 65.7089 11.5332Z" fill="#12AD2A"/>
<path d="M80.6105 20.0775C81.2932 19.5641 82.2541 19.5759 82.9326 20.0942C83.6794 20.6648 84.5544 21.0117 85.4067 21.0117C86.5828 21.0117 87.3502 20.5002 87.3502 19.6232C87.3502 18.9167 86.6086 18.5994 85.4574 17.9175L84.0249 17.0651C82.4899 16.1388 81.5694 14.9938 81.5694 13.02C81.5694 10.1693 84.3062 7.90283 87.6823 7.90283C88.9307 7.90283 90.1481 8.28517 91.2176 8.9651C92.1733 9.57211 92.2819 10.8719 91.4451 11.6217C90.837 12.1667 89.9174 12.2327 89.2224 11.7932C88.7052 11.4661 88.156 11.267 87.5281 11.267C86.3521 11.267 85.7636 11.876 85.7636 12.6318C85.7636 13.29 86.4793 13.5817 87.8095 14.3868L89.3444 15.2884C90.9559 16.2147 91.5951 17.2139 91.5951 19.0655C91.5951 21.9655 89.0879 24.3295 85.0985 24.3295C83.576 24.3295 82.0007 23.9028 80.5888 22.8435C79.6548 22.1419 79.6745 20.783 80.6085 20.0814L80.6105 20.0775Z" fill="#12AD2A"/>
<path d="M97.1329 8.19458C98.3989 8.19458 99.3474 9.30119 99.0929 10.4837L98.7981 11.8524C98.5437 13.0339 99.4922 14.1415 100.758 14.1415H101.623C102.579 14.1415 103.402 13.497 103.586 12.6033L104.179 9.73378C104.363 8.84002 105.186 8.19556 106.142 8.19556H106.148C107.411 8.19556 108.357 9.29626 108.11 10.4758L105.585 22.5026C105.398 23.3934 104.577 24.0349 103.623 24.0349H103.619C102.354 24.0349 101.407 22.9303 101.658 21.7498L102.066 19.8381C102.317 18.6566 101.369 17.553 100.104 17.553H99.2377C98.281 17.553 97.4576 18.1984 97.2746 19.0931L96.5764 22.4948C96.3923 23.3895 95.57 24.0349 94.6132 24.0349H94.6091C93.3462 24.0349 92.3998 22.9342 92.647 21.7547L95.1718 9.72787C95.359 8.83706 96.1802 8.19556 97.1339 8.19556L97.1329 8.19458Z" fill="#12AD2A"/>
<path d="M112.679 8.19458C113.945 8.19458 114.894 9.29823 114.646 10.4807L112.123 22.4967C111.936 23.3905 111.112 24.033 110.156 24.033C108.89 24.033 107.941 22.9293 108.189 21.7468L110.712 9.73082C110.899 8.83706 111.723 8.19458 112.679 8.19458Z" fill="#12AD2A"/>
<path d="M116.93 11.2513C117.303 9.47364 118.942 8.1936 120.845 8.1936H123.046C126.345 8.1936 128.929 9.36328 128.929 12.5314C128.929 17.1608 125.272 18.8665 121.102 18.8665H120.436C119.842 18.8665 119.331 19.2666 119.215 19.8224L118.659 22.4938C118.473 23.3885 117.65 24.033 116.692 24.033C115.427 24.033 114.478 22.9303 114.726 21.7478L116.929 11.2503L116.93 11.2513ZM121.588 15.797C123.685 15.797 124.887 14.8707 124.887 13.1167C124.887 11.8495 123.991 11.2651 122.482 11.2651C121.621 11.2651 120.88 11.8475 120.717 12.6526L120.364 14.3859C120.215 15.118 120.804 15.797 121.586 15.797H121.588Z" fill="#12AD2A"/>
<path d="M136.68 8.19458C137.946 8.19458 138.895 9.30119 138.641 10.4837L138.346 11.8524C138.091 13.0339 139.04 14.1415 140.306 14.1415H141.17C142.126 14.1415 142.95 13.497 143.134 12.6033L143.726 9.73378C143.91 8.84002 144.734 8.19556 145.689 8.19556H145.696C146.959 8.19556 147.905 9.29626 147.658 10.4758L145.133 22.5026C144.946 23.3934 144.125 24.0349 143.171 24.0349H143.167C141.902 24.0349 140.954 22.9303 141.206 21.7498L141.613 19.8381C141.865 18.6566 140.917 17.553 139.652 17.553H138.785C137.829 17.553 137.005 18.1984 136.822 19.0931L136.124 22.4948C135.94 23.3895 135.118 24.0349 134.161 24.0349H134.157C132.894 24.0349 131.947 22.9342 132.195 21.7547L134.719 9.72787C134.907 8.83706 135.728 8.19556 136.682 8.19556L136.68 8.19458Z" fill="#12AD2A"/>
<path d="M152.035 8.19458C153.302 8.19458 154.252 9.29823 154.003 10.4817L152.693 16.7232C152.567 17.5057 152.441 18.2132 152.507 18.9384C152.62 20.1712 153.775 21.1172 155.061 20.9388C156.313 20.7644 157.039 19.6538 157.553 17.1618L159.131 9.68845C159.314 8.81933 160.115 8.19458 161.045 8.19458C162.28 8.19458 163.206 9.2736 162.96 10.4265L161.543 17.0652C160.52 22.0365 158.371 24.3266 154.586 24.3266C150.442 24.3266 148.396 22.5233 148.396 18.6241C148.396 17.8929 148.601 16.7725 148.754 15.9438L150.067 9.72984C150.255 8.83706 151.078 8.19458 152.035 8.19458Z" fill="#12AD2A"/>
<path d="M113.432 7.06139C114.579 7.06139 115.509 6.1755 115.509 5.08269C115.509 3.98989 114.579 3.104 113.432 3.104C112.285 3.104 111.355 3.98989 111.355 5.08269C111.355 6.1755 112.285 7.06139 113.432 7.06139Z" fill="#12AD2A"/>
</g>
<defs>
<clipPath id="clip0_617_10203">
<rect width="163" height="32" fill="white"/>
</clipPath>
</defs>
</svg>
