<svg width="53" height="58" viewBox="0 0 53 58" fill="none" xmlns="http://www.w3.org/2000/svg">
<g filter="url(#filter0_d_624_30858)">
<mask id="path-1-inside-1_624_30858" fill="white">
<path fill-rule="evenodd" clip-rule="evenodd" d="M29.6707 38.2053C36.962 36.8316 42.4778 30.4294 42.4778 22.7389C42.4778 14.0466 35.4313 7 26.7389 7C18.0466 7 11 14.0466 11 22.7389C11 30.4295 16.5159 36.8317 23.8074 38.2053C24.2663 40.1992 25.4059 42.6737 26.739 42.6737C28.0722 42.6737 29.2118 40.1991 29.6707 38.2053Z"/>
</mask>
<path fill-rule="evenodd" clip-rule="evenodd" d="M29.6707 38.2053C36.962 36.8316 42.4778 30.4294 42.4778 22.7389C42.4778 14.0466 35.4313 7 26.7389 7C18.0466 7 11 14.0466 11 22.7389C11 30.4295 16.5159 36.8317 23.8074 38.2053C24.2663 40.1992 25.4059 42.6737 26.739 42.6737C28.0722 42.6737 29.2118 40.1991 29.6707 38.2053Z" fill="#F17228"/>
<path d="M29.6707 38.2053L29.4764 37.1741L28.8021 37.3012L28.6481 37.9699L29.6707 38.2053ZM23.8074 38.2053L24.8299 37.97L24.676 37.3012L24.0016 37.1742L23.8074 38.2053ZM41.4286 22.7389C41.4286 29.9156 36.2811 35.8922 29.4764 37.1741L29.8649 39.2364C37.643 37.771 43.5271 30.9433 43.5271 22.7389H41.4286ZM26.7389 8.04926C34.8518 8.04926 41.4286 14.626 41.4286 22.7389H43.5271C43.5271 13.4671 36.0108 5.95074 26.7389 5.95074V8.04926ZM12.0493 22.7389C12.0493 14.626 18.626 8.04926 26.7389 8.04926V5.95074C17.4671 5.95074 9.95074 13.4671 9.95074 22.7389H12.0493ZM24.0016 37.1742C17.1969 35.8923 12.0493 29.9156 12.0493 22.7389H9.95074C9.95074 30.9433 15.835 37.7712 23.6131 39.2364L24.0016 37.1742ZM26.739 41.6245C26.7388 41.6245 26.7209 41.6251 26.6783 41.606C26.6327 41.5856 26.5633 41.5442 26.4731 41.4654C26.2868 41.3029 26.0721 41.0344 25.8505 40.6565C25.4085 39.9027 25.042 38.8915 24.8299 37.97L22.7849 38.4407C23.0317 39.513 23.4644 40.736 24.0403 41.718C24.3275 42.2079 24.6764 42.6827 25.0931 43.0464C25.5094 43.4098 26.0664 43.723 26.739 43.723V41.6245ZM28.6481 37.9699C28.436 38.8915 28.0695 39.9027 27.6276 40.6565C27.4059 41.0344 27.1912 41.3029 27.005 41.4654C26.9148 41.5442 26.8454 41.5856 26.7998 41.606C26.7572 41.6251 26.7393 41.6245 26.739 41.6245V43.723C27.4117 43.723 27.9686 43.4098 28.385 43.0464C28.8017 42.6827 29.1505 42.2079 29.4378 41.7179C30.0136 40.7359 30.4464 39.5129 30.6932 38.4406L28.6481 37.9699Z" fill="#FFFEFE" mask="url(#path-1-inside-1_624_30858)"/>
</g>
<path fill-rule="evenodd" clip-rule="evenodd" d="M33.2367 22.8925L26.7821 21.502C26.1271 21.5623 24.2533 23.1538 24.2533 24.1504L25.6269 31.2156C26.1985 31.3884 26.8059 31.4849 27.4331 31.4849C30.8709 31.4849 33.6576 28.6597 33.6576 25.1793C33.6576 24.3714 33.5107 23.5997 33.2367 22.8925Z" fill="#FFDDCE"/>
<path fill-rule="evenodd" clip-rule="evenodd" d="M33.2367 22.8923C34.3878 22.8924 35.3478 21.9449 35.0659 20.8289C34.1837 17.3364 31.1145 14.7622 27.461 14.7622C23.1181 14.7622 19.601 18.3993 19.601 22.8925C19.601 25.8583 20.7919 28.4948 22.9513 30.026C23.7214 30.5766 24.6187 30.9825 25.6268 31.2155V24.1503C25.6268 23.1535 26.1271 22.9527 26.782 22.8923H33.2367Z" fill="#333333"/>
<path d="M32.4897 26.2341C32.0799 26.6439 31.4156 26.6439 31.0058 26.2341C30.5961 25.8244 30.5961 25.16 31.0058 24.7502C31.4156 24.3405 32.0799 24.3405 32.4897 24.7502C32.8995 25.16 32.8995 25.8244 32.4897 26.2341Z" fill="#333333"/>
<defs>
<filter id="filter0_d_624_30858" x="0.50739" y="0.704434" width="52.463" height="56.659" filterUnits="userSpaceOnUse" color-interpolation-filters="sRGB">
<feFlood flood-opacity="0" result="BackgroundImageFix"/>
<feColorMatrix in="SourceAlpha" type="matrix" values="0 0 0 0 0 0 0 0 0 0 0 0 0 0 0 0 0 0 127 0" result="hardAlpha"/>
<feOffset dy="4.19704"/>
<feGaussianBlur stdDeviation="5.2463"/>
<feColorMatrix type="matrix" values="0 0 0 0 0 0 0 0 0 0 0 0 0 0 0 0 0 0 0.1 0"/>
<feBlend mode="normal" in2="BackgroundImageFix" result="effect1_dropShadow_624_30858"/>
<feBlend mode="normal" in="SourceGraphic" in2="effect1_dropShadow_624_30858" result="shape"/>
</filter>
</defs>
</svg>
