<svg width="398" height="287" viewBox="0 0 398 287" fill="none" xmlns="http://www.w3.org/2000/svg">
<path d="M341.17 132.965C343.218 134.329 344.515 136.287 345.061 138.822L345.151 139.295C345.55 141.651 345.101 143.832 343.804 145.826L343.801 145.83C342.834 147.236 341.589 148.29 340.068 148.988L340.068 148.989C338.586 149.678 337.027 149.991 335.395 149.927L335.391 149.927C333.768 149.842 332.266 149.339 330.888 148.421C328.737 146.987 327.395 145.004 326.87 142.479L326.869 142.476C326.38 139.943 326.857 137.612 328.297 135.493C329.681 133.369 331.632 132.051 334.14 131.548L334.142 131.547L334.614 131.467C336.965 131.121 339.153 131.621 341.17 132.965ZM376.646 82.4485C380.858 85.2552 384.125 88.4416 386.441 92.009L386.44 92.0084C388.771 95.556 389.988 99.2701 390.082 103.148L390.088 103.512C390.101 107.27 388.904 110.953 386.506 114.556C384.853 117.042 382.964 118.983 380.838 120.372C378.754 121.75 376.48 122.696 374.019 123.208L374.018 123.209C371.883 123.637 369.617 123.825 367.221 123.771L366.185 123.734C363.873 123.616 361.833 123.737 360.062 124.092L360.062 124.091C358.321 124.459 356.73 125.166 355.286 126.212C353.864 127.27 352.458 128.816 351.071 130.856L350.246 132.096L337.932 123.891L338.759 122.648L339.222 121.968C341.526 118.625 343.668 116.111 345.648 114.433L345.649 114.432L346.049 114.107C348.049 112.517 350.069 111.469 352.11 110.972C354.001 110.512 356.02 110.28 358.166 110.276L359.094 110.287C360.952 110.314 362.694 110.219 364.318 110.001L364.916 109.909C366.297 109.67 367.564 109.252 368.718 108.659C370.04 107.965 371.149 106.948 372.043 105.603C372.933 104.265 373.418 102.888 373.502 101.471L373.513 101.187C373.546 99.6638 373.18 98.2309 372.41 96.8849L372.409 96.8839C371.659 95.5509 370.594 94.4212 369.206 93.4964C367.862 92.6009 366.391 92.0543 364.793 91.8553L364.789 91.8553C363.212 91.6366 361.658 91.8495 360.124 92.4974L360.123 92.4985C358.613 93.1217 357.257 94.2576 356.06 95.9219L355.948 96.0783L342.719 87.2638L342.837 87.0957L343.391 86.3292C346.186 82.5749 349.358 79.9955 352.908 78.6064C356.699 77.1077 360.644 76.7397 364.739 77.5024L365.507 77.6527C369.337 78.4537 373.051 80.0532 376.646 82.4485Z" fill="#F17228" stroke="#120F0F" stroke-width="0.4"/>
<path d="M260.015 70.4807C261.759 69.6861 263.585 69.6323 265.482 70.3125L265.832 70.4471C267.552 71.1509 268.808 72.3436 269.592 74.021L269.595 74.0263C270.127 75.2437 270.312 76.5011 270.148 77.7946L270.146 77.7941C269.993 79.0567 269.56 80.2161 268.848 81.2695L268.846 81.2725C268.123 82.3117 267.173 83.0989 266 83.6332C264.17 84.4673 262.308 84.5396 260.425 83.8496L260.422 83.8486C258.549 83.132 257.204 81.8582 256.396 80.0352C255.562 78.2474 255.494 76.4145 256.192 74.5489L256.192 74.5476L256.332 74.2026C257.069 72.5055 258.299 71.2627 260.015 70.4807ZM241.339 26.531C244.905 24.9058 248.336 24.057 251.63 23.9904L251.631 23.99C254.919 23.9057 257.863 24.6243 260.455 26.1501L260.935 26.4464C263.302 27.9756 265.157 30.2231 266.502 33.1786C267.46 35.2857 267.965 37.3263 268.009 39.2978C268.063 41.2369 267.754 43.1233 267.084 44.9557L267.084 44.957C266.407 46.7653 265.455 48.5569 264.226 50.3312L264.225 50.3316C263.206 51.8012 262.454 53.1882 261.966 54.4927C261.499 55.7809 261.312 57.1086 261.408 58.4774L261.409 58.4779C261.523 59.8389 261.962 61.3896 262.733 63.1322L263.229 64.2219L252.733 69.0058L252.236 67.9133L251.735 66.7605C250.623 64.1255 249.927 61.8768 249.652 60.0178L249.653 60.0165L249.602 59.6199C249.375 57.6507 249.511 55.8871 250.021 54.3345C250.559 52.695 251.363 51.0678 252.429 49.4532C253.204 48.2442 253.85 47.0621 254.37 45.908L254.553 45.4788C254.958 44.4769 255.201 43.4779 255.282 42.482C255.366 41.3377 255.152 40.2016 254.637 39.071C254.125 37.9454 253.424 37.0717 252.535 36.4426L252.355 36.3207C251.376 35.6815 250.293 35.3399 249.104 35.2966L249.102 35.2961C247.929 35.2449 246.759 35.4841 245.591 36.0163C244.461 36.5314 243.508 37.2701 242.729 38.234L242.727 38.2361C241.945 39.1777 241.453 40.2791 241.254 41.5443L241.254 41.5465C241.048 42.7834 241.239 44.1299 241.84 45.5905L241.913 45.7685L230.644 50.9047L230.563 50.716L230.286 50.0376C228.96 46.6609 228.56 43.5141 229.1 40.6027L229.215 40.0233C229.798 37.3386 231 34.931 232.818 32.8025L233.217 32.3501C235.383 29.9504 238.092 28.0111 241.339 26.531Z" fill="#F17228" stroke="#538D33" stroke-width="0.4"/>
<path d="M157.514 265.33C156.96 265.33 156.602 265.33 156.513 265.33C156.263 265.33 156.066 265.115 156.084 264.865C156.084 264.614 156.316 264.453 156.549 264.435C159.982 264.525 169.333 264.167 171.354 261.411C171.765 260.838 171.836 260.212 171.586 259.46C171.372 258.87 171.014 258.512 170.478 258.351C167.813 257.582 161.716 261.751 159.588 263.433C159.41 263.576 159.141 263.558 158.981 263.379C158.82 263.2 158.82 262.95 158.981 262.771C160.643 260.946 164.845 255.738 164.291 253.609C164.202 253.233 163.951 253.001 163.54 252.857C160.554 251.82 156.602 259.317 155.333 262.288C155.244 262.52 154.975 262.628 154.743 262.52C154.511 262.431 154.403 262.163 154.51 261.93C155.011 260.749 159.517 250.477 163.844 251.998C164.541 252.249 165.006 252.714 165.167 253.376C165.632 255.255 163.612 258.423 161.859 260.695C164.523 258.959 168.421 256.812 170.728 257.474C171.55 257.707 172.14 258.279 172.444 259.156C172.802 260.176 172.695 261.125 172.087 261.93C169.798 265.061 160.608 265.33 157.532 265.33H157.514Z" fill="#F2513B"/>
<path d="M30.1173 213.471C29.9743 213.471 29.8134 213.471 29.6524 213.435C25.1109 212.755 19.6753 201.697 19.4428 201.213C19.3355 200.999 19.4428 200.73 19.6395 200.623C19.8541 200.516 20.1223 200.623 20.2296 200.82C21.7315 203.916 26.3804 212.04 29.7597 212.541C30.4571 212.648 31.0471 212.415 31.5835 211.843C32.0126 211.395 32.1557 210.894 32.0484 210.34C31.4941 207.602 24.9857 204.148 22.5182 203.039C22.3037 202.949 22.1964 202.699 22.2858 202.484C22.3573 202.269 22.5898 202.126 22.8222 202.198C25.2003 202.824 31.7623 204.148 33.4073 202.663C33.6934 202.412 33.7828 202.09 33.7291 201.643C33.2643 198.511 24.789 198.476 21.5706 198.726C21.3203 198.762 21.1057 198.565 21.0878 198.315C21.0699 198.064 21.2487 197.849 21.4991 197.831C22.7686 197.724 33.9437 196.99 34.6053 201.518C34.7126 202.251 34.498 202.878 33.9973 203.325C32.549 204.613 28.8121 204.273 25.987 203.79C28.7584 205.347 32.4596 207.817 32.9424 210.161C33.1212 211.002 32.8709 211.771 32.2451 212.451C31.6193 213.113 30.8862 213.453 30.0816 213.453L30.1173 213.471Z" fill="#F2513B"/>
<path d="M118.857 243.677V258.297L135.736 262.771L144.676 257.098V240.993L118.857 243.677Z" fill="#FFC0B7"/>
<path d="M36.2871 163.403L21.7147 162.688L16.4043 179.329L21.6253 188.563L37.6818 189.35L36.2871 163.403Z" fill="#FFC0B7"/>
<path d="M33.1582 153.562C33.1582 153.562 57.6005 157.999 72.6914 146.869C92.5385 132.231 101.997 99.3413 101.997 99.3413L148.522 102.348C148.522 102.348 160.108 125.789 165.472 165.622C170.836 205.455 159.357 247.973 159.357 247.973H113.029C113.029 247.973 120.163 211.45 121.576 194.432C122.774 180.027 121.576 166.66 121.576 166.66C121.576 166.66 108.273 188.062 83.2408 196.097C58.2084 204.131 33.1761 196.437 33.1761 196.437V153.579L33.1582 153.562Z" fill="#74CA45"/>
<path d="M160.322 19.4961C160.322 19.4961 180.848 29.7317 187.607 52.2072C194.366 74.6826 158.534 73.4837 158.534 73.4837L162.7 46.4988L156.549 32.2369L160.322 19.514V19.4961Z" fill="#FFC0B7"/>
<path d="M162.7 46.4986C162.7 46.4986 158.016 42.9018 147.162 41.0766C136.327 39.2513 132.143 32.7199 114.459 43.4565C96.7759 54.1932 101.818 69.2245 101.818 69.2245C101.818 69.2245 101.228 70.513 100.03 75.2729C98.8321 80.0507 99.3149 99.323 99.3149 99.323C99.3149 99.323 112.01 105.282 128.013 105.693C144.016 106.087 150.578 103.707 150.578 103.707L153.403 75.0045L163.684 74.6645L162.682 46.4807L162.7 46.4986Z" fill="#FFAB17"/>
<path d="M149.648 13.0366C149.648 13.0366 157.533 17.1166 160.322 19.4965C163.111 21.8765 159.124 32.2195 159.124 32.2195L155.155 29.75C155.155 29.75 148.539 20.8028 148.539 16.4187C148.539 12.0345 151.382 15.7029 151.382 15.7029L149.648 13.0366Z" fill="#FFC0B7"/>
<path d="M148.593 10.5414L141.511 12.1411C140.664 12.3326 140.132 13.1755 140.323 14.0239L143.847 29.6463C144.038 30.4947 144.88 31.0272 145.728 30.8357L152.809 29.236C153.657 29.0445 154.189 28.2015 153.998 27.3532L150.474 11.7307C150.283 10.8824 149.44 10.3499 148.593 10.5414Z" fill="black"/>
<path d="M146.976 13.3388L141.081 14.6705C140.426 14.8185 140.014 15.4699 140.162 16.1254L142.733 27.5237C142.881 28.1793 143.532 28.5908 144.187 28.4428L150.082 27.111C150.737 26.963 151.148 26.3117 151 25.6561L148.429 14.2578C148.282 13.6023 147.631 13.1908 146.976 13.3388Z" fill="white"/>
<path d="M181.315 283.851C181.887 283.779 182.28 283.243 182.191 282.634C181.779 279.825 180.26 271.933 175.861 268.516C170.461 264.31 158.982 262.396 154.852 259.586C150.722 256.777 146.198 250.084 143.659 251.265C141.138 252.446 136.292 258.065 129.498 257.099C122.703 256.133 119.61 254.415 117.732 256.007C115.855 257.6 114.299 280.469 115.05 281.847C115.801 283.225 125.421 282.187 126.243 282.42C127.066 282.652 129.551 277.266 131.107 278.125C132.662 278.984 134.522 281.578 136.811 282.813C138.938 283.958 174.413 284.603 181.297 283.851H181.315Z" fill="#847D79"/>
<path d="M3.08312 227.43C3.1904 228.002 3.76258 228.36 4.35262 228.235C7.12406 227.627 14.8841 225.569 17.9952 220.934C21.8216 215.244 22.9302 203.648 25.4513 199.335C27.9724 195.023 34.3378 190.03 32.9789 187.597C31.62 185.163 25.6838 180.707 26.1844 173.854C26.685 167.018 28.1691 163.797 26.4526 162.043C24.7361 160.29 1.83151 160.29 0.508368 161.149C-0.81477 161.99 0.883854 171.527 0.705052 172.368C0.526249 173.209 6.06913 175.321 5.33604 176.932C4.58507 178.542 2.13547 180.582 1.06266 182.944C0.0613643 185.145 1.86726 220.612 3.08312 227.448V227.43Z" fill="#847D79"/>
<path d="M148.539 32.2188C148.539 32.2188 143.354 27.7631 145.589 26.26C147.824 24.7568 150.595 28.0852 150.595 28.0852C150.595 28.0852 153.974 26.8326 156.353 28.0852C158.731 29.3378 159.929 30.7157 159.142 32.2188C158.355 33.7041 151.364 33.6146 148.557 32.2188H148.539Z" fill="#FFC0B7"/>
<path d="M121.576 167.089C121.576 167.089 121.433 167.089 121.379 167.036C121.164 166.928 121.075 166.66 121.182 166.427C121.236 166.32 126.564 155.78 129.568 146.296C132.786 136.114 134.342 126.022 134.36 125.914C134.396 125.735 134.521 125.592 134.7 125.538L148.45 122.568C148.682 122.514 148.932 122.675 148.986 122.908C149.04 123.141 148.879 123.391 148.646 123.445L135.2 126.362C134.914 128.133 133.359 137.313 130.426 146.564C127.405 156.12 122.04 166.732 121.987 166.839C121.915 167 121.754 167.089 121.593 167.089H121.576Z" fill="white"/>
<path d="M101.64 114.605C100.621 114.605 99.9414 114.354 99.8878 114.337C99.6553 114.247 99.548 113.997 99.6196 113.764C99.709 113.531 99.9593 113.406 100.192 113.496C100.21 113.496 102.087 114.158 104.161 113.084C106.289 111.957 107.88 109.451 108.882 105.622C108.953 105.389 109.185 105.228 109.436 105.3C109.668 105.371 109.811 105.604 109.758 105.855C108.685 109.952 106.933 112.654 104.555 113.889C103.482 114.444 102.445 114.605 101.64 114.605Z" fill="white"/>
<path d="M153.564 75.7209C153.314 75.7209 153.117 75.524 153.117 75.2735V63.1769C153.117 62.9263 153.314 62.7295 153.564 62.7295C153.815 62.7295 154.011 62.9263 154.011 63.1769V75.2735C154.011 75.524 153.815 75.7209 153.564 75.7209Z" fill="#F2513B"/>
<path d="M159.374 28.873C159.267 28.873 159.16 28.8372 159.07 28.7477C158.999 28.6761 157.229 27.0835 154.1 27.7635C153.849 27.8172 153.617 27.6562 153.563 27.4235C153.509 27.1909 153.67 26.9404 153.903 26.8867C157.515 26.0814 159.589 27.9961 159.678 28.0856C159.857 28.2467 159.857 28.533 159.696 28.7119C159.607 28.8014 159.481 28.8551 159.374 28.8551V28.873Z" fill="black"/>
<path d="M153.009 24.8825C153.009 24.8825 152.866 24.8825 152.812 24.8288C152.598 24.7214 152.508 24.453 152.616 24.2204L154.529 20.4625C154.636 20.2478 154.904 20.1583 155.137 20.2657C155.351 20.3731 155.441 20.6415 155.334 20.8741L153.42 24.632C153.349 24.793 153.188 24.8825 153.027 24.8825H153.009Z" fill="black"/>
<path d="M161.716 107.269L133.93 73.6094L116.318 93.2038L148.396 115.125L161.716 107.269Z" fill="#FFC0B7"/>
<path d="M212.587 152.04C212.337 152.04 212.14 151.843 212.14 151.593V141.339C211.711 139.979 197.425 124.805 187.93 114.945C187.751 114.766 187.769 114.48 187.93 114.319C188.109 114.157 188.395 114.157 188.556 114.319C195.905 121.959 213.016 139.872 213.016 141.339V151.593C213.016 151.843 212.82 152.04 212.569 152.04H212.587Z" fill="#120F0F"/>
<path d="M162.02 124.179H194.902C195.87 124.179 196.654 123.394 196.654 122.425V115.911C196.654 114.943 195.87 114.158 194.902 114.158H162.02C161.053 114.158 160.268 114.943 160.268 115.911V122.425C160.268 123.394 161.053 124.179 162.02 124.179Z" fill="black"/>
<path d="M315.72 226.875L213.696 225.265C212.247 225.247 211.067 224.084 210.96 222.581L205.936 154.224C205.864 153.347 206.186 152.488 206.794 151.898C207.366 151.325 208.153 151.057 208.957 151.11L336.515 162.813C337.355 162.885 338.124 163.35 338.589 164.102C339.09 164.889 339.197 165.837 338.893 166.714L318.349 224.996C317.937 226.142 316.9 226.893 315.738 226.893L315.72 226.875ZM208.707 151.987C208.224 151.987 207.777 152.166 207.42 152.524C206.991 152.935 206.776 153.544 206.812 154.152L211.836 222.509C211.908 223.547 212.712 224.352 213.696 224.37L315.685 225.981C316.525 225.981 317.204 225.462 317.49 224.674L338.035 166.392C338.249 165.766 338.178 165.104 337.82 164.567C337.498 164.066 336.98 163.744 336.408 163.69L208.85 151.987C208.85 151.987 208.743 151.987 208.689 151.987H208.707Z" fill="#120F0F"/>
<path d="M321.084 226.875L219.059 225.265C217.611 225.247 216.431 224.084 216.323 222.581L211.299 154.224C211.227 153.347 211.549 152.488 212.157 151.898C212.729 151.325 213.516 151.057 214.321 151.11L341.878 162.813C342.719 162.885 343.488 163.35 343.952 164.102C344.453 164.889 344.56 165.837 344.256 166.714L323.712 224.996C323.301 226.142 322.264 226.893 321.101 226.893L321.084 226.875ZM214.07 151.987C213.588 151.987 213.141 152.166 212.783 152.524C212.354 152.935 212.139 153.544 212.175 154.152L217.199 222.509C217.271 223.547 218.076 224.352 219.059 224.37L321.048 225.981C321.888 225.981 322.568 225.462 322.854 224.674L343.398 166.392C343.613 165.766 343.541 165.104 343.184 164.567C342.862 164.066 342.343 163.744 341.771 163.69L214.213 151.987C214.213 151.987 214.106 151.987 214.052 151.987H214.07Z" fill="#120F0F"/>
<path d="M292.189 226.553C292.189 226.553 292.1 226.553 292.046 226.535C291.814 226.464 291.689 226.195 291.76 225.962L313.252 161.256C313.324 161.023 313.574 160.898 313.825 160.97C314.057 161.041 314.182 161.31 314.111 161.542L292.619 226.249C292.565 226.446 292.386 226.553 292.189 226.553Z" fill="#120F0F"/>
<path d="M273.218 225.712C273.218 225.712 273.164 225.712 273.128 225.712C272.878 225.658 272.735 225.425 272.789 225.175L286.682 159.001C286.735 158.769 286.968 158.608 287.218 158.661C287.468 158.715 287.611 158.948 287.558 159.198L273.665 225.372C273.629 225.587 273.432 225.73 273.236 225.73L273.218 225.712Z" fill="#120F0F"/>
<path d="M255.552 225.712C255.283 225.712 255.087 225.479 255.105 225.246L258.985 156.639C258.985 156.388 259.199 156.209 259.45 156.209C259.7 156.209 259.879 156.442 259.879 156.675L255.999 225.282C255.999 225.515 255.784 225.712 255.552 225.712Z" fill="#120F0F"/>
<path d="M236.457 225.479C236.225 225.479 236.028 225.3 236.01 225.05L232.523 154.367C232.523 154.116 232.702 153.919 232.953 153.901C233.185 153.866 233.4 154.08 233.417 154.331L236.904 225.014C236.904 225.264 236.725 225.461 236.475 225.479C236.475 225.479 236.475 225.479 236.457 225.479Z" fill="#120F0F"/>
<path d="M333.118 182.318L208.081 176.055C207.831 176.055 207.652 175.84 207.652 175.589C207.652 175.339 207.849 175.142 208.117 175.16L333.136 181.423C333.386 181.423 333.565 181.638 333.565 181.888C333.565 182.121 333.35 182.318 333.118 182.318Z" fill="#120F0F"/>
<path d="M325.07 203.647L210.333 200.069C210.082 200.069 209.886 199.854 209.903 199.603C209.903 199.353 210.1 199.174 210.368 199.174L325.106 202.753C325.356 202.753 325.553 202.967 325.535 203.218C325.535 203.468 325.32 203.647 325.088 203.647H325.07Z" fill="#120F0F"/>
<path d="M319.259 256.579L217.681 255.04C215.875 255.004 214.177 254.217 213.015 252.839C211.852 251.479 211.316 249.672 211.566 247.882L214.82 224.888C214.856 224.638 215.071 224.476 215.321 224.512C215.571 224.548 215.732 224.781 215.697 225.013L212.442 248.008C212.228 249.529 212.675 251.086 213.676 252.249C214.677 253.412 216.144 254.11 217.681 254.128L319.259 255.667C319.509 255.667 319.706 255.881 319.706 256.114C319.706 256.364 319.509 256.561 319.259 256.561V256.579Z" fill="#120F0F"/>
<path d="M301.54 264.632C301.218 264.578 301.057 264.346 301.093 264.095L302.738 255.738C302.791 255.488 303.024 255.327 303.256 255.38C303.507 255.434 303.65 255.667 303.614 255.899L301.969 264.256C301.933 264.471 301.736 264.614 301.54 264.614V264.632Z" fill="#120F0F"/>
<path d="M231.2 263.737C230.878 263.683 230.717 263.451 230.753 263.2L232.398 254.843C232.452 254.593 232.666 254.432 232.916 254.485C233.167 254.539 233.31 254.772 233.274 255.004L231.629 263.361C231.593 263.576 231.397 263.719 231.2 263.719V263.737Z" fill="#120F0F"/>
<path d="M287.826 275.065C287.826 281.65 293.154 287 299.752 287C306.35 287 311.678 281.668 311.678 275.065C311.678 268.461 306.35 263.129 299.752 263.129C293.154 263.129 287.826 268.461 287.826 275.065Z" fill="#847D79"/>
<path d="M218.684 275.065C218.684 281.65 224.012 287 230.61 287C237.208 287 242.536 281.668 242.536 275.065C242.536 268.461 237.208 263.129 230.61 263.129C224.012 263.129 218.684 268.461 218.684 275.065Z" fill="#847D79"/>
<path d="M299.753 279.986C302.469 279.986 304.67 277.782 304.67 275.065C304.67 272.347 302.469 270.144 299.753 270.144C297.037 270.144 294.836 272.347 294.836 275.065C294.836 277.782 297.037 279.986 299.753 279.986Z" fill="#F8F1F0"/>
<path d="M230.608 279.986C233.324 279.986 235.526 277.782 235.526 275.065C235.526 272.347 233.324 270.144 230.608 270.144C227.893 270.144 225.691 272.347 225.691 275.065C225.691 277.782 227.893 279.986 230.608 279.986Z" fill="#F8F1F0"/>
<path d="M155.048 104.352C155.048 104.352 168.708 105.998 172.91 110.364C177.112 114.748 175.521 126.398 174.609 127.256C173.697 128.115 172.106 127.346 172.106 127.346C172.106 127.346 171.533 129.44 170.353 129.887C169.173 130.334 167.832 128.742 167.832 128.742C167.832 128.742 165.597 130.442 163.899 129.261C162.2 128.08 162.182 125.682 162.683 124.68C163.005 124.018 163.112 122.908 163.112 122.908L162.021 122.962C162.021 122.962 159.75 124.698 155.262 123.194C150.757 121.691 148.057 113.496 148.057 113.496L155.084 104.352H155.048Z" fill="#FFC0B7"/>
<path d="M172.105 127.794C172.105 127.794 172.051 127.794 172.015 127.794C171.765 127.74 171.622 127.507 171.658 127.257C171.658 127.185 172.945 120.797 171.765 117.737C171.676 117.504 171.783 117.254 172.015 117.164C172.248 117.075 172.498 117.182 172.588 117.415C173.857 120.725 172.588 127.167 172.516 127.436C172.48 127.65 172.284 127.794 172.087 127.794H172.105Z" fill="black"/>
<path d="M167.832 129.189C167.832 129.189 167.743 129.189 167.707 129.171C167.475 129.1 167.332 128.849 167.403 128.616C167.421 128.563 169.173 122.461 166.992 119.419C166.849 119.222 166.885 118.936 167.099 118.792C167.296 118.649 167.582 118.685 167.725 118.9C170.175 122.3 168.351 128.616 168.262 128.885C168.208 129.082 168.029 129.207 167.832 129.207V129.189Z" fill="black"/>
<path d="M128.245 37.6943C128.245 37.6943 104.375 37.8733 96.8835 58.7024C88.9268 80.7663 117.839 99.806 117.839 99.806L140.315 76.7937L119.019 46.4984L128.245 37.6943Z" fill="#FFAB17"/>
<path d="M138.67 39.6628L138.491 44.888C138.491 44.888 138.741 45.9259 134.289 45.6575C128.335 45.2996 126.422 42.4186 126.422 42.4186L126.207 32.2188L128.013 32.5766L138.83 34.7061L138.67 39.6628Z" fill="#FFC0B7"/>
<path d="M138.829 34.7066L138.668 39.6634C135.79 39.3234 130.497 38.1065 128.334 33.5613C128.155 33.1856 128.047 32.8635 128.012 32.5771L138.829 34.7066Z" fill="black"/>
<path d="M140.601 11.4253C140.601 11.4253 146.233 24.0946 144.284 31.2345C142.335 38.3922 135.827 37.3007 131.929 35.9586C128.031 34.5986 126.207 32.2365 126.207 32.2365C126.207 32.2365 122.578 33.4892 120.128 30.125C117.678 26.7608 119.145 22.8777 121.219 21.9651C123.293 21.0704 125.76 22.5377 125.76 22.5377L123.811 18.8515C123.811 18.8515 131.822 0.0444087 140.601 11.4074V11.4253Z" fill="#FFC0B7"/>
<path d="M140.117 27.6023C140.117 27.6023 140.028 27.6024 139.992 27.5845C139.759 27.5129 139.616 27.2624 139.706 27.0297C140.421 24.7213 138.687 22.1982 138.669 22.1803C138.526 21.9835 138.579 21.6972 138.776 21.554C138.973 21.4109 139.259 21.4645 139.402 21.6614C139.491 21.7866 141.404 24.5603 140.564 27.2981C140.51 27.495 140.332 27.6202 140.135 27.6202L140.117 27.6023Z" fill="black"/>
<path d="M125.223 28.5509C125.098 28.5509 124.991 28.4972 124.901 28.4077L121.451 24.7573C121.29 24.5783 121.29 24.292 121.468 24.131C121.647 23.952 121.933 23.9699 122.094 24.1489L125.545 27.7993C125.706 27.9783 125.706 28.2646 125.527 28.4256C125.438 28.5151 125.331 28.5509 125.223 28.5509Z" fill="black"/>
<path d="M121.575 27.5668C121.36 27.5668 121.164 27.4058 121.128 27.191C121.092 26.9405 121.253 26.7258 121.503 26.69L123.882 26.3321C124.132 26.2963 124.346 26.4574 124.382 26.7079C124.418 26.9584 124.257 27.1732 124.007 27.2089L121.629 27.5668C121.629 27.5668 121.575 27.5668 121.557 27.5668H121.575Z" fill="black"/>
<path d="M136.094 31.5215C135.754 31.5215 135.397 31.45 135.021 31.271C133.376 30.4479 132.84 28.6405 132.804 28.569C132.75 28.4079 132.804 28.229 132.929 28.1216C133.054 28.0142 133.233 27.9605 133.376 28.0142L138.329 29.6605C138.472 29.7142 138.579 29.8216 138.615 29.9826C138.651 30.1258 138.615 30.2868 138.508 30.3942C138.454 30.4479 137.399 31.5215 136.076 31.5215H136.094ZM134.091 29.1774C134.377 29.6247 134.807 30.1437 135.432 30.4479C136.094 30.7879 136.791 30.5195 137.274 30.2331L134.091 29.1774Z" fill="black"/>
<path d="M134.361 22.8781C134.146 22.8781 133.95 22.717 133.914 22.4844L133.61 20.1223C133.574 19.8718 133.753 19.657 134.003 19.6213C134.236 19.5855 134.468 19.7644 134.504 20.0149L134.808 22.377C134.844 22.6275 134.665 22.8423 134.415 22.8781C134.397 22.8781 134.379 22.8781 134.361 22.8781Z" fill="black"/>
<path d="M141.387 22.3059C141.173 22.3059 140.976 22.1448 140.94 21.9301L140.601 19.568C140.565 19.3175 140.726 19.1028 140.976 19.067C141.226 19.0312 141.441 19.1922 141.477 19.4428L141.817 21.8048C141.852 22.0554 141.691 22.2701 141.441 22.3059C141.423 22.3059 141.405 22.3059 141.37 22.3059H141.387Z" fill="black"/>
<path d="M132.161 18.3326C132.161 18.3326 132.018 18.3326 131.965 18.2789C131.75 18.1715 131.661 17.9031 131.768 17.6705C132.644 15.9705 134.79 16.4179 134.879 16.4358C135.112 16.4895 135.273 16.7221 135.219 16.9726C135.165 17.2052 134.933 17.3663 134.683 17.3126C134.611 17.3126 133.109 16.9905 132.555 18.0821C132.483 18.2431 132.322 18.3326 132.161 18.3326Z" fill="black"/>
<path d="M139.009 16.8651C139.009 16.8651 138.83 16.8473 138.759 16.7936C138.562 16.6504 138.509 16.382 138.634 16.1673C138.991 15.6483 139.456 15.3441 140.011 15.2725C141.137 15.1294 142.174 16.042 142.21 16.0957C142.389 16.2567 142.406 16.5431 142.246 16.722C142.085 16.9009 141.799 16.9188 141.62 16.7578C141.405 16.5609 140.69 16.0599 140.118 16.1673C139.832 16.2031 139.581 16.3641 139.367 16.6862C139.277 16.8115 139.134 16.883 138.991 16.883L139.009 16.8651Z" fill="black"/>
<path d="M144.676 2.38904C144.051 2.22799 143.478 2.13852 142.924 2.04904C142.495 0.975375 141.404 0.116442 139.008 0.00907557C137.238 -0.0625023 135.647 0.295386 134.288 0.868009C133.179 0.00907479 131.266 -0.474075 128.012 0.742748C125.902 1.5301 124.364 2.92587 123.256 4.4469C121.79 4.35743 120.198 4.769 118.839 6.29003C116.765 8.61631 117.016 10.871 117.624 12.392C116.837 13.0362 116.122 14.0562 115.836 15.6309C115.085 19.854 120.02 22.8961 120.02 22.8961C120.02 22.8961 122.827 21.2498 125.741 22.5561C125.741 22.5561 127.047 23.415 127.994 21.9298C128.942 20.4445 126.868 16.0425 126.868 16.0425C126.868 16.0425 130.801 16.9372 133.233 15.6309C135.665 14.3246 136.863 10.7458 136.863 10.7458C136.863 10.7458 138.651 14.4678 144.015 12.8394C149.379 11.211 150.398 3.89217 144.676 2.40693V2.38904Z" fill="#120F0F"/>
<path d="M134.7 46.0872C128.389 46.0872 124.92 41.5957 124.866 41.542C124.723 41.3452 124.759 41.0588 124.956 40.9157C125.152 40.7725 125.438 40.8083 125.582 41.0052C125.778 41.2736 130.624 47.483 139.51 44.3156C139.743 44.2262 139.993 44.3514 140.082 44.5841C140.172 44.8167 140.047 45.0672 139.814 45.1567C137.955 45.8188 136.238 46.0872 134.7 46.0872Z" fill="#F2513B"/>
<path d="M136.65 72.0341C136.56 72.0341 136.453 71.9983 136.382 71.9446C135.577 71.3183 128.496 65.7889 128.479 62.5679C128.479 61.9416 128.729 61.4227 129.212 61.0469C129.694 60.6711 130.231 60.5638 130.803 60.7248C133.753 61.6016 136.757 70.4415 137.079 71.4436C137.133 71.6225 137.079 71.8373 136.918 71.9446C136.846 71.9983 136.757 72.0341 136.668 72.0341H136.65ZM130.284 61.548C130.106 61.548 129.927 61.6195 129.766 61.7448C129.498 61.9595 129.373 62.2101 129.39 62.5679C129.39 64.5542 133.253 68.1868 135.72 70.2626C134.558 67.1489 132.341 62.1385 130.553 61.6016C130.463 61.5837 130.374 61.5659 130.302 61.5659L130.284 61.548Z" fill="#F2513B"/>
<path d="M140.315 77.2417C140.171 77.2417 140.028 77.1701 139.957 77.0448L136.309 71.8376C136.166 71.6407 136.22 71.3544 136.417 71.2112C136.613 71.0681 136.899 71.1218 137.042 71.3186L140.69 76.5259C140.833 76.7227 140.779 77.0091 140.583 77.1522C140.511 77.2059 140.422 77.2417 140.332 77.2417H140.315Z" fill="#F2513B"/>
<path d="M297.706 147.148C301.758 142.928 305.695 138.445 308.955 133.573C309.185 133.229 308.846 132.726 308.455 132.751C303.412 133.026 298.376 133.308 293.334 133.583C293.519 133.811 293.704 134.04 293.889 134.269C295.191 123.01 296.498 111.744 297.8 100.484C297.865 99.9437 297.284 99.5724 296.857 99.964C289.048 107.02 281.245 114.069 273.436 121.124C273.733 121.159 274.023 121.2 274.319 121.234C271.243 114.322 267.146 107.932 262.165 102.235C261.894 101.924 261.301 102.106 261.24 102.499C260.684 105.996 260.136 109.5 259.696 113.009C259.301 116.196 258.9 119.428 258.981 122.66C259.292 122.521 259.61 122.388 259.922 122.249C255.579 118.324 251.23 114.405 246.887 110.48C246.343 109.992 245.66 110.741 246.116 111.281C246.367 111.573 246.325 112.84 246.355 113.283C246.424 114.33 246.441 115.377 246.472 116.424C246.493 117.35 246.515 118.275 246.574 119.2C246.604 119.63 246.575 120.331 246.936 120.654C247.473 121.135 248.239 120.34 247.707 119.852C247.884 120.024 247.775 119.993 247.744 119.788C247.728 119.659 247.713 119.531 247.703 119.409C247.668 118.985 247.652 118.555 247.635 118.137C247.599 117.109 247.582 116.075 247.545 115.047C247.517 114.09 247.488 113.12 247.376 112.17C247.312 111.605 247.271 110.963 246.888 110.505L246.116 111.307C250.459 115.232 254.808 119.15 259.151 123.076C259.505 123.392 260.103 123.165 260.092 122.664C259.926 116.033 261.293 109.298 262.319 102.786C262.006 102.874 261.706 102.961 261.394 103.049C266.309 108.67 270.334 115.003 273.362 121.819C273.525 122.177 274.006 122.138 274.245 121.929C282.054 114.874 289.856 107.825 297.665 100.769L296.722 100.249C295.42 111.508 294.113 122.774 292.811 134.033C292.774 134.375 292.975 134.745 293.366 134.72C298.409 134.445 303.445 134.163 308.487 133.888C308.32 133.614 308.153 133.34 307.986 133.066C304.782 137.853 300.888 142.252 296.905 146.401C296.409 146.916 297.217 147.695 297.713 147.18L297.706 147.148Z" fill="#120F0F"/>
</svg>
