<svg width="238" height="232" viewBox="0 0 238 232" fill="none" xmlns="http://www.w3.org/2000/svg">
<g clip-path="url(#clip0_623_26843)">
<path d="M150.957 52.176H87.0961C85.6408 52.1778 84.2457 52.7584 83.2166 53.7903C82.1876 54.8223 81.6087 56.2214 81.6069 57.6809V200.017L80.875 200.241L65.2088 205.052C64.4664 205.279 63.6644 205.201 62.979 204.836C62.2936 204.471 61.7808 203.848 61.5531 203.103L14.9534 50.4549C14.7266 49.7103 14.8039 48.9059 15.1683 48.2184C15.5327 47.5309 16.1543 47.0167 16.8966 46.7887L41.0382 39.3755L111.025 17.8921L135.167 10.4789C135.534 10.3655 135.92 10.3259 136.303 10.3623C136.686 10.3987 137.057 10.5104 137.397 10.6911C137.736 10.8718 138.037 11.1178 138.282 11.4151C138.526 11.7125 138.71 12.0553 138.823 12.4239L150.734 51.4421L150.957 52.176Z" fill="#F2F2F2"/>
<path d="M164.893 51.4421L150.537 4.41627C150.298 3.63273 149.907 2.90407 149.387 2.27193C148.868 1.63978 148.229 1.11654 147.507 0.732109C146.786 0.347674 145.996 0.109574 145.183 0.0314242C144.369 -0.0467253 143.549 0.0366068 142.767 0.27665L108.826 10.6954L38.8425 32.1826L4.90104 42.605C3.3243 43.0906 2.00407 44.1836 1.23014 45.6444C0.456219 47.1051 0.291826 48.814 0.773057 50.3962L49.8391 211.111C50.2301 212.388 51.0189 213.506 52.0898 214.301C53.1607 215.095 54.4574 215.525 55.7895 215.526C56.4061 215.526 57.0192 215.433 57.6082 215.251L80.8751 208.109L81.6069 207.882V207.115L80.8751 207.338L57.3923 214.55C56.0006 214.975 54.4973 214.83 53.2124 214.145C51.9275 213.461 50.9657 212.293 50.5382 210.898L1.47582 50.1796C1.26397 49.4886 1.19014 48.7624 1.25854 48.0427C1.32695 47.3229 1.53624 46.6238 1.87446 45.9853C2.21267 45.3468 2.67316 44.7815 3.22955 44.3218C3.78593 43.862 4.42728 43.5168 5.11688 43.306L39.0584 32.8835L109.042 11.4001L142.984 0.977604C143.507 0.817523 144.05 0.735901 144.597 0.73539C145.771 0.738033 146.913 1.11748 147.856 1.81816C148.799 2.51884 149.493 3.50392 149.838 4.62913L164.128 51.4421L164.355 52.1761H165.116L164.893 51.4421Z" fill="#BDBDBD"/>
<path d="M45.3947 46.9086C44.6894 46.9081 44.0028 46.681 43.4356 46.2605C42.8685 45.84 42.4506 45.2483 42.2434 44.5722L37.5299 29.1323C37.4032 28.7176 37.3593 28.2819 37.4005 27.8501C37.4418 27.4183 37.5675 26.9989 37.7704 26.6159C37.9733 26.2328 38.2495 25.8936 38.5831 25.6176C38.9168 25.3416 39.3014 25.1342 39.715 25.0073L104.099 5.23996C104.934 4.98436 105.837 5.07154 106.608 5.48234C107.379 5.89315 107.956 6.59402 108.213 7.43114L112.926 22.8711C113.181 23.7087 113.094 24.6135 112.684 25.3868C112.275 26.1602 111.576 26.739 110.741 26.9963L46.3569 46.7637C46.0451 46.8596 45.7208 46.9085 45.3947 46.9086Z" fill="#538D33"/>
<path d="M70.0859 16.4978C74.128 16.4978 77.4048 13.2117 77.4048 9.15805C77.4048 5.10442 74.128 1.8183 70.0859 1.8183C66.0438 1.8183 62.767 5.10442 62.767 9.15805C62.767 13.2117 66.0438 16.4978 70.0859 16.4978Z" fill="#538D33"/>
<path d="M70.086 13.8058C72.6456 13.8058 74.7206 11.725 74.7206 9.15807C74.7206 6.59119 72.6456 4.51031 70.086 4.51031C67.5264 4.51031 65.4514 6.59119 65.4514 9.15807C65.4514 11.725 67.5264 13.8058 70.086 13.8058Z" fill="white"/>
<path d="M221.3 219.869H97.6105C96.7859 219.868 95.9952 219.539 95.4121 218.954C94.829 218.369 94.501 217.576 94.5 216.749V68.1194C94.5009 67.2924 94.8289 66.4995 95.4121 65.9147C95.9952 65.3299 96.7859 65.0009 97.6105 65H221.3C222.125 65.001 222.916 65.3299 223.499 65.9147C224.082 66.4995 224.41 67.2924 224.411 68.1194V216.749C224.41 217.576 224.082 218.369 223.499 218.954C222.916 219.539 222.125 219.868 221.3 219.869Z" fill="#E6E6E6"/>
<path d="M164.128 51.4421H87.0961C85.4469 51.4444 83.8659 52.1025 82.6997 53.272C81.5335 54.4415 80.8773 56.027 80.875 57.6809V207.338L81.6069 207.115V57.6809C81.6087 56.2214 82.1876 54.8223 83.2166 53.7903C84.2456 52.7584 85.6408 52.1778 87.0961 52.1761H164.355L164.128 51.4421ZM231.279 51.4421H87.0961C85.4469 51.4444 83.8659 52.1025 82.6997 53.272C81.5335 54.4415 80.8773 56.027 80.875 57.6809V225.761C80.8773 227.415 81.5335 229.001 82.6997 230.17C83.8659 231.34 85.4469 231.998 87.0961 232H231.279C232.928 231.998 234.509 231.34 235.675 230.17C236.841 229.001 237.498 227.415 237.5 225.761V57.6809C237.498 56.027 236.841 54.4415 235.675 53.272C234.509 52.1025 232.928 51.4444 231.279 51.4421ZM236.768 225.761C236.766 227.221 236.187 228.62 235.158 229.652C234.129 230.684 232.734 231.264 231.279 231.266H87.0961C85.6408 231.264 84.2456 230.684 83.2166 229.652C82.1876 228.62 81.6087 227.221 81.6069 225.761V57.6809C81.6087 56.2214 82.1876 54.8223 83.2166 53.7903C84.2456 52.7584 85.6408 52.1778 87.0961 52.1761H231.279C232.734 52.1778 234.129 52.7584 235.158 53.7903C236.187 54.8223 236.766 56.2214 236.768 57.6809V225.761Z" fill="#BDBDBD"/>
<path d="M192.855 67.5895H125.521C124.647 67.5886 123.81 67.2403 123.193 66.6211C122.575 66.0019 122.228 65.1623 122.227 64.2867V48.1392C122.228 47.2635 122.575 46.424 123.193 45.8048C123.81 45.1856 124.647 44.8373 125.521 44.8363H192.855C193.728 44.8373 194.565 45.1856 195.182 45.8048C195.8 46.424 196.147 47.2635 196.148 48.1392V64.2867C196.147 65.1623 195.8 66.0019 195.182 66.6211C194.565 67.2403 193.728 67.5886 192.855 67.5895Z" fill="#538D33"/>
<path d="M159.188 45.9373C163.23 45.9373 166.506 42.6511 166.506 38.5975C166.506 34.5439 163.23 31.2578 159.188 31.2578C155.145 31.2578 151.869 34.5439 151.869 38.5975C151.869 42.6511 155.145 45.9373 159.188 45.9373Z" fill="#538D33"/>
<path d="M159.188 43.0681C161.65 43.0681 163.645 41.0665 163.645 38.5975C163.645 36.1284 161.65 34.1269 159.188 34.1269C156.725 34.1269 154.73 36.1284 154.73 38.5975C154.73 41.0665 156.725 43.0681 159.188 43.0681Z" fill="white"/>
</g>
<defs>
<clipPath id="clip0_623_26843">
<rect width="237" height="232" fill="white" transform="translate(0.5)"/>
</clipPath>
</defs>
</svg>
