<svg width="24" height="24" viewBox="0 0 24 24" fill="none" xmlns="http://www.w3.org/2000/svg">
<path d="M17.0855 23H7.0579C5.68482 23 4.57172 21.9136 4.57172 20.5735V12.5H19.5717V20.5735C19.5717 21.9136 18.4586 23 17.0855 23Z" fill="#CEC6C5" stroke="#CEC6C5" stroke-width="1.5" stroke-miterlimit="10" stroke-linecap="round" stroke-linejoin="round"/>
<path d="M4.57172 17C3.19673 17 2.00024 15.6196 2.00024 14.2446C2.00024 13.5571 2.55759 12.9998 3.24506 12.9998H4.57172" stroke="#CEC6C5" stroke-width="1.5" stroke-miterlimit="10" stroke-linecap="round" stroke-linejoin="round"/>
<path d="M19.5717 17C20.9467 17 22.1432 15.6196 22.1432 14.2446C22.1432 13.5571 21.5858 12.9998 20.8984 12.9998H19.5717" stroke="#CEC6C5" stroke-width="1.5" stroke-miterlimit="10" stroke-linecap="round" stroke-linejoin="round"/>
<path d="M10.5732 9.5L10.5732 8.86259C10.5758 7.83133 11.4139 6.99744 12.4451 7.00001C13.4763 7.0026 14.3102 7.84066 14.3077 8.87188V9.5" stroke="#CEC6C5" stroke-width="1.5" stroke-miterlimit="10" stroke-linecap="round" stroke-linejoin="round"/>
<path d="M4.57172 10H19.6121" stroke="#CEC6C5" stroke-width="1.5" stroke-miterlimit="10" stroke-linecap="round" stroke-linejoin="round"/>
<path d="M16.0444 2C16.0444 2 15.5717 2.47266 15.5717 2.94535C15.5717 3.41801 16.0444 3.89067 16.0444 3.89067C16.0444 3.89067 16.517 4.36336 16.517 4.836C16.517 5.30868 16.0444 5.78134 16.0444 5.78134" stroke="#CEC6C5" stroke-width="1.5" stroke-miterlimit="10" stroke-linecap="round" stroke-linejoin="round"/>
<path d="M12.0444 1C12.0444 1 11.5717 1.47266 11.5717 1.94535C11.5717 2.41801 12.0444 2.89067 12.0444 2.89067C12.0444 2.89067 12.517 3.36336 12.517 3.836C12.517 4.30868 12.0444 4.78134 12.0444 4.78134" stroke="#CEC6C5" stroke-width="1.5" stroke-miterlimit="10" stroke-linecap="round" stroke-linejoin="round"/>
<path d="M8.04438 2C8.04438 2 7.57172 2.47266 7.57172 2.94535C7.57169 3.41801 8.04436 3.89067 8.04436 3.89067C8.04436 3.89067 8.51704 4.36336 8.51704 4.836C8.51704 5.30868 8.04438 5.78134 8.04438 5.78134" stroke="#CEC6C5" stroke-width="1.5" stroke-miterlimit="10" stroke-linecap="round" stroke-linejoin="round"/>
</svg>
