<svg width="28" height="28" viewBox="0 0 28 28" fill="none" xmlns="http://www.w3.org/2000/svg">
<path d="M2.80005 12.7559C2.80005 18.9781 7.77783 23.9559 14 23.9559C20.1445 23.9559 25.2 18.9781 25.2 12.7559V15.2447C25.2 21.467 20.2223 26.4447 14 26.4447C7.8556 26.4447 2.80005 21.467 2.80005 15.2447V12.7559Z" fill="#FFB961"/>
<path d="M2.80005 12.7559C2.80005 18.9781 7.77783 23.9559 14 23.9559C20.1445 23.9559 25.2 18.9781 25.2 12.7559V15.2447C25.2 21.467 20.2223 26.4447 14 26.4447C7.8556 26.4447 2.80005 21.467 2.80005 15.2447V12.7559Z" fill="#F3A250"/>
<path d="M14 23.9559C11.7445 23.9559 9.5667 23.2559 7.85559 22.0892V24.5781C9.64448 25.7447 11.7445 26.4447 14 26.4447C20.1445 26.4447 25.2 21.467 25.2 15.2447V12.7559C25.2 18.9003 20.1445 23.9559 14 23.9559Z" fill="#EF7B56" fill-opacity="0.376471"/>
<path d="M15.9445 23.7222V26.2111C21.1556 25.2777 25.2 20.6888 25.2 15.1666V12.6777C25.2 18.2777 21.2333 22.7888 15.9445 23.7222Z" fill="#F3A250"/>
<path d="M22.2445 20.3003V22.7892C24.1112 20.767 25.2001 18.1225 25.2001 15.2447V12.7559C25.2001 15.6336 24.0334 18.2781 22.2445 20.3003Z" fill="#EF7B56" fill-opacity="0.376471"/>
<path d="M25.2 12.7557C25.2 18.9779 20.2222 23.9557 14 23.9557C8.39999 23.9557 3.8111 19.9112 2.95555 14.5446C1.86666 7.85566 6.99999 1.55566 14 1.55566C18.7444 1.55566 22.8667 4.51122 24.4222 8.789C24.9667 9.95566 25.2 11.3557 25.2 12.7557Z" fill="#F9CF6B"/>
<path opacity="0.4" d="M5.52222 18.4332C7.77777 21.1555 10.8889 22.5555 14 22.5555C17.1111 22.5555 20.2222 21.1555 22.4778 18.3555C20.9222 21.1555 17.8111 23.1777 14 23.2555C10.2667 23.2555 7.07777 21.1555 5.52222 18.4332Z" fill="white"/>
<path opacity="0.2" d="M23.4889 8.63357C21.5444 4.90024 17.8889 2.72246 14 2.72246C10.1111 2.72246 6.45555 4.90024 4.51111 8.55579C5.75555 4.97802 9.48889 2.10024 14 2.02246C18.5111 2.10024 22.1667 4.97802 23.4889 8.63357Z" fill="white"/>
<path opacity="0.4" d="M5.52222 18.4332C7.77777 21.1555 10.8889 22.5555 14 22.5555C17.1111 22.5555 20.2222 21.1555 22.4778 18.3555C20.9222 21.1555 17.8111 23.1777 14 23.2555C10.2667 23.2555 7.07777 21.1555 5.52222 18.4332Z" fill="white"/>
<path d="M22.4778 12.7561C22.4778 17.4228 18.6667 21.2339 14 21.2339C9.33333 21.2339 5.52222 17.4228 5.52222 12.7561C5.52222 8.08943 9.33333 4.27832 14 4.27832C18.6667 4.27832 22.4778 8.08943 22.4778 12.7561Z" fill="#F3A250"/>
<path d="M16.8 13.9997L17.2667 16.9552C17.3444 17.4219 16.8778 17.733 16.4889 17.5775L13.8444 16.1775C13.6889 16.0997 13.4555 16.0997 13.3 16.1775L10.6555 17.5775C10.2667 17.8108 9.79999 17.4219 9.87777 16.9552L10.3444 13.9997C10.3444 13.8441 10.3444 13.6108 10.1889 13.533L8.0111 11.433C7.69999 11.1219 7.85555 10.5775 8.32221 10.4997L11.2778 10.033C11.4333 10.033 11.5889 9.87745 11.6667 9.7219L13.0667 6.99967C13.3 6.61079 13.8444 6.61079 14.0778 6.99967L15.4 9.7219C15.4778 9.87745 15.6333 10.033 15.7889 10.033L18.7444 10.4997C19.2111 10.5775 19.3667 11.1219 19.0555 11.433L16.8778 13.533C16.8 13.6108 16.7222 13.8441 16.8 13.9997Z" fill="#EF7B56"/>
<path d="M21.6223 16.4117C23.8778 11.045 19.9111 4.97832 14 4.97832C8.1667 4.97832 4.12226 10.8894 6.30004 16.3339C3.73337 10.7339 7.77781 4.27832 14 4.27832C20.3 4.27832 24.3445 10.8894 21.6223 16.4117Z" fill="#EF7B56"/>
<path d="M17.2667 14.4665L17.7333 17.422C17.8111 17.8887 17.3444 18.1998 16.9556 18.0442L14.3111 16.6442C14.1556 16.5665 13.9222 16.5665 13.7667 16.6442L11.1222 18.0442C10.7333 18.2776 10.2667 17.8887 10.3444 17.422L10.8111 14.4665C10.8111 14.3109 10.8111 14.0776 10.6556 13.9998L8.47778 11.8998C8.16667 11.5887 8.32222 11.0442 8.78889 10.9665L11.7444 10.4998C11.9 10.4998 12.0556 10.3442 12.1333 10.1887L13.4556 7.46647C13.6889 7.07758 14.2333 7.07758 14.4667 7.46647L15.7889 10.1887C15.8667 10.3442 16.0222 10.4998 16.1778 10.4998L19.1333 10.9665C19.6 11.0442 19.7556 11.5887 19.4444 11.8998L17.4222 13.9998C17.2667 14.0776 17.1889 14.3109 17.2667 14.4665Z" fill="#F9CF6B"/>
<path opacity="0.5" d="M9.02233 11.9774C8.71122 11.6663 8.86678 11.1997 9.33344 11.1219L11.9779 10.733C12.1334 10.733 12.289 10.5774 12.3668 10.4997L13.5334 8.08854C13.689 7.69965 14.2334 7.69965 14.389 8.08854L15.5557 10.4997C15.6334 10.6552 15.789 10.733 15.9446 10.733L18.589 11.1219C18.9779 11.1997 19.1334 11.6663 18.9001 11.9774C18.9001 11.9774 17.189 13.8441 13.8446 13.8441C11.2779 13.8441 9.02233 11.9774 9.02233 11.9774Z" fill="white"/>
<path opacity="0.7" d="M14.0779 9.72248C13.8445 10.2669 13.4557 10.6558 13.3001 10.578C13.1445 10.5003 13.0668 9.95581 13.3001 9.41136C13.5334 8.86692 13.9223 8.47803 14.0779 8.55581C14.2334 8.63359 14.3112 9.17803 14.0779 9.72248Z" fill="white"/>
<path d="M9.72231 7.23331C9.48898 7.23331 9.33342 7.31109 9.17787 7.38887C9.25564 7.46665 9.87787 8.08887 9.80009 8.16665C9.72231 8.24442 9.10009 7.6222 9.02231 7.54442C8.94453 7.69998 8.86675 7.85553 8.86675 8.08887C8.86675 8.94442 8.78898 9.48887 8.63342 9.48887C8.55564 9.48887 8.47786 8.94442 8.40009 8.08887C8.40009 7.85553 8.32231 7.69998 8.24453 7.54442C8.16675 7.6222 7.54453 8.24442 7.46675 8.16665C7.38898 8.08887 8.0112 7.46665 8.08898 7.38887C7.93342 7.31109 7.77786 7.23331 7.54453 7.23331C5.67786 7.15553 5.67786 6.9222 7.54453 6.84442C7.70009 6.84442 7.93342 6.76665 8.08898 6.68887C8.0112 6.61109 7.38898 5.98887 7.46675 5.91109C7.54453 5.83331 8.16675 6.45553 8.24453 6.53331C8.32231 6.37776 8.40009 6.2222 8.40009 5.98887C8.47786 4.1222 8.7112 4.1222 8.78898 5.98887C8.78898 6.14442 8.86675 6.37776 8.94453 6.53331C9.02231 6.45553 9.64453 5.83331 9.72231 5.91109C9.80009 5.98887 9.56675 6.29998 9.17787 6.68887V6.76665C9.33342 6.84442 9.48898 6.9222 9.72231 6.9222C10.5779 6.9222 11.1223 6.99998 11.1223 7.15553C11.1223 7.15553 10.5779 7.23331 9.72231 7.23331Z" fill="white"/>
<path opacity="0.2" d="M23.4889 8.63357C21.5444 4.90024 17.8889 2.72246 14 2.72246C10.1111 2.72246 6.45555 4.90024 4.51111 8.55579C5.75555 4.97802 9.48889 2.10024 14 2.02246C18.5111 2.10024 22.1667 4.97802 23.4889 8.63357Z" fill="white"/>
</svg>
