<svg width="24" height="24" viewBox="0 0 24 24" fill="none" xmlns="http://www.w3.org/2000/svg">
<path fill-rule="evenodd" clip-rule="evenodd" d="M12 21.6001C17.302 21.6001 21.6 17.302 21.6 12.0001C21.6 6.69812 17.302 2.40005 12 2.40005C6.69809 2.40005 2.40002 6.69812 2.40002 12.0001C2.40002 17.302 6.69809 21.6001 12 21.6001ZM10.4486 8.75153C9.97992 8.2829 9.22013 8.2829 8.7515 8.75153C8.28287 9.22016 8.28287 9.97995 8.7515 10.4486L10.303 12.0001L8.7515 13.5515C8.28287 14.0202 8.28287 14.78 8.7515 15.2486C9.22013 15.7172 9.97992 15.7172 10.4486 15.2486L12 13.6971L13.5515 15.2486C14.0201 15.7172 14.7799 15.7172 15.2486 15.2486C15.7172 14.78 15.7172 14.0202 15.2486 13.5515L13.6971 12.0001L15.2486 10.4486C15.7172 9.97995 15.7172 9.22016 15.2486 8.75153C14.7799 8.2829 14.0201 8.2829 13.5515 8.75153L12 10.303L10.4486 8.75153Z" fill="#FA4069"/>
</svg>
