<svg width="237" height="232" viewBox="0 0 237 232" fill="none" xmlns="http://www.w3.org/2000/svg">
<g clip-path="url(#clip0_623_26843)">
<path d="M150.457 52.176H86.5961C85.1408 52.1778 83.7457 52.7584 82.7166 53.7903C81.6876 54.8223 81.1087 56.2214 81.1069 57.6809V200.017L80.375 200.241L64.7088 205.052C63.9664 205.279 63.1644 205.201 62.479 204.836C61.7936 204.471 61.2808 203.848 61.0531 203.103L14.4534 50.4549C14.2266 49.7103 14.3039 48.9059 14.6683 48.2184C15.0327 47.5309 15.6543 47.0167 16.3966 46.7887L40.5382 39.3755L110.525 17.8921L134.667 10.4789C135.034 10.3655 135.42 10.3259 135.803 10.3623C136.186 10.3987 136.557 10.5104 136.897 10.6911C137.236 10.8718 137.537 11.1178 137.782 11.4151C138.026 11.7125 138.21 12.0553 138.323 12.4239L150.234 51.4421L150.457 52.176Z" fill="#F2F2F2"/>
<path d="M164.393 51.4421L150.036 4.41627C149.798 3.63273 149.407 2.90407 148.887 2.27193C148.368 1.63978 147.729 1.11654 147.007 0.732109C146.286 0.347674 145.496 0.109574 144.683 0.0314242C143.869 -0.0467253 143.049 0.0366068 142.267 0.27665L108.326 10.6954L38.3425 32.1826L4.40098 42.605C2.82424 43.0906 1.50401 44.1836 0.730083 45.6444C-0.0438424 47.1051 -0.208235 48.814 0.272996 50.3962L49.3391 211.111C49.73 212.388 50.5188 213.506 51.5897 214.301C52.6607 215.095 53.9573 215.525 55.2895 215.526C55.906 215.526 56.5191 215.433 57.1081 215.251L80.375 208.109L81.1069 207.882V207.115L80.375 207.338L56.8923 214.55C55.5005 214.975 53.9973 214.83 52.7123 214.145C51.4274 213.461 50.4657 212.293 50.0381 210.898L0.975763 50.1796C0.763913 49.4886 0.690078 48.7624 0.758482 48.0427C0.826887 47.3229 1.03618 46.6238 1.3744 45.9853C1.71261 45.3468 2.1731 44.7815 2.72949 44.3218C3.28587 43.862 3.92722 43.5168 4.61682 43.306L38.5583 32.8835L108.542 11.4001L142.483 0.977604C143.007 0.817523 143.55 0.735901 144.097 0.73539C145.271 0.738033 146.413 1.11748 147.356 1.81816C148.299 2.51884 148.993 3.50392 149.338 4.62913L163.628 51.4421L163.855 52.1761H164.616L164.393 51.4421Z" fill="#BDBDBD"/>
<path d="M44.8947 46.9086C44.1894 46.9081 43.5028 46.681 42.9356 46.2605C42.3685 45.84 41.9506 45.2483 41.7434 44.5722L37.0299 29.1323C36.9032 28.7176 36.8593 28.2819 36.9005 27.8501C36.9418 27.4183 37.0675 26.9989 37.2704 26.6159C37.4733 26.2328 37.7495 25.8936 38.0831 25.6176C38.4168 25.3416 38.8014 25.1342 39.215 25.0073L103.599 5.23996C104.434 4.98436 105.337 5.07154 106.108 5.48234C106.879 5.89315 107.456 6.59402 107.713 7.43114L112.426 22.8711C112.681 23.7087 112.594 24.6135 112.184 25.3868C111.775 26.1602 111.076 26.739 110.241 26.9963L45.8569 46.7637C45.5451 46.8596 45.2208 46.9085 44.8947 46.9086Z" fill="#538D33"/>
<path d="M69.5859 16.4978C73.628 16.4978 76.9048 13.2117 76.9048 9.15805C76.9048 5.10442 73.628 1.8183 69.5859 1.8183C65.5438 1.8183 62.267 5.10442 62.267 9.15805C62.267 13.2117 65.5438 16.4978 69.5859 16.4978Z" fill="#538D33"/>
<path d="M69.586 13.8058C72.1456 13.8058 74.2206 11.725 74.2206 9.15807C74.2206 6.59119 72.1456 4.51031 69.586 4.51031C67.0264 4.51031 64.9514 6.59119 64.9514 9.15807C64.9514 11.725 67.0264 13.8058 69.586 13.8058Z" fill="white"/>
<path d="M220.8 219.869H97.1105C96.2859 219.868 95.4952 219.539 94.9121 218.954C94.329 218.369 94.001 217.576 94 216.749V68.1194C94.0009 67.2924 94.3289 66.4995 94.9121 65.9147C95.4952 65.3299 96.2859 65.0009 97.1105 65H220.8C221.625 65.001 222.416 65.3299 222.999 65.9147C223.582 66.4995 223.91 67.2924 223.911 68.1194V216.749C223.91 217.576 223.582 218.369 222.999 218.954C222.416 219.539 221.625 219.868 220.8 219.869Z" fill="#E6E6E6"/>
<path d="M133.696 168.577L138.515 172.447L151.94 155.521L147.12 151.646L133.696 168.577Z" fill="#C1CFF9"/>
<g style="mix-blend-mode:multiply" opacity="0.5">
<path d="M149.533 153.583L147.121 151.646L133.696 168.577L136.104 170.515L149.533 153.583Z" fill="#C1CFF9"/>
</g>
<path d="M116.251 187.732C114.536 189.871 114.877 192.997 117.013 194.709C119.15 196.427 122.273 196.086 123.983 193.948L144.122 168.841C145.837 166.703 145.496 163.577 143.359 161.859C141.222 160.142 138.099 160.483 136.384 162.621L116.245 187.729L116.251 187.732Z" fill="#538D33"/>
<path d="M141.891 112.871C130.99 126.464 133.162 146.332 146.746 157.249C160.33 168.166 180.178 165.998 191.079 152.405C201.98 138.812 199.808 118.944 186.224 108.027C172.64 97.1096 152.792 99.2773 141.891 112.871ZM182.878 112.199C194.158 121.264 195.961 137.766 186.91 149.054C177.853 160.343 161.373 162.142 150.092 153.077C138.811 144.007 137.009 127.51 146.06 116.222C155.112 104.933 171.597 103.134 182.878 112.199Z" fill="#538D33"/>
<path d="M142.846 113.642C132.37 126.706 134.457 145.803 147.512 156.294C160.567 166.79 179.644 164.704 190.12 151.64C200.601 138.575 198.509 119.479 185.454 108.987C172.399 98.4912 153.322 100.578 142.846 113.642ZM182.878 112.199C194.158 121.264 195.961 137.766 186.91 149.054C177.853 160.343 161.373 162.142 150.092 153.077C138.811 144.007 137.009 127.509 146.06 116.221C155.112 104.933 171.597 103.134 182.878 112.199Z" fill="#74CA45"/>
<g style="mix-blend-mode:screen" opacity="0.7">
<path d="M146.06 116.221C137.004 127.51 138.812 144.012 150.092 153.077C161.373 162.147 177.858 160.342 186.91 149.054C195.961 137.766 194.158 121.264 182.878 112.199C171.597 103.129 155.112 104.933 146.06 116.221Z" fill="url(#paint0_linear_623_26843)"/>
</g>
<path d="M152.311 150.419C151.714 151.068 150.707 151.108 150.06 150.515C145.43 146.252 142.661 140.437 142.264 134.134C142.187 132.893 142.202 131.64 142.32 130.411C142.402 129.532 143.176 128.888 144.054 128.97C144.245 128.988 144.425 129.039 144.59 129.114C145.176 129.394 145.558 130.018 145.493 130.701C145.394 131.771 145.38 132.857 145.448 133.933C145.79 139.407 148.195 144.465 152.219 148.165C152.867 148.762 152.907 149.771 152.316 150.418L152.311 150.419Z" fill="white"/>
<path d="M147.434 123.62C147.056 124.417 146.108 124.759 145.312 124.381C144.516 124.003 144.174 123.054 144.552 122.257C145.981 119.23 147.972 116.582 150.466 114.39C150.956 113.959 151.644 113.882 152.201 114.147C152.395 114.237 152.569 114.367 152.719 114.538C153.301 115.2 153.232 116.212 152.571 116.788C150.405 118.692 148.679 120.991 147.434 123.62Z" fill="white"/>
<path d="M163.029 139.798V139.244C163.04 137.341 163.208 135.824 163.534 134.693C163.872 133.562 164.361 132.648 165.003 131.952C165.644 131.256 166.416 130.626 167.319 130.06C167.993 129.625 168.597 129.174 169.129 128.706C169.662 128.239 170.086 127.722 170.402 127.157C170.717 126.58 170.875 125.939 170.875 125.232C170.875 124.482 170.695 123.824 170.336 123.258C169.978 122.693 169.494 122.258 168.885 121.953C168.287 121.649 167.623 121.497 166.895 121.497C166.188 121.497 165.519 121.654 164.888 121.97C164.258 122.274 163.741 122.731 163.339 123.34C162.936 123.938 162.719 124.683 162.686 125.574H156.031C156.085 123.4 156.607 121.605 157.597 120.192C158.587 118.767 159.897 117.707 161.528 117.011C163.159 116.304 164.959 115.951 166.927 115.951C169.091 115.951 171.005 116.309 172.669 117.027C174.333 117.734 175.638 118.762 176.584 120.11C177.53 121.458 178.003 123.084 178.003 124.987C178.003 126.26 177.791 127.391 177.367 128.38C176.954 129.359 176.372 130.229 175.621 130.99C174.871 131.74 173.985 132.42 172.963 133.029C172.104 133.54 171.397 134.073 170.842 134.628C170.298 135.182 169.891 135.824 169.619 136.552C169.358 137.281 169.222 138.178 169.211 139.244V139.798H163.029ZM166.259 150.238C165.171 150.238 164.241 149.857 163.469 149.096C162.708 148.324 162.333 147.4 162.344 146.323C162.333 145.257 162.708 144.344 163.469 143.583C164.241 142.821 165.171 142.441 166.259 142.441C167.292 142.441 168.2 142.821 168.983 143.583C169.766 144.344 170.162 145.257 170.173 146.323C170.162 147.041 169.972 147.699 169.602 148.297C169.244 148.884 168.771 149.357 168.183 149.716C167.596 150.064 166.954 150.238 166.259 150.238Z" fill="#F17228"/>
<path d="M163.628 51.4421H86.5961C84.9469 51.4444 83.3659 52.1025 82.1997 53.272C81.0335 54.4415 80.3773 56.027 80.375 57.6809V207.338L81.1069 207.115V57.6809C81.1087 56.2214 81.6876 54.8223 82.7166 53.7903C83.7456 52.7584 85.1408 52.1778 86.5961 52.1761H163.855L163.628 51.4421ZM230.779 51.4421H86.5961C84.9469 51.4444 83.3659 52.1025 82.1997 53.272C81.0335 54.4415 80.3773 56.027 80.375 57.6809V225.761C80.3773 227.415 81.0335 229.001 82.1997 230.17C83.3659 231.34 84.9469 231.998 86.5961 232H230.779C232.428 231.998 234.009 231.34 235.175 230.17C236.341 229.001 236.998 227.415 237 225.761V57.6809C236.998 56.027 236.341 54.4415 235.175 53.272C234.009 52.1025 232.428 51.4444 230.779 51.4421ZM236.268 225.761C236.266 227.221 235.687 228.62 234.658 229.652C233.629 230.684 232.234 231.264 230.779 231.266H86.5961C85.1408 231.264 83.7456 230.684 82.7166 229.652C81.6876 228.62 81.1087 227.221 81.1069 225.761V57.6809C81.1087 56.2214 81.6876 54.8223 82.7166 53.7903C83.7456 52.7584 85.1408 52.1778 86.5961 52.1761H230.779C232.234 52.1778 233.629 52.7584 234.658 53.7903C235.687 54.8223 236.266 56.2214 236.268 57.6809V225.761Z" fill="#BDBDBD"/>
<path d="M192.355 67.5895H125.021C124.147 67.5886 123.31 67.2403 122.693 66.6211C122.075 66.0019 121.728 65.1623 121.727 64.2867V48.1392C121.728 47.2635 122.075 46.424 122.693 45.8048C123.31 45.1856 124.147 44.8373 125.021 44.8363H192.355C193.228 44.8373 194.065 45.1856 194.682 45.8048C195.3 46.424 195.647 47.2635 195.648 48.1392V64.2867C195.647 65.1623 195.3 66.0019 194.682 66.6211C194.065 67.2403 193.228 67.5886 192.355 67.5895Z" fill="#538D33"/>
<path d="M158.688 45.9373C162.73 45.9373 166.006 42.6511 166.006 38.5975C166.006 34.5439 162.73 31.2578 158.688 31.2578C154.645 31.2578 151.369 34.5439 151.369 38.5975C151.369 42.6511 154.645 45.9373 158.688 45.9373Z" fill="#538D33"/>
<path d="M158.688 43.0681C161.15 43.0681 163.145 41.0665 163.145 38.5975C163.145 36.1284 161.15 34.1269 158.688 34.1269C156.225 34.1269 154.23 36.1284 154.23 38.5975C154.23 41.0665 156.225 43.0681 158.688 43.0681Z" fill="white"/>
</g>
<defs>
<linearGradient id="paint0_linear_623_26843" x1="192.262" y1="128.017" x2="140.706" y2="137.259" gradientUnits="userSpaceOnUse">
<stop stop-color="white"/>
<stop offset="0.71875" stop-color="#F0F0F0"/>
<stop offset="1" stop-color="#E0E0E0"/>
</linearGradient>
<clipPath id="clip0_623_26843">
<rect width="237" height="232" fill="white"/>
</clipPath>
</defs>
</svg>
