<svg width="28" height="28" viewBox="0 0 28 28" fill="none" xmlns="http://www.w3.org/2000/svg">
<g clip-path="url(#clip0_818_16563)">
<path d="M27.8729 19.0563C27.3445 18.261 27.3582 17.2118 27.9146 16.43C28.047 16.244 28.0227 15.989 27.8613 15.8275L12.1725 0.138724C12.0111 -0.0226587 11.756 -0.04694 11.57 0.0854038C10.7882 0.641794 9.73906 0.655521 8.94374 0.12713C8.75922 0.00452098 8.51269 0.0338882 8.35601 0.190568L0.190568 8.35596C0.0338882 8.51264 0.00452098 8.75917 0.12713 8.94369C0.655576 9.73901 0.641794 10.7881 0.0854038 11.5699C-0.04694 11.7559 -0.0226587 12.011 0.138724 12.1724L15.8275 27.8612C15.9889 28.0226 16.244 28.0469 16.43 27.9146C17.2118 27.3582 18.261 27.3444 19.0563 27.8728C19.2408 27.9954 19.4873 27.9661 19.644 27.8094L27.8095 19.644C27.9661 19.4873 27.9955 19.2408 27.8729 19.0563Z" fill="#FC502A"/>
<path d="M11.57 0.0854038C10.7882 0.641794 9.73905 0.655521 8.94373 0.127076C8.75922 0.00446628 8.51268 0.0338882 8.356 0.190513L6.19836 2.34815C6.35499 2.19153 6.60157 2.16211 6.78609 2.28472C7.58141 2.81316 8.63054 2.79938 9.41235 2.24299C9.59834 2.11065 9.85346 2.13493 10.0148 2.29631L25.7036 17.9851C25.865 18.1465 25.8893 18.4016 25.757 18.5876C25.2006 19.3694 25.1868 20.4185 25.7152 21.2139C25.8378 21.3984 25.8084 21.6449 25.6518 21.8016L27.8094 19.644C27.9661 19.4873 27.9955 19.2408 27.8729 19.0562C27.3444 18.2609 27.3582 17.2118 27.9146 16.43C28.0469 16.244 28.0227 15.9889 27.8613 15.8275L12.1725 0.138724C12.011 -0.0226587 11.756 -0.04694 11.57 0.0854038Z" fill="#E60D28"/>
<path d="M14.0001 20.7142C17.7084 20.7142 20.7146 17.708 20.7146 13.9997C20.7146 10.2914 17.7084 7.28516 14.0001 7.28516C10.2917 7.28516 7.28552 10.2914 7.28552 13.9997C7.28552 17.708 10.2917 20.7142 14.0001 20.7142Z" fill="white"/>
<path d="M9.25233 9.25271C8.88556 9.6191 8.56235 10.0266 8.28912 10.4672C10.8786 8.86213 14.3227 9.18304 16.5701 11.4304C18.8175 13.6778 19.1384 17.1219 17.5333 19.7114C17.9738 19.4381 18.3814 19.1149 18.7478 18.7482C21.3699 16.1261 21.3699 11.8748 18.7478 9.25271C16.1257 6.63061 11.8744 6.63061 9.25233 9.25271Z" fill="#E6E6E6"/>
<path d="M24.3376 19.0312C24.281 19.0313 24.2249 19.0202 24.1726 18.9985C24.1203 18.9768 24.0727 18.945 24.0328 18.9049C23.9927 18.8649 23.9609 18.8174 23.9393 18.7651C23.9176 18.7128 23.9064 18.6567 23.9064 18.6001C23.9064 18.5434 23.9176 18.4874 23.9392 18.4351C23.9609 18.3827 23.9927 18.3352 24.0327 18.2952L24.3579 17.97C24.4389 17.8899 24.5483 17.845 24.6623 17.8453C24.7762 17.8456 24.8854 17.891 24.966 17.9716C25.0466 18.0522 25.092 18.1614 25.0923 18.2753C25.0926 18.3893 25.0478 18.4987 24.9676 18.5797L24.6425 18.9049C24.6025 18.945 24.555 18.9768 24.5026 18.9985C24.4503 19.0202 24.3942 19.0313 24.3376 19.0312ZM20.1256 23.2432C20.0689 23.2433 20.0128 23.2322 19.9605 23.2105C19.9082 23.1888 19.8607 23.157 19.8207 23.1169C19.7806 23.0769 19.7489 23.0294 19.7272 22.977C19.7055 22.9247 19.6944 22.8687 19.6944 22.8121C19.6944 22.7554 19.7056 22.6994 19.7272 22.6471C19.7489 22.5948 19.7807 22.5472 19.8207 22.5072L20.4017 21.9263C20.4418 21.8862 20.4893 21.8545 20.5416 21.8328C20.5939 21.8111 20.65 21.8 20.7066 21.8C20.7632 21.8 20.8193 21.8111 20.8716 21.8328C20.9239 21.8545 20.9714 21.8862 21.0114 21.9263C21.0515 21.9663 21.0832 22.0138 21.1049 22.0661C21.1266 22.1184 21.1377 22.1745 21.1377 22.2311C21.1377 22.2878 21.1266 22.3438 21.1049 22.3961C21.0832 22.4484 21.0514 22.4959 21.0114 22.536L20.4304 23.1169C20.3904 23.157 20.3429 23.1888 20.2906 23.2105C20.2383 23.2321 20.1822 23.2433 20.1256 23.2432ZM22.2315 21.1372C22.1462 21.1373 22.0629 21.112 21.992 21.0646C21.921 21.0172 21.8658 20.9499 21.8331 20.8711C21.8005 20.7923 21.792 20.7056 21.8086 20.622C21.8252 20.5384 21.8663 20.4615 21.9266 20.4012L22.5076 19.8202C22.5886 19.7401 22.6981 19.6953 22.812 19.6956C22.926 19.6959 23.0352 19.7413 23.1157 19.8218C23.1963 19.9024 23.2417 20.0116 23.242 20.1256C23.2423 20.2395 23.1975 20.3489 23.1174 20.43L22.5364 21.011C22.4964 21.0511 22.4489 21.0828 22.3966 21.1045C22.3442 21.1262 22.2881 21.1373 22.2315 21.1372ZM18.2754 25.0934C18.1901 25.0935 18.1067 25.0682 18.0358 25.0208C17.9649 24.9734 17.9096 24.9061 17.877 24.8273C17.8443 24.7485 17.8358 24.6618 17.8525 24.5781C17.8691 24.4945 17.9102 24.4177 17.9705 24.3574L18.2958 24.0322C18.3768 23.9521 18.4862 23.9073 18.6002 23.9076C18.7141 23.9079 18.8233 23.9533 18.9039 24.0339C18.9844 24.1145 19.0298 24.2237 19.0301 24.3377C19.0304 24.4516 18.9856 24.561 18.9054 24.642L18.5802 24.9672C18.5402 25.0073 18.4927 25.0391 18.4404 25.0607C18.3881 25.0824 18.332 25.0935 18.2754 25.0934ZM9.39948 4.09311C9.3142 4.09313 9.23083 4.06785 9.15992 4.02048C9.08901 3.97311 9.03374 3.90578 9.0011 3.82699C8.96846 3.74821 8.95993 3.66151 8.97657 3.57787C8.99321 3.49424 9.03428 3.41741 9.09459 3.35712L9.41982 3.0319C9.50082 2.95175 9.61026 2.90693 9.72421 2.90723C9.83816 2.90753 9.94735 2.95292 10.0279 3.0335C10.1085 3.11407 10.1539 3.22326 10.1542 3.33721C10.1545 3.45116 10.1097 3.5606 10.0296 3.64161L9.70436 3.96683C9.66436 4.00692 9.61683 4.03871 9.56451 4.06038C9.51219 4.08205 9.45611 4.09317 9.39948 4.09311ZM5.1875 8.30508C5.13087 8.30516 5.07478 8.29405 5.02246 8.27238C4.97013 8.25071 4.92261 8.21891 4.88262 8.17881C4.84258 8.13878 4.81082 8.09125 4.78915 8.03894C4.76748 7.98663 4.75633 7.93056 4.75634 7.87394C4.75634 7.81732 4.7675 7.76126 4.78918 7.70895C4.81085 7.65665 4.84262 7.60912 4.88267 7.5691L5.46367 6.98815C5.5037 6.94811 5.55123 6.91634 5.60353 6.89467C5.65584 6.873 5.71191 6.86184 5.76853 6.86184C5.82515 6.86184 5.88121 6.873 5.93352 6.89467C5.98583 6.91634 6.03335 6.94811 6.07338 6.98815C6.11342 7.02819 6.14519 7.07571 6.16685 7.12802C6.18852 7.18033 6.19967 7.2364 6.19967 7.29302C6.19966 7.34964 6.1885 7.4057 6.16682 7.45801C6.14515 7.51032 6.11338 7.55784 6.07333 7.59786L5.49233 8.17881C5.45234 8.2189 5.40482 8.25069 5.35251 8.27236C5.3002 8.29403 5.24412 8.30515 5.1875 8.30508ZM7.29346 6.19912C7.20818 6.19914 7.12482 6.17387 7.0539 6.1265C6.98299 6.07913 6.92772 6.01179 6.89508 5.93301C6.86245 5.85422 6.85391 5.76753 6.87055 5.68389C6.88719 5.60025 6.92827 5.52343 6.98858 5.46314L7.56958 4.88214C7.65058 4.80199 7.76001 4.75717 7.87396 4.75747C7.98791 4.75777 8.09711 4.80317 8.17769 4.88374C8.25827 4.96431 8.30367 5.0735 8.30398 5.18745C8.30429 5.3014 8.25948 5.41084 8.17934 5.49185L7.59834 6.07285C7.55835 6.11294 7.51082 6.14473 7.4585 6.1664C7.40618 6.18807 7.35009 6.19919 7.29346 6.19912ZM3.3372 10.1553C3.25192 10.1553 3.16855 10.1301 3.09763 10.0827C3.02671 10.0353 2.97144 9.96797 2.93881 9.88918C2.90618 9.81038 2.89765 9.72368 2.91431 9.64004C2.93096 9.55639 2.97205 9.47957 3.03238 9.41929L3.3576 9.09411C3.43862 9.01398 3.54806 8.96918 3.66201 8.9695C3.77596 8.96982 3.88515 9.01524 3.96571 9.09582C4.04628 9.17641 4.09166 9.28561 4.09195 9.39956C4.09224 9.51351 4.04741 9.62294 3.96726 9.70393L3.64203 10.0291C3.60204 10.0692 3.55452 10.101 3.50221 10.1226C3.4499 10.1443 3.39382 10.1554 3.3372 10.1553Z" fill="white"/>
<path d="M10.3018 14.8846C10.1687 15.0177 10.1434 15.2839 10.3209 15.4613C10.4286 15.5691 10.5808 15.6198 10.7075 15.5691L17.5905 13.2494C17.6475 13.2304 17.6919 13.1987 17.7299 13.1606C17.901 12.9895 17.844 12.7043 17.6982 12.5585C17.6031 12.4635 17.4701 12.4191 17.337 12.4635L10.435 14.8021C10.3906 14.8212 10.3399 14.8465 10.3018 14.8846ZM13.9271 15.1254L13.0082 16.0444C12.4061 16.6465 12.5835 17.2549 13.0969 17.7683C13.6039 18.2753 14.2123 18.4528 14.8144 17.8506L15.7334 16.9317C16.3292 16.3359 16.1581 15.7211 15.651 15.2141C15.1377 14.7008 14.5229 14.5296 13.9271 15.1254ZM15.1947 16.3929L14.2758 17.3119C14.0413 17.5464 13.7941 17.5148 13.5723 17.2929C13.3504 17.0711 13.3251 16.8302 13.5596 16.5957L14.4785 15.6768C14.713 15.4423 14.9539 15.4676 15.1757 15.6894C15.3975 15.9113 15.4292 16.1584 15.1947 16.3929ZM13.1666 10.1692L12.2476 11.0882C11.6519 11.6839 11.823 12.2987 12.3363 12.812C12.8434 13.3191 13.4581 13.4902 14.0539 12.8944L14.9729 11.9755C15.5686 11.3797 15.3975 10.7649 14.8905 10.2579C14.3771 9.74453 13.7624 9.57342 13.1666 10.1692ZM14.4152 10.7332C14.637 10.955 14.6687 11.2022 14.4342 11.4367L13.5152 12.3557C13.2807 12.5902 13.0335 12.5585 12.8117 12.3367C12.5899 12.1149 12.5645 11.874 12.799 11.6395L13.718 10.7205C13.9525 10.486 14.1934 10.5114 14.4152 10.7332Z" fill="#E60D28"/>
</g>
<defs>
<clipPath id="clip0_818_16563">
<rect width="28" height="28" fill="white"/>
</clipPath>
</defs>
</svg>
