<svg width="24" height="25" viewBox="0 0 24 25" fill="none" xmlns="http://www.w3.org/2000/svg">
<rect x="3.125" y="9.25" width="12" height="12" rx="2" stroke="black" stroke-width="1.2"/>
<path d="M8.625 9H8.025V9.6H8.625V9ZM15.625 16H15.025V16.6H15.625V16ZM9.225 5.75C9.225 4.9768 9.8518 4.35 10.625 4.35V3.15C9.18906 3.15 8.025 4.31406 8.025 5.75H9.225ZM9.225 9V5.75H8.025V9H9.225ZM8.625 9.6H13.625V8.4H8.625V9.6ZM13.625 9.6C14.3982 9.6 15.025 10.2268 15.025 11H16.225C16.225 9.56406 15.0609 8.4 13.625 8.4V9.6ZM15.025 11V16H16.225V11H15.025ZM18.875 15.4H15.625V16.6H18.875V15.4ZM20.275 14C20.275 14.7732 19.6482 15.4 18.875 15.4V16.6C20.3109 16.6 21.475 15.4359 21.475 14H20.275ZM20.275 5.75V14H21.475V5.75H20.275ZM18.875 4.35C19.6482 4.35 20.275 4.9768 20.275 5.75H21.475C21.475 4.31406 20.3109 3.15 18.875 3.15V4.35ZM10.625 4.35H18.875V3.15H10.625V4.35Z" fill="black"/>
</svg>
