<svg width="16" height="17" viewBox="0 0 16 17" fill="none" xmlns="http://www.w3.org/2000/svg">
<path fill-rule="evenodd" clip-rule="evenodd" d="M8.00004 14.8432C4.32004 14.8432 1.33337 11.8632 1.33337 8.17651C1.33337 4.49651 4.32004 1.50984 8.00004 1.50984C11.6867 1.50984 14.6667 4.49651 14.6667 8.17651C14.6667 11.8632 11.6867 14.8432 8.00004 14.8432ZM10.1267 10.6498C10.2067 10.6964 10.2934 10.7231 10.3867 10.7231C10.5534 10.7231 10.72 10.6364 10.8134 10.4764C10.9534 10.2431 10.88 9.93643 10.64 9.78976L8.2667 8.37643V5.29643C8.2667 5.01643 8.04003 4.79643 7.7667 4.79643C7.49337 4.79643 7.2667 5.01643 7.2667 5.29643V8.6631C7.2667 8.83643 7.36003 8.99643 7.51337 9.08976L10.1267 10.6498Z" fill="#74CA45"/>
</svg>
