<svg width="24" height="24" viewBox="0 0 24 24" fill="none" xmlns="http://www.w3.org/2000/svg">
<path d="M4.80002 4.80009C3.47454 4.80009 2.40002 5.87461 2.40002 7.20009V8.40009H21.6V7.20009C21.6 5.87461 20.5255 4.80009 19.2 4.80009H4.80002Z" fill="#F17228"/>
<path fill-rule="evenodd" clip-rule="evenodd" d="M21.6 10.8001H2.40002V16.8001C2.40002 18.1256 3.47454 19.2001 4.80002 19.2001H19.2C20.5255 19.2001 21.6 18.1256 21.6 16.8001V10.8001ZM4.80002 15.6001C4.80002 14.9374 5.33728 14.4001 6.00002 14.4001H7.20002C7.86277 14.4001 8.40002 14.9374 8.40002 15.6001C8.40002 16.2628 7.86277 16.8001 7.20002 16.8001H6.00002C5.33728 16.8001 4.80002 16.2628 4.80002 15.6001ZM10.8 14.4001C10.1373 14.4001 9.60002 14.9374 9.60002 15.6001C9.60002 16.2628 10.1373 16.8001 10.8 16.8001H12C12.6628 16.8001 13.2 16.2628 13.2 15.6001C13.2 14.9374 12.6628 14.4001 12 14.4001H10.8Z" fill="#F17228"/>
</svg>
