<svg width="48" height="48" viewBox="0 0 48 48" fill="none" xmlns="http://www.w3.org/2000/svg">
<path d="M35.8368 28.64C35.3188 29.142 35.0808 29.868 35.1988 30.58L36.9768 40.42C37.1268 41.254 36.7748 42.098 36.0768 42.58C35.3928 43.08 34.4828 43.14 33.7368 42.74L24.8788 38.12C24.5708 37.956 24.2288 37.868 23.8788 37.858H23.3368C23.1488 37.886 22.9648 37.946 22.7968 38.038L13.9368 42.68C13.4988 42.9 13.0028 42.978 12.5168 42.9C11.3328 42.676 10.5428 41.548 10.7368 40.358L12.5168 30.518C12.6348 29.8 12.3968 29.07 11.8788 28.56L4.65678 21.56C4.05278 20.974 3.84278 20.094 4.11878 19.3C4.38678 18.508 5.07078 17.93 5.89678 17.8L15.8368 16.358C16.5928 16.28 17.2568 15.82 17.5968 15.14L21.9768 6.16C22.0808 5.96 22.2148 5.776 22.3768 5.62L22.5568 5.48C22.6508 5.376 22.7588 5.29 22.8788 5.22L23.0968 5.14L23.4368 5H24.2788C25.0308 5.078 25.6928 5.528 26.0388 6.2L30.4768 15.14C30.7968 15.794 31.4188 16.248 32.1368 16.358L42.0768 17.8C42.9168 17.92 43.6188 18.5 43.8968 19.3C44.1588 20.102 43.9328 20.982 43.3168 21.56L35.8368 28.64Z" fill="white" stroke="#CEC6C5" stroke-width="1.5"/>
</svg>
