<svg width="54" height="58" viewBox="0 0 54 58" fill="none" xmlns="http://www.w3.org/2000/svg">
<g filter="url(#filter0_d_624_30873)">
<mask id="path-1-inside-1_624_30873" fill="white">
<path fill-rule="evenodd" clip-rule="evenodd" d="M29.5165 38.8032C37.1575 37.5961 43 30.9803 43 23C43 14.1634 35.8366 7 27 7C18.1634 7 11 14.1634 11 23C11 30.788 16.5643 37.2764 23.9342 38.7066C24.4552 40.5906 25.5156 42.6745 26.739 42.6745C27.9415 42.6745 28.9865 40.6611 29.5165 38.8032Z"/>
</mask>
<path fill-rule="evenodd" clip-rule="evenodd" d="M29.5165 38.8032C37.1575 37.5961 43 30.9803 43 23C43 14.1634 35.8366 7 27 7C18.1634 7 11 14.1634 11 23C11 30.788 16.5643 37.2764 23.9342 38.7066C24.4552 40.5906 25.5156 42.6745 26.739 42.6745C27.9415 42.6745 28.9865 40.6611 29.5165 38.8032Z" fill="#74CA45"/>
<path d="M29.5165 38.8032L29.3528 37.7668L28.6913 37.8713L28.5075 38.5154L29.5165 38.8032ZM23.9342 38.7066L24.9455 38.4269L24.7723 37.8004L24.1341 37.6765L23.9342 38.7066ZM41.9507 23C41.9507 30.456 36.4918 36.639 29.3528 37.7668L29.6803 39.8396C37.8232 38.5532 44.0493 31.5047 44.0493 23H41.9507ZM27 8.04926C35.2571 8.04926 41.9507 14.7429 41.9507 23H44.0493C44.0493 13.584 36.416 5.95074 27 5.95074V8.04926ZM12.0493 23C12.0493 14.7429 18.7429 8.04926 27 8.04926V5.95074C17.584 5.95074 9.95074 13.584 9.95074 23H12.0493ZM24.1341 37.6765C17.248 36.3403 12.0493 30.2761 12.0493 23H9.95074C9.95074 31.2999 15.8806 38.2126 23.7343 39.7366L24.1341 37.6765ZM26.739 41.6252C26.7383 41.6252 26.7235 41.6256 26.6886 41.6112C26.6512 41.5958 26.5929 41.5641 26.5153 41.5017C26.3546 41.3725 26.1626 41.1534 25.9575 40.8323C25.5477 40.1906 25.188 39.3039 24.9455 38.4269L22.9229 38.9862C23.2014 39.9933 23.6324 41.0905 24.1889 41.9618C24.4669 42.3971 24.8019 42.8168 25.2004 43.1371C25.6011 43.4593 26.1219 43.7237 26.739 43.7237V41.6252ZM28.5075 38.5154C28.2606 39.3807 27.9032 40.2433 27.5 40.864C27.2983 41.1745 27.1107 41.3846 26.9548 41.5079C26.8797 41.5673 26.8234 41.5975 26.7875 41.612C26.754 41.6256 26.7397 41.6252 26.739 41.6252V43.7237C27.3454 43.7237 27.8591 43.4682 28.2566 43.1538C28.6515 42.8416 28.9837 42.4322 29.2598 42.0071C29.8123 41.1567 30.2424 40.0836 30.5255 39.0911L28.5075 38.5154Z" fill="white" mask="url(#path-1-inside-1_624_30873)"/>
</g>
<rect width="20.96" height="20.9852" transform="translate(16.2117 12)" fill="#74CA45"/>
<path fill-rule="evenodd" clip-rule="evenodd" d="M21.5044 16.2499C24.3693 13.3815 29.0142 13.3815 31.8791 16.2499C34.744 19.1182 34.744 23.7687 31.8791 26.637L26.6917 31.8306L21.5044 26.637C18.6395 23.7687 18.6395 19.1182 21.5044 16.2499ZM26.6917 23.542C27.8493 23.542 28.7877 22.6024 28.7877 21.4435C28.7877 20.2845 27.8493 19.3449 26.6917 19.3449C25.5342 19.3449 24.5957 20.2845 24.5957 21.4435C24.5957 22.6024 25.5342 23.542 26.6917 23.542Z" fill="white"/>
<defs>
<filter id="filter0_d_624_30873" x="0.50739" y="0.704434" width="52.9852" height="56.6595" filterUnits="userSpaceOnUse" color-interpolation-filters="sRGB">
<feFlood flood-opacity="0" result="BackgroundImageFix"/>
<feColorMatrix in="SourceAlpha" type="matrix" values="0 0 0 0 0 0 0 0 0 0 0 0 0 0 0 0 0 0 127 0" result="hardAlpha"/>
<feOffset dy="4.19704"/>
<feGaussianBlur stdDeviation="5.2463"/>
<feColorMatrix type="matrix" values="0 0 0 0 0 0 0 0 0 0 0 0 0 0 0 0 0 0 0.1 0"/>
<feBlend mode="normal" in2="BackgroundImageFix" result="effect1_dropShadow_624_30873"/>
<feBlend mode="normal" in="SourceGraphic" in2="effect1_dropShadow_624_30873" result="shape"/>
</filter>
</defs>
</svg>
