<svg width="24" height="24" viewBox="0 0 24 24" fill="none" xmlns="http://www.w3.org/2000/svg">
<path fill-rule="evenodd" clip-rule="evenodd" d="M2.00006 12C2.00006 6.48 6.47006 2 12.0001 2C17.5201 2 22.0001 6.48 22.0001 12C22.0001 17.52 17.5201 22 12.0001 22C6.47006 22 2.00006 17.52 2.00006 12ZM10.3377 14.7609C10.5004 14.9226 10.7115 15.0023 10.9226 15.0001C11.1337 14.9989 11.3436 14.917 11.5042 14.7532L15.7622 10.4135C16.0821 10.087 16.0788 9.56222 15.7556 9.24006C15.4312 8.91791 14.909 8.92013 14.5891 9.24671L10.9105 12.9952L9.4043 11.4984C9.07997 11.1763 8.55885 11.1796 8.23783 11.5062C7.9179 11.8328 7.9212 12.3575 8.24552 12.6797L10.3377 14.7609Z" fill="#CEC6C5"/>
</svg>
