<svg width="111" height="110" viewBox="0 0 111 110" fill="none" xmlns="http://www.w3.org/2000/svg">
<path d="M93.3125 12.0312H12.5312C10.6328 12.0312 9.09375 13.5703 9.09375 15.4688V72.1875C9.09375 74.086 10.6328 75.625 12.5312 75.625H93.3125C95.211 75.625 96.75 74.086 96.75 72.1875V15.4688C96.75 13.5703 95.211 12.0312 93.3125 12.0312Z" fill="#B3EA96"/>
<path d="M93.3125 68.75H12.5312C11.6196 68.75 10.7452 68.3878 10.1006 67.7432C9.45591 67.0985 9.09375 66.2242 9.09375 65.3125V72.1875C9.09375 73.0992 9.45591 73.9735 10.1006 74.6182C10.7452 75.2628 11.6196 75.625 12.5312 75.625H93.3125C94.2242 75.625 95.0985 75.2628 95.7432 74.6182C96.3878 73.9735 96.75 73.0992 96.75 72.1875V65.3125C96.75 66.2242 96.3878 67.0985 95.7432 67.7432C95.0985 68.3878 94.2242 68.75 93.3125 68.75Z" fill="#74CA45"/>
<path d="M9.09375 22.3438H96.75V34.375H9.09375V22.3438Z" fill="#538D33"/>
<path d="M9.09375 34.375H57.2188V42.9688H9.09375V34.375Z" fill="#E8EAF6"/>
<path d="M79.5625 97.9688C91.9026 97.9688 101.906 87.9651 101.906 75.625C101.906 63.2849 91.9026 53.2812 79.5625 53.2812C67.2224 53.2812 57.2188 63.2849 57.2188 75.625C57.2188 87.9651 67.2224 97.9688 79.5625 97.9688Z" fill="#FFAB17"/>
<path d="M79.5625 91.0938C68.3941 91.0938 59.1678 82.8919 57.5109 72.1875C57.3356 73.3116 57.2188 74.4528 57.2188 75.625C57.2188 87.9656 67.2219 97.9688 79.5625 97.9688C91.9031 97.9688 101.906 87.9656 101.906 75.625C101.906 74.4528 101.789 73.3116 101.614 72.1875C99.9572 82.8919 90.7309 91.0938 79.5625 91.0938Z" fill="#F17228"/>
<path d="M89.2202 65.9673C89.0805 65.8275 88.9146 65.7167 88.7321 65.641C88.5495 65.5653 88.3539 65.5264 88.1562 65.5264C87.9586 65.5264 87.763 65.5653 87.5804 65.641C87.3979 65.7167 87.232 65.8275 87.0923 65.9673L79.5625 73.4989L72.0327 65.9673C71.7505 65.6852 71.3678 65.5267 70.9688 65.5267C70.5697 65.5267 70.187 65.6852 69.9048 65.9673C69.6227 66.2495 69.4642 66.6322 69.4642 67.0312C69.4642 67.4303 69.6227 67.813 69.9048 68.0952L77.4364 75.625L69.9048 83.1548C69.7651 83.2946 69.6543 83.4604 69.5787 83.643C69.5031 83.8255 69.4642 84.0212 69.4642 84.2188C69.4642 84.4163 69.5031 84.612 69.5787 84.7945C69.6543 84.9771 69.7651 85.1429 69.9048 85.2827C70.0446 85.4224 70.2104 85.5332 70.393 85.6088C70.5755 85.6844 70.7712 85.7233 70.9688 85.7233C71.1663 85.7233 71.362 85.6844 71.5445 85.6088C71.7271 85.5332 71.8929 85.4224 72.0327 85.2827L79.5625 77.7511L87.0923 85.2827C87.2317 85.4231 87.3974 85.5345 87.58 85.6106C87.7626 85.6866 87.9584 85.7258 88.1562 85.7258C88.3541 85.7258 88.5499 85.6866 88.7325 85.6106C88.9151 85.5345 89.0808 85.4231 89.2202 85.2827C89.3599 85.143 89.4708 84.9771 89.5465 84.7946C89.6222 84.612 89.6611 84.4164 89.6611 84.2188C89.6611 84.0211 89.6222 83.8255 89.5465 83.6429C89.4708 83.4604 89.3599 83.2945 89.2202 83.1548L81.6886 75.625L89.2202 68.0952C89.3599 67.9555 89.4708 67.7896 89.5465 67.6071C89.6222 67.4245 89.6611 67.2289 89.6611 67.0312C89.6611 66.8336 89.6222 66.638 89.5465 66.4554C89.4708 66.2729 89.3599 66.107 89.2202 65.9673ZM36.5938 15.6836H24.5625C24.365 15.6836 24.1694 15.7225 23.987 15.7981C23.8045 15.8737 23.6387 15.9844 23.4991 16.1241C23.3594 16.2637 23.2487 16.4295 23.1731 16.612C23.0975 16.7944 23.0586 16.99 23.0586 17.1875C23.0586 17.385 23.0975 17.5806 23.1731 17.763C23.2487 17.9455 23.3594 18.1113 23.4991 18.2509C23.6387 18.3906 23.8045 18.5013 23.987 18.5769C24.1694 18.6525 24.365 18.6914 24.5625 18.6914H36.5938C36.7912 18.6914 36.9868 18.6525 37.1693 18.5769C37.3517 18.5013 37.5175 18.3906 37.6572 18.2509C37.7968 18.1113 37.9076 17.9455 37.9832 17.763C38.0588 17.5806 38.0977 17.385 38.0977 17.1875C38.0977 16.99 38.0588 16.7944 37.9832 16.612C37.9076 16.4295 37.7968 16.2637 37.6572 16.1241C37.5175 15.9844 37.3517 15.8737 37.1693 15.7981C36.9868 15.7225 36.7912 15.6836 36.5938 15.6836ZM89.8389 41.6711H79.5264C79.1275 41.6711 78.745 41.8295 78.463 42.1116C78.181 42.3936 78.0225 42.7761 78.0225 43.175C78.0225 43.5739 78.181 43.9564 78.463 44.2384C78.745 44.5205 79.1275 44.6789 79.5264 44.6789H89.8389C90.2378 44.6789 90.6203 44.5205 90.9023 44.2384C91.1844 43.9564 91.3428 43.5739 91.3428 43.175C91.3428 42.7761 91.1844 42.3936 90.9023 42.1116C90.6203 41.8295 90.2378 41.6711 89.8389 41.6711Z" fill="white"/>
<path d="M96.75 23.8477H9.09375C8.69489 23.8477 8.31236 23.6892 8.03033 23.4072C7.74829 23.1251 7.58984 22.7426 7.58984 22.3438C7.58984 21.9449 7.74829 21.5624 8.03033 21.2803C8.31236 20.9983 8.69489 20.8398 9.09375 20.8398H96.75C97.1489 20.8398 97.5314 20.9983 97.8134 21.2803C98.0955 21.5624 98.2539 21.9449 98.2539 22.3438C98.2539 22.7426 98.0955 23.1251 97.8134 23.4072C97.5314 23.6892 97.1489 23.8477 96.75 23.8477ZM96.75 35.8789H9.09375C8.89625 35.8789 8.70069 35.84 8.51823 35.7644C8.33577 35.6889 8.16998 35.5781 8.03033 35.4384C7.89068 35.2988 7.7799 35.133 7.70432 34.9505C7.62874 34.7681 7.58984 34.5725 7.58984 34.375C7.58984 34.1775 7.62874 33.9819 7.70432 33.7995C7.7799 33.617 7.89068 33.4512 8.03033 33.3116C8.16998 33.1719 8.33577 33.0611 8.51823 32.9856C8.70069 32.91 8.89625 32.8711 9.09375 32.8711H96.75C96.9475 32.8711 97.1431 32.91 97.3255 32.9856C97.508 33.0611 97.6738 33.1719 97.8134 33.3116C97.9531 33.4512 98.0639 33.617 98.1394 33.7995C98.215 33.9819 98.2539 34.1775 98.2539 34.375C98.2539 34.5725 98.215 34.7681 98.1394 34.9505C98.0639 35.133 97.9531 35.2988 97.8134 35.4384C97.6738 35.5781 97.508 35.6889 97.3255 35.7644C97.1431 35.84 96.9475 35.8789 96.75 35.8789Z" fill="#1A237E"/>
<path d="M96.75 62.8633C96.3511 62.8633 95.9686 62.7048 95.6866 62.4228C95.4045 62.1408 95.2461 61.7582 95.2461 61.3594V15.4688C95.2461 14.4031 94.3781 13.5352 93.3125 13.5352H79.0606C78.6618 13.5352 78.2792 13.3767 77.9972 13.0947C77.7152 12.8126 77.5567 12.4301 77.5567 12.0312C77.5567 11.6324 77.7152 11.2499 77.9972 10.9678C78.2792 10.6858 78.6618 10.5273 79.0606 10.5273H93.3125C94.6226 10.5287 95.8787 11.0498 96.8051 11.9762C97.7315 12.9026 98.2525 14.1586 98.2539 15.4688V61.3594C98.2539 61.7582 98.0955 62.1408 97.8134 62.4228C97.5314 62.7048 97.1489 62.8633 96.75 62.8633ZM28.4898 77.1289H12.5312C11.2211 77.1275 9.96505 76.6065 9.03866 75.6801C8.11226 74.7537 7.59121 73.4976 7.58984 72.1875V15.4688C7.59121 14.1586 8.11226 12.9026 9.03866 11.9762C9.96505 11.0498 11.2211 10.5287 12.5312 10.5273H69.4631C69.862 10.5273 70.2445 10.6858 70.5265 10.9678C70.8086 11.2499 70.967 11.6324 70.967 12.0312C70.967 12.4301 70.8086 12.8126 70.5265 13.0947C70.2445 13.3767 69.862 13.5352 69.4631 13.5352H12.5312C11.4656 13.5352 10.5977 14.4031 10.5977 15.4688V72.1875C10.5977 73.2531 11.4656 74.1211 12.5312 74.1211H28.4898C28.8887 74.1211 29.2712 74.2795 29.5533 74.5616C29.8353 74.8436 29.9937 75.2261 29.9937 75.625C29.9937 76.0239 29.8353 76.4064 29.5533 76.6884C29.2712 76.9705 28.8887 77.1289 28.4898 77.1289ZM57.2188 77.1289H38.3125C37.9136 77.1289 37.5311 76.9705 37.2491 76.6884C36.967 76.4064 36.8086 76.0239 36.8086 75.625C36.8086 75.2261 36.967 74.8436 37.2491 74.5616C37.5311 74.2795 37.9136 74.1211 38.3125 74.1211H57.2188C57.6176 74.1211 58.0001 74.2795 58.2822 74.5616C58.5642 74.8436 58.7227 75.2261 58.7227 75.625C58.7227 76.0239 58.5642 76.4064 58.2822 76.6884C58.0001 76.9705 57.6176 77.1289 57.2188 77.1289Z" fill="#1A237E"/>
<path d="M57.2188 44.4727H9.09375C8.69489 44.4727 8.31236 44.3142 8.03033 44.0322C7.74829 43.7501 7.58984 43.3676 7.58984 42.9688C7.58984 42.5699 7.74829 42.1874 8.03033 41.9053C8.31236 41.6233 8.69489 41.4648 9.09375 41.4648H55.7148V34.375C55.7148 33.9761 55.8733 33.5936 56.1553 33.3116C56.4374 33.0295 56.8199 32.8711 57.2188 32.8711C57.6176 32.8711 58.0001 33.0295 58.2822 33.3116C58.5642 33.5936 58.7227 33.9761 58.7227 34.375V42.9688C58.7227 43.3676 58.5642 43.7501 58.2822 44.0322C58.0001 44.3142 57.6176 44.4727 57.2188 44.4727ZM48.625 53.0664H15.9688C15.5699 53.0664 15.1874 52.908 14.9053 52.6259C14.6233 52.3439 14.4648 51.9614 14.4648 51.5625C14.4648 51.1636 14.6233 50.7811 14.9053 50.4991C15.1874 50.217 15.5699 50.0586 15.9688 50.0586H48.625C49.0239 50.0586 49.4064 50.217 49.6884 50.4991C49.9705 50.7811 50.1289 51.1636 50.1289 51.5625C50.1289 51.9614 49.9705 52.3439 49.6884 52.6259C49.4064 52.908 49.0239 53.0664 48.625 53.0664ZM48.625 59.082H15.9688C15.5699 59.082 15.1874 58.9236 14.9053 58.6415C14.6233 58.3595 14.4648 57.977 14.4648 57.5781C14.4648 57.1793 14.6233 56.7967 14.9053 56.5147C15.1874 56.2327 15.5699 56.0742 15.9688 56.0742H48.625C49.0239 56.0742 49.4064 56.2327 49.6884 56.5147C49.9705 56.7967 50.1289 57.1793 50.1289 57.5781C50.1289 57.977 49.9705 58.3595 49.6884 58.6415C49.4064 58.9236 49.0239 59.082 48.625 59.082ZM33.1562 65.0977H15.9688C15.5699 65.0977 15.1874 64.9392 14.9053 64.6572C14.6233 64.3751 14.4648 63.9926 14.4648 63.5938C14.4648 63.1949 14.6233 62.8124 14.9053 62.5303C15.1874 62.2483 15.5699 62.0898 15.9688 62.0898H33.1562C33.5551 62.0898 33.9376 62.2483 34.2197 62.5303C34.5017 62.8124 34.6602 63.1949 34.6602 63.5938C34.6602 63.9926 34.5017 64.3751 34.2197 64.6572C33.9376 64.9392 33.5551 65.0977 33.1562 65.0977ZM79.5625 99.4727C66.4141 99.4727 55.7148 88.7752 55.7148 75.625C55.7148 62.4748 66.4123 51.7773 79.5625 51.7773C92.7127 51.7773 103.41 62.4748 103.41 75.625C103.41 88.7752 92.7127 99.4727 79.5625 99.4727ZM79.5625 54.7852C68.0709 54.7852 58.7227 64.1352 58.7227 75.625C58.7227 87.1148 68.0727 96.4648 79.5625 96.4648C91.0523 96.4648 100.402 87.1148 100.402 75.625C100.402 64.1352 91.0523 54.7852 79.5625 54.7852Z" fill="#1A237E"/>
</svg>
