<svg width="35" height="34" viewBox="0 0 35 34" fill="none" xmlns="http://www.w3.org/2000/svg">
<rect x="1.30237" y="1" width="32" height="32" rx="16" fill="white"/>
<rect x="1.30237" y="1" width="32" height="32" rx="16" stroke="#74CA45" stroke-width="2"/>
<g clip-path="url(#clip0_626_35051)">
<path fill-rule="evenodd" clip-rule="evenodd" d="M8.96707 15.94H12.624C12.8542 15.94 13.0426 15.7516 13.0426 15.5214V11.8644C13.0426 11.6342 12.8542 11.4458 12.624 11.4458H8.96707C8.73683 11.4458 8.54846 11.6342 8.54846 11.8644V15.5214C8.54846 15.7516 8.73683 15.94 8.96707 15.94Z" fill="#FFDC6E"/>
<path fill-rule="evenodd" clip-rule="evenodd" d="M12.2452 15.94H12.624C12.8542 15.94 13.0426 15.7516 13.0426 15.5214V11.8644C13.0426 11.6342 12.8542 11.4458 12.624 11.4458H12.2452V15.94Z" fill="#FFCA28"/>
<path fill-rule="evenodd" clip-rule="evenodd" d="M11.4633 13.129V11.4458H10.1278V13.129C10.1278 13.2616 10.219 13.3697 10.3309 13.3697H11.2602C11.3721 13.3697 11.4633 13.2616 11.4633 13.129ZM21.0883 16.1177H22.9288L23.8046 20.1666H21.0883V16.1177Z" fill="#F7524B"/>
<path fill-rule="evenodd" clip-rule="evenodd" d="M21.0883 16.1177H22.9288L23.283 17.7554L21.0883 16.9268V16.1177Z" fill="#CB413D"/>
<path fill-rule="evenodd" clip-rule="evenodd" d="M10.9573 17.364H16.7705C17.1587 17.364 17.4762 17.0465 17.4762 16.6583C17.4762 16.2702 17.1587 15.9526 16.7705 15.9526H11.6631C11.2749 15.9526 10.9573 16.2702 10.9573 16.6583V17.364ZM15.2219 22.1162C15.2219 23.5911 14.0262 24.7867 12.5514 24.7867C11.0765 24.7867 9.88086 23.5911 9.88086 22.1162H15.2219Z" fill="#404049"/>
<path fill-rule="evenodd" clip-rule="evenodd" d="M13.8816 22.1162C13.8816 22.8509 13.2861 23.4464 12.5514 23.4464C11.8167 23.4464 11.2212 22.8509 11.2212 22.1162H13.8816Z" fill="#F0F0FC"/>
<path fill-rule="evenodd" clip-rule="evenodd" d="M25.5384 22.1162C25.5384 23.5911 24.3428 24.7867 22.8679 24.7867C21.393 24.7867 20.1974 23.5911 20.1974 22.1162H25.5384Z" fill="#404049"/>
<path fill-rule="evenodd" clip-rule="evenodd" d="M24.1981 22.1162C24.1981 22.8509 23.6025 23.4464 22.8679 23.4464C22.1332 23.4464 21.5377 22.8509 21.5377 22.1162H24.1981Z" fill="#F0F0FC"/>
<path fill-rule="evenodd" clip-rule="evenodd" d="M9.36298 22.116H16.877V17.0693H11.8863C10.4985 17.0693 9.36298 18.2048 9.36298 19.5926V22.116Z" fill="#F7524B"/>
<path fill-rule="evenodd" clip-rule="evenodd" d="M16.2374 20.2578H20.6849V22.1161H16.2374V20.2578Z" fill="#F7524B"/>
<path fill-rule="evenodd" clip-rule="evenodd" d="M23.379 14.0699L21.4335 14.3652C21.3373 14.3793 21.2493 14.4277 21.1859 14.5015C21.1225 14.5753 21.0878 14.6695 21.0883 14.7668V16.3741L23.379 16.7218C23.9851 16.8138 24.4899 16.1251 24.4899 15.3958C24.4899 14.7 24.0025 13.9753 23.379 14.0699Z" fill="#EF444E"/>
<path fill-rule="evenodd" clip-rule="evenodd" d="M23.4049 16.7251C23.9994 16.794 24.4899 16.1147 24.4899 15.3958C24.4899 14.7096 24.016 13.9954 23.4049 14.0664V16.7251Z" fill="#FFDC6E"/>
<path fill-rule="evenodd" clip-rule="evenodd" d="M12.5514 18.9277C14.3123 18.9277 15.7398 20.3552 15.7398 22.1161H9.36298C9.36298 20.3552 10.7905 18.9277 12.5514 18.9277Z" fill="#E14844"/>
<path fill-rule="evenodd" clip-rule="evenodd" d="M13.62 14.4862L15.3437 15.3066L17.497 14.2567L18.8288 15.3182L21.8742 16.2143L22.3081 15.4844C21.3194 15.1542 20.5251 14.8333 19.5325 14.4389L18.7851 13.4765C18.7851 13.4765 18.8097 12.59 18.3047 12.1263C17.7998 11.6626 17.7967 11.6509 17.7967 11.6509C15.0813 11.7529 14.0451 13.0189 13.62 14.4862Z" fill="#FFDC6E"/>
<path fill-rule="evenodd" clip-rule="evenodd" d="M21.9589 16.3489C22.2631 16.3489 22.5112 16.1007 22.5112 15.7965C22.5112 15.4922 22.2631 15.2441 21.9589 15.2441C21.6546 15.2441 21.4065 15.4922 21.4065 15.7965C21.4065 16.1007 21.6546 16.3489 21.9589 16.3489ZM13.8265 16.3075L17.5257 17.585L17.4915 20.8513H18.6914L18.7972 17.0009C18.8072 16.6366 18.5985 16.3237 18.2662 16.1743L13.7376 14.1372L13.3391 15.0231C13.12 15.5103 13.3215 16.1332 13.8265 16.3075Z" fill="#484A50"/>
<path fill-rule="evenodd" clip-rule="evenodd" d="M17.489 20.6885L17.4841 21.1047C17.4799 21.4554 17.7796 21.7395 18.1303 21.7338L18.6103 21.7259L19.1955 21.7222C19.4473 21.7206 19.6513 21.5139 19.6497 21.2621L19.6493 21.2007C19.6476 20.935 19.4436 20.7157 19.185 20.6885H18.6849H17.489Z" fill="#FFDC6E"/>
<path fill-rule="evenodd" clip-rule="evenodd" d="M18.4158 21.7291L18.6103 21.7259L19.1955 21.7222C19.4473 21.7206 19.6513 21.5139 19.6497 21.2621L19.6493 21.2007C19.6476 20.935 19.4436 20.7157 19.185 20.6885H18.4159V21.7291H18.4158Z" fill="#FFCA28"/>
<path fill-rule="evenodd" clip-rule="evenodd" d="M22.8679 18.9277C24.6287 18.9277 26.0563 20.3552 26.0563 22.1161H19.6795C19.6795 20.3552 21.107 18.9277 22.8679 18.9277Z" fill="#E14844"/>
<path fill-rule="evenodd" clip-rule="evenodd" d="M12.5514 18.9277C14.3123 18.9277 15.7398 20.3552 15.7398 22.1161H14.3395C14.2948 20.6432 13.3128 19.4061 11.9697 18.9809C12.1616 18.9455 12.3563 18.9277 12.5514 18.9277ZM22.8679 18.9277C24.6288 18.9277 26.0563 20.3552 26.0563 22.1161H24.656C24.6113 20.6432 23.6293 19.4061 22.2862 18.9809C22.4781 18.9455 22.6728 18.9277 22.8679 18.9277Z" fill="#CB413D"/>
<path fill-rule="evenodd" clip-rule="evenodd" d="M21.9589 15.2441C22.264 15.2441 22.5113 15.4914 22.5113 15.7965C22.5113 16.1015 22.264 16.3488 21.9589 16.3488C21.9213 16.3488 21.8846 16.3451 21.849 16.3379C22.1015 16.2869 22.2915 16.0639 22.2915 15.7965C22.2915 15.529 22.1015 15.306 21.849 15.2551C21.8852 15.2478 21.922 15.2441 21.9589 15.2441ZM15.4624 15.2487L17.9499 16.3676C18.2822 16.5171 18.4896 16.83 18.4808 17.1943L18.3967 20.6884H18.696L18.7972 17.0009C18.8054 16.6651 18.6297 16.3729 18.3419 16.2123C18.337 16.2095 18.332 16.2069 18.3271 16.2042H18.3271C18.3071 16.1935 18.2869 16.1836 18.2663 16.1743L13.7377 14.1372L13.6129 14.4147L15.4624 15.2487Z" fill="#404049"/>
<path fill-rule="evenodd" clip-rule="evenodd" d="M15.342 12.2336C15.8951 12.004 16.5794 11.8586 17.4275 11.8267C17.5614 12.2977 17.9357 12.7738 18.3409 13.045C18.4237 13.3724 18.4159 13.6523 18.4159 13.6523L19.1633 14.6148C19.9352 14.9214 20.7052 15.2308 21.489 15.506C21.5488 15.4096 21.6368 15.3338 21.741 15.2888C20.9975 15.0244 20.2657 14.7302 19.5325 14.4389L18.7851 13.4765C18.7851 13.4765 18.7925 13.2086 18.7153 12.8903C18.6521 12.6296 18.5321 12.3351 18.3047 12.1263C17.7998 11.6626 17.7967 11.6509 17.7967 11.6509C17.7695 11.6519 17.7424 11.6531 17.7156 11.6543C16.7076 11.7014 15.9353 11.9116 15.342 12.2336Z" fill="#FFCA28"/>
<path fill-rule="evenodd" clip-rule="evenodd" d="M19.7432 9.63086C20.5858 9.71281 21.2025 10.4623 21.1206 11.305C21.0386 12.1476 20.2891 12.7643 19.4465 12.6824C18.6038 12.6004 17.9871 11.8509 18.0691 11.0082L19.5949 11.1566L19.7432 9.63086Z" fill="#F6DCCD"/>
<path fill-rule="evenodd" clip-rule="evenodd" d="M19.7829 9.22215C20.6744 9.30885 21.3664 9.98501 21.5106 10.8272C21.5327 10.9562 21.4968 11.0765 21.4077 11.1723C21.3186 11.2682 21.2012 11.3127 21.071 11.3L19.999 11.1958C19.7764 11.1741 19.5771 11.3381 19.5555 11.5607L19.4513 12.6324C19.4386 12.7627 19.3722 12.8694 19.261 12.9384C19.1497 13.0074 19.0246 13.0194 18.9023 12.9729C18.1038 12.6689 17.5738 11.8598 17.6604 10.9684C17.7644 9.90011 18.7146 9.11827 19.7829 9.22215Z" fill="#E14844"/>
<path fill-rule="evenodd" clip-rule="evenodd" d="M19.7829 9.22227C20.6744 9.30896 21.3664 9.98512 21.5106 10.8273C21.5327 10.9563 21.4968 11.0766 21.4077 11.1725C21.3301 11.2559 21.231 11.3005 21.1206 11.3022C21.1208 11.2932 21.121 11.2843 21.121 11.2753C21.121 10.2268 20.271 9.37681 19.2225 9.37681C19.0129 9.37681 18.8113 9.41088 18.6227 9.4736C18.9736 9.27032 19.3794 9.1824 19.7829 9.22227Z" fill="#CB413D"/>
</g>
<defs>
<clipPath id="clip0_626_35051">
<rect width="18" height="18" fill="white" transform="translate(8.30237 8)"/>
</clipPath>
</defs>
</svg>
