<svg width="347" height="353" viewBox="0 0 347 353" fill="none" xmlns="http://www.w3.org/2000/svg">
<g clip-path="url(#clip0_5058_12711)">
<path d="M230.129 98.2777C230.129 98.2777 250.007 96.9714 255.537 99.1704C261.067 101.369 264.071 122.597 261.067 122.728C258.062 122.858 256.386 118.047 256.386 118.047C256.386 118.047 258.302 123.163 255.667 123.707C253.055 124.252 248.809 119.614 248.809 119.614C248.809 119.614 226.384 128.345 216.696 110.927C208.205 95.7086 230.129 98.2777 230.129 98.2777Z" fill="#ED7569"/>
<path d="M147.004 34.7278L145.567 46.8765C145.567 46.8765 147.352 50.6213 154.385 52.0582C159.632 53.1251 161.635 52.1453 161.635 52.1453V45.8968V39.8007L149.137 35.4463L147.047 34.7061L147.004 34.7278Z" fill="#F77E6D"/>
<path d="M149.094 35.4668C149.094 35.7934 149.159 36.207 149.311 36.686C151.314 43.0869 158.586 45.2641 161.613 45.9173V39.8212L149.094 35.4668Z" fill="black"/>
<path d="M167.6 12.4532C167.6 12.4532 172.172 28.4555 168.645 36.62C165.118 44.7844 157.563 42.4113 153.165 40.147C148.767 37.8827 147.004 34.7476 147.004 34.7476C147.004 34.7476 142.475 35.6402 140.146 31.2205C137.794 26.8226 140.189 22.4465 142.802 21.7062C145.415 20.9878 148.114 23.165 148.114 23.165L146.416 18.4622C146.416 18.4622 159.087 -2.54762 167.622 12.4532H167.6Z" fill="#F77E6D"/>
<path d="M164.399 31.6127C164.399 31.6127 164.247 31.6127 164.16 31.5691C163.899 31.4385 163.768 31.1119 163.899 30.8506C165.14 28.238 163.507 24.9505 163.485 24.9069C163.354 24.6457 163.463 24.3191 163.725 24.1667C163.986 24.036 164.312 24.1449 164.465 24.4062C164.552 24.5586 166.359 28.1945 164.9 31.3079C164.813 31.5038 164.617 31.6127 164.399 31.6127Z" fill="black"/>
<path d="M146.525 30.1971C146.35 30.1971 146.176 30.11 146.089 29.9576L142.606 25.0372C142.432 24.7977 142.497 24.4493 142.736 24.2752C142.976 24.101 143.324 24.1663 143.498 24.4058L146.982 29.3262C147.156 29.5657 147.091 29.9141 146.851 30.0883C146.764 30.1536 146.655 30.1971 146.546 30.1971H146.525Z" fill="black"/>
<path d="M142.345 28.4347C142.04 28.4347 141.8 28.1952 141.8 27.8904C141.8 27.5856 142.04 27.3461 142.345 27.3461H145.24C145.545 27.3243 145.785 27.5638 145.785 27.8469C145.785 28.1517 145.545 28.3912 145.24 28.3912H142.345V28.4129V28.4347Z" fill="black"/>
<path d="M159.326 35.5989C158.782 35.5989 158.216 35.4683 157.672 35.0764C155.843 33.8137 155.516 31.5712 155.495 31.4841C155.473 31.2881 155.56 31.0922 155.712 30.9615C155.886 30.8527 156.082 30.8309 156.278 30.918L161.895 33.7048C162.07 33.7919 162.178 33.9443 162.2 34.1402C162.2 34.3362 162.135 34.5104 161.983 34.6192C161.917 34.6628 160.72 35.5772 159.326 35.5772V35.5989ZM156.91 32.4638C157.171 33.0299 157.585 33.7048 158.26 34.1838C158.978 34.6845 159.849 34.5104 160.459 34.2491L156.888 32.4856L156.91 32.4638Z" fill="black"/>
<path d="M158.347 25.0159C158.042 25.0159 157.802 24.7546 157.802 24.4716L157.846 21.6195C157.846 21.3147 158.085 21.0752 158.39 21.0752C158.695 21.0752 158.934 21.3365 158.934 21.6195L158.891 24.4716C158.891 24.7764 158.651 25.0159 158.347 25.0159Z" fill="black"/>
<path d="M166.794 25.5181C166.489 25.5181 166.25 25.2787 166.25 24.9738V22.1C166.25 21.7952 166.468 21.5557 166.773 21.5557C167.077 21.5557 167.317 21.7952 167.317 22.1V24.9521C167.317 25.2569 167.099 25.4964 166.794 25.4964V25.5181Z" fill="black"/>
<path d="M156.496 19.2477C156.496 19.2477 156.279 19.2259 156.191 19.1388C155.952 18.9646 155.887 18.6381 156.061 18.3986C157.389 16.5262 159.871 17.4188 159.98 17.4624C160.263 17.5712 160.393 17.876 160.306 18.1591C160.197 18.4421 159.914 18.5727 159.61 18.4857C159.544 18.4639 157.803 17.8543 156.953 19.0517C156.845 19.2041 156.692 19.2694 156.518 19.2694L156.496 19.2477Z" fill="black"/>
<path d="M168.362 19.1594C168.209 19.1594 168.057 19.0941 167.948 18.9635C167.73 18.7022 166.968 18.0055 166.25 18.0055C165.901 17.9619 165.575 18.1579 165.27 18.4845C165.074 18.7022 164.726 18.724 164.508 18.528C164.29 18.3321 164.268 17.9837 164.464 17.766C164.987 17.1999 165.597 16.9169 166.271 16.9387C167.621 16.9604 168.71 18.2232 168.775 18.2885C168.971 18.528 168.949 18.8546 168.71 19.0505C168.601 19.1376 168.492 19.1812 168.362 19.1812V19.1594Z" fill="black"/>
<path d="M148.114 23.1661C148.114 23.1661 147.265 25.844 150.814 23.5362C154.362 21.2501 154.754 17.4618 156.844 13.0421C158.935 8.62245 162.766 5.94451 165.205 9.18852L167.621 12.4325L162.287 4.52934C162.287 4.52934 154.602 -3.26499 145.871 3.04886C135.9 10.2771 138.512 15.5024 138.512 15.5024C138.512 15.5024 142.214 20.0527 148.092 23.1443L148.114 23.1661Z" fill="black"/>
<path d="M146.699 19.2689C146.699 19.2689 148.027 28.6525 150.182 27.9558C152.316 27.2591 149.921 17.7666 149.921 17.7666L146.699 19.2689Z" fill="black"/>
<path d="M140.211 23.6006C140.211 23.6006 175.155 12.5187 177.31 9.53594C179.465 6.55319 168.057 9.29645 168.057 9.29645C168.057 9.29645 162.135 -4.87704 146.503 1.80693C132.242 7.90305 140.211 23.6223 140.211 23.6223V23.6006Z" fill="#F7BE2F"/>
<path d="M256.385 118.614C256.189 118.614 255.993 118.505 255.906 118.331L251.639 110.363C251.508 110.101 251.596 109.775 251.857 109.622C252.118 109.47 252.445 109.579 252.597 109.84L256.864 117.809C256.995 118.07 256.908 118.396 256.647 118.549C256.56 118.592 256.472 118.614 256.385 118.614Z" fill="black"/>
<path d="M262.046 115.979C261.85 115.979 261.655 115.87 261.546 115.674L257.605 107.14C257.474 106.857 257.605 106.552 257.866 106.421C258.127 106.291 258.454 106.421 258.585 106.683L262.525 115.217C262.656 115.5 262.525 115.805 262.264 115.936C262.199 115.979 262.112 115.979 262.046 115.979Z" fill="black"/>
<path d="M206.724 224.403V237.727H176.439V222.813L206.724 224.403Z" fill="#FF9583"/>
<path d="M175.982 276.678C177.767 278.877 248.57 281.424 252.053 281.033C255.558 280.641 254.426 281.294 255.558 280.641C256.69 279.987 255.667 271.192 255.667 271.192C255.667 271.192 255.667 271.105 255.667 270.952C255.624 269.58 255.188 262.026 249.527 258.085C243.279 253.752 232.502 251.815 232.502 251.815C232.502 251.815 214.083 238.795 212.559 238.098C211.035 237.402 209.554 230.652 208.858 230.413C208.204 230.173 176.897 230.739 174.981 232.068C173.544 233.069 173.827 256.256 174.806 268.818C175.133 273.086 175.525 276.112 175.982 276.678Z" fill="#4D7046"/>
<path d="M175.982 276.677C177.768 278.876 248.57 281.423 252.053 281.031C255.558 280.64 254.426 281.293 255.558 280.639C256.691 279.986 255.667 271.191 255.667 271.191C255.667 271.191 255.667 271.103 255.667 270.951C243.78 270.951 211.906 270.733 191.876 269.732C184.887 269.383 179.27 269.079 174.807 268.817C175.133 273.085 175.525 276.111 175.982 276.677Z" fill="#F7C537"/>
<path d="M219.329 228.235C219.329 228.235 241.624 164.966 230.259 144.784C218.894 124.601 137.206 139.21 137.206 139.21L99.5842 141.017C99.5842 141.017 91.9641 177.986 107.966 188.262C123.947 198.538 172.193 194.924 172.193 194.924L166.228 228.279H219.351L219.329 228.235Z" fill="#A55D47"/>
<path d="M205.918 245.37C205.701 245.37 205.505 245.239 205.418 245.043C205.309 244.76 205.418 244.455 205.701 244.324L215.302 240.275C215.585 240.166 215.912 240.275 216.02 240.558C216.129 240.841 216.02 241.146 215.737 241.276L206.136 245.326C206.136 245.326 205.984 245.37 205.918 245.37Z" fill="#FF9E3E"/>
<path d="M211.688 249.005C211.47 249.005 211.274 248.875 211.187 248.679C211.078 248.396 211.187 248.091 211.47 247.96L221.071 243.911C221.355 243.802 221.659 243.911 221.79 244.194C221.899 244.477 221.79 244.782 221.507 244.912L211.906 248.962C211.906 248.962 211.753 249.005 211.688 249.005Z" fill="#FF9E3E"/>
<path d="M172.194 195.404C172.194 195.404 171.998 195.382 171.911 195.317C171.737 195.208 171.628 194.99 171.671 194.794C171.737 194.293 173.478 182.58 177.68 180.512C178.682 180.011 179.749 180.076 180.837 180.686C181.904 181.296 182.47 182.145 182.535 183.212C182.797 187.784 172.912 194.99 172.499 195.295C172.411 195.36 172.303 195.404 172.194 195.404ZM179.074 181.252C178.769 181.252 178.464 181.317 178.159 181.47C175.416 182.82 173.631 189.83 172.934 193.662C176.091 191.202 181.665 186.216 181.49 183.277C181.447 182.58 181.077 182.036 180.315 181.622C179.879 181.383 179.466 181.252 179.074 181.252Z" fill="white"/>
<path d="M298.601 348.067C325.331 348.067 347 325.979 347 298.732C347 271.485 325.331 249.396 298.601 249.396C271.871 249.396 250.202 271.485 250.202 298.732C250.202 325.979 271.871 348.067 298.601 348.067Z" fill="black"/>
<path d="M55.8232 352.661C82.5531 352.661 104.222 330.573 104.222 303.326C104.222 276.079 82.5531 253.991 55.8232 253.991C29.0932 253.991 7.42432 276.079 7.42432 303.326C7.42432 330.573 29.0932 352.661 55.8232 352.661Z" fill="black"/>
<path d="M303.491 320.47C315.478 317.762 323 305.849 320.292 293.863C317.584 281.876 305.672 274.354 293.685 277.062C281.698 279.77 274.176 291.682 276.884 303.669C279.592 315.656 291.504 323.177 303.491 320.47Z" fill="#994239"/>
<path d="M60.9427 324.988C72.8999 322.153 80.2947 310.161 77.4593 298.204C74.6239 286.247 62.6321 278.852 50.6749 281.687C38.7177 284.523 31.3229 296.515 34.1583 308.472C36.9937 320.429 48.9855 327.824 60.9427 324.988Z" fill="#994239"/>
<path d="M164.007 59.5459C164.007 59.5459 176.896 87.2615 189.176 91.6376C196.6 94.272 220.375 90.3749 220.375 90.3749L228.038 122.096C228.038 122.096 194.64 143.977 169.276 129.412C152.294 119.658 144.957 102.763 144.957 102.763L164.007 59.5459Z" fill="#F7C537"/>
<path d="M180.75 103.199C180.38 103.199 180.053 103.047 179.814 102.742C178.986 101.718 178.703 100.586 179.008 99.3888C180.075 95.0345 188.609 91.2897 188.979 91.1373C189.197 91.0502 189.437 91.0937 189.589 91.2679C189.742 91.4421 189.785 91.7034 189.654 91.8993C188.631 93.7499 183.449 102.981 180.88 103.199C180.837 103.199 180.793 103.199 180.771 103.199H180.75ZM187.847 92.879C185.365 94.1418 180.728 96.8415 180.053 99.6501C179.835 100.521 180.053 101.305 180.663 102.067C182.078 102.001 185.431 97.0592 187.869 92.879H187.847Z" fill="white"/>
<path d="M159.914 149.617C159.914 149.617 165.88 93.8379 166.62 81.1884C167.099 73.0893 167.077 60.5051 167.077 60.5051C167.077 60.5051 167.643 56.1943 167.295 54.3873C166.968 52.5802 145.197 39.3429 142.606 39.7566C140.037 40.1702 142.976 45.5479 142.976 45.5479C142.976 45.5479 118.744 44.9165 104.984 76.3115C95.0995 98.8236 92.2256 142.912 92.2256 142.912L159.914 149.639V149.617Z" fill="#EFB31D"/>
<path d="M151.598 50.6848C151.598 50.6848 151.423 50.6848 151.336 50.6195L142.715 46.0257C142.453 45.8733 142.344 45.5467 142.497 45.2854C142.649 45.0242 142.976 44.9153 143.237 45.0677L151.859 49.6616C152.12 49.814 152.229 50.1405 152.077 50.4018C151.989 50.576 151.793 50.6848 151.598 50.6848Z" fill="white"/>
<path d="M157.432 81.8631C157.432 81.8631 158.303 56.7819 145.153 49.3359C132.003 41.8899 109.578 47.8554 109.578 47.8554L106.943 72.1964C106.943 72.1964 123.555 50.1632 143.172 56.9343C157.824 62.0071 157.432 81.8848 157.432 81.8848V81.8631Z" fill="#507849"/>
<path d="M129.63 129.695C129.63 129.695 113.867 126.19 104.592 120.616C95.3173 115.021 92.8571 99.6064 92.8571 99.6064L89.4824 126.386C89.4824 126.386 104.505 134.289 129.63 129.695Z" fill="#507849"/>
<path d="M165.858 92.4216C165.858 92.4216 171.214 71.7819 170.191 67.9936C169.189 64.2053 167.034 62.2676 167.034 62.2676L165.836 92.4216H165.858Z" fill="#507849"/>
<path d="M267.032 140.931C267.032 140.931 274.826 169.735 278.854 192.399C282.838 214.89 280.966 242.954 280.966 242.954C280.966 242.954 292.723 235.573 316.236 242.954C339.75 250.334 337.094 268.84 337.094 268.84C337.094 268.84 320.765 254.014 295.444 266.01C270.123 278.006 265.595 298.298 262.873 299.212C260.152 300.127 242.06 299.212 242.06 299.212C242.06 299.212 241.145 307.507 234.831 311.208C228.517 314.91 112.713 313.059 110.013 311.208C107.292 309.358 110.013 296.447 110.013 296.447C110.013 296.447 3.89712 296.033 0.28299 294.205C-3.33114 292.354 27.6938 236.509 72.0213 219.897C116.349 203.307 167.905 211.602 170.604 218.983C173.326 226.363 153.426 236.509 150.705 254.95C147.983 273.391 183.689 289.219 216.782 279.291C262.895 265.444 237.248 142.89 237.248 142.89L267.032 140.952V140.931Z" fill="#FF9E3E"/>
<path d="M86.3692 225.405H169.211C173.636 225.405 177.223 221.818 177.223 217.393V202.98C177.223 198.555 173.636 194.968 169.211 194.968H86.3692C81.9442 194.968 78.3571 198.555 78.3571 202.98V217.393C78.3571 221.818 81.9442 225.405 86.3692 225.405Z" fill="#A0463A"/>
<path d="M238.925 156.975H267.707C272.481 156.975 276.351 153.105 276.351 148.331V125.035C276.351 120.262 272.481 116.392 267.707 116.392H238.925C234.151 116.392 230.281 120.262 230.281 125.035V148.331C230.281 153.105 234.151 156.975 238.925 156.975Z" fill="#A0463A"/>
<path d="M192.093 227.016V240.34H161.809V225.427L192.093 227.016Z" fill="#FF9583"/>
<path d="M161.351 279.291C163.137 281.49 233.939 284.038 237.422 283.646C240.927 283.254 239.795 283.907 240.927 283.254C242.06 282.601 241.036 273.805 241.036 273.805C241.036 273.805 241.036 273.718 241.036 273.565C240.993 272.194 240.557 264.639 234.897 260.698C228.648 256.366 217.871 254.428 217.871 254.428C217.871 254.428 199.452 241.408 197.928 240.712C196.404 240.015 194.923 233.266 194.227 233.026C193.574 232.787 162.266 233.353 160.35 234.681C158.913 235.682 159.196 258.869 160.176 271.432C160.502 275.699 160.894 278.725 161.351 279.291Z" fill="#507849"/>
<path d="M161.351 279.289C163.136 281.488 233.938 284.036 237.422 283.644C240.927 283.252 239.795 283.905 240.927 283.252C242.059 282.599 241.036 273.803 241.036 273.803C241.036 273.803 241.036 273.716 241.036 273.563C229.149 273.563 197.275 273.346 177.244 272.344C170.256 271.996 164.639 271.691 160.175 271.43C160.502 275.697 160.894 278.723 161.351 279.289Z" fill="#F7C537"/>
<path d="M205.766 230.848C205.766 230.848 226.384 167.579 215.89 147.397C205.396 127.214 129.826 141.823 129.826 141.823L95.0344 143.63C95.0344 143.63 88.0021 180.599 102.785 190.875C117.568 201.152 162.179 197.537 162.179 197.537L156.649 230.892H205.766V230.848Z" fill="#B56A4D"/>
<path d="M191.288 247.982C191.07 247.982 190.874 247.851 190.787 247.655C190.678 247.372 190.787 247.067 191.07 246.937L200.672 242.887C200.955 242.778 201.259 242.887 201.39 243.17C201.499 243.453 201.39 243.758 201.107 243.889L191.506 247.938C191.506 247.938 191.353 247.982 191.288 247.982Z" fill="#FF9E3E"/>
<path d="M197.057 251.639C196.84 251.639 196.644 251.508 196.557 251.313C196.448 251.029 196.557 250.725 196.84 250.594L206.441 246.544C206.724 246.436 207.051 246.544 207.16 246.828C207.268 247.111 207.16 247.415 206.877 247.546L197.275 251.596C197.275 251.596 197.123 251.639 197.057 251.639Z" fill="#FF9E3E"/>
<path d="M157.563 198.037C157.563 198.037 157.367 198.015 157.28 197.95C157.084 197.841 156.997 197.624 157.019 197.406C157.084 196.905 158.826 185.192 163.05 183.102C164.073 182.601 165.118 182.666 166.207 183.276C167.273 183.886 167.861 184.735 167.927 185.823C168.188 190.395 158.303 197.624 157.89 197.928C157.803 197.994 157.694 198.037 157.563 198.037ZM164.465 183.886C164.16 183.886 163.855 183.951 163.55 184.103C160.829 185.453 159.044 192.42 158.347 196.252C161.504 193.792 167.034 188.828 166.86 185.91C166.816 185.214 166.446 184.669 165.706 184.256C165.27 184.016 164.857 183.886 164.465 183.886Z" fill="white"/>
<path d="M237.248 121.009C237.248 126.626 241.798 131.177 247.416 131.177C253.033 131.177 257.583 126.626 257.583 121.009C257.583 115.392 253.033 110.842 247.416 110.842C241.798 110.842 237.248 115.392 237.248 121.009Z" fill="black"/>
<path d="M25.3857 271.625C25.3857 271.625 25.1898 271.604 25.1027 271.538C24.8414 271.386 24.7543 271.038 24.9285 270.798C36.9683 250.92 63.4647 234.896 63.726 234.744C63.9872 234.592 64.3138 234.679 64.4662 234.94C64.6186 235.201 64.5315 235.528 64.2703 235.68C64.009 235.833 37.7521 251.726 25.8429 271.364C25.7341 271.538 25.5599 271.625 25.3857 271.625Z" fill="white"/>
<path d="M272.583 243.322C272.583 243.322 272.475 243.322 272.409 243.3C272.126 243.191 271.974 242.887 272.083 242.604C274.913 234.439 273.367 210.468 273.345 210.229C273.345 209.924 273.541 209.663 273.846 209.641C274.216 209.619 274.412 209.859 274.434 210.142C274.499 211.143 276.023 234.592 273.106 242.952C273.019 243.17 272.823 243.322 272.583 243.322Z" fill="white"/>
<path d="M216.26 108.423C216.26 108.423 233.155 97.8641 239.077 97.1892C244.999 96.5142 257.67 113.801 255.101 115.325C252.532 116.849 248.765 113.431 248.765 113.431C248.765 113.431 252.88 117.045 250.812 118.743C248.765 120.463 242.821 118.395 242.821 118.395C242.821 118.395 227.189 136.683 210.403 125.928C195.729 116.523 216.238 108.423 216.238 108.423H216.26Z" fill="#F98575"/>
<path d="M248.765 113.975C248.765 113.975 248.547 113.954 248.46 113.888L240.949 108.881C240.71 108.707 240.623 108.38 240.797 108.119C240.971 107.857 241.297 107.792 241.559 107.966L249.07 112.974C249.309 113.148 249.397 113.475 249.222 113.736C249.114 113.888 248.939 113.975 248.765 113.975Z" fill="black"/>
<path d="M252.51 108.968C252.401 108.968 252.271 108.924 252.184 108.859L244.672 103.22C244.433 103.046 244.389 102.697 244.563 102.458C244.738 102.218 245.086 102.175 245.325 102.349L252.837 107.988C253.076 108.162 253.12 108.511 252.946 108.75C252.837 108.902 252.684 108.968 252.51 108.968Z" fill="black"/>
<path d="M218.873 100.935L221.268 134.398C221.268 134.398 147.722 155.408 127.975 131.133C108.228 106.835 124.231 49.0745 142.454 54.5392C155.495 58.4582 158.739 90.2015 158.739 90.2015L218.873 100.935Z" fill="#F7C537"/>
<path d="M151.097 91.4862C148.876 91.4862 146.873 91.2031 146.22 90.2669C145.958 89.9186 145.762 89.309 146.241 88.4163C148.615 84.1491 157.933 89.1348 159 89.7227C159.196 89.8315 159.305 90.071 159.261 90.2887C159.217 90.5064 159.043 90.7024 158.826 90.7242C157.759 90.8983 154.188 91.4644 151.097 91.4644V91.4862ZM149.747 87.8285C148.593 87.8285 147.657 88.1551 147.199 88.9824C146.938 89.4396 147.069 89.6138 147.112 89.6573C147.874 90.7242 152.882 90.5064 156.997 89.9404C154.928 88.9606 151.946 87.8285 149.768 87.8285H149.747Z" fill="white"/>
<path d="M47.9133 127.207L91.0066 132.643C96.3869 133.322 101.299 129.51 101.977 124.13L111.177 51.2063C111.856 45.826 108.044 40.9142 102.664 40.2355L59.5707 34.7992C54.1904 34.1204 49.2786 37.9318 48.5999 43.3121L39.4004 116.236C38.7216 121.616 42.533 126.528 47.9133 127.207Z" fill="#4D7046"/>
<path d="M53.509 127.929L96.6023 133.366C101.983 134.045 106.894 130.233 107.573 124.853L116.773 51.929C117.451 46.5487 113.64 41.6369 108.26 40.9581L65.1664 35.5218C59.7861 34.8431 54.8743 38.6545 54.1956 44.0348L44.9961 116.959C44.3173 122.339 48.1287 127.251 53.509 127.929Z" fill="#507849"/>
<path d="M111.581 81.0787L50.4889 73.3715C50.1841 73.3279 49.9882 73.0667 50.0099 72.7619C50.0535 72.4571 50.3148 72.2393 50.6196 72.2829L111.646 79.9901C111.951 80.0337 112.147 80.2949 112.125 80.5997C112.082 80.8828 111.864 81.0787 111.581 81.0787Z" fill="#E8821C"/>
</g>
<defs>
<clipPath id="clip0_5058_12711">
<rect width="347" height="352.682" fill="white"/>
</clipPath>
</defs>
</svg>
