<svg width="119" height="111" viewBox="0 0 119 111" fill="none" xmlns="http://www.w3.org/2000/svg">
<g clip-path="url(#clip0_440_24035)">
<path d="M117.83 108.288C117.83 110.348 94.3489 110.348 65.3828 110.348C36.4166 110.348 12.9353 110.348 12.9353 108.288C12.9353 106.228 36.4166 106.228 65.3828 106.228C94.3489 106.228 117.83 106.228 117.83 108.288Z" fill="#D0D0D0"/>
<path d="M116.206 47.8147C114.582 42.3449 110.299 37.7625 105.013 35.9735C104.056 35.6482 103.056 35.4057 102.207 34.8493C101.357 34.2929 100.669 33.3256 100.769 32.2956C100.927 30.6549 102.859 29.8674 104.464 29.8959C106.068 29.9216 107.748 30.381 109.23 29.7504C111.207 28.9087 112.042 26.2522 111.348 24.1693C110.654 22.0893 108.775 20.6084 106.754 19.8865C104.733 19.1646 102.554 19.0904 100.413 19.0248C83.0937 18.5055 65.4214 19.1447 48.135 17.9349C40.0512 17.3699 31.8286 17.116 23.9474 19.0533C16.0662 20.9907 8.46539 25.362 4.06814 32.3583C1.72516 36.0876 0.364897 40.4617 0.17335 44.8958C-0.201415 53.4956 3.91268 61.9871 10.2865 67.5739C16.663 73.1578 25.0883 75.9597 33.4636 76.2051L87.924 76.2936C92.6849 75.4404 97.4819 74.573 101.993 72.784C106.501 70.995 110.76 68.2016 113.564 64.1527C116.789 59.4961 117.83 53.2845 116.206 47.8147Z" fill="#E2DECF"/>
<path d="M86.2913 0.348145H40.7508C40.0483 0.348145 39.4789 0.917599 39.4789 1.62006V69.6074C39.4789 70.3099 40.0483 70.8793 40.7508 70.8793H86.2913C86.9937 70.8793 87.5632 70.3099 87.5632 69.6074V1.62005C87.5632 0.917598 86.9937 0.348145 86.2913 0.348145Z" fill="white"/>
<path d="M80.4947 54.8579C73.2972 54.8228 66.428 54.8228 59.3093 54.8579" stroke="#060305" stroke-width="0.254382" stroke-linecap="round" stroke-linejoin="round"/>
<path d="M85.5939 54.8577H81.8243" stroke="#060305" stroke-width="0.254382" stroke-linecap="round" stroke-linejoin="round"/>
<path d="M67.3467 53.1244C64.5045 53.0731 62.0326 53.0731 59.3112 53.1244" stroke="#060305" stroke-width="0.254382" stroke-linecap="round" stroke-linejoin="round"/>
<path d="M85.5929 53.1244C79.8874 53.0731 74.3947 53.0731 68.7076 53.1244" stroke="#060305" stroke-width="0.254382" stroke-linecap="round" stroke-linejoin="round"/>
<path d="M61.6156 51.3883H59.3093" stroke="#060305" stroke-width="0.254382" stroke-linecap="round" stroke-linejoin="round"/>
<path d="M79.2517 51.3477C73.7458 51.3261 68.2426 51.3396 62.7368 51.3882" stroke="#060305" stroke-width="0.254382" stroke-linecap="round" stroke-linejoin="round"/>
<path d="M85.5938 51.3884C83.9756 51.3749 82.3575 51.3614 80.7394 51.3533" stroke="#060305" stroke-width="0.254382" stroke-linecap="round" stroke-linejoin="round"/>
<path d="M49.3422 17.2984C52.7886 17.1958 55.9146 17.1958 59.3111 17.2984" stroke="#060305" stroke-width="0.254382" stroke-linecap="round" stroke-linejoin="round"/>
<path d="M44.9972 17.2983H47.8578" stroke="#060305" stroke-width="0.254382" stroke-linecap="round" stroke-linejoin="round"/>
<path d="M55.6857 19.1858H59.3081" stroke="#060305" stroke-width="0.254382" stroke-linecap="round" stroke-linejoin="round"/>
<path d="M44.9972 19.1858C48.2413 19.2371 51.0836 19.2371 54.2148 19.1858" stroke="#060305" stroke-width="0.254382" stroke-linecap="round" stroke-linejoin="round"/>
<path d="M53.5372 21.0756H59.3083" stroke="#060305" stroke-width="0.254382" stroke-linecap="round" stroke-linejoin="round"/>
<path d="M44.9972 21.0756H52.1527" stroke="#060305" stroke-width="0.254382" stroke-linecap="round" stroke-linejoin="round"/>
<path d="M50.3823 22.9656H56.5318" stroke="#060305" stroke-width="0.254382" stroke-linecap="round" stroke-linejoin="round"/>
<path d="M44.9972 22.9656H48.6196" stroke="#060305" stroke-width="0.254382" stroke-linecap="round" stroke-linejoin="round"/>
<path d="M50.1876 24.8557H59.3079" stroke="#060305" stroke-width="0.254382" stroke-linecap="round" stroke-linejoin="round"/>
<path d="M44.9972 24.8557H48.1047" stroke="#060305" stroke-width="0.254382" stroke-linecap="round" stroke-linejoin="round"/>
<path d="M57.5037 26.7457H59.3109" stroke="#060305" stroke-width="0.254382" stroke-linecap="round" stroke-linejoin="round"/>
<path d="M44.9972 26.7457C48.525 26.8294 51.651 26.8294 55.058 26.7457" stroke="#060305" stroke-width="0.254382" stroke-linecap="round" stroke-linejoin="round"/>
<path d="M51.9562 28.6357H59.3114" stroke="#060305" stroke-width="0.254382" stroke-linecap="round" stroke-linejoin="round"/>
<path d="M44.9972 28.6357H50.574" stroke="#060305" stroke-width="0.254382" stroke-linecap="round" stroke-linejoin="round"/>
<path d="M70.9273 17.2985C74.9437 17.1959 78.6371 17.1959 82.5668 17.2985" stroke="#060305" stroke-width="0.254382" stroke-linecap="round" stroke-linejoin="round"/>
<path d="M63.2333 17.2985H69.212" stroke="#060305" stroke-width="0.254382" stroke-linecap="round" stroke-linejoin="round"/>
<path d="M66.8713 19.1858C72.1039 19.2371 77.4995 19.2371 82.5666 19.1858" stroke="#060305" stroke-width="0.254382" stroke-linecap="round" stroke-linejoin="round"/>
<path d="M63.2333 19.1858H65.3479" stroke="#060305" stroke-width="0.254382" stroke-linecap="round" stroke-linejoin="round"/>
<path d="M63.2333 21.0757H69.8687" stroke="#060305" stroke-width="0.254382" stroke-linecap="round" stroke-linejoin="round"/>
<path d="M63.2333 22.9655H82.5669" stroke="#060305" stroke-width="0.254382" stroke-linecap="round" stroke-linejoin="round"/>
<path d="M48.2705 13.4023L45.0237 7.81342L46.2426 7.06553L48.2075 10.4486L51.1469 4.85156L52.3973 5.54545L48.2705 13.4023Z" fill="#74CA45"/>
<path d="M60.6824 6.35547C68.1243 6.39057 75.2272 6.39057 82.585 6.35547" stroke="#060305" stroke-width="0.254382" stroke-linecap="round" stroke-linejoin="round"/>
<path d="M55.4103 6.35547H59.3085" stroke="#060305" stroke-width="0.254382" stroke-linecap="round" stroke-linejoin="round"/>
<path d="M74.2758 8.09167C77.2126 8.14297 79.7711 8.14297 82.5844 8.09167" stroke="#060305" stroke-width="0.254382" stroke-linecap="round" stroke-linejoin="round"/>
<path d="M55.4103 8.09167C61.3075 8.14297 66.9894 8.14297 72.8683 8.09167" stroke="#060305" stroke-width="0.254382" stroke-linecap="round" stroke-linejoin="round"/>
<path d="M80.2018 9.82764H82.587" stroke="#060305" stroke-width="0.254382" stroke-linecap="round" stroke-linejoin="round"/>
<path d="M61.9667 9.86814C67.6591 9.88974 73.3488 9.87624 79.0412 9.82764" stroke="#060305" stroke-width="0.254382" stroke-linecap="round" stroke-linejoin="round"/>
<path d="M55.4103 9.82764C57.0836 9.84114 58.7569 9.85464 60.4275 9.86274" stroke="#060305" stroke-width="0.254382" stroke-linecap="round" stroke-linejoin="round"/>
<path d="M54.8618 62.2105C55.594 60.3934 54.7545 58.3102 52.9866 57.5575C51.2187 56.8048 49.1919 57.6677 48.4597 59.4849C47.7274 61.302 48.5669 63.3852 50.3348 64.1379C52.1027 64.8905 54.1295 64.0276 54.8618 62.2105Z" stroke="#060305" stroke-width="0.254382" stroke-linecap="round" stroke-linejoin="round"/>
<path d="M54.8667 64.1413C56.6374 62.3214 56.6374 59.3707 54.8667 57.5509C53.0961 55.731 50.2254 55.731 48.4548 57.5509C46.6842 59.3708 46.6842 62.3214 48.4548 64.1413C50.2254 65.9612 53.0961 65.9612 54.8667 64.1413Z" stroke="#060305" stroke-width="0.254382" stroke-linecap="round" stroke-linejoin="round"/>
<path d="M61.1316 59.4637C59.7341 60.9352 59.0012 63.0439 59.1746 65.0932C60.5064 63.9997 61.6333 62.6443 62.4791 61.1215C62.5921 60.919 62.6866 60.6301 62.5107 60.4816C62.3084 60.3115 62.0247 60.5383 61.8618 60.7489C61.5913 61.0999 61.3102 61.4698 61.2419 61.9126C61.1736 62.3554 61.4048 62.8792 61.8329 62.9629C62.051 63.0034 62.2742 62.9278 62.466 62.8171C62.9809 62.5228 63.3512 61.972 63.4379 61.3726C63.2068 61.5886 62.9703 61.8127 62.8495 62.1097C62.7287 62.404 62.7602 62.7928 63.0045 62.9899C63.2646 63.2005 63.6665 63.1114 63.9134 62.8873C64.1629 62.6632 64.2943 62.3338 64.4177 62.0179C64.1656 62.3392 64.2365 62.8738 64.5622 63.1168C64.8879 63.3598 65.4028 63.2599 65.6235 62.9143" stroke="#060305" stroke-width="0.254382" stroke-linecap="round" stroke-linejoin="round"/>
<path d="M72.1501 28.5706C70.6852 29.1781 69.1642 29.6337 67.7706 30.401C66.9936 30.8304 66.4203 31.616 66.1223 32.4723C62.2982 34.1063 58.4436 35.8241 54.6195 37.4581C53.3941 36.154 52.1687 34.8473 50.9432 33.5433C48.1688 34.2084 45.4581 35.1118 42.8697 36.3321C42.8187 37.1307 42.7219 37.9215 42.671 38.7228C44.6148 40.404 46.5485 42.1165 48.4898 43.7951C49.8248 44.9499 51.4604 45.8114 53.1954 46.0209C54.9304 46.2303 56.7265 45.8559 58.2449 44.9682C61.274 43.2006 64.8153 42.5879 67.7884 40.7234L71.9106 30.0317C72.2545 29.6389 72.3844 29.0393 72.1526 28.5706H72.1501Z" fill="#FFD1C7" stroke="black" stroke-width="0.317978"/>
<path d="M54.6138 37.4319L54.28 37.9582" stroke="#060305" stroke-width="0.254382" stroke-linecap="round" stroke-linejoin="round"/>
<path d="M66.1893 32.4882C66.1788 32.6872 66.1684 32.8888 66.158 33.0878" stroke="#060305" stroke-width="0.254382" stroke-linecap="round" stroke-linejoin="round"/>
<path d="M86.8473 26.7274C85.5429 26.3792 84.2971 25.955 82.9927 25.6067C82.794 26.2744 82.1902 26.7929 81.515 26.8767C80.8399 26.9605 80.1673 26.5258 79.8183 25.9262C78.7737 26.3242 77.7266 26.7222 76.6821 27.1202C75.4974 34.9132 74.3968 42.5752 73.2122 50.3681L87.2931 50.7085C87.1709 42.7139 86.967 34.722 86.8448 26.7274H86.8473Z" fill="white" stroke="black" stroke-width="0.317978"/>
<path d="M78.4454 26.6333C79.1281 27.7226 80.402 28.3904 81.6605 28.3144C82.9191 28.2385 84.1088 27.4215 84.6617 26.2562" stroke="#060305" stroke-width="0.254382" stroke-linecap="round" stroke-linejoin="round"/>
<path d="M78.496 29.9379L79.1762 30.3385" stroke="#D8DBFF" stroke-width="0.254382" stroke-linecap="round" stroke-linejoin="round"/>
<path d="M82.3353 30.5402C82.3022 30.7575 82.2716 30.9722 82.2385 31.1896" stroke="#D8DBFF" stroke-width="0.254382" stroke-linecap="round" stroke-linejoin="round"/>
<path d="M79.515 33.1877C79.3519 33.337 79.1914 33.4863 79.0284 33.6381" stroke="#D8DBFF" stroke-width="0.254382" stroke-linecap="round" stroke-linejoin="round"/>
<path d="M78.0558 37.3354C78.201 37.5685 78.3462 37.8016 78.494 38.0346" stroke="#D8DBFF" stroke-width="0.254382" stroke-linecap="round" stroke-linejoin="round"/>
<path d="M82.0904 36.6862C82.4139 36.5684 82.7375 36.4532 83.0636 36.3353" stroke="#D8DBFF" stroke-width="0.254382" stroke-linecap="round" stroke-linejoin="round"/>
<path d="M82.3358 39.9828C82.3995 40.2316 82.4657 40.4829 82.5294 40.7317" stroke="#D8DBFF" stroke-width="0.254382" stroke-linecap="round" stroke-linejoin="round"/>
<path d="M83.8441 33.0467C84.0709 32.9995 84.2976 32.9524 84.5269 32.9053" stroke="#D8DBFF" stroke-width="0.254382" stroke-linecap="round" stroke-linejoin="round"/>
<path d="M84.6174 28.3408C84.8111 28.4246 85.0072 28.5084 85.2008 28.5896" stroke="#D8DBFF" stroke-width="0.254382" stroke-linecap="round" stroke-linejoin="round"/>
<path d="M79.0284 40.8339C79.2551 40.7501 79.4819 40.6663 79.7086 40.5851" stroke="#D8DBFF" stroke-width="0.254382" stroke-linecap="round" stroke-linejoin="round"/>
<path d="M76.2079 42.5806C76.2565 42.8634 76.305 43.1462 76.3536 43.429" stroke="#D8DBFF" stroke-width="0.254382" stroke-linecap="round" stroke-linejoin="round"/>
<path d="M76.7423 34.8872H77.4225" stroke="#D8DBFF" stroke-width="0.254382" stroke-linecap="round" stroke-linejoin="round"/>
<path d="M84.3761 41.4836C84.2462 41.6329 84.1163 41.7822 83.9863 41.934" stroke="#D8DBFF" stroke-width="0.254382" stroke-linecap="round" stroke-linejoin="round"/>
<path d="M83.4513 45.5292C83.6449 45.6627 83.8411 45.7963 84.0347 45.9298" stroke="#D8DBFF" stroke-width="0.254382" stroke-linecap="round" stroke-linejoin="round"/>
<path d="M80.4829 44.0811C80.4497 44.3639 80.4166 44.6467 80.386 44.9295" stroke="#D8DBFF" stroke-width="0.254382" stroke-linecap="round" stroke-linejoin="round"/>
<path d="M76.8397 47.179C76.9544 47.3963 77.0665 47.611 77.1811 47.8284" stroke="#D8DBFF" stroke-width="0.254382" stroke-linecap="round" stroke-linejoin="round"/>
<path d="M83.3546 49.0275C83.5482 48.928 83.7443 48.8285 83.938 48.729" stroke="#D8DBFF" stroke-width="0.254382" stroke-linecap="round" stroke-linejoin="round"/>
<path d="M80.7867 47.2288C80.7713 47.4618 80.756 47.6949 80.7406 47.9279" stroke="#D8DBFF" stroke-width="0.254382" stroke-linecap="round" stroke-linejoin="round"/>
<path d="M75.1892 48.3286C75.3191 48.4962 75.4491 48.6612 75.579 48.8288" stroke="#D8DBFF" stroke-width="0.254382" stroke-linecap="round" stroke-linejoin="round"/>
<path d="M80.9899 33.6749L81.6166 33.3633" stroke="#D8DBFF" stroke-width="0.254382" stroke-linecap="round" stroke-linejoin="round"/>
<path d="M77.8564 27.8091C78.0501 27.8615 78.2437 27.9112 78.4373 27.9636" stroke="#D8DBFF" stroke-width="0.254382" stroke-linecap="round" stroke-linejoin="round"/>
<path d="M101.531 96.3638C97.8188 97.3196 94.1196 98.388 90.4077 99.3438C91.0905 101.515 90.6752 104.018 89.33 105.833C88.9682 106.32 88.4842 106.875 88.4536 107.488L94.8712 107.509C97.5998 106.678 100.461 105.754 103.187 104.921C102.703 102.023 102.015 99.26 101.531 96.3612V96.3638Z" fill="#060305"/>
<path d="M92.2501 101.127C93.2666 100.954 94.2832 100.784 95.2997 100.611" stroke="white" stroke-width="0.254382" stroke-linecap="round" stroke-linejoin="round"/>
<path d="M92.2599 102.258C93.2968 102.12 94.3311 101.978 95.368 101.839" stroke="white" stroke-width="0.254382" stroke-linecap="round" stroke-linejoin="round"/>
<path d="M92.3884 103.369C93.3183 103.214 94.2482 103.062 95.1756 102.908" stroke="white" stroke-width="0.254382" stroke-linecap="round" stroke-linejoin="round"/>
<path d="M102.199 102.109C101.388 102.798 100.965 103.939 101.123 105.008" stroke="white" stroke-width="0.254382" stroke-linecap="round" stroke-linejoin="round"/>
<path d="M75.2963 99.2806C75.63 100.545 75.5485 101.925 75.067 103.138C74.5855 104.35 73.704 105.395 72.6009 106.057C71.9818 106.429 71.3678 106.801 71.0825 107.479L87.1328 107.587C87.2372 104.756 87.4309 101.941 87.5353 99.1104C83.4845 99.1811 79.3471 99.2099 75.2963 99.2806Z" fill="#060305"/>
<path d="M75.9183 101.554C76.6316 101.533 77.345 101.509 78.0583 101.488" stroke="white" stroke-width="0.254382" stroke-linecap="round" stroke-linejoin="round"/>
<path d="M75.5923 102.583L78.0559 102.562" stroke="white" stroke-width="0.254382" stroke-linecap="round" stroke-linejoin="round"/>
<path d="M75.204 103.808H77.2778" stroke="white" stroke-width="0.254382" stroke-linecap="round" stroke-linejoin="round"/>
<path d="M83.3551 107.194C84.0837 106.063 85.4264 105.379 86.7435 105.466" stroke="white" stroke-width="0.254382" stroke-linecap="round" stroke-linejoin="round"/>
<path d="M102.365 97.3589L97.2543 72.4351C96.2301 65.31 95.4225 58.1926 94.3984 51.0674C87.1375 50.5228 79.6015 50.0645 72.3381 49.5225C72.1317 51.5204 71.9279 53.521 71.7216 55.519C70.2235 70.1255 73.1024 85.1117 74.2259 99.7523C78.72 99.8047 83.2192 99.8282 87.7133 99.8806C87.6674 97.1258 87.6496 94.1642 87.6037 91.4121C88.1999 94.1904 88.8292 96.9583 89.4253 99.7366C93.7181 98.896 98.0747 98.1995 102.367 97.3589H102.365Z" fill="#2A2A59" stroke="black" stroke-width="0.317978"/>
<path d="M80.4401 59.8397C82.8757 70.6571 85.3113 81.4719 87.7443 92.2893" stroke="#060305" stroke-width="0.254382" stroke-linecap="round" stroke-linejoin="round"/>
<path d="M73.5837 51.1744C77.5785 51.3446 81.5758 51.5149 85.5705 51.6824" stroke="#060305" stroke-width="0.254382" stroke-linecap="round" stroke-linejoin="round"/>
<path d="M79.9486 52.6099C80.9279 52.6099 81.7218 51.7939 81.7218 50.7874C81.7218 49.7808 80.9279 48.9648 79.9486 48.9648C78.9693 48.9648 78.1754 49.7808 78.1754 50.7874C78.1754 51.7939 78.9693 52.6099 79.9486 52.6099Z" stroke="#060305" stroke-width="0.254382" stroke-linecap="round" stroke-linejoin="round"/>
<path d="M74.2336 96.4373C78.5978 96.5944 82.9645 96.7515 87.3287 96.9086" stroke="#060305" stroke-width="0.254382" stroke-linecap="round" stroke-linejoin="round"/>
<path d="M89.1476 96.7278C93.2901 95.9867 97.4352 95.2483 101.578 94.5072" stroke="#060305" stroke-width="0.254382" stroke-linecap="round" stroke-linejoin="round"/>
<path d="M85.1456 96.8801C85.125 91.7502 85.107 86.6204 85.0864 81.4906" stroke="#060305" stroke-width="0.254382" stroke-linecap="round" stroke-linejoin="round"/>
<path d="M99.8479 94.8113C99.374 92.9888 98.9001 91.1689 98.4263 89.3463C95.6315 78.5996 93.7615 67.6434 93.3972 56.5249" stroke="#060305" stroke-width="0.254382" stroke-linecap="round" stroke-linejoin="round"/>
<path d="M57.7832 44.0937C57.7832 44.0937 55.0954 45.1935 54.1935 45.657C53.7553 45.327 53.2203 45.0888 52.6802 45.1123C51.7885 45.1542 50.8153 45.2275 49.9236 45.2694C50.0867 46.5473 50.3338 47.8016 50.4969 49.0769L55.8674 53.1645L59.9717 51.5986L57.7832 44.0911V44.0937Z" fill="#FF9A7D" stroke="black" stroke-width="0.317978"/>
<path d="M54.1706 45.6471C54.4101 45.9351 54.6496 46.2232 54.8865 46.5112" stroke="#060305" stroke-width="0.254382" stroke-linecap="round" stroke-linejoin="round"/>
<path d="M57.7383 52.6378L54.9798 44.9758L58.2386 43.5512L60.4953 51.8974L57.7383 52.6378Z" fill="white" stroke="black" stroke-width="0.317978"/>
<path d="M109.222 72.0974H91.1025C89.051 72.0974 87.388 73.8067 87.388 75.9153V86.1331C87.388 88.2416 89.051 89.951 91.1025 89.951H109.222C111.273 89.951 112.936 88.2416 112.936 86.1331V75.9153C112.936 73.8067 111.273 72.0974 109.222 72.0974Z" fill="#D1D1D1" stroke="black" stroke-width="0.317978"/>
<path d="M104.411 72.7965L103.476 69.4971C103.336 69.0022 102.888 68.6565 102.386 68.6565H97.5478C97.0382 68.6565 96.5898 69.0074 96.4523 69.5128L95.6243 72.5896L94.5619 72.2885L95.3899 69.2116C95.6574 68.2192 96.544 67.5253 97.5478 67.5253H102.386C103.374 67.5253 104.258 68.2061 104.533 69.1802L105.468 72.4796L104.411 72.7965Z" fill="#FE5615" stroke="black" stroke-width="0.317978"/>
<path d="M89.9806 74.0546C89.9806 78.7304 89.9806 83.4085 89.9806 88.0844" stroke="#060305" stroke-width="0.254382" stroke-linecap="round" stroke-linejoin="round"/>
<path d="M110.476 73.7622C110.476 78.537 110.476 83.3118 110.476 88.0843" stroke="#060305" stroke-width="0.254382" stroke-linecap="round" stroke-linejoin="round"/>
<path d="M95.4221 62.7095C95.7075 64.9615 95.9903 67.2135 96.2756 69.4654C96.3316 69.9054 96.6297 70.3741 97.0373 70.5207C97.445 70.6674 97.9341 70.5312 98.2118 70.1908C98.4207 70.5155 98.7698 70.7564 99.1494 70.7433C99.529 70.7302 99.8933 70.5024 100.079 70.162C100.26 70.5286 100.668 70.7878 101.068 70.7747C101.468 70.759 101.847 70.4919 102.003 70.1149C102.27 70.272 102.642 70.2222 102.912 70.0677C103.182 69.9132 103.361 69.6068 103.368 69.29C103.422 67.1323 103.485 64.9274 103.557 62.7697L95.4221 62.7121V62.7095Z" fill="#FF9A7D" stroke="black" stroke-width="0.317978"/>
<path d="M98.0868 69.6305C98.1302 69.8295 98.1737 70.0311 98.2171 70.2302" stroke="#060305" stroke-width="0.254382" stroke-linecap="round" stroke-linejoin="round"/>
<path d="M100.031 69.6959V70.361" stroke="#060305" stroke-width="0.254382" stroke-linecap="round" stroke-linejoin="round"/>
<path d="M102.055 69.4993C102.032 69.7218 102.011 69.9444 101.988 70.1644" stroke="#060305" stroke-width="0.254382" stroke-linecap="round" stroke-linejoin="round"/>
<path d="M59.6983 53.7926C59.1636 52.0337 58.637 50.3076 58.1104 48.5816L58.1104 48.5815L58.1101 48.5806C57.5832 46.8534 57.0562 45.1263 56.5212 43.3663C57.984 42.9684 59.4462 42.5705 60.9085 42.1727L60.94 42.1641C62.4655 41.749 63.9909 41.334 65.5169 40.919L65.5893 40.8993L65.6201 40.8309C66.3141 39.2931 67.0151 37.7703 67.7163 36.2472L67.7394 36.1972C68.4329 34.6909 69.1266 33.1843 69.8135 31.6634C70.3836 30.4076 71.4292 29.3625 72.6446 28.7494L72.7221 28.7103L72.7311 28.6239C72.7477 28.4652 72.7624 28.315 72.777 28.1654L72.7771 28.1646C72.7885 28.0481 72.7998 27.9319 72.8121 27.8119C73.6014 27.569 74.3825 27.3337 75.1643 27.0981L75.2066 27.0854C75.9297 26.8676 76.6536 26.6495 77.385 26.4253L73.4974 56.6894L70.4075 55.9924C70.5596 54.7831 70.6957 53.5869 70.8314 52.3917L70.8398 52.3173C70.9781 51.0994 71.1163 49.8824 71.2709 48.6516L71.3417 48.0883L70.9887 48.5329C70.2388 49.4772 69.1479 50.2331 68.0267 50.6455C66.6041 51.1669 65.1925 51.708 63.7822 52.2486L63.7814 52.2489C62.4228 52.7696 61.0653 53.2899 59.6983 53.7926Z" fill="#F17228" stroke="black" stroke-width="0.317978"/>
<path d="M60.976 42.1929C61.5721 44.2406 62.0052 46.3067 62.6014 48.3544C61.2537 48.7655 59.9059 49.174 58.5582 49.5852" stroke="#060305" stroke-width="0.254382" stroke-linecap="round" stroke-linejoin="round"/>
<path d="M65.4198 40.8312C65.6032 40.7972 65.7867 40.7657 65.9701 40.7317" stroke="#060305" stroke-width="0.254382" stroke-linecap="round" stroke-linejoin="round"/>
<path d="M72.5986 28.6259C72.5247 30.3358 72.4534 32.0457 72.3821 33.7557C73.2559 33.7688 74.1043 33.7714 74.9807 33.7845C74.1654 34.3213 73.4292 34.8136 72.6139 35.3504C73.2228 39.6815 73.8292 44.0415 74.438 48.3753" stroke="#060305" stroke-width="0.254382" stroke-linecap="round" stroke-linejoin="round"/>
<path d="M70.9809 49.1246C71.4879 44.1676 71.9949 39.208 72.5018 34.251" stroke="#060305" stroke-width="0.254382" stroke-linecap="round" stroke-linejoin="round"/>
<path d="M84.718 57.0235L86.0244 25.9882L90.5101 27.4608L90.4109 27.989L90.3848 28.1279L90.5197 28.1701C93.6107 29.1365 95.4666 30.3555 97.06 32.5477C98.4471 34.4588 99.58 36.5677 100.714 38.6788C101.251 39.6786 101.789 40.679 102.353 41.659L102.353 41.6596C103.666 43.9343 104.18 46.7572 104.117 49.4182C104.117 49.4184 104.117 49.4187 104.117 49.4189L103.684 63.1905L94.519 62.9473L94.3973 57.0814L94.3941 56.9241L94.2367 56.9257L84.718 57.0235Z" fill="#F17228" stroke="black" stroke-width="0.317978"/>
<path d="M90.6208 27.8402C90.1597 29.7753 89.6985 31.7105 89.2374 33.6482C88.3279 33.6954 87.2579 33.7582 86.3509 33.8054C87.1559 34.3081 87.9101 34.9759 88.7126 35.476C87.5457 39.9931 86.3356 44.5049 85.1688 49.0246" stroke="#060305" stroke-width="0.254382" stroke-linecap="round" stroke-linejoin="round"/>
<path d="M94.218 56.9722C94.1976 53.5732 94.1772 50.1769 94.1568 46.778C93.0027 43.3319 91.4384 39.1815 90.1417 35.3321C89.6882 33.9862 89.7799 32.5014 90.6589 31.399C91.5378 30.2966 93.0358 29.7624 94.3886 30.0635" stroke="#060305" stroke-width="0.254382" stroke-linecap="round" stroke-linejoin="round"/>
<path d="M94.4548 58.7083C96.7477 58.8313 99.0381 58.9544 101.331 59.0775C101.29 60.4549 101.206 61.6568 101.165 63.0342" stroke="#060305" stroke-width="0.254382" stroke-linecap="round" stroke-linejoin="round"/>
<path d="M94.0627 50.9599L88.1725 47.6553L88.0477 49.5826L94.1952 53.1674" stroke="#060305" stroke-width="0.254382" stroke-linecap="round" stroke-linejoin="round"/>
<path d="M81.8002 17.2245C81.7518 17.4235 81.7161 17.6539 81.6677 17.8529C80.3659 17.434 78.9595 17.4497 77.594 17.4497C77.1099 17.4497 76.6284 17.6277 76.2565 17.9472" stroke="#060305" stroke-width="0.254382" stroke-linecap="round" stroke-linejoin="round"/>
<path d="M83.507 19.8062C83.423 19.2772 83.3287 18.7221 82.9975 18.3057C82.7325 17.9731 82.3427 17.7715 81.9377 17.6642C81.5351 17.5568 81.0816 17.4966 80.6664 17.5254C79.8307 17.5777 78.9951 17.6327 78.1595 17.6851C77.7824 17.7087 77.3977 17.7349 77.0436 17.8736C76.6895 18.0124 76.3685 18.2874 76.2614 18.6592C76.1748 18.9577 76.2436 19.2955 76.4372 19.5364C76.6283 19.7747 76.9646 19.9476 77.2652 19.9161C77.1277 20.0104 77.0232 20.1518 76.9723 20.3142C76.878 20.6101 76.9799 20.9557 77.2117 21.1547C77.4436 21.3537 77.7875 21.3983 78.0627 21.27C78.3251 21.8015 78.5187 22.32 78.6868 22.8909L83.9605 22.6604C83.8102 21.7099 83.6599 20.7567 83.5096 19.8062H83.507Z" fill="#060305"/>
<path d="M83.5601 25.96C83.4913 25.2923 83.4072 24.6507 83.3384 23.983C83.8734 23.9437 84.3779 23.5824 84.597 23.077C84.8161 22.5716 84.7422 21.9457 84.411 21.5111C84.0798 21.0764 83.5091 20.8486 82.9792 20.9428C82.8365 21.2701 82.7015 21.5844 82.5588 21.9091C82.4213 21.8227 82.3143 21.697 82.2557 21.5451L81.6926 20.1101C80.5844 20.1363 79.4379 20.207 78.3322 20.2358C77.9425 20.5998 77.6597 21.0449 77.573 21.5791C77.4864 22.1055 77.5374 22.6449 77.5221 23.1765C77.5068 23.7526 77.7514 24.3575 78.131 24.7843C78.508 25.2111 79.043 25.4887 79.601 25.5489C79.6188 25.7872 79.629 26.0203 79.6443 26.2586C80.1029 26.9054 80.9079 27.272 81.685 27.2143C82.462 27.1567 83.1958 26.6644 83.5626 25.9574L83.5601 25.96Z" fill="#FF9A7D"/>
<path d="M80.9738 23.1817L80.1815 23.2943C80.179 23.454 80.2732 23.6111 80.4133 23.6792C80.5535 23.7473 80.7344 23.7211 80.8515 23.6164C80.9687 23.5116 81.0197 23.3336 80.9738 23.1791V23.1817Z" fill="white"/>
<path d="M81.3689 22.4094C81.3689 22.2837 81.2695 22.1842 81.1473 22.1842C81.025 22.1842 80.9282 22.2863 80.9282 22.4094C80.9282 22.5325 81.0275 22.6372 81.1473 22.6372C81.267 22.6372 81.3689 22.5351 81.3689 22.4094Z" fill="#060305"/>
<path d="M78.6069 22.4275C78.6069 22.3018 78.5075 22.2023 78.3852 22.2023C78.2629 22.2023 78.1661 22.3044 78.1661 22.4275C78.1661 22.5505 78.2655 22.6553 78.3852 22.6553C78.505 22.6553 78.6069 22.5532 78.6069 22.4275Z" fill="#060305"/>
<path d="M79.512 22.3749L79.3413 23.2181C79.4534 23.1997 79.5706 23.2181 79.6852 23.1997" stroke="#060305" stroke-width="0.254382" stroke-linecap="round" stroke-linejoin="round"/>
<path d="M79.4958 25.5648C80.143 25.7376 80.8436 25.6853 81.4576 25.4208" stroke="#060305" stroke-width="0.254382" stroke-linecap="round" stroke-linejoin="round"/>
<path d="M83.1604 22.2705C83.3871 22.0793 83.6164 21.8882 83.8432 21.697" stroke="#060305" stroke-width="0.254382" stroke-linecap="round" stroke-linejoin="round"/>
<path d="M80.4418 21.0738C80.6253 20.8041 81.0482 20.7517 81.2877 20.9717" stroke="#060305" stroke-width="0.254382" stroke-linecap="round" stroke-linejoin="round"/>
<path d="M78.0317 21.2887C78.2432 21.3044 78.4521 21.3227 78.6636 21.3384" stroke="#060305" stroke-width="0.254382" stroke-linecap="round" stroke-linejoin="round"/>
<path d="M28.4864 27.8168C28.4711 27.4266 28.6723 27.0574 28.9475 26.7877C29.2226 26.5206 29.564 26.3373 29.9003 26.1592C30.9627 25.5962 32.0251 25.0332 33.09 24.4702" stroke="#FE5615" stroke-width="0.254382" stroke-linecap="round" stroke-linejoin="round"/>
<path d="M39.4896 19.0497C38.017 18.0206 35.8948 18.1044 34.5038 19.2487C33.1128 20.3904 32.6822 22.5533 33.3344 24.258C32.3077 24.9022 31.281 25.5438 30.2543 26.1879C29.7932 26.476 29.3167 26.7797 29.0212 27.2432C28.7231 27.7067 28.6594 28.3771 29.0212 28.7882L37.0922 30.2258C37.082 28.4164 37.1304 26.6776 37.1203 24.8656C37.8234 24.3471 38.575 23.7815 39.2807 23.263C39.3113 22.4617 39.3851 21.5923 39.4157 20.7936C39.7087 20.6077 39.9049 20.2725 39.9252 19.919C39.9456 19.5655 39.7749 19.2487 39.4921 19.0523L39.4896 19.0497Z" fill="#FE5615"/>
<path d="M32.3436 24.4939L32.8072 23.2527L35.625 24.2923L35.439 25.1852L32.3436 24.4939Z" fill="white"/>
<path d="M51.8198 33.6408C50.4033 32.1979 49.0734 30.6294 47.5881 29.2625C46.406 28.1758 45.0353 27.2698 43.4711 26.9974C41.7361 26.6963 40.0827 26.4082 38.3477 26.1071C37.9757 26.6806 37.2726 27.0079 36.6076 26.9189C35.9427 26.8298 35.3007 26.3428 35.0841 25.6934C33.2396 26.4973 31.3951 27.2986 29.5506 28.1025C28.2462 28.6707 27.1048 29.6212 26.4221 30.8939C25.7393 32.1691 25.4998 33.6879 25.7597 35.1203C26.6106 39.818 26.7507 44.6127 27.487 49.3314L45.8404 48.9779C45.8251 45.8565 45.8557 42.7692 45.8404 39.6505C46.4213 39.2524 46.8213 38.5821 46.9002 37.8672C46.9818 37.1523 46.7729 36.3484 46.2939 35.8221C48.0722 35.1046 50.0364 34.3609 51.8172 33.6408H51.8198Z" fill="#74CA45" stroke="black" stroke-width="0.317978"/>
<path d="M32.5618 26.9764C33.6395 28.3092 34.7172 29.6421 35.7948 30.9749C36.2661 29.972 36.7578 29.0241 37.2292 28.0186C38.0826 28.8251 38.931 29.574 39.7845 30.3779C39.9068 29.1131 40.0877 27.8798 40.2099 26.615" stroke="#060305" stroke-width="0.254382" stroke-linecap="round" stroke-linejoin="round"/>
<path d="M43.0081 27.0944C43.1457 28.1392 43.4743 29.1578 43.8692 30.1293C44.6259 32.0042 45.3825 33.8765 46.1392 35.7514" stroke="#060305" stroke-width="0.254382" stroke-linecap="round" stroke-linejoin="round"/>
<path d="M28.5726 28.9194C29.5739 28.3224 30.919 28.4009 31.8464 29.1158C32.4502 29.5819 32.8578 30.2628 33.2502 30.9253C34.4017 32.8709 35.5532 34.8191 36.7048 36.7647" stroke="#060305" stroke-width="0.254382" stroke-linecap="round" stroke-linejoin="round"/>
<path d="M26.345 36.3248C26.8443 38.0138 27.3462 39.7054 27.8455 41.3944" stroke="#060305" stroke-width="0.254382" stroke-linecap="round" stroke-linejoin="round"/>
<path d="M45.7773 34.7824C47.4664 34.1251 49.1529 33.4652 50.842 32.808" stroke="#060305" stroke-width="0.254382" stroke-linecap="round" stroke-linejoin="round"/>
<path d="M27.5124 40.0143C30.3378 38.5479 33.1631 37.0841 35.9885 35.6177" stroke="#060305" stroke-width="0.254382" stroke-linecap="round" stroke-linejoin="round"/>
<path d="M37.2607 28.1576C37.6709 29.9251 38.081 31.6927 38.4912 33.4629" stroke="#060305" stroke-width="0.254382" stroke-linecap="round" stroke-linejoin="round"/>
<path d="M42.9157 105.589C41.7947 104.615 40.9973 103.251 40.689 101.776C40.3782 100.302 40.5412 98.7571 41.1705 97.3928C34.9083 95.9055 28.3837 95.1487 21.956 95.1618C21.0465 97.9323 20.1369 100.7 19.2274 103.471C21.5254 104.746 23.7266 106.194 26.0221 107.469L44.401 107.584C44.3398 106.718 43.5628 106.149 42.9157 105.589Z" fill="#2A2A59"/>
<path d="M28.6456 99.8127C28.587 102.345 28.5284 104.874 28.4698 107.407" stroke="#060305" stroke-width="0.254382" stroke-linecap="round" stroke-linejoin="round"/>
<path d="M20.1213 102.191C22.5263 103.791 24.9339 105.388 27.3389 106.988" stroke="#060305" stroke-width="0.254382" stroke-linecap="round" stroke-linejoin="round"/>
<path d="M28.7224 105.833L44.3523 107.255" stroke="#060305" stroke-width="0.254382" stroke-linecap="round" stroke-linejoin="round"/>
<path d="M45.9834 47.3728L27.0415 48.216C26.6338 50.9472 26.2237 53.6784 25.816 56.4096C24.8021 63.1865 26.3714 70.0367 27.8083 76.7325C25.4059 82.8442 22.904 89.0058 20.5016 95.1176C23.0798 96.2986 25.681 97.401 28.3 98.4825C28.3127 98.9826 28.1956 99.3937 28.2083 99.8939C33.1661 99.8363 38.1442 99.7473 43.102 99.6896C42.7071 94.6777 42.4268 89.6081 42.032 84.5961C44.0523 82.0639 44.7682 78.7304 45.3337 75.507C47.1681 65.0666 46.819 56.7474 45.9808 47.3728H45.9834Z" fill="#060305"/>
<path d="M26.9146 49.989C30.7182 49.9026 34.5219 49.8161 38.3256 49.7297" stroke="white" stroke-width="0.254382" stroke-linecap="round" stroke-linejoin="round"/>
<path d="M29.4484 49.9783C28.7198 53.7674 28.4192 57.6429 28.5542 61.5027C28.73 66.5566 29.7516 71.49 30.335 76.5125C30.5796 76.337 30.9999 76.5125 31.1503 76.7769C31.3006 77.0414 31.2547 77.3923 31.0866 77.6463C30.9184 77.9003 30.6509 78.0679 30.3707 78.1753C30.2917 85.3476 30.0191 92.5016 29.9401 99.6765" stroke="white" stroke-width="0.254382" stroke-linecap="round" stroke-linejoin="round"/>
<path d="M28.3201 98.5425C28.1723 91.3257 28.0245 84.1088 27.8768 76.892" stroke="white" stroke-width="0.254382" stroke-linecap="round" stroke-linejoin="round"/>
<path d="M39.469 59.7145C40.1492 65.5932 40.8295 71.472 41.5097 77.3507C41.7925 79.8069 41.9046 82.2894 42.06 84.7561" stroke="white" stroke-width="0.254382" stroke-linecap="round" stroke-linejoin="round"/>
<path d="M34.9163 49.8422C34.9342 50.9524 34.9521 52.0627 34.9701 53.1756" stroke="white" stroke-width="0.254382" stroke-linecap="round" stroke-linejoin="round"/>
<path d="M28.6825 57.4228C30.1703 54.9116 31.6582 52.4004 33.1435 49.8892" stroke="white" stroke-width="0.254382" stroke-linecap="round" stroke-linejoin="round"/>
<path d="M56.7454 54.0368C56.1059 52.3924 55.1098 50.8814 53.9532 49.5722C52.58 48.0193 50.8221 46.7284 48.9572 45.8773C45.4643 44.2826 42.0173 42.7219 38.5245 41.1272C37.7551 39.8022 36.9857 38.4772 36.2163 37.1548L28.4968 41.1193C29.8063 43.3111 31.1999 45.4714 32.9603 47.2992C34.7208 49.127 36.8201 50.7374 39.2684 51.2638C41.5766 51.7587 46.0299 53.4293 46.0299 53.4293C46.0299 53.4293 49.0412 57.3625 51.194 58.0302C51.6169 58.1611 52.1825 57.8993 52.2691 57.4541C52.6003 57.6138 53.0131 57.5824 53.3188 57.3729C53.6245 57.1634 53.8946 56.8309 53.8767 56.4538C54.2309 56.5376 54.6232 56.4486 54.9085 56.2181C55.1939 55.9877 55.4155 55.6525 55.4206 55.2781C55.7595 55.4273 56.1849 55.3461 56.4473 55.0817C56.7097 54.8146 56.8804 54.393 56.7429 54.0395L56.7454 54.0368Z" fill="#FFD1C7" stroke="black" stroke-width="0.317978"/>
<path d="M38.5221 41.2084L37.7426 41.3026" stroke="#060305" stroke-width="0.254382" stroke-linecap="round" stroke-linejoin="round"/>
<path d="M54.916 54.5397L55.3644 55.176" stroke="#060305" stroke-width="0.254382" stroke-linecap="round" stroke-linejoin="round"/>
<path d="M53.3344 55.7705C53.5535 55.9983 53.7752 56.2288 53.9943 56.4566" stroke="#060305" stroke-width="0.254382" stroke-linecap="round" stroke-linejoin="round"/>
<path d="M51.7449 56.9698C51.8952 57.1139 52.0481 57.2579 52.1984 57.4045" stroke="#060305" stroke-width="0.254382" stroke-linecap="round" stroke-linejoin="round"/>
<path d="M38.5628 26.3432C38.5807 26.1442 38.6163 25.9792 38.6316 25.7776C39.1641 25.6414 39.6507 25.3219 39.9972 24.8846C40.3437 24.4473 40.6239 23.8922 40.5984 23.3292C40.5602 22.4834 40.3844 21.6664 40.0609 20.886C39.9055 20.5116 39.6303 20.1895 39.2889 19.9826C38.9475 19.7757 38.5934 19.637 38.2011 19.6789C38.3055 19.8753 38.1909 20.1293 38.0125 20.2576C37.8342 20.3859 37.6126 20.4225 37.4011 20.4723C37.1897 20.522 36.968 20.598 36.8355 20.776C36.7209 20.9279 36.6954 21.1296 36.6699 21.3207C36.6445 21.5119 36.6164 21.7135 36.4967 21.8628C36.3795 22.012 36.0738 22.1508 35.9362 22.0199C35.8521 22.2032 35.7655 22.3865 35.6814 22.5672C35.5566 22.3263 35.3986 22.0827 35.2764 21.8418C34.7592 21.758 34.2038 21.9937 33.893 22.4258C33.5821 22.8578 33.5286 23.4732 33.7579 23.9576C33.9898 24.4421 34.4942 24.7746 35.019 24.7877C34.9197 25.1936 34.8229 25.6021 34.7235 26.0054C34.6318 26.3798 34.8483 26.8276 35.1108 27.1052C35.3732 27.3828 35.7247 27.5582 36.0891 27.6551C36.5986 27.7913 37.1565 27.7755 37.638 27.5582C38.1221 27.3409 38.5144 26.8774 38.5603 26.3379L38.5628 26.3432Z" fill="#FFD1C7"/>
<path d="M37.7064 22.6064C37.7064 22.4807 37.6071 22.3785 37.4873 22.3785C37.3676 22.3785 37.2657 22.4807 37.2657 22.6064C37.2657 22.7321 37.365 22.8316 37.4873 22.8316C37.6096 22.8316 37.7064 22.7294 37.7064 22.6064Z" fill="#060305"/>
<path d="M40.2542 22.3236C40.2542 22.1979 40.1549 22.0984 40.0326 22.0984C39.9103 22.0984 39.8135 22.2005 39.8135 22.3236C39.8135 22.4467 39.9128 22.5514 40.0326 22.5514C40.1523 22.5514 40.2542 22.4493 40.2542 22.3236Z" fill="#060305"/>
<path d="M34.4023 22.6433C34.6163 22.7821 34.8278 22.9183 35.0418 23.057" stroke="#060305" stroke-width="0.254382" stroke-linecap="round" stroke-linejoin="round"/>
<path d="M37.08 21.6718C37.1488 21.4832 37.3246 21.3392 37.5182 21.313C37.7118 21.2868 37.9182 21.3785 38.0328 21.5408" stroke="#060305" stroke-width="0.254382" stroke-linecap="round" stroke-linejoin="round"/>
<path d="M39.457 20.9122C39.62 20.8729 39.7805 20.831 39.9436 20.7917" stroke="#060305" stroke-width="0.254382" stroke-linecap="round" stroke-linejoin="round"/>
<path d="M38.9855 22.2998C39.0721 22.5329 39.1613 22.7685 39.2479 23.0016C39.1511 23.0173 38.9727 23.0278 38.8759 23.0461" stroke="#060305" stroke-width="0.254382" stroke-linecap="round" stroke-linejoin="round"/>
<path d="M37.9483 23.3187C37.9254 23.4732 38.0171 23.6382 38.1572 23.6984C38.2974 23.7586 38.4757 23.701 38.5623 23.5727" stroke="#060305" stroke-width="0.254382" stroke-linecap="round" stroke-linejoin="round"/>
<path d="M36.706 25.6572C37.3378 25.9715 38.0792 26.0422 38.7543 25.8484" stroke="#060305" stroke-width="0.254382" stroke-linecap="round" stroke-linejoin="round"/>
<path d="M34.914 24.8245C35.0439 24.8167 35.1739 24.8088 35.3038 24.7983" stroke="#060305" stroke-width="0.254382" stroke-linecap="round" stroke-linejoin="round"/>
<path d="M38.2474 19.6449C38.3621 19.8806 38.329 20.1817 38.1659 20.386C38.0003 20.5954 37.7328 20.6845 37.4806 20.763" stroke="#FE5615" stroke-width="0.254382" stroke-linecap="round" stroke-linejoin="round"/>
<path d="M49.6181 57.423C49.8932 56.7291 50.1684 56.0352 50.441 55.3412C50.5072 55.1736 50.5735 55.0008 50.5684 54.8201C50.5633 54.6395 50.4333 54.4404 50.2626 54.3907C49.8856 54.7259 49.5034 55.0558 49.1289 55.391L49.7608 53.3851C49.8194 53.1992 49.8779 53.0028 49.8448 52.8117C49.8092 52.6205 49.6436 52.4398 49.455 52.4582C48.9404 53.0421 48.3825 53.6077 47.8678 54.1917C47.9978 53.5685 48.1277 52.9452 48.2576 52.322C48.3086 52.0785 48.3595 51.8245 48.2958 51.5836C48.2322 51.3426 48.0131 51.1672 47.7736 51.1934C47.4042 51.7145 47.0322 52.233 46.6628 52.7541C46.7086 52.233 46.7571 51.7093 46.8029 51.1882C46.8207 50.976 46.8386 50.7561 46.7596 50.5597C46.6806 50.3633 46.4462 50.2533 46.2501 50.3162C45.7609 51.3296 45.2718 52.3456 44.7852 53.359C44.8081 53.6418 44.9355 53.8905 45.152 54.066C45.3686 54.2414 45.6539 54.3226 45.9265 54.2833C45.9316 54.6211 46.1533 54.9144 46.4335 55.0925C46.7112 55.2732 47.0781 55.2993 47.3812 55.1684C47.3303 55.5062 47.4602 55.8335 47.7124 56.0587C47.9646 56.2839 48.3315 56.3625 48.65 56.263C48.5251 56.5458 48.6092 56.8888 48.8028 57.1297C48.9965 57.368 49.3302 57.4911 49.6232 57.4178L49.6181 57.423Z" fill="#FF9A7D" stroke="black" stroke-width="0.317978"/>
<path d="M45.8701 54.2549C46.1121 53.7416 46.3516 53.2258 46.5937 52.7125" stroke="#060305" stroke-width="0.254382" stroke-linecap="round" stroke-linejoin="round"/>
<path d="M47.305 55.1763C47.4986 54.7993 47.6948 54.4222 47.8884 54.0425" stroke="#060305" stroke-width="0.254382" stroke-linecap="round" stroke-linejoin="round"/>
<path d="M48.499 56.3416C48.7181 56.0091 48.9372 55.6791 49.1538 55.3466" stroke="#060305" stroke-width="0.254382" stroke-linecap="round" stroke-linejoin="round"/>
<path d="M49.9249 45.2706C49.5707 46.5144 49.2166 47.7583 48.8625 49.0021C48.9568 49.1514 49.2497 49.1488 49.4128 49.0833C49.5758 49.0178 49.6981 48.8843 49.8153 48.7533C50.4395 48.0647 51.0611 47.376 51.6853 46.6873L50.8051 45.9763L49.9249 45.2654V45.2706Z" fill="#FF9A7D"/>
<path d="M51.2557 47.1797C51.3525 47.0697 51.4494 46.9571 51.5462 46.8472" stroke="#060305" stroke-width="0.254382" stroke-linecap="round" stroke-linejoin="round"/>
</g>
<defs>
<clipPath id="clip0_440_24035">
<rect width="118" height="110" fill="white" transform="translate(0.25 0.348267)"/>
</clipPath>
</defs>
</svg>
