<svg width="48" height="48" viewBox="0 0 48 48" fill="none" xmlns="http://www.w3.org/2000/svg">
<path d="M35.837 28.64C35.319 29.142 35.081 29.868 35.199 30.58L36.977 40.42C37.127 41.254 36.775 42.098 36.077 42.58C35.393 43.08 34.483 43.14 33.737 42.74L24.879 38.12C24.571 37.956 24.229 37.868 23.879 37.858H23.337C23.149 37.886 22.965 37.946 22.797 38.038L13.937 42.68C13.499 42.9 13.003 42.978 12.517 42.9C11.333 42.676 10.543 41.548 10.737 40.358L12.517 30.518C12.635 29.8 12.397 29.07 11.879 28.56L4.65699 21.56C4.05299 20.974 3.84299 20.094 4.11899 19.3C4.38699 18.508 5.07099 17.93 5.89699 17.8L15.837 16.358C16.593 16.28 17.257 15.82 17.597 15.14L21.977 6.16C22.081 5.96 22.215 5.776 22.377 5.62L22.557 5.48C22.651 5.376 22.759 5.29 22.879 5.22L23.097 5.14L23.437 5H24.279C25.031 5.078 25.693 5.528 26.039 6.2L30.477 15.14C30.797 15.794 31.419 16.248 32.137 16.358L42.077 17.8C42.917 17.92 43.619 18.5 43.897 19.3C44.159 20.102 43.933 20.982 43.317 21.56L35.837 28.64Z" fill="white" stroke="#CEC6C5" stroke-width="1.5"/>
</svg>
