<svg width="20" height="20" viewBox="0 0 20 20" fill="none" xmlns="http://www.w3.org/2000/svg">
<path fill-rule="evenodd" clip-rule="evenodd" d="M13.75 1.875C12.2543 1.875 11.0417 3.08756 11.0417 4.58333C11.0417 4.74659 11.0562 4.90647 11.0838 5.06177L7.14163 7.82131C7.1216 7.83534 7.10264 7.85032 7.08477 7.86616C6.62498 7.50622 6.0459 7.29167 5.41671 7.29167C3.92094 7.29167 2.70837 8.50423 2.70837 10C2.70837 11.4958 3.92094 12.7083 5.41671 12.7083C6.0459 12.7083 6.62498 12.4938 7.08477 12.1338C7.10264 12.1497 7.1216 12.1647 7.14163 12.1787L11.0838 14.9382C11.0562 15.0935 11.0417 15.2534 11.0417 15.4167C11.0417 16.9124 12.2543 18.125 13.75 18.125C15.2458 18.125 16.4584 16.9124 16.4584 15.4167C16.4584 13.9209 15.2458 12.7083 13.75 12.7083C12.8727 12.7083 12.0928 13.1255 11.5979 13.7723L7.86509 11.1593C8.03178 10.8079 8.12504 10.4148 8.12504 10C8.12504 9.58518 8.03178 9.19214 7.86509 8.84071L11.5979 6.22775C12.0928 6.87452 12.8727 7.29167 13.75 7.29167C15.2458 7.29167 16.4584 6.0791 16.4584 4.58333C16.4584 3.08756 15.2458 1.875 13.75 1.875ZM12.2917 4.58333C12.2917 3.77792 12.9446 3.125 13.75 3.125C14.5555 3.125 15.2084 3.77792 15.2084 4.58333C15.2084 5.38875 14.5555 6.04167 13.75 6.04167C12.9446 6.04167 12.2917 5.38875 12.2917 4.58333ZM5.41671 8.54167C4.61129 8.54167 3.95837 9.19458 3.95837 10C3.95837 10.8054 4.61129 11.4583 5.41671 11.4583C6.22212 11.4583 6.87504 10.8054 6.87504 10C6.87504 9.19458 6.22212 8.54167 5.41671 8.54167ZM13.75 13.9583C12.9446 13.9583 12.2917 14.6113 12.2917 15.4167C12.2917 16.2221 12.9446 16.875 13.75 16.875C14.5555 16.875 15.2084 16.2221 15.2084 15.4167C15.2084 14.6113 14.5555 13.9583 13.75 13.9583Z" fill="#1C274C"/>
</svg>
