<svg width="24" height="24" viewBox="0 0 24 24" fill="none" xmlns="http://www.w3.org/2000/svg">
<path d="M19.7847 16.1249L18.7084 12.3749H16.1247V15.7499C16.1247 16.2471 15.9271 16.7241 15.5755 17.0757C15.2239 17.4273 14.7469 17.6249 14.2497 17.6249H12.3747C12.3147 17.2499 12.6484 15.9524 11.4972 14.9211C11.7529 14.8313 11.9746 14.6644 12.1317 14.4435C12.2889 14.2226 12.3737 13.9585 12.3747 13.6874C12.3739 13.4924 12.329 13.3001 12.2434 13.1249H12.8209L13.6234 16.8749H14.2497C14.548 16.8749 14.8342 16.7563 15.0452 16.5454C15.2561 16.3344 15.3747 16.0482 15.3747 15.7499V14.3024L14.8309 11.7636C14.7769 11.5122 14.6384 11.2869 14.4385 11.1252C14.2386 10.9635 13.9893 10.8751 13.7322 10.8749H12.6784C12.9859 10.3086 13.4509 9.50987 13.7509 9.02987L14.3584 9.64112C14.4108 9.69293 14.4773 9.72814 14.5497 9.74237L16.1247 10.0574V11.6249H19.1247C19.423 11.6249 19.7092 11.5063 19.9202 11.2954C20.1311 11.0844 20.2497 10.7982 20.2497 10.4999V8.24987C20.2497 7.9515 20.1311 7.66535 19.9202 7.45437C19.7092 7.24339 19.423 7.12487 19.1247 7.12487H16.4997C16.4002 7.12487 16.3048 7.16438 16.2345 7.2347C16.1642 7.30503 16.1247 7.40041 16.1247 7.49987V7.72487L15.4872 7.58237C14.9249 6.9734 14.3302 6.39507 13.7059 5.84987C13.4763 5.71812 13.2192 5.64172 12.9549 5.62675C12.6906 5.61178 12.4264 5.65864 12.1834 5.76362C11.2019 6.18742 10.3175 6.80765 9.58466 7.58612C8.79395 8.46922 8.19621 9.5076 7.82966 10.6349C7.73108 10.9164 7.70108 11.2174 7.74217 11.5128C7.78326 11.8083 7.89425 12.0897 8.06591 12.3336L8.10341 12.3749H4.31216C4.02061 12.374 3.73711 12.4706 3.50666 12.6492C3.27621 12.8278 3.11199 13.0782 3.04006 13.3607C2.96813 13.6433 2.99261 13.9418 3.10961 14.2088C3.22662 14.4759 3.42944 14.6962 3.68591 14.8349C2.91168 15.2524 2.26482 15.8715 1.81391 16.6268C1.363 17.3821 1.12483 18.2452 1.12466 19.1249C1.12466 19.2243 1.16417 19.3197 1.2345 19.39C1.30483 19.4604 1.40021 19.4999 1.49966 19.4999H2.24966C2.24966 20.395 2.60524 21.2534 3.23818 21.8864C3.87111 22.5193 4.72956 22.8749 5.62466 22.8749C6.51977 22.8749 7.37821 22.5193 8.01115 21.8864C8.64408 21.2534 8.99966 20.395 8.99966 19.4999H16.1247C16.127 20.1547 16.3198 20.7947 16.6796 21.3419C17.0393 21.8891 17.5505 22.3198 18.1508 22.5815C18.751 22.8433 19.4145 22.9247 20.0602 22.8159C20.706 22.7072 21.3062 22.4129 21.7876 21.9689C22.269 21.525 22.6109 20.9506 22.7715 20.3158C22.9322 19.6809 22.9047 19.0131 22.6923 18.3936C22.48 17.7741 22.0921 17.2298 21.5758 16.8269C21.0595 16.4241 20.4372 16.1802 19.7847 16.1249ZM5.62466 22.1249C5.10549 22.1249 4.59797 21.9709 4.16629 21.6825C3.73461 21.394 3.39816 20.9841 3.19948 20.5044C3.0008 20.0248 2.94882 19.497 3.0501 18.9878C3.15139 18.4786 3.4014 18.0108 3.76851 17.6437C4.13562 17.2766 4.60335 17.0266 5.11255 16.9253C5.62175 16.824 6.14955 16.876 6.62921 17.0747C7.10886 17.2734 7.51883 17.6098 7.80727 18.0415C8.09571 18.4732 8.24966 18.9807 8.24966 19.4999C8.24966 19.8446 8.18177 20.1859 8.04985 20.5044C7.91793 20.8229 7.72457 21.1123 7.48082 21.356C7.23707 21.5998 6.94769 21.7931 6.62921 21.9251C6.31073 22.057 5.96938 22.1249 5.62466 22.1249ZM19.4997 22.1249C18.9805 22.1249 18.473 21.9709 18.0413 21.6825C17.6096 21.394 17.2732 20.9841 17.0745 20.5044C16.8758 20.0248 16.8238 19.497 16.9251 18.9878C17.0264 18.4786 17.2764 18.0108 17.6435 17.6437C18.0106 17.2766 18.4784 17.0266 18.9876 16.9253C19.4968 16.824 20.0246 16.876 20.5042 17.0747C20.9839 17.2734 21.3938 17.6098 21.6823 18.0415C21.9707 18.4732 22.1247 18.9807 22.1247 19.4999C22.1247 19.8446 22.0568 20.1859 21.9248 20.5044C21.7929 20.8229 21.5996 21.1123 21.3558 21.356C21.1121 21.5998 20.8227 21.7931 20.5042 21.9251C20.1857 22.057 19.8444 22.1249 19.4997 22.1249Z" fill="#CEC6C5"/>
<path d="M19.4997 21C20.3281 21 20.9997 20.3284 20.9997 19.5C20.9997 18.6716 20.3281 18 19.4997 18C18.6712 18 17.9997 18.6716 17.9997 19.5C17.9997 20.3284 18.6712 21 19.4997 21Z" fill="#CEC6C5"/>
<path d="M5.62466 21C6.45309 21 7.12466 20.3284 7.12466 19.5C7.12466 18.6716 6.45309 18 5.62466 18C4.79624 18 4.12466 18.6716 4.12466 19.5C4.12466 20.3284 4.79624 21 5.62466 21Z" fill="#CEC6C5"/>
<path d="M7.12466 7.5C7.12466 7.40054 7.08516 7.30516 7.01483 7.23483C6.9445 7.16451 6.84912 7.125 6.74966 7.125H1.49966C1.40021 7.125 1.30483 7.16451 1.2345 7.23483C1.16417 7.30516 1.12466 7.40054 1.12466 7.5V11.625H7.12466V7.5ZM18.7497 3.1875C18.7487 2.6408 18.5311 2.11677 18.1445 1.73019C17.7579 1.34361 17.2339 1.12599 16.6872 1.125H15.5622C15.0187 1.12595 14.4975 1.34099 14.1114 1.72353C13.7254 2.10607 13.5056 2.6253 13.4997 3.16875V4.08C13.5004 4.71069 13.7282 5.32004 14.1414 5.79655C14.5545 6.27307 15.1254 6.5849 15.7497 6.675V3.75C15.7497 3.65054 15.7892 3.55516 15.8595 3.48484C15.9298 3.41451 16.0252 3.375 16.1247 3.375H18.7497V3.1875Z" fill="#CEC6C5"/>
<path d="M16.4997 6.45375C16.7828 6.43526 17.0593 6.35948 17.3123 6.23098C17.5653 6.10249 17.7896 5.92397 17.9716 5.70623C18.1535 5.48849 18.2894 5.23608 18.371 4.96428C18.4525 4.69247 18.478 4.40695 18.4459 4.125H16.4997V6.45375Z" fill="#CEC6C5"/>
</svg>
