<svg width="163" height="163" viewBox="0 0 163 163" fill="none" xmlns="http://www.w3.org/2000/svg">
<circle cx="81.5" cy="81.5" r="81.5" fill="#F1EFE9"/>
<path d="M109.505 44.8187C108.625 44.7944 107.801 44.8747 107.034 45.0612C106.251 45.2518 105.481 45.6665 104.726 46.2946L104.724 46.2958C103.974 46.9309 103.165 47.8983 102.296 49.1881L102.295 49.1891L102.045 49.5643L101.934 49.7308L109.501 45.0187M109.505 44.8187C109.506 44.8187 109.506 44.8187 109.507 44.8188L109.501 45.0187M109.505 44.8187C109.505 44.8187 109.504 44.8187 109.504 44.8187L109.501 45.0187M109.505 44.8187C110.148 44.8279 110.75 44.7949 111.31 44.72C111.86 44.6464 112.357 44.4943 112.803 44.2654M109.501 45.0187C110.153 45.0281 110.765 44.9946 111.336 44.9183C111.907 44.8419 112.427 44.6835 112.895 44.4429M112.803 44.2654C112.803 44.2655 112.803 44.2656 112.802 44.2658L112.895 44.4429M112.803 44.2654C112.803 44.2652 112.804 44.2651 112.804 44.265L112.895 44.4429M112.803 44.2654L112.895 44.4429M103.884 36.8985C103.923 36.8436 103.962 36.7893 104.001 36.7358L103.995 36.7321L103.884 36.8985ZM103.884 36.8985L104.048 37.0135C104.049 37.0121 104.05 37.0108 104.051 37.0094L103.884 36.8985ZM107.296 33.7756C107.296 33.7757 107.295 33.7757 107.295 33.7758L107.369 33.9618L107.296 33.7755C107.296 33.7755 107.296 33.7756 107.296 33.7756ZM111.498 33.3837C111.497 33.3837 111.497 33.3837 111.497 33.3836L111.462 33.5805L111.498 33.3839C111.498 33.3838 111.498 33.3838 111.498 33.3837ZM119.16 38.5009C119.16 38.5008 119.16 38.5006 119.16 38.5005L118.993 38.6103L119.16 38.5014C119.16 38.5012 119.16 38.5011 119.16 38.5009ZM117.167 48.5755C117.167 48.5754 117.167 48.5753 117.167 48.5752L117.057 48.4084L117.166 48.5758C117.166 48.5757 117.167 48.5756 117.167 48.5755ZM109.868 49.8921C109.868 49.8921 109.869 49.892 109.869 49.8919L109.828 49.6962L109.867 49.8923C109.867 49.8923 109.868 49.8922 109.868 49.8921ZM108.251 50.6088C108.251 50.6085 108.252 50.6082 108.252 50.608L108.133 50.4475L108.25 50.6095C108.25 50.6093 108.251 50.609 108.251 50.6088ZM106.81 52.1966L106.811 52.1957L106.644 52.0849L106.81 52.1974C106.81 52.1971 106.81 52.1969 106.81 52.1966ZM98.1247 56.2026L98.1253 56.2054C98.3155 57.1199 98.8038 57.8414 99.5832 58.3603C100.083 58.6933 100.63 58.8764 101.221 58.9074L101.221 58.9075L101.224 58.9076C101.814 58.9305 102.379 58.8173 102.915 58.5684C103.468 58.3149 103.921 57.9315 104.271 57.4218L104.271 57.4219L104.274 57.4176C104.777 56.6458 104.929 55.7942 104.731 54.8758C104.534 53.9603 104.062 53.2477 103.317 52.7516C102.538 52.2327 101.684 52.0605 100.767 52.2378L100.765 52.2381C99.856 52.4205 99.1446 52.9 98.6422 53.6705C98.1206 54.438 97.9476 55.2861 98.1247 56.2026Z" fill="#F17228" stroke="#120F0F" stroke-width="0.4"/>
<path d="M56.4441 66.2187L56.3613 66.0367L56.2546 65.8025L56.2541 65.8014C55.8891 64.9877 55.6604 64.2955 55.5769 63.7291L55.5766 63.7274L55.5766 63.7274C55.4983 63.1619 55.529 62.6502 55.6777 62.1976C55.8209 61.7617 56.0338 61.3313 56.3145 60.9062M56.4441 66.2187L56.4821 61.0152M56.4441 66.2187L56.6262 66.1358L59.2375 64.9466L59.4195 64.8637L59.3366 64.6817L59.2304 64.4484C59.0364 64.0104 58.9295 63.6283 58.9019 63.2997C58.8788 62.9683 58.9236 62.6476 59.0366 62.3358C59.1571 62.0142 59.3442 61.6682 59.6015 61.2976L59.6016 61.2975C59.9245 60.8316 60.1763 60.3594 60.3554 59.8809L60.3559 59.8796C60.535 59.3902 60.6175 58.8859 60.6032 58.3677C60.5912 57.8367 60.4552 57.2918 60.2013 56.7342C59.821 55.899 59.2828 55.2691 58.5831 54.8576C57.8889 54.4493 57.1026 54.2586 56.2305 54.2808C55.3578 54.2985 54.4537 54.5232 53.5197 54.9485C52.6663 55.3372 51.9511 55.848 51.3779 56.4825C50.7983 57.1172 50.4314 57.851 50.2806 58.6806M56.4441 66.2187L50.2806 58.6806M56.3145 60.9062C56.3147 60.9058 56.315 60.9054 56.3153 60.905L56.4821 61.0152M56.3145 60.9062C56.3142 60.9065 56.314 60.9068 56.3138 60.9072L56.4821 61.0152M56.3145 60.9062C56.5107 60.6003 56.6737 60.3025 56.8041 60.0129C56.9307 59.732 57.004 59.4547 57.0264 59.1803M56.4821 61.0152C56.6832 60.7018 56.8514 60.395 56.9865 60.095C57.1216 59.795 57.2014 59.4952 57.2258 59.1957M57.0264 59.1803C57.0264 59.1805 57.0264 59.1808 57.0264 59.1811L57.2258 59.1957M57.0264 59.1803C57.046 58.9124 56.9964 58.6447 56.8734 58.3746C56.7428 58.0879 56.5639 57.8757 56.3391 57.729C56.1097 57.5794 55.857 57.4996 55.5769 57.4894L55.5754 57.4894L55.5754 57.4894C55.2983 57.4773 55.0201 57.5332 54.7386 57.6615C54.4682 57.7846 54.2409 57.9606 54.0547 58.1909L54.053 58.1931L54.0529 58.1931C53.8691 58.4141 53.7532 58.6726 53.7057 58.9733L53.7055 58.9749L53.7055 58.9749C53.658 59.2603 53.7005 59.5787 53.8474 59.9354L53.9208 60.1136L53.7453 60.1935L50.9342 61.4738L50.7475 61.5587L50.6672 61.3701C50.2605 60.4143 50.1258 59.5157 50.2806 58.6806M57.0264 59.1803C57.0265 59.18 57.0265 59.1797 57.0265 59.1795L57.2258 59.1957M57.2258 59.1957L50.2806 58.6806M58.4464 69.9833L58.4491 69.9843C58.9711 70.1754 59.4916 70.1551 59.9986 69.9243C60.3245 69.7758 60.5904 69.5558 60.7924 69.2658L60.7924 69.2658L60.7939 69.2636C60.9906 68.9729 61.1107 68.6522 61.1532 68.3038C61.1989 67.9436 61.1471 67.5929 60.9995 67.2554L60.9996 67.2554L60.9974 67.2508C60.7646 66.7531 60.3795 66.4072 59.8536 66.2188C59.3305 66.0314 58.8196 66.0451 58.3329 66.2667C57.8259 66.4976 57.469 66.8769 57.2704 67.3962L57.2699 67.3975C57.0765 67.9146 57.0952 68.4278 57.327 68.9246C57.5513 69.4295 57.9276 69.785 58.4464 69.9833Z" fill="#F17228" stroke="#538D33" stroke-width="0.4"/>
<path d="M68.7064 56.9551C68.7013 53.6841 68.5482 50.3524 67.9716 47.1268C67.9307 46.8993 67.599 46.8285 67.4511 46.9903C65.5273 49.0581 63.6086 51.1259 61.6848 53.1937C61.8481 53.2139 62.0114 53.2341 62.1747 53.2543C58.3322 48.2189 54.4898 43.1783 50.6473 38.1429C50.4636 37.9002 50.086 37.976 50.0656 38.2996C49.6573 44.1692 49.2491 50.0339 48.8409 55.9035C48.9736 55.8024 49.1062 55.7063 49.2389 55.6052C45.3199 54.0177 41.1917 53.0369 36.9767 52.678C36.7471 52.6578 36.5787 52.9611 36.7063 53.1431C37.8391 54.766 38.977 56.3889 40.1609 57.9713C41.2376 59.4071 42.3296 60.8632 43.6155 62.1321C43.687 61.9552 43.7635 61.7782 43.835 61.6013C40.564 61.7075 37.2931 61.8187 34.0221 61.9249C33.6139 61.94 33.6292 62.5063 34.0221 62.5467C34.2365 62.5669 34.711 63.0927 34.8947 63.2596C35.3285 63.6539 35.7418 64.0685 36.1602 64.478C36.5277 64.842 36.8951 65.206 37.2778 65.5548C37.4564 65.7166 37.7166 66.0099 37.9871 65.9997C38.3902 65.9846 38.3902 65.3678 37.9871 65.3779C38.1248 65.3779 38.0687 65.4082 37.9769 65.3374C37.9207 65.2919 37.8646 65.2464 37.8136 65.2009C37.635 65.0442 37.4615 64.8774 37.2931 64.7156C36.8797 64.3162 36.4715 63.9067 36.0582 63.5073C35.6755 63.1332 35.2877 62.754 34.8743 62.4153C34.6294 62.213 34.364 61.9704 34.0323 61.935V62.5568C37.3033 62.4506 40.5742 62.3394 43.8452 62.2332C44.1105 62.2231 44.2636 61.8996 44.0646 61.7024C41.4264 59.0987 39.3648 55.858 37.2523 52.8398C37.1604 52.9965 37.0737 53.1482 36.9818 53.3049C41.1406 53.6588 45.2178 54.6447 49.0807 56.2119C49.2848 56.2928 49.4634 56.0906 49.4787 55.9136C49.887 50.044 50.2952 44.1794 50.7034 38.3097L50.1217 38.4664C53.9642 43.5019 57.8066 48.5424 61.6491 53.5779C61.7665 53.7296 61.991 53.8003 62.139 53.6386C64.0628 51.5708 65.9814 49.503 67.9052 47.4352C67.7317 47.3897 67.5582 47.3442 67.3847 47.2987C67.9511 50.4686 68.0889 53.7498 68.094 56.9652C68.094 57.3646 68.7217 57.3646 68.7217 56.9652L68.7064 56.9551Z" fill="#120F0F"/>
<path d="M40.5559 87.5595C40.5559 87.5595 44.221 121.523 46.9919 119.365C49.7628 117.212 53.9989 108.541 53.9989 108.541L50.741 86.8034" fill="#538D33"/>
<path d="M48.2844 82.2756C48.2844 82.2756 50.5374 107.661 51.9361 108.841C53.3349 110.022 111.294 111.202 113.339 108.841C115.38 106.48 119.266 82.2756 119.266 82.2756H48.2844ZM59.5805 100.175C58.4518 99.5733 56.7299 87.1483 56.7299 87.1483C56.5927 85.897 59.8904 86.998 60.1869 87.1483C60.4835 87.2986 62.7365 99.6485 62.7365 100.175C62.7365 100.701 60.7048 100.776 59.5761 100.175H59.5805ZM69.5266 100.365C68.3979 99.7635 68.1633 87.2721 68.1633 87.2721C69.3584 86.1357 71.3237 87.1218 71.6247 87.2721C71.9257 87.4224 72.6871 99.8386 72.6871 100.365C72.6871 100.891 70.6553 100.966 69.5266 100.365ZM77.4853 100.206C76.3565 99.6043 76.2193 87.0731 76.2193 87.0731C77.4144 85.9368 79.3798 86.9228 79.6763 87.0731C79.9773 87.2235 80.6413 99.6794 80.6413 100.206C80.6413 100.732 78.6096 100.807 77.4808 100.206H77.4853ZM87.7766 100.219C87.4845 100.382 85.5679 101.457 84.3196 100.369C84.3196 100.369 84.4922 88.1741 85.3421 87.2191C85.9618 86.5204 88.476 86.7946 88.4981 87.3163C88.5203 87.8425 88.0688 100.051 87.7766 100.214V100.219ZM95.5184 100.219C95.2262 100.382 93.3096 101.457 92.0614 100.369C92.0614 100.369 92.2075 87.869 93.3096 87.2191C94.4118 86.5691 96.4435 86.5558 96.4656 87.082C96.4878 87.6082 95.8105 100.055 95.5184 100.219ZM102.831 100.033C102.539 100.197 100.622 101.271 99.3738 100.184C99.3738 100.184 100.162 87.6833 101.264 87.0333C102.366 86.3833 104.398 86.3701 104.42 86.8963C104.442 87.4224 103.123 99.8696 102.831 100.033Z" fill="#74CA45"/>
<path d="M131.244 82.081C130.297 81.2674 119.319 74.091 117.827 74.228C116.336 74.3651 48.1781 74.228 48.1781 74.228C46.6244 74.228 33 80.4538 33 83.297C33 86.1401 33.2036 90.0887 35.3725 90.7652C37.5415 91.4418 129.345 92.6356 130.429 90.0666C131.514 87.4932 132.191 82.8946 131.244 82.081ZM103.889 82.1341H100.179C98.8249 82.1341 97.4483 82.1341 96.0451 82.1341H92.3402C90.9503 82.1341 89.5427 82.1341 88.1174 82.1341H84.5188C82.912 82.1341 81.2875 82.1341 79.6542 82.1341H75.9493C74.5063 82.1341 73.0544 82.1341 71.6026 82.1341H67.9065C65.4145 82.1341 62.918 82.1341 60.4348 82.1341H56.7387C54.074 82.1341 51.4226 82.1341 48.8155 82.1341H56.7387C56.5041 80.6882 56.3581 79.7154 56.3581 79.7154C56.2208 78.8089 59.5185 79.6048 59.8151 79.7154C59.8948 79.7419 60.1294 80.7147 60.4348 82.1385H67.9065C67.8268 80.7412 67.787 79.8038 67.787 79.8038C68.9821 78.9814 70.9475 79.6933 71.244 79.8038C71.3193 79.8304 71.4521 80.7633 71.6026 82.1385H75.9493C75.874 80.6616 75.8386 79.6579 75.8386 79.6579C77.0337 78.8355 78.9991 79.5474 79.2956 79.6579C79.3753 79.6844 79.5037 80.6837 79.6542 82.1385H84.5188C84.6161 80.8429 84.7578 79.9276 84.9614 79.764C85.5811 79.26 88.0953 79.4545 88.1174 79.8348C88.1219 79.9276 88.1219 80.8297 88.1174 82.1385H92.3402C92.473 80.8031 92.6589 79.879 92.9289 79.764C94.0311 79.2953 96.0628 79.2821 96.0849 79.6623C96.0894 79.7596 96.0761 80.7324 96.0451 82.1385H100.179C100.374 80.7324 100.604 79.7463 100.883 79.627C101.985 79.1583 104.017 79.145 104.039 79.5253C104.044 79.6225 103.986 80.6616 103.889 82.1385H117.858C113.844 82.1385 109.112 82.1385 103.889 82.1385V82.1341Z" fill="#F17228"/>
<path d="M45.5532 123.764C45.5532 123.764 51.2411 109.133 52.4761 109.045C53.7066 108.956 107.208 108.717 109.187 109.045C111.166 109.372 119.275 123.596 119.275 123.596L45.5532 123.764Z" fill="#538D33"/>
<path d="M110.046 110.203C110.121 110.818 118.642 124.043 118.642 124.043L121.413 91.8618H113.25L110.634 110.203" fill="#538D33"/>
<path d="M53.9989 82.5055C52.6311 82.5055 51.3209 82.5055 50.0771 82.5055C42.4106 82.5055 37.4309 82.4878 37.09 82.4657C36.8245 82.448 36.7758 82.2756 36.7669 82.2225C36.7271 81.966 36.6784 81.6786 42.747 78.7072C45.7923 77.2171 48.789 75.8331 48.9882 75.7535L49.0723 75.7358C51.7547 75.727 114.813 75.4882 116.243 75.7358C117.655 75.9835 124.985 80.9446 125.308 81.6344L125.361 81.7494L125.295 81.8643C125.175 82.05 125.042 82.2623 96.6427 82.4082C82.4384 82.479 65.9944 82.5055 54.0033 82.5055H53.9989ZM37.484 82.0103C38.8296 82.0279 43.5304 82.0368 50.0815 82.0412C79.1939 82.0545 120.222 81.9218 124.644 81.5769C123.329 80.445 117.442 76.4124 116.168 76.1869C115.061 75.9923 71.8549 76.1028 49.1254 76.1869C48.0144 76.6467 39.2014 80.812 37.4884 82.0058L37.484 82.0103Z" fill="#120F0F"/>
<path d="M33.3364 83.6728C41.5651 83.6728 49.7938 83.6817 58.0224 83.6817C66.5919 83.6817 75.157 83.6861 83.7265 83.6861C91.4328 83.6861 99.1348 83.6861 106.841 83.6861C112.538 83.6861 118.235 83.6861 123.936 83.6861C125.671 83.6861 127.406 83.6861 129.141 83.6861C129.92 83.6861 130.726 83.748 131.505 83.6861C131.536 83.6861 131.567 83.6861 131.598 83.6861C131.97 83.6861 131.97 83.1113 131.598 83.1113C130.903 83.1113 130.212 83.1113 129.518 83.1113C129.146 83.1113 129.146 83.6861 129.518 83.6861C130.212 83.6861 130.903 83.6861 131.598 83.6861V83.1113C129.544 83.1245 127.495 83.1113 125.441 83.1113C120.049 83.1113 114.654 83.1113 109.262 83.1113C101.737 83.1113 94.2082 83.1113 86.6833 83.1113C78.1802 83.1113 69.6771 83.1113 61.174 83.1068C52.8391 83.1068 44.5087 83.1024 36.1738 83.098C35.2309 83.098 34.2837 83.098 33.3409 83.098C32.9691 83.098 32.9691 83.6728 33.3409 83.6728H33.3364Z" fill="#120F0F"/>
<path d="M38.9845 91C38.9845 91 42.9505 122.358 44.5042 123.672C46.0579 124.985 117.225 126.298 119.501 123.672C121.771 121.045 125.104 91 125.104 91H38.9845ZM49.838 119.577C48.5809 118.909 46.5802 93.52 46.5802 93.52C46.4253 92.1271 50.0947 93.3519 50.4311 93.52C50.7675 93.688 53.357 118.989 53.357 119.577C53.357 120.165 51.0951 120.245 49.8424 119.577H49.838ZM58.0755 119.577C56.8184 118.909 54.8177 93.52 54.8177 93.52C54.6628 92.1271 58.3323 93.3519 58.6687 93.52C59.0051 93.688 61.5945 118.989 61.5945 119.577C61.5945 120.165 59.3326 120.245 58.0799 119.577H58.0755ZM67.6144 119.772C66.3573 119.104 66.0076 93.6438 66.0076 93.6438C67.34 92.3792 69.5222 93.4758 69.8586 93.6438C70.195 93.8118 71.1289 119.184 71.1289 119.772C71.1289 120.36 68.8671 120.439 67.6144 119.772ZM76.4672 119.595C75.2101 118.927 74.9711 93.4227 74.9711 93.4227C76.3034 92.1581 78.4856 93.2547 78.822 93.4227C79.1584 93.5907 79.9817 119.011 79.9817 119.595C79.9817 120.178 77.7199 120.262 76.4672 119.595ZM87.9271 119.608C87.5996 119.789 85.466 120.983 84.0806 119.776C84.0806 119.776 84.1824 94.6475 85.1296 93.5863C85.8201 92.8081 88.6176 93.1132 88.6442 93.6968C88.6707 94.2805 88.2547 119.427 87.9315 119.608H87.9271ZM96.5409 119.608C96.2133 119.789 94.0798 120.983 92.6943 119.776C92.6943 119.776 92.7696 94.307 93.9957 93.5863C95.2218 92.8611 97.4837 92.8479 97.5058 93.4315C97.5324 94.0152 96.8684 119.427 96.5409 119.608ZM104.681 119.4C104.353 119.582 102.22 120.775 100.834 119.568C100.834 119.568 101.627 94.0992 102.848 93.3785C104.075 92.6533 106.336 92.6401 106.359 93.2237C106.385 93.8074 105.004 119.219 104.677 119.4H104.681ZM113.206 119.188C112.879 119.369 109.267 120.758 109.36 119.356C109.36 119.356 111.09 93.887 112.312 93.1662C113.538 92.4411 115.8 92.4278 115.822 93.0115C115.849 93.5951 113.529 119.007 113.202 119.188H113.206Z" fill="#74CA45"/>
<path d="M45.7569 122.504C48.9926 119.033 51.7591 115.116 54.5565 111.291C55.0567 110.61 55.5525 109.925 56.0571 109.248C56.2031 109.049 56.3536 108.85 56.5041 108.66C56.5528 108.602 56.6148 108.541 56.6546 108.479C56.783 108.262 56.7476 108.576 56.5573 108.457C56.7078 108.554 57.2256 108.457 57.3938 108.457C62.5373 108.457 67.6764 108.465 72.8198 108.479C80.2473 108.496 87.6748 108.523 95.1023 108.58C97.9971 108.602 100.892 108.629 103.787 108.678C105.19 108.7 106.655 108.625 108.049 108.815C107.992 108.806 108.103 108.824 108.103 108.824C108.244 108.89 108.368 108.983 108.492 109.08C108.926 109.429 109.315 109.845 109.692 110.247C110.847 111.481 111.923 112.79 112.976 114.112C114.167 115.602 115.326 117.119 116.437 118.666C117.248 119.794 118.093 120.935 118.748 122.164C118.823 122.305 118.903 122.447 118.956 122.597C119.049 122.849 118.916 122.69 119.098 122.579C118.783 122.774 119.071 123.269 119.39 123.075C119.983 122.708 118.992 121.412 118.779 121.076C117.907 119.679 116.929 118.343 115.946 117.021C114.769 115.443 113.556 113.886 112.299 112.365C111.334 111.198 110.36 110.013 109.249 108.978C108.824 108.58 108.443 108.258 107.855 108.213C107.248 108.165 106.637 108.156 106.031 108.143C103.535 108.076 101.043 108.054 98.546 108.028C94.9872 107.992 91.4284 107.97 87.8696 107.952C83.9478 107.93 80.0304 107.917 76.1086 107.908C72.5985 107.899 69.0884 107.891 65.5782 107.886C63.1791 107.886 60.7845 107.877 58.3854 107.877C57.8453 107.877 57.3009 107.873 56.7609 107.877C56.243 107.882 56.0261 108.333 55.734 108.722C53.0117 112.33 50.4311 116.04 47.5673 119.542C46.8502 120.413 46.1198 121.275 45.3496 122.097C45.0973 122.367 45.5046 122.774 45.7569 122.504Z" fill="#74CA45"/>
<path d="M56.8672 108.063C56.0748 102.695 56.1766 97.2254 55.6809 91.8265C55.6455 91.4595 55.07 91.4595 55.1055 91.8265C55.6056 97.2784 55.5127 102.797 56.3139 108.218C56.367 108.585 56.9203 108.426 56.8672 108.063Z" fill="#74CA45"/>
<path d="M115.897 76.094C116.013 78.0219 115.946 79.9542 115.937 81.8864C115.937 82.2579 116.513 82.2579 116.513 81.8864C116.522 79.9542 116.588 78.0219 116.473 76.094C116.451 75.727 115.875 75.7226 115.897 76.094Z" fill="#120F0F"/>
<path d="M49.9841 119.33C49.9841 119.33 49.993 119.356 49.962 119.285C49.9222 119.201 49.9 119.157 49.8735 119.091C49.7805 118.852 49.7185 118.6 49.6566 118.352C49.4618 117.556 49.329 116.747 49.2007 115.943C48.82 113.546 48.5456 111.132 48.2844 108.722C47.7798 104.101 47.3593 99.4716 46.9786 94.8421C46.9432 94.4309 46.8945 94.0152 46.8768 93.604C46.8679 93.4095 46.8635 93.2989 47.076 93.2061C47.5762 92.9938 48.3464 93.2149 48.8465 93.3299C49.1298 93.3962 49.4087 93.4714 49.6831 93.5554C49.7584 93.5775 50.201 93.7897 50.2718 93.7544C50.1966 93.7897 50.2232 93.5908 50.1966 93.6659C50.1833 93.6969 50.232 93.8207 50.2409 93.856C50.3515 94.3778 50.4135 94.9128 50.4799 95.439C51.1173 100.223 51.5998 105.034 52.1044 109.832C52.3478 112.14 52.5824 114.448 52.8126 116.756C52.8834 117.45 52.9498 118.145 53.0162 118.839C53.0339 119.016 53.087 119.232 53.0649 119.409C53.0383 119.657 52.9454 119.643 52.6355 119.701C51.7812 119.865 50.7676 119.705 49.993 119.316C49.661 119.153 49.3689 119.648 49.7008 119.812C50.4843 120.205 51.405 120.369 52.2814 120.316C52.755 120.285 53.5518 120.205 53.6448 119.621C53.6979 119.285 53.5961 118.879 53.5651 118.542C53.3747 116.508 53.1623 114.479 52.9542 112.449C52.4054 107.117 51.8565 101.784 51.1925 96.4649C51.0952 95.7043 51.0022 94.9394 50.8827 94.1833C50.834 93.8649 50.834 93.4271 50.5374 93.2414C50.1302 92.9894 49.5194 92.8921 49.0634 92.7816C48.4703 92.6401 47.8196 92.5074 47.2044 92.5914C46.5448 92.6799 46.2704 93.0867 46.3191 93.7057C46.6511 97.9638 47.045 102.218 47.4788 106.462C47.7577 109.173 48.0542 111.883 48.4305 114.581C48.5721 115.606 48.727 116.632 48.9262 117.649C49.0413 118.242 49.1431 118.887 49.4087 119.44C49.4795 119.586 49.5592 119.732 49.7053 119.82C50.024 120.01 50.3161 119.511 49.9974 119.325L49.9841 119.33Z" fill="#120F0F"/>
<path d="M58.2216 119.33C58.2216 119.33 58.2304 119.356 58.1995 119.285C58.1596 119.201 58.1375 119.157 58.1109 119.091C58.018 118.852 57.956 118.6 57.894 118.352C57.6993 117.556 57.5665 116.747 57.4381 115.943C57.0574 113.546 56.783 111.132 56.5218 108.722C56.0172 104.101 55.5967 99.4716 55.2161 94.8421C55.1807 94.4309 55.132 94.0152 55.1143 93.604C55.1054 93.4095 55.101 93.2989 55.3134 93.2061C55.8136 92.9938 56.5838 93.2149 57.084 93.3299C57.3673 93.3962 57.6462 93.4714 57.9206 93.5554C57.9958 93.5775 58.4385 93.7897 58.5093 93.7544C58.434 93.7897 58.4606 93.5908 58.4341 93.6659C58.4208 93.6969 58.4695 93.8207 58.4783 93.856C58.589 94.3778 58.6509 94.9128 58.7173 95.439C59.3547 100.223 59.8372 105.034 60.3418 109.832C60.5853 112.14 60.8199 114.448 61.05 116.756C61.1209 117.45 61.1873 118.145 61.2537 118.839C61.2714 119.016 61.3245 119.232 61.3024 119.409C61.2758 119.657 61.1828 119.643 60.873 119.701C60.0187 119.865 59.0051 119.705 58.2304 119.316C57.8985 119.153 57.6063 119.648 57.9383 119.812C58.7218 120.205 59.6425 120.369 60.5189 120.316C60.9925 120.285 61.7893 120.205 61.8822 119.621C61.9353 119.285 61.8335 118.879 61.8025 118.542C61.6122 116.508 61.3997 114.479 61.1917 112.449C60.6428 107.117 60.0939 101.784 59.43 96.4649C59.3326 95.7043 59.2397 94.9394 59.1201 94.1833C59.0715 93.8649 59.0715 93.4271 58.7749 93.2414C58.3677 92.9894 57.7568 92.8921 57.3009 92.7816C56.7078 92.6401 56.0571 92.5074 55.4462 92.5914C54.7867 92.6799 54.5123 93.0867 54.561 93.7057C54.8929 97.9638 55.2869 102.218 55.7207 106.462C55.9995 109.173 56.2961 111.883 56.6723 114.581C56.814 115.606 56.9689 116.632 57.1681 117.649C57.2832 118.242 57.385 118.887 57.6506 119.44C57.7214 119.586 57.8011 119.732 57.9471 119.82C58.2658 120.01 58.558 119.511 58.2393 119.325L58.2216 119.33Z" fill="#120F0F"/>
<path d="M67.7605 119.524C67.7605 119.524 67.7827 119.573 67.7473 119.493C67.7118 119.409 67.7074 119.409 67.672 119.303C67.5923 119.069 67.5436 118.817 67.4994 118.573C67.3577 117.817 67.2781 117.052 67.2028 116.287C66.9771 113.962 66.8575 111.622 66.7469 109.288C66.5344 104.654 66.4105 100.015 66.3264 95.3771C66.3175 94.8819 66.2644 94.3645 66.2998 93.8737C66.2998 93.8295 66.2688 93.688 66.2998 93.6482C66.229 93.7499 66.6982 93.5598 66.5388 93.6084C66.6495 93.5775 66.7779 93.489 66.8841 93.4493C67.0921 93.3785 67.309 93.3431 67.5304 93.3343C67.9686 93.3166 68.4024 93.4006 68.8184 93.5288C69.084 93.6129 69.3452 93.772 69.6108 93.8384C69.8011 93.887 69.624 93.9268 69.6108 93.772C69.6019 93.6836 69.6063 93.7986 69.6108 93.7897C69.5753 93.8339 69.6595 94.1081 69.6683 94.1788C69.7347 94.8023 69.7745 95.4258 69.8144 96.0536C70.1242 100.851 70.3057 105.662 70.5005 110.464C70.589 112.679 70.6775 114.89 70.7572 117.105C70.7838 117.773 70.8059 118.441 70.828 119.108C70.8324 119.268 70.8767 119.48 70.8457 119.639C70.797 119.878 70.6377 119.873 70.3544 119.922C69.509 120.064 68.5307 119.909 67.7694 119.529C67.4374 119.365 67.1453 119.86 67.4772 120.024C68.243 120.408 69.1327 120.568 69.987 120.528C70.4385 120.506 71.253 120.448 71.4079 119.904C71.5008 119.582 71.4079 119.144 71.3946 118.821C71.3282 116.898 71.253 114.979 71.1777 113.055C70.9697 107.771 70.7661 102.487 70.4606 97.2077C70.4119 96.3764 70.3632 95.5451 70.2924 94.7183C70.2659 94.3778 70.2924 93.9091 70.1508 93.5907C70.0091 93.2724 69.4957 93.1574 69.1991 93.0513C68.4643 92.7904 67.6366 92.6489 66.8708 92.8523C66.4725 92.9584 65.7908 93.2237 65.7244 93.6792C65.7067 93.7986 65.7244 93.9356 65.7288 94.055C65.7952 98.4016 65.9059 102.753 66.0785 107.099C66.1847 109.743 66.3042 112.387 66.5167 115.023C66.592 115.987 66.6805 116.955 66.8133 117.915C66.893 118.476 66.9549 119.086 67.1718 119.613C67.2382 119.772 67.3135 119.931 67.4684 120.019C67.7871 120.209 68.0792 119.71 67.7605 119.524Z" fill="#120F0F"/>
<path d="M76.6133 119.343C76.6133 119.343 76.6354 119.391 76.6 119.312C76.5646 119.228 76.5602 119.228 76.5248 119.122C76.4451 118.883 76.4008 118.635 76.3521 118.392C76.2149 117.636 76.1352 116.867 76.0644 116.102C75.8475 113.771 75.7369 111.428 75.6395 109.093C75.4447 104.45 75.3429 99.8032 75.2765 95.156C75.2677 94.6608 75.219 94.1435 75.2588 93.6482C75.2588 93.604 75.2278 93.4625 75.2588 93.4227C75.188 93.5244 75.6572 93.3343 75.4978 93.3829C75.6085 93.352 75.7369 93.2635 75.8431 93.2237C76.0511 93.153 76.268 93.1176 76.4893 93.1088C76.9276 93.0911 77.3613 93.1751 77.7774 93.3033C78.043 93.3873 78.3042 93.5465 78.5697 93.6128C78.7601 93.6615 78.583 93.7013 78.5697 93.5465C78.5653 93.4581 78.5653 93.5731 78.5697 93.5642C78.5343 93.604 78.614 93.8782 78.6229 93.9533C78.6893 94.5768 78.7247 95.2047 78.7601 95.8281C79.0478 100.635 79.2071 105.45 79.3842 110.265C79.4639 112.485 79.5391 114.7 79.6144 116.92C79.6365 117.587 79.6586 118.255 79.6763 118.927C79.6808 119.086 79.725 119.299 79.6896 119.458C79.6409 119.697 79.4816 119.692 79.1939 119.741C78.3484 119.882 77.3702 119.727 76.6089 119.347C76.2769 119.184 75.9847 119.679 76.3167 119.842C77.0825 120.227 77.9722 120.386 78.8265 120.347C79.278 120.324 80.0924 120.267 80.2474 119.723C80.3403 119.4 80.2474 118.963 80.2385 118.635C80.181 116.707 80.1146 114.784 80.0482 112.861C79.8623 107.568 79.6808 102.275 79.3975 96.9866C79.3532 96.1553 79.309 95.3241 79.2426 94.4928C79.216 94.1567 79.2426 93.6792 79.1053 93.3652C78.9637 93.0469 78.4502 92.9319 78.1537 92.8258C77.4189 92.5649 76.5912 92.4234 75.8254 92.6268C75.4226 92.7329 74.7498 92.9982 74.679 93.4537C74.6612 93.5731 74.679 93.7101 74.679 93.8295C74.7276 98.1849 74.8206 102.54 74.9755 106.896C75.0685 109.544 75.1791 112.193 75.3783 114.833C75.4491 115.797 75.5332 116.761 75.6616 117.716C75.7369 118.282 75.7988 118.896 76.0157 119.431C76.0821 119.59 76.1574 119.75 76.3123 119.838C76.631 120.028 76.9231 119.529 76.6044 119.343H76.6133Z" fill="#120F0F"/>
<path d="M87.7811 119.36C87.2101 119.679 86.5815 119.931 85.9309 120.002C85.7051 120.028 85.4838 120.028 85.258 120.002C85.0013 119.966 84.8066 119.825 84.5631 119.772C84.4215 119.741 84.417 119.812 84.3683 119.732C84.3241 119.661 84.3683 119.414 84.3683 119.334C84.3683 119.091 84.3683 118.843 84.3728 118.6C84.3861 116.716 84.4038 114.837 84.4303 112.953C84.5011 107.922 84.5675 102.885 84.8685 97.8621C84.9216 96.9734 84.9792 96.0846 85.0766 95.2003C85.1253 94.7537 85.1474 94.2319 85.3289 93.8074C85.3333 93.7986 85.351 93.7632 85.4307 93.7057C85.7007 93.5156 86.0592 93.4581 86.3779 93.4271C86.7365 93.3962 87.0994 93.405 87.458 93.4537C87.6793 93.4846 88.1618 93.52 88.3167 93.7101C88.4008 93.8118 88.3477 94.3424 88.3477 94.5679C88.299 98.9012 88.2105 103.23 88.1086 107.563C88.0511 110.022 87.9936 112.48 87.9095 114.939C87.8608 116.389 87.8696 117.87 87.697 119.312C87.6837 119.414 87.6926 119.338 87.6793 119.436C87.666 119.555 87.6527 119.462 87.7191 119.409C87.427 119.639 87.8386 120.041 88.1263 119.816C88.3477 119.643 88.299 119.047 88.3167 118.808C88.3698 118.061 88.4008 117.313 88.4273 116.566C88.5247 114.108 88.5867 111.645 88.6442 109.186C88.7593 104.406 88.8567 99.622 88.9142 94.8421C88.9187 94.4795 88.9674 94.0771 88.9231 93.7146C88.7903 92.6666 86.7055 92.7772 85.9973 92.901C85.2536 93.0292 84.8154 93.3254 84.6649 94.0373C84.5188 94.7271 84.4657 95.439 84.4082 96.1377C83.9788 101.293 83.9478 106.493 83.8726 111.662C83.8416 113.82 83.815 115.982 83.7973 118.14C83.7973 118.635 83.7664 119.139 83.7885 119.635C83.8328 120.647 85.621 120.656 86.3292 120.523C86.9401 120.408 87.5244 120.161 88.0644 119.86C88.3875 119.679 88.0998 119.184 87.7722 119.365L87.7811 119.36Z" fill="#120F0F"/>
<path d="M96.3993 119.36C95.8282 119.679 95.1997 119.931 94.549 120.002C94.0798 120.055 93.5088 120.019 93.1149 119.727C92.9954 119.639 93.0396 119.834 92.9909 119.723C92.8758 119.467 92.9909 118.887 92.9954 118.613C93.0086 116.756 93.0263 114.903 93.0573 113.046C93.1326 108.019 93.2078 102.978 93.5708 97.9638C93.6637 96.655 93.708 95.0897 94.1241 93.9047C94.1551 93.8162 94.1595 93.8295 94.1816 93.8118C94.1329 93.856 94.4162 93.6969 94.5003 93.6615C94.7217 93.5686 94.9474 93.4979 95.182 93.4448C95.6069 93.3431 96.0451 93.2945 96.4834 93.3077C96.6693 93.3122 96.8507 93.3387 97.0322 93.3785C97.0898 93.3918 97.258 93.4935 97.2314 93.4404C97.3421 93.635 97.2226 94.2186 97.2181 94.4309C97.1252 98.8216 96.9924 103.212 96.8507 107.599C96.7711 110.062 96.687 112.525 96.5807 114.983C96.5188 116.416 96.5232 117.884 96.3284 119.307C96.3196 119.365 96.324 119.334 96.3107 119.427C96.293 119.546 96.2886 119.449 96.3506 119.4C96.0584 119.63 96.4701 120.033 96.7578 119.807C96.9791 119.635 96.9348 119.047 96.9526 118.808C97.0145 118.056 97.0499 117.304 97.0853 116.553C97.2049 114.107 97.289 111.658 97.3731 109.213C97.5368 104.389 97.6785 99.5645 97.7847 94.7404C97.7936 94.3247 97.8467 93.887 97.8068 93.4714C97.7006 92.3084 95.4918 92.7462 94.8058 92.9407C94.04 93.1574 93.646 93.3608 93.4601 94.1037C93.2875 94.7979 93.2167 95.523 93.1459 96.2349C92.6235 101.364 92.5926 106.564 92.504 111.715C92.4686 113.864 92.4421 116.013 92.4244 118.158C92.4244 118.644 92.3934 119.135 92.4155 119.617C92.4598 120.638 94.2436 120.647 94.9563 120.51C95.5671 120.395 96.1514 120.148 96.6914 119.847C97.0145 119.666 96.7268 119.17 96.3993 119.352V119.36Z" fill="#120F0F"/>
<path d="M104.535 119.153C103.964 119.471 103.335 119.723 102.685 119.794C102.216 119.847 101.64 119.811 101.251 119.52C101.131 119.431 101.175 119.63 101.127 119.515C101.02 119.254 101.153 118.68 101.162 118.405C101.224 116.548 101.299 114.696 101.379 112.838C101.596 107.811 101.813 102.766 102.308 97.756C102.441 96.4383 102.525 94.8907 102.968 93.6969C102.999 93.6084 103.008 93.6217 103.026 93.604C102.981 93.6482 103.256 93.4935 103.344 93.4537C103.566 93.3608 103.791 93.2901 104.026 93.237C104.451 93.1353 104.889 93.0867 105.327 93.0999C105.513 93.1043 105.695 93.1309 105.876 93.1707C105.934 93.1839 106.102 93.2856 106.075 93.2326C106.182 93.4271 106.049 94.0152 106.035 94.223C105.832 98.6138 105.575 103.005 105.31 107.391C105.163 109.854 105.009 112.317 104.836 114.775C104.739 116.177 104.694 117.711 104.469 119.051C104.46 119.108 104.446 119.166 104.438 119.223C104.415 119.343 104.411 119.246 104.477 119.197C104.185 119.422 104.597 119.829 104.885 119.604C105.106 119.431 105.075 118.839 105.102 118.604C105.181 117.853 105.239 117.101 105.296 116.349C105.482 113.904 105.637 111.454 105.788 109.009C106.084 104.185 106.367 99.3611 106.598 94.537C106.615 94.1258 106.682 93.6792 106.651 93.2679C106.558 92.1006 104.327 92.5472 103.65 92.7373C102.879 92.9584 102.494 93.1618 102.291 93.9003C102.1 94.5945 102.012 95.3196 101.923 96.0315C101.264 101.156 101.091 106.356 100.857 111.512C100.759 113.661 100.675 115.805 100.6 117.954C100.582 118.441 100.542 118.932 100.551 119.414C100.573 120.435 102.388 120.444 103.088 120.307C103.698 120.192 104.283 119.944 104.823 119.643C105.146 119.462 104.858 118.967 104.531 119.148L104.535 119.153Z" fill="#120F0F"/>
<path d="M113.06 118.936C112.657 119.148 112.193 119.281 111.759 119.405C111.214 119.564 110.502 119.798 109.935 119.661C109.537 119.564 109.661 119.166 109.683 118.843C109.798 117.203 109.922 115.562 110.046 113.922C110.444 108.766 110.86 103.602 111.502 98.4679C111.697 96.8982 111.803 95.1605 112.352 93.6615C112.387 93.5598 112.383 93.5554 112.432 93.4714C112.485 93.3829 112.489 93.3873 112.449 93.4183C113.056 92.9275 114.238 92.8258 114.977 92.8965C115.114 92.9098 115.512 92.9894 115.535 93.0336C115.548 93.0646 115.526 93.1353 115.53 93.1707C115.535 93.352 115.504 93.5377 115.49 93.719C115.154 98.0744 114.725 102.425 114.308 106.776C114.065 109.323 113.813 111.866 113.543 114.413C113.388 115.881 113.29 117.384 113.003 118.834C112.989 118.896 112.976 118.958 112.963 119.016C112.941 119.126 112.958 119.016 112.998 118.989C112.706 119.215 113.118 119.621 113.405 119.396C113.627 119.228 113.618 118.622 113.649 118.388C113.76 117.596 113.853 116.796 113.941 116C114.224 113.466 114.477 110.928 114.725 108.39C115.194 103.584 115.658 98.773 116.044 93.9622C116.07 93.635 116.203 93.1309 116.061 92.8125C115.831 92.2952 114.981 92.2996 114.516 92.3129C113.777 92.335 112.759 92.4588 112.153 92.9275C111.808 93.1928 111.715 93.7322 111.622 94.1302C111.422 94.9571 111.294 95.806 111.175 96.6461C110.396 102.01 109.984 107.431 109.554 112.83C109.404 114.744 109.258 116.654 109.125 118.569C109.103 118.883 109.019 119.268 109.085 119.582C109.333 120.767 111.347 120.134 112.064 119.913C112.494 119.781 112.95 119.643 113.348 119.431C113.675 119.259 113.383 118.764 113.056 118.936H113.06Z" fill="#120F0F"/>
<path d="M38.3958 91.3401C42.4371 91.3401 46.474 91.3401 50.5153 91.3401C57.0088 91.3401 63.5023 91.3445 69.9958 91.3489C77.3746 91.3489 84.7578 91.3578 92.1366 91.3578C98.8205 91.3578 105.509 91.3622 112.193 91.3666C116.619 91.3666 121.045 91.3666 125.472 91.371C125.773 91.371 126.074 91.371 126.375 91.371C126.747 91.371 126.747 90.7962 126.375 90.7962C122.333 90.7962 118.297 90.7962 114.255 90.7962C107.762 90.7962 101.268 90.7918 94.7748 90.7874C87.396 90.7874 80.0127 90.7785 72.6339 90.7785C65.9501 90.7785 59.2618 90.7741 52.578 90.7697C48.1516 90.7697 43.7252 90.7697 39.2988 90.7652C38.9978 90.7652 38.6968 90.7652 38.3958 90.7652C38.024 90.7652 38.024 91.3401 38.3958 91.3401Z" fill="#120F0F"/>
<path d="M49.0368 76.5141C49.3423 78.4242 49.5592 80.3521 49.7893 82.2711C49.8336 82.6337 50.409 82.6381 50.3648 82.2711C50.1302 80.299 49.9044 78.3225 49.5901 76.3593C49.5326 75.9967 48.9749 76.1515 49.0368 76.5141Z" fill="#120F0F"/>
<path d="M69.3451 50.9389C69.1503 51.3103 75.7811 81.6786 76.6885 82.1119C77.5959 82.5453 82.6243 82.2667 82.6243 82.2667C82.6243 82.2667 74.3513 50.6603 73.2226 50.0987C72.0983 49.5372 69.3451 50.9389 69.3451 50.9389Z" fill="#538D33"/>
<path d="M70.6377 49.7052C70.1552 49.9617 69.5089 50.1164 69.3451 50.9345C69.1769 51.7569 76.9939 74.5641 76.9939 74.5641L79.3532 74.0202L71.3813 51.5358C71.3813 51.5358 78.0386 50.059 78.4458 50.4481C78.7866 50.7753 84.2001 70.8543 85.9176 77.2569C86.223 78.3977 87.2101 79.1671 88.3122 79.1229C89.9234 79.061 91.0256 77.3365 90.4989 75.6916C87.967 67.7502 81.6859 48.2372 80.9733 48.025C80.0791 47.7597 70.6377 49.6964 70.6377 49.6964V49.7052Z" fill="#538D33"/>
<path d="M73.9751 51.3501C76.2636 50.8637 78.5565 50.28 80.8759 49.9749C80.7829 49.9042 80.69 49.8334 80.597 49.7627C81.6859 53.1188 82.7704 56.4749 83.8593 59.8354C85.4395 64.7169 87.0197 69.5985 88.6044 74.4801C88.7991 75.0903 88.9939 75.696 89.1931 76.3062C89.4764 77.1596 89.7198 78.0572 88.7903 78.6586C88.4804 78.8576 88.7681 79.3572 89.0824 79.1538C89.7729 78.7072 90.1226 78.0263 90.0385 77.2038C90.012 76.9607 89.9544 76.7263 89.8747 76.492C89.8437 76.4035 89.7818 76.2532 89.8128 76.3416C89.6888 75.9879 89.5826 75.6297 89.4675 75.2716C88.8301 73.2995 88.1883 71.3274 87.5509 69.3553C85.8379 64.0625 84.1249 58.7741 82.4118 53.4814C81.9913 52.1902 81.5752 50.8991 81.1547 49.6035C81.1193 49.4974 81.0042 49.378 80.8759 49.3913C78.5033 49.7008 76.1618 50.2889 73.8202 50.7841C73.4572 50.8593 73.6122 51.4164 73.9751 51.3368V51.3501Z" fill="#74CA45"/>
<path d="M87.9847 78.2518C88.5127 78.2518 88.9408 77.8242 88.9408 77.2967C88.9408 76.7692 88.5127 76.3416 87.9847 76.3416C87.4566 76.3416 87.0286 76.7692 87.0286 77.2967C87.0286 77.8242 87.4566 78.2518 87.9847 78.2518Z" fill="#74CA45"/>
</svg>
