<svg width="24" height="25" viewBox="0 0 24 25" fill="none" xmlns="http://www.w3.org/2000/svg">
<path d="M18.48 19.0368H21M4.68 12.5L3 12.544M4.68 12.5C4.68 13.8255 5.75451 14.9 7.08 14.9C8.40548 14.9 9.48 13.8255 9.48 12.5C9.48 11.1745 8.40548 10.1 7.08 10.1C5.75451 10.1 4.68 11.1745 4.68 12.5ZM10.169 12.5441H21M12.801 6.05124L3 6.05124M21 6.05124H18.48M3 19.0368H12.801M17.88 19.1C17.88 20.4255 16.8055 21.5 15.48 21.5C14.1545 21.5 13.08 20.4255 13.08 19.1C13.08 17.7745 14.1545 16.7 15.48 16.7C16.8055 16.7 17.88 17.7745 17.88 19.1ZM17.88 5.9C17.88 7.22548 16.8055 8.3 15.48 8.3C14.1545 8.3 13.08 7.22548 13.08 5.9C13.08 4.57452 14.1545 3.5 15.48 3.5C16.8055 3.5 17.88 4.57452 17.88 5.9Z" stroke="#8C8C8C" stroke-width="1.5" stroke-linecap="round"/>
</svg>
