<svg width="111" height="110" viewBox="0 0 111 110" fill="none" xmlns="http://www.w3.org/2000/svg">
<path d="M86.8261 81.9507C93.1396 74.7347 96.9933 65.332 96.9933 55C96.9933 32.3953 78.5995 14 55.9967 14C33.3938 14 15 32.3953 15 55C15 77.6047 33.3938 96 55.9967 96C66.3278 96 75.7297 92.146 82.9451 85.832L92.3197 95.2073C92.8663 95.7267 93.5496 96 94.2602 96C94.9708 96 95.6541 95.7267 96.2007 95.2073C96.4541 94.9545 96.6551 94.6541 96.7923 94.3234C96.9294 93.9928 97 93.6383 97 93.2803C97 92.9223 96.9294 92.5679 96.7923 92.2372C96.6551 91.9066 96.4541 91.6062 96.2007 91.3533L86.8261 81.9507ZM20.4662 55C20.4662 35.402 36.4003 19.4667 55.9967 19.4667C75.5931 19.4667 91.5271 35.402 91.5271 55C91.5271 74.598 75.5931 90.5333 55.9967 90.5333C36.4003 90.5333 20.4662 74.598 20.4662 55ZM39.598 46.8C39.598 43.7933 42.0578 41.3333 45.0642 41.3333C48.0706 41.3333 50.5304 43.7933 50.5304 46.8C50.5304 49.8067 48.0706 52.2667 45.0642 52.2667C42.0578 52.2667 39.598 49.8067 39.598 46.8ZM72.3953 46.8C72.3953 49.8067 69.9355 52.2667 66.9291 52.2667C63.9227 52.2667 61.4629 49.8067 61.4629 46.8C61.4629 43.7933 63.9227 41.3333 66.9291 41.3333C69.9355 41.3333 72.3953 43.7933 72.3953 46.8ZM71.0288 64.8127C71.1744 65.1411 71.2538 65.495 71.2625 65.8541C71.2713 66.2132 71.2091 66.5705 71.0797 66.9056C70.9502 67.2407 70.756 67.547 70.5081 67.807C70.2602 68.0669 69.9634 68.2755 69.6349 68.4207C69.2796 68.5847 68.8969 68.6667 68.5416 68.6667C67.5031 68.6667 66.4918 68.0653 66.0272 67.0267C64.278 63.036 60.315 60.4667 55.9967 60.4667C51.6783 60.4667 47.7153 63.036 45.9388 67.054C45.3375 68.4207 43.725 69.0767 42.3311 68.448C40.9646 67.8467 40.3359 66.234 40.9372 64.84C43.5883 58.854 49.5192 55 55.9967 55C62.4741 55 68.405 58.854 71.0288 64.8127Z" fill="#F17228"/>
</svg>
