<svg width="61" height="56" viewBox="0 0 61 56" fill="none" xmlns="http://www.w3.org/2000/svg">
<path d="M9.36359 33.1436H2.82868C2.09917 33.1436 1.50781 33.7349 1.50781 34.4644V37.3703C1.50781 38.0998 2.09917 38.6912 2.82868 38.6912H9.36359V33.1436Z" fill="#CEC6C5"/>
<path d="M5.76621 36.7372C5.0367 36.7372 4.44534 36.1458 4.44534 35.4163V33.1436H2.82868C2.09917 33.1436 1.50781 33.7349 1.50781 34.4644V37.3703C1.50781 38.0998 2.09917 38.6912 2.82868 38.6912H9.36359V36.7372H5.76621Z" fill="#B6AFAE"/>
<path d="M9.36359 33.1436H2.82868C2.09917 33.1436 1.50781 33.7349 1.50781 34.4644V37.3703C1.50781 38.0998 2.09917 38.6912 2.82868 38.6912H9.36359V33.1436Z" stroke="black" stroke-width="1.5" stroke-miterlimit="10" stroke-linecap="round" stroke-linejoin="round"/>
<path d="M51.4359 33.1436H44.901V38.6911H51.4359C52.1654 38.6911 52.7568 38.0997 52.7568 37.3702V34.4643C52.7568 33.7349 52.1654 33.1436 51.4359 33.1436Z" fill="#CEC6C5"/>
<path d="M44.901 36.7368V38.6908H51.4359C52.1654 38.6908 52.7568 38.0995 52.7568 37.3699V36.7368H44.901Z" fill="#678D98"/>
<path d="M51.4359 33.1436H44.901V38.6911H51.4359C52.1654 38.6911 52.7568 38.0997 52.7568 37.3702V34.4643C52.7568 33.7349 52.1654 33.1436 51.4359 33.1436Z" fill="#B6AFAE" stroke="black" stroke-width="1.5" stroke-miterlimit="10" stroke-linecap="round" stroke-linejoin="round"/>
<path d="M45.8575 28.0347H8.40712C8.18715 28.0347 7.97619 28.122 7.82065 28.2776C7.66511 28.4331 7.57773 28.6441 7.57773 28.8641V30.5074C7.57773 30.7274 7.66511 30.9384 7.82065 31.0939C7.97619 31.2495 8.18715 31.3368 8.40712 31.3368C8.66079 31.3368 8.90407 31.4376 9.08344 31.617C9.26281 31.7963 9.36358 32.0396 9.36358 32.2933V48.2471C9.36358 50.2643 10.9989 51.8997 13.0162 51.8997H41.2484C43.2657 51.8997 44.901 50.2643 44.901 48.2471V32.2932C44.901 32.0395 45.0018 31.7962 45.1811 31.6169C45.3605 31.4375 45.6038 31.3367 45.8575 31.3367C46.0774 31.3367 46.2884 31.2493 46.4439 31.0938C46.5995 30.9383 46.6869 30.7273 46.6869 30.5073V28.8639C46.6869 28.755 46.6654 28.6472 46.6237 28.5466C46.582 28.4459 46.5209 28.3545 46.4439 28.2775C46.3669 28.2005 46.2755 28.1394 46.1748 28.0978C46.0742 28.0561 45.9664 28.0347 45.8575 28.0347Z" fill="#FFAB17"/>
<path d="M8.40712 31.3368C8.66079 31.3368 8.90407 31.4376 9.08344 31.617C9.26281 31.7963 9.36358 32.0396 9.36358 32.2933V43.4462H15.2538V32.2933C15.2538 32.0396 15.153 31.7963 14.9737 31.617C14.7943 31.4376 14.551 31.3368 14.2974 31.3368C14.0774 31.3368 13.8664 31.2495 13.7109 31.0939C13.5553 30.9384 13.468 30.7274 13.468 30.5074V28.8641C13.468 28.6441 13.5553 28.4331 13.7109 28.2776C13.8664 28.122 14.0774 28.0347 14.2974 28.0347H8.40712C8.18715 28.0347 7.97619 28.122 7.82065 28.2776C7.66511 28.4331 7.57773 28.6441 7.57773 28.8641V30.5074C7.57773 30.7274 7.66511 30.9384 7.82065 31.0939C7.97619 31.2495 8.18715 31.3368 8.40712 31.3368ZM9.36358 43.4462V48.2471C9.36358 50.2643 10.9989 51.8997 13.0162 51.8997H41.2484C43.2657 51.8997 44.901 50.2643 44.901 48.2471V43.4462H9.36358Z" fill="#FFD15B"/>
<path d="M15.2538 48.2472V43.4463H9.36359V48.2472C9.36359 50.2644 10.9989 51.8997 13.0162 51.8997H18.9064C16.8891 51.8998 15.2538 50.2645 15.2538 48.2472Z" fill="#FFC344"/>
<path d="M45.8575 28.0347H8.40712C8.18715 28.0347 7.97619 28.122 7.82065 28.2776C7.66511 28.4331 7.57773 28.6441 7.57773 28.8641V30.5074C7.57773 30.7274 7.66511 30.9384 7.82065 31.0939C7.97619 31.2495 8.18715 31.3368 8.40712 31.3368C8.66079 31.3368 8.90407 31.4376 9.08344 31.617C9.26281 31.7963 9.36358 32.0396 9.36358 32.2933V48.2471C9.36358 50.2643 10.9989 51.8997 13.0162 51.8997H41.2484C43.2657 51.8997 44.901 50.2643 44.901 48.2471V32.2932C44.901 32.0395 45.0018 31.7962 45.1811 31.6169C45.3605 31.4375 45.6038 31.3367 45.8575 31.3367C46.0774 31.3367 46.2884 31.2493 46.4439 31.0938C46.5995 30.9383 46.6869 30.7273 46.6869 30.5073V28.8639C46.6869 28.755 46.6654 28.6472 46.6237 28.5466C46.582 28.4459 46.5209 28.3545 46.4439 28.2775C46.3669 28.2005 46.2755 28.1394 46.1748 28.0978C46.0742 28.0561 45.9664 28.0347 45.8575 28.0347Z" stroke="black" stroke-width="1.5" stroke-miterlimit="10" stroke-linecap="round" stroke-linejoin="round"/>
<path d="M44.901 48.247V43.4463H40.7721M36.6882 43.4463H9.36359" stroke="black" stroke-width="1.5" stroke-miterlimit="10" stroke-linecap="round" stroke-linejoin="round"/>
<path d="M34.7578 46.7885L32.5396 50.6306C31.421 52.5679 32.8191 54.9896 35.0562 54.9896C37.2933 54.9896 38.6914 52.5679 37.5729 50.6306L35.3546 46.7885C35.2221 46.5588 34.8905 46.5588 34.7578 46.7885Z" fill="#FB949C"/>
<path d="M34.8254 50.6306L36.1993 48.2512L35.3548 46.7885C35.2221 46.5588 34.8905 46.5588 34.758 46.7885L32.5397 50.6306C31.4211 52.5679 32.8193 54.9896 35.0563 54.9896C35.4695 54.9896 35.8539 54.9065 36.1993 54.7596C34.6747 54.1111 33.9135 52.2102 34.8254 50.6306Z" fill="#FD4755" fill-opacity="0.53"/>
<path d="M34.7578 46.7885L32.5396 50.6306C31.421 52.5679 32.8191 54.9896 35.0562 54.9896C37.2933 54.9896 38.6914 52.5679 37.5729 50.6306L35.3546 46.7885C35.2221 46.5588 34.8905 46.5588 34.7578 46.7885Z" stroke="black" stroke-width="1.5" stroke-miterlimit="10" stroke-linecap="round" stroke-linejoin="round"/>
<path d="M30.4499 13.9139C30.4778 13.7397 30.4927 13.5611 30.4927 13.3789C30.4927 11.5231 28.9882 10.0186 27.1323 10.0186C25.2764 10.0186 23.7719 11.5231 23.7719 13.3789C23.7719 13.5611 23.7868 13.7396 23.8147 13.9139H30.4499Z" fill="#CEC6C5"/>
<path d="M28.5965 10.3532C28.1401 10.132 27.6394 10.0174 27.1323 10.0181C25.2764 10.0181 23.7719 11.5226 23.7719 13.3785C23.7719 13.5606 23.7868 13.7391 23.8147 13.9135H26.743C26.7146 13.7365 26.7003 13.5577 26.7002 13.3785C26.7002 12.0476 27.4741 10.8974 28.5965 10.3532Z" fill="#B6AFAE"/>
<path d="M30.4499 13.9139C30.4778 13.7397 30.4927 13.5611 30.4927 13.3789C30.4927 11.5231 28.9882 10.0186 27.1323 10.0186C25.2764 10.0186 23.7719 11.5231 23.7719 13.3789C23.7719 13.5611 23.7868 13.7396 23.8147 13.9139H30.4499Z" stroke="black" stroke-width="1.5" stroke-miterlimit="10" stroke-linecap="round" stroke-linejoin="round"/>
<path d="M33.7317 14.644C33.7317 14.3985 33.7407 14.155 33.7569 13.9136H18.6056C13.5013 13.9136 9.36359 18.0513 9.36359 23.1556H37.9257C35.3755 21.1929 33.7317 18.1107 33.7317 14.644Z" fill="#FFAB17"/>
<path d="M25.5104 13.9136H18.6056C13.5013 13.9136 9.36359 18.0513 9.36359 23.1556H16.2684C16.2684 18.0513 20.4061 13.9136 25.5104 13.9136Z" fill="#FFD15B"/>
<path d="M33.7569 13.9136H18.6056C13.5013 13.9136 9.36359 18.0513 9.36359 23.1556H17.3185M21.4025 23.1556H37.9256" stroke="black" stroke-width="1.5" stroke-miterlimit="10" stroke-linecap="round" stroke-linejoin="round"/>
<path d="M44.4665 25.3787C50.3951 25.3787 55.2012 20.5725 55.2012 14.6439C55.2012 8.71528 50.3951 3.90918 44.4665 3.90918C38.5378 3.90918 33.7317 8.71528 33.7317 14.6439C33.7317 20.5725 38.5378 25.3787 44.4665 25.3787Z" fill="#74CA45"/>
<path d="M40.8893 14.6439C40.8893 9.97036 43.8763 5.99504 48.0452 4.52108C46.8957 4.11502 45.6854 3.90809 44.4663 3.90918C38.5377 3.90918 33.7316 8.7153 33.7316 14.6439C33.7316 20.5725 38.5377 25.3787 44.4663 25.3787C45.6854 25.3797 46.8957 25.1728 48.0452 24.7668C43.8764 23.2928 40.8893 19.3175 40.8893 14.6439Z" fill="#538D33"/>
<path d="M44.4665 25.3787C50.3951 25.3787 55.2012 20.5725 55.2012 14.6439C55.2012 8.71528 50.3951 3.90918 44.4665 3.90918C38.5378 3.90918 33.7317 8.71528 33.7317 14.6439C33.7317 20.5725 38.5378 25.3787 44.4665 25.3787Z" stroke="black" stroke-width="1.5" stroke-miterlimit="10" stroke-linecap="round" stroke-linejoin="round"/>
<path d="M44.4665 22.2181C48.6494 22.2181 52.0403 18.8271 52.0403 14.6442C52.0403 10.4612 48.6494 7.07031 44.4665 7.07031C40.2835 7.07031 36.8926 10.4612 36.8926 14.6442C36.8926 18.8271 40.2835 22.2181 44.4665 22.2181Z" fill="white"/>
<path d="M40.8893 14.6443C40.8893 11.6957 42.0791 9.02582 44.0037 7.08594C40.0423 7.32607 36.8926 10.6236 36.8926 14.6443C36.8926 18.665 40.0423 21.9626 44.0038 22.2026C42.0791 20.2628 40.8893 17.5929 40.8893 14.6443Z" fill="#EEF5F6"/>
<path d="M51.7529 12.5834C50.8529 9.40587 47.9282 7.07031 44.4663 7.07031C40.2901 7.07031 36.8925 10.4679 36.8925 14.6442C36.8925 18.8204 40.2901 22.2181 44.4663 22.2181C47.9418 22.2181 50.876 19.8642 51.7635 16.6675" stroke="black" stroke-width="1.5" stroke-miterlimit="10" stroke-linecap="round" stroke-linejoin="round"/>
<path d="M44.4665 9.60547V14.6443H48.6265" stroke="black" stroke-width="1.5" stroke-miterlimit="10" stroke-linecap="round" stroke-linejoin="round"/>
<path d="M18.9099 46.7885L16.6916 50.6306C15.5731 52.5679 16.9712 54.9896 19.2083 54.9896C21.4453 54.9896 22.8435 52.5679 21.7249 50.6306L19.5066 46.7885C19.3741 46.5588 19.0425 46.5588 18.9099 46.7885Z" fill="#F3B87B"/>
<path d="M19.0486 50.6306L20.3868 48.3129L19.5066 46.7885C19.374 46.5588 19.0423 46.5588 18.9098 46.7885L16.6915 50.6306C15.573 52.5679 16.9711 54.9896 19.2082 54.9896C19.6357 54.9896 20.0322 54.9005 20.3867 54.744C18.8862 54.0812 18.1439 52.1978 19.0486 50.6306Z" fill="#EA9C57"/>
<path d="M18.9099 46.7885L16.6916 50.6306C15.5731 52.5679 16.9712 54.9896 19.2083 54.9896C21.4453 54.9896 22.8435 52.5679 21.7249 50.6306L19.5066 46.7885C19.3741 46.5588 19.0425 46.5588 18.9099 46.7885Z" stroke="black" stroke-width="1.5" stroke-miterlimit="10" stroke-linecap="round" stroke-linejoin="round"/>
<path d="M24.1926 46.7885L21.9743 50.6306C20.8557 52.5679 22.2539 54.9896 24.4909 54.9896C26.728 54.9896 28.1261 52.5679 27.0076 50.6306L24.7893 46.7885C24.6567 46.5588 24.3252 46.5588 24.1926 46.7885Z" fill="#FB949C"/>
<path d="M24.2601 50.6306L25.634 48.2512L24.7895 46.7885C24.6569 46.5588 24.3252 46.5588 24.1927 46.7885L21.9743 50.6306C20.8557 52.5679 22.2539 54.9896 24.4909 54.9896C24.9041 54.9896 25.2885 54.9065 25.6339 54.7596C24.1094 54.1111 23.3481 52.2102 24.2601 50.6306Z" fill="#FD4755" fill-opacity="0.53"/>
<path d="M24.1926 46.7885L21.9743 50.6306C20.8557 52.5679 22.2539 54.9896 24.4909 54.9896C26.728 54.9896 28.1261 52.5679 27.0076 50.6306L24.7893 46.7885C24.6567 46.5588 24.3252 46.5588 24.1926 46.7885Z" stroke="black" stroke-width="1.5" stroke-miterlimit="10" stroke-linecap="round" stroke-linejoin="round"/>
<path d="M29.4752 46.7885L27.2569 50.6306C26.1384 52.5679 27.5365 54.9896 29.7736 54.9896C32.0107 54.9896 33.4088 52.5679 32.2902 50.6306L30.0719 46.7885C29.9395 46.5588 29.6079 46.5588 29.4752 46.7885Z" fill="#F3B87B"/>
<path d="M29.6141 50.6306L30.9522 48.3129L30.0721 46.7885C29.9394 46.5588 29.6078 46.5588 29.4752 46.7885L27.2569 50.6306C26.1384 52.5679 27.5365 54.9896 29.7736 54.9896C30.2011 54.9896 30.5976 54.9005 30.9521 54.744C29.4515 54.0812 28.7093 52.1978 29.6141 50.6306Z" fill="#EA9C57"/>
<path d="M15.3106 54.9897H38.9539M29.4752 46.7885L27.2569 50.6306C26.1384 52.5679 27.5365 54.9896 29.7736 54.9896C32.0106 54.9896 33.4087 52.5679 32.2902 50.6306L30.0719 46.7885C29.9395 46.5588 29.6079 46.5588 29.4752 46.7885Z" stroke="black" stroke-width="1.5" stroke-miterlimit="10" stroke-linecap="round" stroke-linejoin="round"/>
<path d="M32.2721 1.01108L33.1074 2.53836C33.1537 2.62301 33.2233 2.69261 33.3079 2.73894L34.8352 3.57417C35.1853 3.76565 35.1853 4.26832 34.8352 4.45968L33.3079 5.29491C33.2233 5.34123 33.1537 5.41084 33.1074 5.49549L32.2721 7.02277C32.0806 7.37283 31.578 7.37283 31.3866 7.02277L30.5514 5.49549C30.5051 5.41084 30.4354 5.34123 30.3508 5.29491L28.8235 4.45968C28.4735 4.2682 28.4735 3.76553 28.8235 3.57417L30.3508 2.73894C30.4354 2.69261 30.5051 2.62301 30.5514 2.53836L31.3866 1.01108C31.5781 0.661022 32.0808 0.661022 32.2721 1.01108Z" fill="#FFE177"/>
<path d="M32.8012 5.60833L31.9659 4.08105C31.9196 3.9964 31.85 3.9268 31.7654 3.88047L30.2381 3.04524C30.1705 3.00845 30.1123 2.95654 30.0681 2.89355L28.8236 3.57418C28.4736 3.76565 28.4736 4.26833 28.8236 4.45969L30.3509 5.29492C30.4356 5.34124 30.5052 5.41085 30.5515 5.4955L31.3867 7.02278C31.5782 7.37284 32.0809 7.37284 32.2722 7.02278L32.9529 5.77834C32.8899 5.73415 32.8379 5.67596 32.8012 5.60833Z" fill="#FFD15B"/>
<path d="M32.2721 1.01108L33.1074 2.53836C33.1537 2.62301 33.2233 2.69261 33.3079 2.73894L34.8352 3.57417C35.1853 3.76565 35.1853 4.26832 34.8352 4.45968L33.3079 5.29491C33.2233 5.34123 33.1537 5.41084 33.1074 5.49549L32.2721 7.02277C32.0806 7.37283 31.578 7.37283 31.3866 7.02277L30.5514 5.49549C30.5051 5.41084 30.4354 5.34123 30.3508 5.29491L28.8235 4.45968C28.4735 4.2682 28.4735 3.76553 28.8235 3.57417L30.3508 2.73894C30.4354 2.69261 30.5051 2.62301 30.5514 2.53836L31.3866 1.01108C31.5781 0.661022 32.0808 0.661022 32.2721 1.01108Z" fill="#F17228" stroke="black" stroke-width="1.5" stroke-miterlimit="10" stroke-linecap="round" stroke-linejoin="round"/>
<path d="M56.6743 23.5233L57.5096 25.0506C57.5559 25.1352 57.6255 25.2048 57.7102 25.2511L59.2374 26.0864C59.5875 26.2779 59.5875 26.7805 59.2374 26.9719L57.7102 27.8071C57.6255 27.8534 57.5559 27.923 57.5096 28.0077L56.6743 29.535C56.4829 29.885 55.9802 29.885 55.7888 29.535L54.9536 28.0077C54.9073 27.923 54.8377 27.8534 54.753 27.8071L53.2257 26.9719C52.8757 26.7804 52.8757 26.2777 53.2257 26.0864L54.753 25.2511C54.8377 25.2048 54.9073 25.1352 54.9536 25.0506L55.7888 23.5233C55.9802 23.1732 56.483 23.1732 56.6743 23.5233Z" fill="#F17228"/>
<path d="M11.7071 9.16835C9.68204 9.16835 8.04041 7.52671 8.04041 5.50165C8.04041 3.47659 9.68204 1.83496 11.7071 1.83496C13.7322 1.83496 15.3738 3.47659 15.3738 5.50165M56.6744 23.5233L57.5096 25.0506C57.5559 25.1353 57.6255 25.2049 57.7102 25.2512L59.2375 26.0864C59.5875 26.2779 59.5875 26.7806 59.2375 26.9719L57.7102 27.8072C57.6255 27.8535 57.5559 27.9231 57.5096 28.0078L56.6744 29.535C56.4829 29.8851 55.9802 29.8851 55.7888 29.535L54.9536 28.0078C54.9073 27.9231 54.8377 27.8535 54.753 27.8072L53.2258 26.9719C52.8757 26.7805 52.8757 26.2778 53.2258 26.0864L54.753 25.2512C54.8377 25.2049 54.9073 25.1353 54.9536 25.0506L55.7888 23.5233C55.9802 23.1733 56.483 23.1733 56.6744 23.5233Z" stroke="black" stroke-width="1.5" stroke-miterlimit="10" stroke-linecap="round" stroke-linejoin="round"/>
<path d="M4.44872 18.8291C2.88969 17.2701 2.88969 14.7424 4.44872 13.1834C6.00774 11.6244 8.53535 11.6244 10.0944 13.1834" stroke="black" stroke-width="1.5" stroke-miterlimit="10" stroke-linecap="round" stroke-linejoin="round"/>
<path d="M17.4442 10.305C17.0782 9.12122 17.7411 7.86488 18.9248 7.49872C20.1086 7.13257 21.3649 7.79557 21.7311 8.97933" stroke="black" stroke-width="1.5" stroke-miterlimit="10" stroke-linecap="round" stroke-linejoin="round"/>
</svg>
