<svg width="20" height="21" viewBox="0 0 20 21" fill="none" xmlns="http://www.w3.org/2000/svg">
<g clip-path="url(#clip0_457_24547)">
<path d="M17.375 13.4734H17.2668L16.0833 10.7131C16.284 10.8011 16.5002 10.8479 16.7193 10.8508C16.8063 10.8508 16.8896 10.8163 16.9511 10.7548C17.0126 10.6933 17.0471 10.6099 17.0471 10.523V7.90034C17.0471 7.8134 17.0126 7.73001 16.9511 7.66853C16.8896 7.60705 16.8063 7.57252 16.7193 7.57252C16.3779 7.57437 16.0456 7.68277 15.7688 7.88259C15.492 8.08242 15.2845 8.36368 15.1752 8.68714C15.0788 8.55245 14.9557 8.43902 14.8136 8.35387C14.6714 8.26871 14.5134 8.21366 14.3491 8.19211C14.1409 8.16521 13.9294 8.17857 13.7262 8.23145H13.441C12.887 8.23145 12.6411 7.90362 12.2543 7.36926L12.0609 7.09716C12.2592 7.08704 12.4514 7.02486 12.6182 6.91686C12.7447 6.82504 12.8518 6.70913 12.9333 6.5758C13.0149 6.44246 13.0694 6.29433 13.0935 6.1399C13.2001 6.07851 13.2932 5.99642 13.3676 5.89845C13.4419 5.80048 13.4958 5.68863 13.5262 5.56948C13.5401 5.4755 13.5309 5.37956 13.4995 5.28991C13.4681 5.20026 13.4154 5.11957 13.3459 5.05478C13.2121 4.8256 13.1387 4.56612 13.1329 4.30078C13.2175 4.29571 13.2969 4.25805 13.3543 4.1957C13.4118 4.13335 13.4429 4.05116 13.441 3.96639C13.441 3.61893 13.372 3.27492 13.238 2.95435C13.1039 2.63378 12.9075 2.34305 12.6602 2.09904C12.4128 1.85503 12.1194 1.6626 11.797 1.53294C11.4747 1.40328 11.1297 1.33898 10.7823 1.34375C10.1005 1.35718 9.45038 1.634 8.96818 2.1162C8.48598 2.59839 8.20916 3.24853 8.19574 3.93033C8.18961 4.27792 8.25317 4.62323 8.38267 4.94585C8.51217 5.26848 8.70499 5.5619 8.94975 5.80879C9.02228 5.88089 9.0989 5.94875 9.17923 6.01205C7.91381 6.32021 7.24831 7.50695 6.90737 8.53633C6.81035 8.43857 6.69493 8.36101 6.56776 8.30811C6.44059 8.25522 6.3042 8.22805 6.16647 8.22817H2.68492C2.51009 8.22788 2.33799 8.27157 2.18446 8.35521C2.03093 8.43884 1.9009 8.55975 1.80634 8.70681C1.75896 8.77984 1.74252 8.86871 1.76066 8.95386C1.7788 9.03901 1.83002 9.11346 1.90305 9.16085C1.97609 9.20823 2.06495 9.22467 2.1501 9.20653C2.23525 9.18839 2.30971 9.13717 2.35709 9.06414C2.39242 9.00942 2.44098 8.96451 2.49829 8.93356C2.5556 8.90261 2.6198 8.88664 2.68492 8.88711H3.2783V9.8706C3.2783 9.95755 3.31283 10.0409 3.37431 10.1024C3.43579 10.1639 3.51918 10.1984 3.60613 10.1984H5.24527C5.33222 10.1984 5.4156 10.1639 5.47708 10.1024C5.53856 10.0409 5.5731 9.95755 5.5731 9.8706V8.88383H6.16647C6.2177 8.88383 6.26843 8.89392 6.31577 8.91353C6.3631 8.93313 6.4061 8.96187 6.44233 8.9981C6.47855 9.03432 6.50729 9.07733 6.5269 9.12466C6.5465 9.17199 6.55659 9.22272 6.55659 9.27395V11.7753C6.55573 11.8782 6.51424 11.9766 6.44118 12.049C6.36811 12.1215 6.26937 12.1621 6.16647 12.1621H2.68492C2.59104 12.1647 2.49946 12.1328 2.42756 12.0724C2.35565 12.0119 2.30842 11.9272 2.29481 11.8343H2.95047C3.03741 11.8343 3.1208 11.7998 3.18228 11.7383C3.24376 11.6768 3.2783 11.5934 3.2783 11.5065C3.2783 11.4195 3.24376 11.3361 3.18228 11.2747C3.1208 11.2132 3.03741 11.1786 2.95047 11.1786H2.29481V10.523H2.62264C2.70958 10.523 2.79297 10.4884 2.85445 10.427C2.91593 10.3655 2.95047 10.2821 2.95047 10.1952C2.95047 10.1082 2.91593 10.0248 2.85445 9.96334C2.79297 9.90186 2.70958 9.86732 2.62264 9.86732H0.983489C0.896543 9.86732 0.813158 9.90186 0.751678 9.96334C0.690198 10.0248 0.655659 10.1082 0.655659 10.1952C0.655659 10.2821 0.690198 10.3655 0.751678 10.427C0.813158 10.4884 0.896543 10.523 0.983489 10.523H1.63915V11.1786H0.32783C0.240884 11.1786 0.157499 11.2132 0.096019 11.2747C0.0345391 11.3361 0 11.4195 0 11.5065C0 11.5934 0.0345391 11.6768 0.096019 11.7383C0.157499 11.7998 0.240884 11.8343 0.32783 11.8343H1.63915C1.6542 12.0999 1.7702 12.3496 1.9634 12.5325C2.1566 12.7153 2.41237 12.8174 2.67837 12.8178H4.31752C4.16581 12.9665 4.0366 13.1366 3.93395 13.3226C3.49617 14.1812 3.27129 15.1324 3.2783 16.0961C3.2783 16.183 3.31283 16.2664 3.37431 16.3279C3.43579 16.3894 3.51918 16.4239 3.60613 16.4239H4.61256C4.69646 17.054 5.00631 17.6321 5.48449 18.0508C5.96267 18.4695 6.57665 18.7004 7.21225 18.7004C7.84785 18.7004 8.46183 18.4695 8.94001 18.0508C9.41819 17.6321 9.72804 17.054 9.81194 16.4239H14.7753C14.8384 16.9248 15.0447 17.3968 15.3695 17.7833C15.6942 18.1698 16.1236 18.4543 16.6061 18.6028C17.0886 18.7512 17.6037 18.7573 18.0896 18.6202C18.5754 18.4831 19.0114 18.2087 19.3451 17.8299C19.6788 17.4511 19.8962 16.9841 19.971 16.4849C20.0458 15.9856 19.975 15.4754 19.767 15.0154C19.559 14.5554 19.2226 14.1653 18.7983 13.8918C18.374 13.6182 17.8798 13.473 17.375 13.4734ZM4.91744 9.53949H3.93395V8.88383H4.91744V9.53949ZM16.3915 8.28391V10.1394C16.1994 10.0718 16.033 9.9463 15.9153 9.78011C15.7976 9.61393 15.7344 9.41531 15.7344 9.21166C15.7344 9.00802 15.7976 8.8094 15.9153 8.64321C16.033 8.47703 16.1994 8.35148 16.3915 8.28391ZM14.254 8.83794C14.3825 8.85717 14.5019 8.91571 14.5959 9.00552C14.6898 9.09532 14.7536 9.21199 14.7786 9.33952L14.8638 9.53949C14.4074 9.77412 13.8981 9.88704 13.3853 9.86732C13.3401 9.67258 13.3638 9.46821 13.4522 9.28892C13.5407 9.10964 13.6885 8.96651 13.8705 8.88383C13.9941 8.84374 14.1246 8.82924 14.254 8.84122V8.83794ZM12.6378 5.63832C12.5833 5.66581 12.5375 5.70801 12.5056 5.76014C12.4738 5.81227 12.4571 5.87227 12.4575 5.93337C12.4551 6.0159 12.4355 6.09701 12.3999 6.17153C12.3644 6.24604 12.3136 6.31231 12.251 6.3661C12.0641 6.49068 11.7166 6.46117 11.2675 6.28414C11.2435 6.28149 11.2193 6.28149 11.1954 6.28414L11.1462 6.24153V4.98594C11.1462 4.8951 11.1641 4.80515 11.1989 4.72123C11.2336 4.63731 11.2846 4.56105 11.3488 4.49682C11.413 4.43259 11.4893 4.38164 11.5732 4.34687C11.6571 4.31211 11.7471 4.29422 11.8379 4.29422H12.4575C12.4678 4.71858 12.6011 5.13084 12.8411 5.48096C12.7818 5.5444 12.7133 5.59855 12.6378 5.6416V5.63832ZM8.8514 3.93689C8.86779 3.42824 9.07718 2.9449 9.43703 2.58505C9.79689 2.2252 10.2802 2.01581 10.7889 1.99941H10.8184C11.2834 1.99911 11.7336 2.16359 12.0888 2.46367C12.4441 2.76375 12.6816 3.18001 12.7591 3.63856H11.8379C11.4808 3.63943 11.1386 3.78166 10.8861 4.03416C10.6336 4.28665 10.4914 4.62886 10.4905 4.98594V5.90714C10.0275 5.82892 9.60774 5.58762 9.30711 5.22687C9.00648 4.86612 8.84484 4.40971 8.8514 3.94016V3.93689ZM9.83489 6.58903C10.9069 6.58903 11.3003 7.14962 11.7166 7.73971C12.0182 8.17244 12.3723 8.64452 12.9624 8.81171C12.7768 9.11164 12.6928 9.46344 12.7231 9.81487C12.3162 9.72598 11.9324 9.55288 11.5965 9.3067C11.2605 9.06053 10.9798 8.74674 10.7725 8.38553C10.7546 8.3422 10.7277 8.30321 10.6935 8.27117C10.6593 8.23914 10.6186 8.21481 10.5742 8.19983C10.5298 8.18485 10.4827 8.17957 10.436 8.18434C10.3894 8.18911 10.3444 8.20381 10.3039 8.22747C10.2634 8.25113 10.2285 8.28319 10.2015 8.32149C10.1745 8.35978 10.156 8.40342 10.1473 8.44947C10.1386 8.49552 10.1398 8.5429 10.151 8.58843C10.1621 8.63395 10.1829 8.67655 10.2119 8.71336C10.3307 8.91279 10.4668 9.10146 10.6184 9.27723L10.5889 9.2969C10.2833 9.64841 10.0683 10.0693 9.96274 10.523H7.21225V10.1952C7.2352 9.99518 7.60892 6.58903 9.83489 6.58903ZM7.21225 11.772V11.1786H10.1627C10.2283 11.1786 11.8019 11.1983 11.8019 12.8178V14.4569H10.4905V13.8013C10.4988 13.5838 10.4621 13.367 10.3827 13.1643C10.3032 12.9617 10.1828 12.7777 10.0289 12.6238C9.87499 12.4699 9.69096 12.3495 9.48834 12.27C9.28572 12.1906 9.06888 12.1538 8.8514 12.1621H7.13685C7.18692 12.0382 7.21252 11.9057 7.21225 11.772ZM7.21225 18.0631C6.74776 18.0626 6.29842 17.8978 5.9438 17.5977C5.58919 17.2977 5.35219 16.8819 5.27478 16.4239H5.94683C6.02232 16.7017 6.18713 16.9469 6.41582 17.1218C6.64451 17.2966 6.92438 17.3913 7.21225 17.3913C7.50012 17.3913 7.77999 17.2966 8.00868 17.1218C8.23737 16.9469 8.40218 16.7017 8.47767 16.4239H9.14972C9.07231 16.8819 8.83531 17.2977 8.4807 17.5977C8.12609 17.8978 7.67674 18.0626 7.21225 18.0631ZM6.64838 16.4239H7.77612C7.71806 16.5218 7.63555 16.6028 7.53669 16.6591C7.43783 16.7154 7.32602 16.745 7.21225 16.745C7.09848 16.745 6.98668 16.7154 6.88781 16.6591C6.78895 16.6028 6.70644 16.5218 6.64838 16.4239ZM3.93395 15.7683C3.97578 15.0137 4.17926 14.2769 4.5306 13.6079C4.66109 13.3652 4.85582 13.1632 5.09347 13.0238C5.33112 12.8845 5.60253 12.8132 5.87798 12.8178H8.8514C8.98242 12.8107 9.11346 12.8313 9.236 12.8782C9.35854 12.9251 9.46982 12.9973 9.5626 13.0901C9.65538 13.1829 9.72758 13.2941 9.77449 13.4167C9.82141 13.5392 9.84198 13.6703 9.83489 13.8013V14.7848C9.83489 15.1394 9.94992 15.4845 10.1627 15.7683H3.93395ZM11.474 15.7683C11.2711 15.7677 11.0734 15.7044 10.9079 15.587C10.7423 15.4696 10.6172 15.3039 10.5496 15.1126H12.1297C12.2153 15.1071 12.3011 15.1195 12.3816 15.149C12.4621 15.1786 12.5355 15.2246 12.5973 15.2841C12.659 15.3437 12.7076 15.4155 12.74 15.4949C12.7724 15.5743 12.7878 15.6596 12.7854 15.7453C12.6767 15.7598 12.5672 15.7675 12.4575 15.7683H11.474ZM13.5754 15.3847C13.5281 15.4383 13.4741 15.4857 13.4148 15.5257C13.3788 15.2778 13.2678 15.0469 13.0966 14.8641C12.9255 14.6812 12.7025 14.5551 12.4575 14.5028V12.8178C12.4871 12.2829 12.316 11.7562 11.9776 11.3408C11.6393 10.9255 11.1581 10.6514 10.6282 10.5722C10.7123 10.2781 10.8563 10.0047 11.0511 9.76897C11.0596 9.7575 11.0673 9.74545 11.0741 9.73291C11.5829 10.1457 12.1952 10.411 12.8444 10.5L13.7688 14.5192C13.8208 14.8219 13.7513 15.1329 13.5754 15.3847ZM14.4245 14.3848L13.523 10.523C14.0777 10.5281 14.6258 10.4023 15.1228 10.1558L16.6701 13.7619L15.2408 15.7683H14.0967C14.2406 15.571 14.3437 15.3471 14.3999 15.1096C14.4562 14.872 14.4646 14.6256 14.4245 14.3848ZM17.375 15.7683H16.8111C16.8833 15.6433 16.9947 15.5456 17.128 15.4903C17.2614 15.4351 17.4092 15.4254 17.5486 15.4628C17.688 15.5001 17.8112 15.5824 17.8991 15.6969C17.987 15.8115 18.0346 15.9517 18.0346 16.0961C18.0346 16.2404 17.987 16.3807 17.8991 16.4952C17.8112 16.6097 17.688 16.692 17.5486 16.7294C17.4092 16.7668 17.2614 16.7571 17.128 16.7018C16.9947 16.6466 16.8833 16.5489 16.8111 16.4239H17.375C17.4619 16.4239 17.5453 16.3894 17.6068 16.3279C17.6683 16.2664 17.7028 16.183 17.7028 16.0961C17.7028 16.0091 17.6683 15.9258 17.6068 15.8643C17.5453 15.8028 17.4619 15.7683 17.375 15.7683ZM16.044 15.7683L16.1587 15.6076C16.1389 15.6601 16.1225 15.7137 16.1095 15.7683H16.044ZM17.375 18.0631C16.9105 18.0626 16.4611 17.8978 16.1065 17.5977C15.7519 17.2977 15.5149 16.8819 15.4375 16.4239H16.1095C16.1813 16.7004 16.3415 16.946 16.5656 17.1231C16.7897 17.3003 17.0656 17.3994 17.3512 17.4054C17.6369 17.4114 17.9166 17.324 18.148 17.1564C18.3794 16.9888 18.5497 16.7502 18.6331 16.4769C18.7164 16.2037 18.7082 15.9107 18.6098 15.6425C18.5113 15.3743 18.328 15.1456 18.0876 14.9911C17.8472 14.8367 17.563 14.765 17.2782 14.7869C16.9933 14.8089 16.7234 14.9232 16.5095 15.1126L17.2078 14.1291H17.375C17.8966 14.1291 18.3969 14.3363 18.7658 14.7052C19.1347 15.0741 19.3419 15.5744 19.3419 16.0961C19.3419 16.6178 19.1347 17.1181 18.7658 17.4869C18.3969 17.8558 17.8966 18.0631 17.375 18.0631Z" fill="#8E8E8E"/>
</g>
<defs>
<clipPath id="clip0_457_24547">
<rect width="20" height="20" fill="white" transform="translate(0 0.5)"/>
</clipPath>
</defs>
</svg>
