<svg width="24" height="24" viewBox="0 0 24 24" fill="none" xmlns="http://www.w3.org/2000/svg">
<path d="M10.3165 2.00199C10.2318 2.00709 10.1522 2.04412 10.0938 2.10561C10.0353 2.1671 10.0024 2.24847 10.0016 2.33331V3.45825C9.8794 3.5162 9.79122 3.57163 9.59848 3.76563C9.29614 4.06796 8.99884 4.5832 8.99884 5.33274V7.66829C8.99884 8.21628 9.45235 8.66601 10.0016 8.66601H10.3329V6.99433C10.3329 6.9058 10.3681 6.82089 10.4307 6.75828C10.4933 6.69568 10.5782 6.6605 10.6667 6.6605C10.7553 6.6605 10.8402 6.69568 10.9028 6.75828C10.9654 6.82089 11.0006 6.9058 11.0006 6.99433V8.66601H11.667V6.99433C11.6642 6.94885 11.6707 6.90328 11.6862 6.86043C11.7017 6.81757 11.7258 6.77834 11.757 6.74514C11.7882 6.71195 11.8259 6.6855 11.8677 6.66742C11.9095 6.64933 11.9546 6.64001 12.0002 6.64001C12.0457 6.64001 12.0908 6.64933 12.1326 6.66742C12.1745 6.6855 12.2121 6.71195 12.2434 6.74514C12.2746 6.77834 12.2987 6.81757 12.3141 6.86043C12.3296 6.90328 12.3362 6.94885 12.3334 6.99433V8.66601H13.001V6.99433C12.9982 6.94885 13.0048 6.90328 13.0203 6.86043C13.0357 6.81757 13.0598 6.77834 13.091 6.74514C13.1223 6.71195 13.1599 6.6855 13.2018 6.66742C13.2436 6.64933 13.2887 6.64001 13.3342 6.64001C13.3798 6.64001 13.4249 6.64933 13.4667 6.66742C13.5085 6.6855 13.5462 6.71195 13.5774 6.74514C13.6086 6.77834 13.6327 6.81757 13.6482 6.86043C13.6637 6.90328 13.6702 6.94885 13.6674 6.99433V8.66601H13.9987C14.2636 8.66502 14.5174 8.55953 14.7049 8.37247C14.8925 8.18541 14.9986 7.9319 15.0002 7.66703V5.334H16.3343C16.3423 5.02326 16.2746 4.71524 16.137 4.43652C15.9993 4.1578 15.796 3.91673 15.5444 3.73413C15.2749 3.53384 15.1476 3.47463 15.0002 3.42676V2.33331C15.0001 2.28947 14.9913 2.24609 14.9743 2.20565C14.9574 2.16521 14.9327 2.1285 14.9016 2.09762C14.8705 2.06674 14.8336 2.04229 14.793 2.02566C14.7524 2.00904 14.709 2.00057 14.6651 2.00073L10.3165 2.00199ZM7.6673 5.99914C6.75021 5.99914 6.00067 6.74743 6.00067 7.66577V10.6652H17.9997V7.66703C17.9997 6.74869 17.2514 6.0004 16.333 6.0004H15.6679V7.759C15.8657 7.87489 16.0005 8.08653 16.0005 8.33344V9.0011C16.0005 9.36894 15.7032 9.66624 15.3328 9.66624H8.66879C8.58113 9.66657 8.49426 9.64957 8.41319 9.61621C8.33212 9.58286 8.25844 9.5338 8.19639 9.47187C8.13434 9.40994 8.08515 9.33635 8.05164 9.25535C8.01813 9.17434 8.00096 9.0875 8.00113 8.99984V8.33218C8.00113 8.08653 8.13718 7.87615 8.33496 7.76025V6.0004L7.6673 5.99914ZM5.52953 11.3329L4.19672 12.6657H19.8049L18.4708 11.3329H5.52953ZM5.33427 21.9991H18.6661C19.3992 21.9991 20.0001 21.3982 20.0001 20.665V13.3333H4.00146V20.6789C4.00146 21.3931 4.6011 21.9991 5.33427 21.9991ZM12.0008 14.3336C12.5488 14.3336 12.9998 14.7833 12.9998 15.3325C12.9998 15.4837 12.962 15.6273 12.899 15.7583C13.9471 15.9788 14.582 16.5759 14.9171 17.1705C15.0809 17.4628 15.1804 17.7538 15.2408 18.0007H8.76201C8.82248 17.7538 8.92074 17.4628 9.08576 17.1705C9.4196 16.5759 10.0545 15.98 11.1001 15.7596C11.0345 15.6263 11.0001 15.4798 10.9993 15.3313C10.9993 14.7833 11.4528 14.3336 12.0008 14.3336ZM8.31733 18.6671H15.6679C15.8506 18.6671 15.9992 18.8157 15.9992 18.9984C15.9985 19.3514 15.8581 19.6899 15.6085 19.9396C15.359 20.1894 15.0207 20.3302 14.6677 20.3312H9.33393C8.98086 20.3298 8.64263 20.189 8.39297 19.9393C8.1433 19.6897 8.00246 19.3514 8.00113 18.9984C8.00113 18.827 8.12962 18.6834 8.31733 18.6671Z" fill="#847D79"/>
</svg>
