<svg width="49" height="48" viewBox="0 0 49 48" fill="none" xmlns="http://www.w3.org/2000/svg">
<path d="M36.3368 28.64C35.8188 29.142 35.5808 29.868 35.6988 30.58L37.4768 40.42C37.6268 41.254 37.2748 42.098 36.5768 42.58C35.8928 43.08 34.9828 43.14 34.2368 42.74L25.3788 38.12C25.0708 37.956 24.7288 37.868 24.3788 37.858H23.8368C23.6488 37.886 23.4648 37.946 23.2968 38.038L14.4368 42.68C13.9988 42.9 13.5028 42.978 13.0168 42.9C11.8328 42.676 11.0428 41.548 11.2368 40.358L13.0168 30.518C13.1348 29.8 12.8968 29.07 12.3788 28.56L5.15678 21.56C4.55278 20.974 4.34278 20.094 4.61878 19.3C4.88678 18.508 5.57078 17.93 6.39678 17.8L16.3368 16.358C17.0928 16.28 17.7568 15.82 18.0968 15.14L22.4768 6.16C22.5808 5.96 22.7148 5.776 22.8768 5.62L23.0568 5.48C23.1508 5.376 23.2588 5.29 23.3788 5.22L23.5968 5.14L23.9368 5H24.7788C25.5308 5.078 26.1928 5.528 26.5388 6.2L30.9768 15.14C31.2968 15.794 31.9188 16.248 32.6368 16.358L42.5768 17.8C43.4168 17.92 44.1188 18.5 44.3968 19.3C44.6588 20.102 44.4328 20.982 43.8168 21.56L36.3368 28.64Z" fill="#F17228"/>
</svg>
