<svg width="119" height="111" viewBox="0 0 119 111" fill="none" xmlns="http://www.w3.org/2000/svg">
<g clip-path="url(#clip0_440_24238)">
<path d="M104.264 23.0793V24.806" stroke="#D1D1D1" stroke-width="0.783988" stroke-linecap="round" stroke-linejoin="round"/>
<path d="M104.101 29.1253C103.379 32.7023 100.291 35.3872 96.5951 35.3872H88.2398C84.0061 35.3872 80.5738 31.862 80.5738 27.5138C80.5738 23.1656 77.1414 19.6404 72.9077 19.6404H46.9732C42.7395 19.6404 39.3071 16.1152 39.3071 11.767V10.826C39.3071 6.47782 35.8748 2.95264 31.6411 2.95264H23.2857C19.052 2.95264 15.6197 6.47782 15.6197 10.826V23.7929" stroke="black" stroke-width="0.783988" stroke-linecap="round" stroke-linejoin="round" stroke-dasharray="4.18 4.18"/>
<path d="M15.6197 25.9541V27.6807" stroke="black" stroke-width="0.783988" stroke-linecap="round" stroke-linejoin="round"/>
<path d="M23.0612 107.186H3.38617" stroke="#303030" stroke-width="0.783988" stroke-linecap="round" stroke-linejoin="round"/>
<path d="M1.56761 107.186H0.959595" stroke="#303030" stroke-width="0.783988" stroke-linecap="round" stroke-linejoin="round"/>
<path d="M20.4721 103.755H9.4942" stroke="#303030" stroke-width="0.783988" stroke-linecap="round" stroke-linejoin="round"/>
<path d="M18.8078 100.328H15.5464" stroke="#303030" stroke-width="0.783988" stroke-linecap="round" stroke-linejoin="round"/>
<path d="M89.7641 107.186H70.089" stroke="#303030" stroke-width="0.783988" stroke-linecap="round" stroke-linejoin="round"/>
<path d="M68.2677 107.186H67.6625" stroke="#303030" stroke-width="0.783988" stroke-linecap="round" stroke-linejoin="round"/>
<path d="M87.175 103.755H76.1971" stroke="#303030" stroke-width="0.783988" stroke-linecap="round" stroke-linejoin="round"/>
<path d="M103.804 4.07519C99.1102 4.11568 95.7009 8.54798 96.2373 13.3311M103.804 4.07519C108.101 4.03491 111.575 7.63384 111.575 12.0606C111.575 17.2365 108.144 20.8535 105.379 23.0176C104.485 23.7208 103.249 23.7105 102.36 23.0093M103.804 4.07519C103.804 4.07519 103.804 4.07519 103.804 4.07519L103.806 4.33651L103.804 4.07519C103.804 4.07519 103.804 4.07519 103.804 4.07519ZM96.2373 13.3311C96.7391 17.8257 99.8258 21.021 102.36 23.0093M96.2373 13.3311L96.497 13.3021L96.2373 13.3313C96.2373 13.3312 96.2373 13.3312 96.2373 13.3311ZM102.36 23.0093C102.36 23.0092 102.36 23.0091 102.359 23.0089L102.521 22.8038L102.36 23.0094C102.36 23.0094 102.36 23.0094 102.36 23.0093ZM103.871 15.7155C101.938 15.7155 100.357 14.0864 100.357 12.0606C100.357 10.0345 101.941 8.40017 103.871 8.40017C105.801 8.40017 107.39 10.0297 107.39 12.0606C107.39 14.0913 105.806 15.7155 103.871 15.7155Z" fill="#74CA45" stroke="black" stroke-width="0.522659"/>
<path d="M59.4247 48.6473C58.8335 46.984 57.326 40.3883 57.1523 37.9682C56.9786 35.548 57.0795 33.5221 57.9284 31.8962C58.7774 30.2703 60.1111 29.2344 60.1111 29.2344C62.7561 29.5624 64.2215 31.0962 65.4516 36.043C66.2109 39.0962 67.455 43.9941 67.455 43.9941C67.455 43.9941 71.4393 44.8459 73.7032 45.5739C74.9837 45.9826 75.3592 47.1193 75.3592 47.1193V51.6516C75.3592 51.6516 74.8492 52.8229 72.9831 52.9898C70.8481 53.1826 65.7346 52.5178 63.5827 52.1754C61.4308 51.8329 60.5034 51.6775 59.4275 48.6502L59.4247 48.6473Z" fill="white" stroke="#303030" stroke-width="0.522659" stroke-linecap="round" stroke-linejoin="round"/>
<path d="M74.3029 47.0675C78.9177 45.9106 79.8703 46.6502 80.3018 47.9711C80.7333 49.2919 81.1424 50.2703 79.0297 50.6905C76.9199 51.1106 74.5803 51.3898 74.5803 51.3898C74.5803 51.3898 72.7983 49.9078 74.3001 47.0703L74.3029 47.0675Z" fill="#FFC4B0"/>
<path opacity="0.2" d="M74.3029 47.0675C78.9177 45.9106 79.8703 46.6502 80.3018 47.9711C80.7333 49.2919 81.1424 50.2703 79.0297 50.6905C76.9199 51.1106 74.5803 51.3898 74.5803 51.3898C74.5803 51.3898 72.7983 49.9078 74.3001 47.0703L74.3029 47.0675Z" fill="#303030"/>
<path d="M70.7751 51.5653C71.7697 52.1667 73.2323 51.6545 73.9917 50.9926C74.779 50.6991 74.185 49.9049 73.7815 49.5308C72.4142 48.1351 68.9342 50.4488 70.7779 51.5624L70.7751 51.5653Z" fill="#FFC4B0"/>
<path opacity="0.2" d="M70.7751 51.5653C71.7697 52.1667 73.2323 51.6545 73.9917 50.9926C74.779 50.6991 74.185 49.9049 73.7815 49.5308C72.4142 48.1351 68.9342 50.4488 70.7779 51.5624L70.7751 51.5653Z" fill="#303030"/>
<path d="M67.4521 43.994C66.0568 43.7581 64.9752 43.7149 64.1066 43.994" stroke="#303030" stroke-width="0.522659" stroke-linecap="round" stroke-linejoin="round"/>
<path d="M76.6026 63.1856C77.149 57.905 76.2636 56.0288 72.4418 54.3281C68.732 52.6763 62.3773 51.7784 52.5173 49.4187H41.1135C38.7767 55.623 39.6621 59.7554 44.0359 62.3799C49.4408 65.623 61.5451 64.9986 63.372 65.0446C66.045 65.1137 66.9024 65.1137 67.9895 65.1137C67.7654 65.6748 67.5244 66.3424 67.3059 67.0849C66.7623 68.9381 66.8716 73.3525 66.7847 75.2748C66.5914 79.6633 66.7006 80.5727 66.2439 82.6504C66.0618 83.4734 65.1876 84.2043 64.9747 85.4964C64.871 86.1324 64.8121 87.0561 65.2521 87.7266C65.6107 88.2734 66.1991 88.5381 66.8407 88.5583C68.4799 88.6101 70.1302 88.3914 71.7525 88.636C72.7332 88.7827 73.683 89.0993 74.6525 89.318C75.5547 89.5223 76.4737 89.6432 77.3956 89.6777C78.4099 89.718 79.441 89.6432 80.4188 89.3554C81.1894 89.1281 82.6015 88.6619 82.7024 87.6921C82.7921 86.8374 81.7974 86.5698 81.1726 86.354C79.4746 85.7698 77.7934 85.0964 76.2272 84.2014C74.6637 83.3094 72.7752 82.046 73.0974 80.0691C73.3468 78.5324 73.6746 77.6633 74.5852 74.9698C75.4931 72.2763 76.1963 67.1281 76.6054 63.1856H76.6026Z" fill="#FFC4B0"/>
<path d="M70.0657 63.9397C69.4045 64.4001 68.7124 64.8433 67.9895 65.1138" stroke="#303030" stroke-width="0.522659" stroke-linecap="round" stroke-linejoin="round"/>
<path d="M66.7117 77.1886C66.3727 77.2836 66.2859 77.4418 66.3335 78.1641C66.3811 78.8864 66.4063 81.0016 65.8207 82.4087C65.2351 83.8159 64.7308 85.0447 64.8064 86.5843C64.8821 88.1239 65.6554 88.967 67.74 89.062C69.8247 89.1569 70.4103 88.6764 71.6992 88.8922C72.988 89.108 75.2828 90.0721 78.491 89.9023C81.6992 89.7325 82.7808 88.5728 82.918 87.7382C83.0553 86.9008 82.5202 86.4404 81.0211 86.0059C79.5221 85.5713 77.4263 84.8318 76.1318 83.8792C74.8373 82.9267 73.8987 82.2044 73.5961 81.603C73.2934 81.0015 73.4335 80.1411 73.6801 79.3095C73.9547 78.3829 74.1901 77.7181 73.7193 77.5569L73.5316 78.167C73.5316 78.167 72.9544 79.2174 69.8639 79.1569C67.4599 79.108 66.6865 77.9972 66.6865 77.9972L66.7145 77.1915L66.7117 77.1886Z" fill="#303030"/>
<path d="M76.908 89.4387H81.7778C82.7108 89.4387 83.4365 88.6646 83.4197 88.3308C83.3469 86.866 82.7585 86.2329 80.6682 85.666C79.3962 85.3207 78.6649 85.0329 77.5665 84.3768C76.2944 83.6171 74.0277 81.7495 73.5093 81.3063C72.8369 80.7279 71.1613 80.82 70.3516 82.0257L76.908 89.4358V89.4387Z" fill="#F17228"/>
<path d="M76.908 89.4388C76.8071 88.6359 76.5718 87.1827 76.4345 86.3827C76.4009 86.1899 76.3644 85.9913 76.2495 85.8359C76.1851 85.7467 76.0982 85.6776 76.0114 85.6086C74.2994 84.2532 72.4558 83.0762 70.514 82.1064C70.189 81.9452 69.836 81.7841 69.4801 81.8503C69.1971 81.905 68.9618 82.0949 68.7376 82.2791C68.3229 82.6215 67.7121 83.3697 66.7426 83.3323C65.7788 83.2978 66.0562 82.0057 66.0562 82.0057C66.0562 82.0057 66.1094 81.5999 66.1766 81.1193C65.4986 81.0416 65.4425 81.3553 65.3333 81.7208C65.1736 82.2503 65.1119 82.9006 64.8934 84.1265C64.7337 85.0158 64.5627 85.1078 64.5627 88.1294C64.7197 89.2345 65.804 89.4388 67.4795 89.4388H76.9108H76.908Z" fill="#F17228"/>
<path d="M75.5405 86.2099C76.1738 85.3753 77.7428 84.4832 78.9309 84.8919" stroke="#303030" stroke-width="0.522659" stroke-linecap="round" stroke-linejoin="round"/>
<path d="M76.9781 84.0027C76.4121 84.3192 76.0955 84.725 75.7117 85.3782" stroke="#303030" stroke-width="0.522659" stroke-linecap="round" stroke-linejoin="round"/>
<path d="M77.5665 84.3797C76.838 84.348 75.8097 84.5638 74.0725 84.8631" stroke="#303030" stroke-width="0.522659" stroke-linecap="round" stroke-linejoin="round"/>
<path d="M75.5462 83.0186C74.9802 83.3351 74.714 83.6574 74.3301 84.3106" stroke="#303030" stroke-width="0.522659" stroke-linecap="round" stroke-linejoin="round"/>
<path d="M76.1319 83.3955C75.4034 83.3639 74.3751 83.5797 72.6379 83.879" stroke="#303030" stroke-width="0.522659" stroke-linecap="round" stroke-linejoin="round"/>
<path d="M74.1423 81.8761C73.5763 82.1926 73.2289 82.7567 72.845 83.4099" stroke="#303030" stroke-width="0.522659" stroke-linecap="round" stroke-linejoin="round"/>
<path d="M74.6973 82.4114C73.9688 82.3798 72.9405 82.5956 71.2033 82.8949" stroke="#303030" stroke-width="0.522659" stroke-linecap="round" stroke-linejoin="round"/>
<path d="M64.8064 84.6905C64.9689 84.9265 65.1734 85.125 65.4368 85.2631C65.9636 85.5423 66.594 85.5998 67.16 85.4185C68.0482 85.1336 68.7347 84.3078 69.6565 84.1696C70.3262 84.0689 70.9902 84.3595 71.5982 84.6646C72.7218 85.2286 74.487 86.2847 74.714 86.6416C74.9409 86.9984 75.1259 88.1178 75.3052 89.197" stroke="#303030" stroke-width="0.522659" stroke-linecap="round" stroke-linejoin="round"/>
<path d="M82.778 90.5495C81.9486 90.7798 77.3674 90.7452 77.3674 90.7452H68.0062C66.2634 90.7452 65.336 90.6877 64.8905 90.0574C64.6299 89.6862 64.4842 89.0877 64.5599 88.1294C65.2828 88.7855 65.0978 88.9726 68.0763 88.9726C71.0547 88.9726 78.3201 88.9956 79.9004 88.9726C80.9987 88.9553 82.7079 89.1078 83.4168 88.3337C83.6774 88.6905 84.0416 90.2013 82.778 90.5495Z" fill="white" stroke="#303030" stroke-width="0.522659" stroke-linecap="round" stroke-linejoin="round"/>
<path d="M65.9145 65.9115C65.8769 65.9132 65.8358 65.9149 65.7914 65.9167C65.5241 65.9279 65.1365 65.9428 64.6553 65.9583C63.6929 65.9891 62.3553 66.0218 60.8542 66.0292C57.857 66.044 54.1907 65.958 51.5613 65.5502L51.5612 65.5502C50.447 65.377 48.5045 64.9634 46.5375 64.2664C44.5785 63.5722 42.5563 62.5837 41.3195 61.2418C38.2922 57.9599 38.5124 53.1232 40.6427 49.1681L40.7167 49.0307H40.8728H55.6529H55.6783L55.7033 49.0356L55.6529 49.292C55.7033 49.0356 55.7034 49.0356 55.7034 49.0356L55.7038 49.0357L55.7053 49.036L55.7112 49.0371L55.7343 49.0417L55.8245 49.0596C55.9037 49.0753 56.0204 49.0986 56.1703 49.1288C56.47 49.1891 56.9026 49.277 57.4344 49.3871C58.4979 49.6074 59.9584 49.917 61.5463 50.2741C64.7155 50.9867 68.4133 51.8931 70.4655 52.6587C72.5054 53.4196 73.8679 54.0866 74.8184 54.7906C75.7786 55.5018 76.3126 56.2465 76.705 57.1442L76.7051 57.1445C77.6549 59.3251 77.4207 61.8075 77.0077 64.9889L77.0073 64.9889C76.8639 66.0855 76.9038 67.498 76.9481 68.8655C76.9496 68.9139 76.9512 68.9621 76.9528 69.0104C76.9951 70.3085 77.036 71.5663 76.8999 72.3934C76.7152 73.5252 76.2321 74.2396 75.7828 74.6723C75.5595 74.8874 75.3468 75.0308 75.1876 75.1212C75.1079 75.1664 75.0414 75.1986 74.9934 75.2199C74.9694 75.2306 74.9499 75.2385 74.9357 75.2441L74.9183 75.2507L74.9127 75.2528L74.9107 75.2535L74.9099 75.2538L74.9096 75.2539C74.9094 75.2539 74.9093 75.254 74.8236 75.0071M65.9145 65.9115L66.006 68.1524C65.9813 68.4175 65.9491 68.6893 65.9146 68.9802C65.855 69.482 65.7887 70.041 65.7426 70.7222L65.4819 70.7045C65.4819 70.7045 65.4819 70.7046 65.4819 70.7046C65.474 70.8214 65.464 70.9395 65.454 71.0582C65.4185 71.4788 65.3823 71.9079 65.4335 72.3243C65.5021 72.8819 65.7241 73.4258 66.2665 73.986C67.6428 75.4085 69.8337 75.7061 71.6159 75.6716C72.5161 75.6542 73.3324 75.5517 73.9231 75.4537C74.2188 75.4047 74.4587 75.3567 74.6254 75.3208C74.7087 75.3028 74.7737 75.2879 74.8183 75.2773L74.8695 75.265L74.883 75.2616L74.8867 75.2607L74.8878 75.2604L74.8881 75.2603C74.8882 75.2603 74.8883 75.2603 74.8236 75.0071M65.9145 65.9115C65.9055 66.0493 65.8935 66.2293 65.8791 66.4364C65.8455 66.9175 65.7987 67.5441 65.7458 68.1285L65.9145 65.9115ZM74.8236 75.0071L74.9093 75.254L74.8989 75.2576L74.8883 75.2603L74.8236 75.0071Z" fill="#F17228" stroke="#303030" stroke-width="0.522659"/>
<path d="M45.6779 105.849C51.1658 100.173 51.1346 91.0024 45.6083 85.3661C40.0819 79.7297 31.153 79.7617 25.6651 85.4376C20.1771 91.1134 20.2083 100.284 25.7347 105.92C31.2611 111.556 40.1899 111.524 45.6779 105.849Z" fill="#303030" stroke="#303030" stroke-width="0.522659" stroke-linecap="round" stroke-linejoin="round"/>
<path d="M47.7785 105.789C53.2287 100.075 53.1367 90.9048 47.5731 85.3072C42.0095 79.7096 33.081 79.804 27.6308 85.5181C22.1806 91.2322 22.2726 100.402 27.8362 106C33.3998 111.597 42.3283 111.503 47.7785 105.789Z" fill="#74CA45" stroke="#303030" stroke-width="0.522659" stroke-linecap="round" stroke-linejoin="round"/>
<path d="M44.6132 102.744C48.4276 98.8261 48.4276 92.4744 44.6132 88.5568C40.7987 84.6392 34.6143 84.6392 30.7998 88.5568C26.9854 92.4744 26.9854 98.8261 30.7998 102.744C34.6143 106.661 40.7987 106.661 44.6132 102.744Z" fill="#303030" stroke="#303030" stroke-width="0.522659" stroke-linecap="round" stroke-linejoin="round"/>
<path d="M40.9306 98.8046C42.6299 96.9771 42.5649 94.0808 40.7855 92.3356C39.0061 90.5904 36.186 90.6571 34.4868 92.4846C32.7875 94.3122 32.8525 97.2085 34.6319 98.9537C36.4113 100.699 39.2314 100.632 40.9306 98.8046Z" fill="#D1D1D1"/>
<path d="M39.4994 95.6491C39.4994 96.6649 38.6953 97.4908 37.7062 97.4908C36.7171 97.4908 35.913 96.6649 35.913 95.6491C35.913 94.6333 36.7171 93.8074 37.7062 93.8074C38.6953 93.8074 39.4994 94.6333 39.4994 95.6491Z" fill="#F17228"/>
<path d="M38.3451 98.4288C34.8903 99.3928 33.2624 94.3799 36.4734 92.8633C38.0761 92.0864 40.1803 93.177 40.4157 94.9928C39.7572 92.7166 36.7088 92.2389 35.5207 94.259C34.2879 96.2504 36.0671 98.8432 38.3451 98.4288Z" fill="#F17228"/>
<path d="M37.2302 96.5611C37.3255 96.6474 37.4208 96.7165 37.53 96.7769C37.8411 96.9467 38.1941 96.9927 38.5331 96.9208C43.0246 95.928 50.1639 92.9409 52.5932 91.8906L51.6825 85.0503C46.4205 89.8877 40.1666 93.0474 37.6729 94.0086V94.0143C37.4712 94.0978 37.2779 94.2244 37.1182 94.4057C36.5718 95.0302 36.6222 95.9971 37.233 96.5611H37.2302Z" fill="white" stroke="#303030" stroke-width="0.522659" stroke-linecap="round" stroke-linejoin="round"/>
<path d="M38.7209 95.4733C38.7209 95.7956 38.4659 96.0603 38.1493 96.0603C37.8327 96.0603 37.5777 95.7985 37.5777 95.4733C37.5777 95.1481 37.8327 94.8862 38.1493 94.8862C38.4659 94.8862 38.7209 95.1481 38.7209 95.4733Z" fill="#303030"/>
<path d="M112.471 105.789C117.921 100.075 117.829 90.9051 112.265 85.3075C106.702 79.7099 97.7734 79.8043 92.3232 85.5184C86.873 91.2324 86.965 100.402 92.5286 106C98.0922 111.598 107.021 111.503 112.471 105.789Z" fill="#303030" stroke="#303030" stroke-width="0.522659" stroke-linecap="round" stroke-linejoin="round"/>
<path d="M114.44 105.848C119.928 100.172 119.897 91.0017 114.37 85.3653C108.844 79.729 99.9149 79.761 94.427 85.4368C88.939 91.1127 88.9702 100.283 94.4966 105.919C100.023 111.556 108.952 111.524 114.44 105.848Z" fill="#74CA45" stroke="#303030" stroke-width="0.522659" stroke-linecap="round" stroke-linejoin="round"/>
<path d="M111.273 102.81C115.126 98.9319 115.187 92.5805 111.411 88.6241C107.635 84.6677 101.45 84.6045 97.5982 88.483C93.746 92.3614 93.6845 98.7128 97.4608 102.669C101.237 106.626 107.421 106.689 111.273 102.81Z" fill="#303030" stroke="#303030" stroke-width="0.522659" stroke-linecap="round" stroke-linejoin="round"/>
<path d="M107.616 98.844C109.338 97.0383 109.308 94.1413 107.549 92.3736C105.791 90.6059 102.97 90.6367 101.249 92.4425C99.5281 94.2483 99.5581 97.1452 101.316 98.9129C103.075 100.681 105.895 100.65 107.616 98.844Z" fill="#D1D1D1"/>
<path d="M106.227 95.649C106.227 96.6648 105.423 97.4907 104.434 97.4907C103.445 97.4907 102.641 96.6648 102.641 95.649C102.641 94.6332 103.445 93.8073 104.434 93.8073C105.423 93.8073 106.227 94.6332 106.227 95.649Z" fill="#F17228"/>
<path d="M105.073 98.4287C101.618 99.3927 99.9899 94.3798 103.201 92.8632C104.804 92.0862 106.908 93.1769 107.143 94.9927C106.485 92.7165 103.436 92.2388 102.248 94.2589C101.015 96.2503 102.795 98.8431 105.073 98.4287Z" fill="#F17228"/>
<path d="M104.662 96.9554C104.538 96.9842 104.421 97.0014 104.3 97.0014C103.947 97.0014 103.614 96.8719 103.35 96.6446C99.8394 93.6 94.9024 87.5194 93.2381 85.4216L97.172 79.8245C99.6069 86.636 103.681 92.4403 105.443 94.4921L105.438 94.4979C105.581 94.6676 105.693 94.8748 105.751 95.1108C105.948 95.9252 105.463 96.7568 104.664 96.9554H104.662Z" fill="white" stroke="#303030" stroke-width="0.522659" stroke-linecap="round" stroke-linejoin="round"/>
<path d="M104.877 95.4734C104.877 95.7957 104.622 96.0605 104.306 96.0605C103.989 96.0605 103.734 95.7986 103.734 95.4734C103.734 95.1482 103.989 94.8864 104.306 94.8864C104.622 94.8864 104.877 95.1482 104.877 95.4734Z" fill="#303030"/>
<path d="M90.4642 88.8117C91.2011 89.4966 92.3527 89.3844 92.9439 88.5642C95.2218 85.3988 98.7074 83.0765 102.983 83.0765C106.617 83.0765 108.814 83.7527 109.795 84.1527C110.215 84.3225 110.683 84.311 111.098 84.1182L112.93 83.2721C113.995 82.7801 114.264 81.3556 113.454 80.4923C111.84 78.7772 108.898 76.5239 104.681 76.7052C98.9652 76.947 95.3171 78.4491 92.0949 83.1225C91.2375 84.3657 90.5707 85.6146 90.0579 86.829C89.7693 87.5139 89.929 88.3081 90.467 88.8117H90.4642Z" fill="#F17228" stroke="#303030" stroke-width="0.522659"/>
<path d="M99.8445 77.3671C96.7063 78.2045 94.2966 79.9167 92.0887 83.1225C91.2313 84.3656 90.5645 85.6145 90.0517 86.8289C89.7631 87.5138 89.9229 88.3081 90.4608 88.8117C90.6626 88.9987 90.8923 89.1196 91.1361 89.1915L99.8416 77.3671H99.8445Z" fill="#303030"/>
<path d="M105.045 78.1786C107.401 77.9052 110.803 79.4448 112.504 81.4304" stroke="white" stroke-width="0.522659" stroke-linecap="round" stroke-linejoin="round"/>
<path d="M88.8893 56.3194L88.074 54.4921C87.7882 53.8504 87.0541 53.5626 86.4236 53.8417L83.5433 55.1137C82.9016 55.3986 82.6074 56.1612 82.882 56.8202L83.9664 59.413L97.0345 59.7842V57.5684C97.0345 57.5684 94.919 56.3338 88.8921 56.3252L88.8893 56.3194Z" fill="#303030" stroke="#303030" stroke-width="0.522659" stroke-linecap="round" stroke-linejoin="round"/>
<path d="M89.9705 54.7827L89.4942 57.2431C90.6346 57.2633 91.7189 57.3928 92.7416 57.6518L93.4533 54.869C92.2317 54.8777 90.9876 54.918 89.9705 54.7827Z" fill="#303030"/>
<path d="M83.8869 50.0425L82.7506 50.5485L84.9051 55.652L86.0413 55.146L83.8869 50.0425Z" fill="#303030" stroke="#303030" stroke-width="0.522659" stroke-linecap="round" stroke-linejoin="round"/>
<path d="M27.429 72.7656L24.3553 71.1886L23.0609 75.2922L24.8093 75.5569L27.429 72.7656Z" fill="#303030" stroke="#303030" stroke-width="0.522659" stroke-linecap="round" stroke-linejoin="round"/>
<path d="M21.8366 73.4188L22.3073 71.9339C22.5426 71.1886 23.3356 70.7973 24.0501 71.0706L24.3611 71.1886L23.0638 75.2922L22.6435 75.1311C21.9711 74.875 21.618 74.1181 21.8394 73.4188H21.8366Z" fill="#D1D1D1" stroke="#303030" stroke-width="0.522659" stroke-linecap="round" stroke-linejoin="round"/>
<path d="M78.1524 90.5297H59.2114V92.1584H78.1524V90.5297Z" fill="#303030" stroke="#303030" stroke-width="0.522659" stroke-linecap="round" stroke-linejoin="round"/>
<path d="M53.8457 92.1584L49.1749 84.426L59.7774 76.6936V92.1584H53.8457Z" fill="#303030" stroke="#303030" stroke-width="0.522659" stroke-linecap="round" stroke-linejoin="round"/>
<path d="M104.504 74.8L100.349 74.4546C98.8359 74.328 97.6703 73.0331 97.6703 71.4733C97.6703 69.9165 98.8359 68.6187 100.349 68.4921L104.504 68.1467C105.992 70.3626 105.992 72.5784 104.504 74.7971V74.8Z" fill="#303030"/>
<path d="M104.067 74.0863C105.235 72.3453 105.235 70.6043 104.067 68.8662C103.311 70.6072 103.311 72.3482 104.067 74.0863Z" fill="white"/>
<path d="M24.6869 81.7847L24.8289 81.8874C25.0511 82.0482 25.1046 82.365 24.9481 82.5932L19.1281 91.0792C18.9716 91.3074 18.6632 91.3623 18.441 91.2016L18.2989 91.0989C18.0767 90.9381 18.0232 90.6213 18.1798 90.3931L23.9997 81.9071C24.1562 81.6789 24.4647 81.624 24.6869 81.7847Z" fill="#303030" stroke="#303030" stroke-width="0.522659" stroke-linecap="round" stroke-linejoin="round"/>
<path d="M34.669 73.1713C34.5514 73.1713 34.4309 73.1195 34.3496 73.0217L25.5208 62.472C25.3695 62.2907 25.3891 62.0174 25.5656 61.8591C25.7421 61.7037 26.0083 61.7238 26.1624 61.9051L34.9913 72.4548C35.1426 72.6361 35.1229 72.9095 34.9464 73.0677C34.868 73.1368 34.7699 73.1713 34.6718 73.1713H34.669Z" fill="#303030" stroke="#303030" stroke-width="0.522659" stroke-linecap="round" stroke-linejoin="round"/>
<path d="M29.2559 73.1713C29.1382 73.1713 29.0177 73.1195 28.9365 73.0217L20.1076 62.472C19.9563 62.2907 19.9759 62.0174 20.1525 61.8591C20.329 61.7037 20.5952 61.7238 20.7493 61.9051L29.5781 72.4548C29.7294 72.6361 29.7098 72.9095 29.5333 73.0677C29.4548 73.1368 29.3568 73.1713 29.2587 73.1713H29.2559Z" fill="#303030" stroke="#303030" stroke-width="0.522659" stroke-linecap="round" stroke-linejoin="round"/>
<path d="M14.0638 61.465H32.0577C32.4444 61.465 32.7582 61.7873 32.7582 62.1844C32.7582 62.5815 32.4444 62.9038 32.0577 62.9038H14.0638C13.6772 62.9038 13.3633 62.5815 13.3633 62.1844C13.3633 61.7873 13.6772 61.465 14.0638 61.465Z" fill="#303030" stroke="#303030" stroke-width="0.522659" stroke-linecap="round" stroke-linejoin="round"/>
<path d="M27.2076 61.4649H10.1748C9.48549 61.4649 8.92511 60.7857 8.92511 59.9455V42.3714C8.92511 41.5339 9.48549 40.8519 10.1748 40.8519H27.2076C27.8969 40.8519 28.4573 41.5311 28.4573 42.3714V59.9455C28.4573 60.7829 27.8969 61.4649 27.2076 61.4649Z" fill="#303030" stroke="#303030" stroke-width="0.522659" stroke-linecap="round" stroke-linejoin="round"/>
<path d="M33.8396 61.4648H16.8068C16.1175 61.4648 15.5571 60.7856 15.5571 59.9453V42.3712C15.5571 41.5338 16.1175 40.8518 16.8068 40.8518H33.8396C34.5289 40.8518 35.0893 41.5309 35.0893 42.3712V59.9453C35.0893 60.7827 34.5289 61.4648 33.8396 61.4648Z" fill="#F17228" stroke="#303030" stroke-width="0.522659" stroke-linecap="round" stroke-linejoin="round"/>
<path d="M25.4562 40.5614H8.4233C7.73403 40.5614 7.17365 39.8823 7.17365 39.042V33.2894C7.17365 32.452 7.73403 31.77 8.4233 31.77H25.4562C26.1454 31.77 26.7058 32.4492 26.7058 33.2894V39.042C26.7058 39.8794 26.1454 40.5614 25.4562 40.5614Z" fill="#303030" stroke="#303030" stroke-width="0.522659" stroke-linecap="round" stroke-linejoin="round"/>
<path d="M31.0461 40.5614H14.0133C13.324 40.5614 12.7636 39.8823 12.7636 39.042V33.2894C12.7636 32.452 13.324 31.77 14.0133 31.77H31.0461C31.7354 31.77 32.2958 32.4492 32.2958 33.2894V39.042C32.2958 39.8794 31.7354 40.5614 31.0461 40.5614Z" fill="#D1D1D1" stroke="#303030" stroke-width="0.522659" stroke-linecap="round" stroke-linejoin="round"/>
<path d="M24.5067 31.2924H25.5855C26.3111 31.2924 26.9024 31.8967 26.9024 32.6449V61.6924" stroke="white" stroke-width="0.522659" stroke-linecap="round" stroke-linejoin="round"/>
<path d="M22.7778 31.2922H23.8566C24.5823 31.2922 25.1735 31.8966 25.1735 32.6448V61.6922" stroke="white" stroke-width="0.522659" stroke-linecap="round" stroke-linejoin="round"/>
<path d="M104.751 65.4474L87.0452 94.4978C85.011 97.8359 81.433 99.8503 77.5971 99.8158L56.1344 99.623C54.8652 99.6057 53.8425 98.5438 53.8425 97.2402V92.1582H74.1648C75.5461 92.1582 76.7818 91.2805 77.2749 89.9568L84.5655 70.2618C84.955 69.2086 84.9578 68.0431 84.5739 66.987L83.0609 62.8431C82.6518 61.7208 82.7106 60.4489 83.313 59.4215C83.6437 58.8575 84.1452 58.328 84.9073 58.0028C87.1993 57.033 90.3655 57.1223 92.7247 57.5625C95.0839 58.0028 96.0253 58.5553 96.2299 58.0719C96.4316 57.5884 94.899 56.7913 93.753 56.5151L94.008 55.9971C94.008 55.9971 97.2414 56.6187 100.814 59.1798C102.954 60.7136 104.151 62.3222 104.765 63.3669C105.143 64.0086 105.143 64.8115 104.756 65.4503L104.751 65.4474Z" fill="white" stroke="#303030" stroke-width="0.522659" stroke-linecap="round" stroke-linejoin="round"/>
<path d="M100.811 59.177C97.2386 56.6158 93.5092 55.6086 93.5092 55.6086L93.3635 56.2158C94.5095 56.4921 96.7847 57.4705 96.2299 58.0691C95.8768 58.4489 95.0839 58 92.7247 57.5597C90.3655 57.1194 87.1993 57.0302 84.9073 58C84.1424 58.3223 83.6409 58.8547 83.3131 59.4187C83.2458 59.5367 83.187 59.6547 83.1309 59.7784C87.5776 61.7928 91.377 63.7151 94.6664 67.7381C97.233 70.8777 99.0991 73.8302 97.4936 77.3525L104.751 65.4475C105.14 64.8115 105.14 64.0058 104.759 63.364C104.143 62.3194 102.946 60.7137 100.808 59.1799L100.811 59.177Z" fill="#74CA45" stroke="#74CA45" stroke-width="0.522659" stroke-linecap="round" stroke-linejoin="round"/>
<path d="M91.4609 58.2302C93.9378 59.1971 96.6557 61.0619 99.2699 63.8935C102.512 62.8115 103.731 61.8964 103.731 61.8964" stroke="#303030" stroke-width="0.522659" stroke-linecap="round" stroke-linejoin="round"/>
<path d="M87.0618 59.4073C87.0618 59.6318 86.8853 59.8131 86.6667 59.8131C86.4482 59.8131 86.2717 59.6318 86.2717 59.4073C86.2717 59.1829 86.4482 59.0016 86.6667 59.0016C86.8853 59.0016 87.0618 59.1829 87.0618 59.4073Z" fill="#303030" stroke="#303030" stroke-width="0.522659" stroke-linecap="round" stroke-linejoin="round"/>
<path d="M89.4098 59.4073C89.4098 59.6318 89.2333 59.8131 89.0147 59.8131C88.7962 59.8131 88.6196 59.6318 88.6196 59.4073C88.6196 59.1829 88.7962 59.0016 89.0147 59.0016C89.2333 59.0016 89.4098 59.1829 89.4098 59.4073Z" fill="#303030" stroke="#303030" stroke-width="0.522659" stroke-linecap="round" stroke-linejoin="round"/>
<path d="M91.2424 68.1495C94.6691 73.1682 93.5035 76.0661 91.7327 78.1467C89.1606 81.1682 84.7363 85.6172 84.7363 85.6172" stroke="#303030" stroke-width="0.522659" stroke-linecap="round" stroke-linejoin="round"/>
<path d="M103.994 64.2677C103.378 63.2231 102.181 61.6173 100.043 60.0835C99.2223 59.4964 98.421 59.0101 97.6729 58.6101" stroke="white" stroke-width="0.522659" stroke-linecap="round" stroke-linejoin="round"/>
<path d="M18.8888 82.374L39.3091 90.3797C39.9984 90.6503 40.7745 90.5495 41.377 90.1093L59.7772 76.6934C60.6598 76.0488 61.1333 74.961 61.0128 73.856L60.9708 73.4704C60.8195 72.092 59.7828 70.9898 58.4463 70.7884L38.1744 67.715C35.6919 67.338 33.1645 67.9884 31.1472 69.5222L20.7184 77.456C20.4074 77.692 20.3878 78.1639 20.6792 78.4258L21.3152 79.0013L18.7066 80.9869C18.2135 81.361 18.32 82.1495 18.8916 82.374H18.8888Z" fill="white" stroke="#303030" stroke-width="0.522659" stroke-linecap="round" stroke-linejoin="round"/>
<path d="M22.2119 80.7422L41.0015 88.1091" stroke="#303030" stroke-width="0.522659" stroke-linecap="round" stroke-linejoin="round"/>
<path d="M60.9707 73.4704C60.8194 72.092 59.7827 70.9898 58.4462 70.7884L38.1743 67.715C35.6918 67.338 33.1645 67.9884 31.1471 69.5222L20.7183 77.456C20.4073 77.692 20.3877 78.1639 20.6791 78.4258L21.3152 79.0013L30.7408 71.833C31.3993 71.3323 32.1754 71.0215 32.9879 70.9323C33.6912 70.8546 34.3973 70.9467 35.0614 71.197C37.3393 72.0603 42.8983 74.1726 45.5714 75.197C52.7023 77.9308 52.2175 82.2042 48.3201 85.0445L59.7799 76.6905C60.6653 76.0459 61.136 74.9582 61.0155 73.8531L60.9735 73.4675L60.9707 73.4704Z" fill="#74CA45" stroke="#74CA45" stroke-width="0.522659" stroke-linecap="round" stroke-linejoin="round"/>
<path d="M32.4865 66.8516L61.5845 71.2631C62.5147 71.4041 63.3497 70.6645 63.3497 69.7005V65.289C63.3497 64.417 62.6604 63.7091 61.8114 63.7091H32.7135C31.8645 63.7091 31.1752 64.417 31.1752 65.289C31.1752 66.0717 31.7356 66.7393 32.4893 66.8516H32.4865Z" fill="#303030" stroke="#303030" stroke-width="0.522659" stroke-linecap="round" stroke-linejoin="round"/>
<path d="M37.1263 69.3524L57.8213 72.4891" stroke="white" stroke-width="0.522659" stroke-linecap="round" stroke-linejoin="round"/>
<path d="M45.8908 73.4271C51.2733 74.3825 56.059 75.1998 57.1209 75.4732C58.1828 75.7465 59.0934 77.1883 57.1209 78.6127" stroke="#303030" stroke-width="0.522659" stroke-linecap="round" stroke-linejoin="round"/>
<path d="M90.4079 45.2863C86.8102 45.4532 83.7729 46.4058 83.8093 50.4086C83.8458 54.4086 87.9029 54.7885 91.1336 54.8576C95.2047 54.9468 97.5864 54.6245 98.9201 53.3496C100.38 51.9568 99.332 48.4 97.2277 46.8432C95.5186 45.5799 93.3134 45.1511 90.4079 45.2863Z" fill="#74CA45" stroke="#74CA45" stroke-width="0.522659" stroke-linecap="round" stroke-linejoin="round"/>
<path d="M95.2943 45.8303C95.1234 45.9051 94.9693 46.003 94.8432 46.1354C94.4873 46.5037 94.4425 47.0994 94.5854 47.5972C95.0897 49.344 96.981 50.8807 96.6252 52.8404C96.4851 53.6203 95.9051 54.2591 95.2326 54.6476C95.1654 54.6879 95.0953 54.7224 95.0281 54.7569C96.8409 54.5728 98.085 54.1469 98.92 53.3497C100.38 51.9569 99.3318 48.4001 97.2276 46.8433C96.6448 46.4116 96.0004 46.0807 95.2915 45.8332L95.2943 45.8303Z" fill="white" stroke="#303030" stroke-width="0.522659" stroke-linecap="round" stroke-linejoin="round"/>
<path d="M85.975 47.6231C87.9727 46.5123 90.332 46.1066 92.5735 46.4893C92.6772 46.5066 92.7864 46.5296 92.8565 46.6073C92.9293 46.685 92.9658 46.7972 92.9658 46.9066C92.9658 48.8807 93.6354 49.2951 94.6105 50.8548C95.1513 51.721 95.1513 52.5411 94.5096 53.1857" stroke="#303030" stroke-width="0.522659" stroke-linecap="round" stroke-linejoin="round"/>
<path d="M53.8453 95.4734C55.628 95.4734 57.0731 93.9891 57.0731 92.1583C57.0731 90.3274 55.628 88.8431 53.8453 88.8431C52.0626 88.8431 50.6175 90.3274 50.6175 92.1583C50.6175 93.9891 52.0626 95.4734 53.8453 95.4734Z" fill="white" stroke="#303030" stroke-width="0.522659" stroke-linecap="round" stroke-linejoin="round"/>
<path d="M55.434 92.1581C55.434 93.0589 54.7223 93.7898 53.8453 93.7898C52.9683 93.7898 52.2567 93.0589 52.2567 92.1581C52.2567 91.2574 52.9683 90.5265 53.8453 90.5265C54.7223 90.5265 55.434 91.2574 55.434 92.1581Z" fill="#F17228" stroke="#F17228" stroke-width="0.522659" stroke-linecap="round" stroke-linejoin="round"/>
<path d="M31.6064 71.5914C33.027 71.5914 34.1786 70.4087 34.1786 68.9497C34.1786 67.4907 33.027 66.308 31.6064 66.308C30.1858 66.308 29.0342 67.4907 29.0342 68.9497C29.0342 70.4087 30.1858 71.5914 31.6064 71.5914Z" fill="white" stroke="#303030" stroke-width="0.522659" stroke-linecap="round" stroke-linejoin="round"/>
<path d="M32.873 68.9496C32.873 69.6691 32.307 70.2504 31.6065 70.2504C30.906 70.2504 30.34 69.6691 30.34 68.9496C30.34 68.2302 30.906 67.6489 31.6065 67.6489C32.307 67.6489 32.873 68.2302 32.873 68.9496Z" fill="#F17228" stroke="#F17228" stroke-width="0.522659" stroke-linecap="round" stroke-linejoin="round"/>
<path d="M79.8134 51.1713V49.413H85.6946C86.0953 49.413 86.4231 49.7468 86.4231 50.1612V50.4231C86.4231 50.8346 86.0981 51.1713 85.6946 51.1713H79.8134Z" fill="#303030" stroke="#303030" stroke-width="0.522659" stroke-linecap="round" stroke-linejoin="round"/>
<path d="M79.7264 47.9425H79.5527C79.2835 47.9425 79.0652 48.1667 79.0652 48.4432V52.1382C79.0652 52.4147 79.2835 52.6389 79.5527 52.6389H79.7264C79.9957 52.6389 80.214 52.4147 80.214 52.1382V48.4432C80.214 48.1667 79.9957 47.9425 79.7264 47.9425Z" fill="#F17228"/>
<path d="M73.0048 49.0188H79.0653V51.5656H73.0048C72.705 51.5656 72.464 51.3181 72.464 51.0102V49.5742C72.464 49.2663 72.705 49.0188 73.0048 49.0188Z" fill="#F17228"/>
<path d="M79.0652 49.0188V51.5656" stroke="#303030" stroke-width="0.522659" stroke-linecap="round" stroke-linejoin="round"/>
<path d="M83.1199 43.8042C84.1174 45.3121 83.6859 47.1797 82.2905 50.043" stroke="#303030" stroke-width="0.522659" stroke-linecap="round" stroke-linejoin="round"/>
<path d="M81.7105 41.4504C81.6545 41.5482 81.6096 41.6461 81.5704 41.741C81.2986 42.3972 81.0997 43.1511 81.0156 43.8619C80.8867 44.9238 81.4891 45.8015 82.4166 44.8605C83.1899 44.0777 85.3138 40.5094 83.3048 40.3339C82.6379 40.2763 82.0411 40.8662 81.7133 41.4504H81.7105Z" fill="#303030" stroke="#303030" stroke-width="0.522659" stroke-linecap="round" stroke-linejoin="round"/>
<path d="M70.0665 63.9394C70.7277 59.4071 70.0833 56.6589 66.9984 55.0761C65.0342 54.0661 56.183 52.3394 56.183 52.3394C56.183 52.3394 55.2527 50.4948 50.7528 49.4186H39.3827C37.0459 55.6229 37.3849 60.3538 41.7335 63.0215C45.6814 65.4445 54.8773 64.9984 56.7013 65.0445C59.3743 65.1135 60.2317 65.1135 61.3189 65.1135C61.0947 65.6747 60.8538 66.3423 60.6352 67.0848C60.0916 68.938 60.2009 73.3524 60.114 75.2747C59.9207 79.6632 60.03 80.5725 59.5733 82.6502C59.3912 83.4733 58.517 84.2042 58.304 85.4963C58.2003 86.1323 58.1415 87.056 58.5814 87.7265C58.94 88.2733 59.5285 88.538 60.1701 88.5582C61.8092 88.61 63.4595 88.3912 65.0819 88.6358C66.0625 88.7826 67.0124 89.0992 67.9818 89.3179C68.8841 89.5222 69.8031 89.643 70.7249 89.6776C71.7392 89.7179 72.7703 89.643 73.7482 89.3553C74.5187 89.1279 75.9309 88.6617 76.0317 87.692C76.1214 86.8373 75.1295 86.5697 74.5019 86.3538C72.8039 85.7697 71.1228 85.0963 69.5565 84.2013C67.993 83.3092 66.1045 82.0459 66.4268 80.0689C66.6761 78.5323 66.9311 77.243 67.8389 74.5495C68.7468 71.856 69.4921 67.8617 70.0637 63.9394H70.0665Z" fill="#FFC4B0"/>
<path d="M66.4297 80.0689C66.6791 78.5322 66.934 77.243 67.8419 74.5495C68.7497 71.856 69.5342 67.4329 70.5961 63.62" stroke="#303030" stroke-width="0.522659" stroke-linecap="round" stroke-linejoin="round"/>
<path d="M63.3981 63.9396C62.7368 64.4 62.0447 64.8432 61.3218 65.1137" stroke="#303030" stroke-width="0.522659" stroke-linecap="round" stroke-linejoin="round"/>
<path d="M60.0441 77.1885C59.705 77.2834 59.6182 77.4417 59.6658 78.164C59.7134 78.8863 59.7387 81.0014 59.1531 82.4086C58.5675 83.8158 58.0631 85.0446 58.1388 86.5842C58.2144 88.1237 58.9877 88.9669 61.0724 89.0619C63.157 89.1568 63.7426 88.6763 65.0315 88.8921C66.3204 89.1079 68.6151 90.0719 71.8233 89.9022C75.0315 89.7324 76.1131 88.5727 76.2504 87.7381C76.3877 86.9007 75.8525 86.4403 74.3535 86.0057C72.8544 85.5712 70.7614 84.8316 69.4641 83.8791C68.1668 82.9266 67.231 82.2043 66.9284 81.6029C66.6258 81.0014 66.7659 80.141 67.0124 79.3093C67.287 78.3827 67.5224 77.718 67.0517 77.5568L66.8639 78.1669C66.8639 78.1669 66.2867 79.2173 63.1962 79.1568C60.7922 79.1079 60.0189 77.9971 60.0189 77.9971L60.0469 77.1914L60.0441 77.1885Z" fill="#303030"/>
<path d="M70.2403 89.4387H75.1101C76.0431 89.4387 76.7688 88.6646 76.752 88.3308C76.6791 86.866 76.0907 86.2329 74.0005 85.666C72.7284 85.3207 71.9971 85.0329 70.8988 84.3768C69.6267 83.6171 67.36 81.7495 66.8416 81.3063C66.1691 80.7279 64.4936 80.82 63.6838 82.0257L70.2403 89.4358V89.4387Z" fill="#F17228"/>
<path d="M76.7519 88.3336C76.6791 86.8689 76.0907 86.2358 74.0004 85.6689C72.7284 85.3236 71.9971 85.0358 70.8987 84.3797C70.1198 83.9164 69.0775 83.1221 68.1837 82.4084" stroke="#303030" stroke-width="0.522659" stroke-linecap="round" stroke-linejoin="round"/>
<path d="M70.2403 89.4388C70.1394 88.6359 69.904 87.1827 69.7668 86.3827C69.7331 86.1899 69.6967 85.9913 69.5818 85.8359C69.5174 85.7467 69.4305 85.6776 69.3437 85.6086C67.6317 84.2532 65.788 83.0762 63.8463 82.1064C63.5213 81.9452 63.1682 81.7841 62.8124 81.8503C62.5294 81.905 62.294 82.0949 62.0699 82.2791C61.6552 82.6215 61.0444 83.3697 60.0749 83.3323C59.1111 83.2978 59.3884 82.0057 59.3884 82.0057C59.3884 82.0057 59.4417 81.5999 59.5089 81.1193C58.8309 81.0416 58.7748 81.3553 58.6655 81.7208C58.5058 82.2503 58.4442 82.9006 58.2256 84.1265C58.0659 85.0158 57.895 85.1078 57.895 88.1294C58.0519 89.2345 59.1363 89.4388 60.8118 89.4388H70.2431H70.2403Z" fill="#F17228"/>
<path d="M69.1532 86.3336C69.7864 85.4991 71.1342 84.7048 72.3222 85.1135" stroke="#303030" stroke-width="0.522659" stroke-linecap="round" stroke-linejoin="round"/>
<path d="M70.3129 84.0028C69.7469 84.3194 69.4303 84.7251 69.0464 85.3783" stroke="#303030" stroke-width="0.522659" stroke-linecap="round" stroke-linejoin="round"/>
<path d="M70.8988 84.3797C70.1703 84.348 69.142 84.5638 67.4048 84.8631" stroke="#303030" stroke-width="0.522659" stroke-linecap="round" stroke-linejoin="round"/>
<path d="M68.8784 83.0186C68.3125 83.3351 68.0463 83.6574 67.6624 84.3106" stroke="#303030" stroke-width="0.522659" stroke-linecap="round" stroke-linejoin="round"/>
<path d="M69.4642 83.3955C68.7357 83.3639 67.7074 83.5797 65.9702 83.879" stroke="#303030" stroke-width="0.522659" stroke-linecap="round" stroke-linejoin="round"/>
<path d="M67.4746 81.8761C66.9086 82.1926 66.5612 82.7567 66.1773 83.4099" stroke="#303030" stroke-width="0.522659" stroke-linecap="round" stroke-linejoin="round"/>
<path d="M68.0296 82.4114C67.3011 82.3798 66.2728 82.5956 64.5356 82.8949" stroke="#303030" stroke-width="0.522659" stroke-linecap="round" stroke-linejoin="round"/>
<path d="M58.1387 84.6905C58.3012 84.9265 58.5057 85.125 58.7691 85.2631C59.2959 85.5423 59.9263 85.5998 60.4923 85.4185C61.3805 85.1336 62.067 84.3078 62.9888 84.1696C63.6585 84.0689 64.3225 84.3595 64.9305 84.6646C66.0541 85.2286 67.8193 86.2847 68.0463 86.6416C68.2732 86.9984 68.4581 88.1178 68.6375 89.197" stroke="#303030" stroke-width="0.522659" stroke-linecap="round" stroke-linejoin="round"/>
<path d="M76.1103 90.5495C75.2809 90.7798 70.6998 90.7452 70.6998 90.7452H61.3386C59.5958 90.7452 58.6683 90.6877 58.2228 90.0574C57.9623 89.6862 57.8166 89.0877 57.8922 88.1294C58.6151 88.7855 58.4302 88.9726 61.4086 88.9726C64.3871 88.9726 71.6524 88.9956 73.2327 88.9726C74.3311 88.9553 76.0402 89.1078 76.7491 88.3337C77.0097 88.6905 77.3739 90.2013 76.1103 90.5495Z" fill="white" stroke="#303030" stroke-width="0.522659" stroke-linecap="round" stroke-linejoin="round"/>
<path d="M70.2903 72.9981C70.3696 72.5217 70.3807 72.0404 70.3863 71.5804C70.4072 70.0301 70.5382 68.1928 70.6784 66.3467C70.693 66.1532 70.7078 65.9597 70.7226 65.7664C70.841 64.2169 70.9583 62.6827 71.0126 61.3404H71.0161L71.025 61.0882C71.0645 59.9636 71.0245 58.7788 70.6193 57.6874L70.6192 57.687C70.0227 56.0875 68.6641 54.807 67.1578 54.2581C63.8801 53.0605 61.0827 52.4672 56.9459 51.6662L55.8908 49.184L55.8226 49.0236L55.6483 49.0249L38.5258 49.1544L38.3148 49.156L38.2719 49.3625C38.2622 49.409 38.2525 49.4556 38.2428 49.5023C37.7634 51.8057 37.2141 54.4452 37.2967 56.8804C37.3813 59.3732 38.13 61.6976 40.328 63.2356L40.3282 63.2357C42.417 64.6954 45.0456 65.3562 47.4232 65.6602C49.3923 65.912 51.2128 65.9213 52.433 65.9275C52.6871 65.9288 52.9152 65.93 53.1131 65.9332L53.1134 65.9332C54.2718 65.9504 55.7559 65.9749 56.9505 65.995C57.5478 66.0051 58.0727 66.0141 58.4482 66.0206L58.7698 66.0261C58.7576 66.1679 58.7415 66.3583 58.7228 66.5854C58.6806 67.0979 58.6255 67.7972 58.5739 68.5441C58.4714 70.0282 58.3804 71.7298 58.4381 72.511C58.483 73.1273 58.6595 73.6268 58.8252 73.9728C58.9081 74.146 58.9886 74.2815 59.0494 74.375C59.0799 74.4218 59.1054 74.4582 59.124 74.4835C59.1332 74.4962 59.1407 74.5062 59.1463 74.5134L59.153 74.522L59.1532 74.5222C59.1535 74.5227 59.1539 74.5232 59.1543 74.5237C59.445 74.8995 59.9127 75.2225 60.4801 75.4893C61.0522 75.7583 61.7452 75.9793 62.5076 76.1402C64.0318 76.4617 65.8574 76.5482 67.5953 76.2812L67.6035 76.28L67.6115 76.2782C68.2462 76.1392 68.6956 75.8814 69.024 75.5732C69.35 75.2673 69.5447 74.9229 69.6851 74.6313L69.5885 74.5848L69.5917 74.5799L69.7653 74.6708C70.0621 74.1038 70.1809 73.6721 70.2903 72.9981ZM70.2903 72.9981C70.2904 72.9978 70.2904 72.9975 70.2905 72.9972L70.0325 72.9553L70.2903 72.9982C70.2903 72.9982 70.2903 72.9982 70.2903 72.9981Z" fill="#F17228" stroke="#303030" stroke-width="0.522659"/>
<path d="M60.2792 62.069C59.5003 62.8085 58.8754 64.6474 58.7578 66.2301" stroke="#303030" stroke-width="0.522659" stroke-linecap="round" stroke-linejoin="round"/>
<path d="M62.9099 39.1741C63.6524 36.1122 64.2268 32.8403 61.9264 29.931C60.5367 28.1727 55.3419 27.5856 52.3579 28.2734C48.4744 29.1684 45.8266 30.8346 43.1396 36.1439C41.153 40.0662 39.0348 43.9885 37.8776 48.6619C37.687 49.4331 37.7375 50.423 38.1858 50.9842C38.6341 51.5453 40.9429 53.9828 47.2276 54.0058C60.2789 54.0518 61.2175 50.8288 61.2175 50.8288C61.2175 50.8288 62.0805 48.8461 61.635 44.7137C61.635 44.7137 62.4364 41.1338 62.9099 39.1799V39.1741Z" fill="#74CA45" stroke="#303030" stroke-width="0.522659"/>
<path d="M54.7285 25.6491C54.7285 25.6491 51.1001 25.4822 49.6234 25.8678C48.1468 26.2534 47.8638 27.2721 47.8638 27.2721C47.8638 27.2721 46.1911 27.9714 44.594 29.7527C42.5626 32.0203 45.0143 33.0764 45.0143 33.0764L53.2659 28.4721L54.7313 25.6462L54.7285 25.6491Z" fill="#74CA45"/>
<path d="M54.2466 26.5816C51.8062 26.3629 50.2903 26.5298 50.0774 27.2751C49.8616 28.0204 53.011 28.9672 53.011 28.9672L54.2466 26.5816Z" fill="#303030"/>
<path d="M54.2465 31.2174C49.2591 28.2419 45.7987 31.9484 45.0142 33.0793" stroke="#303030" stroke-width="0.522659" stroke-linecap="round" stroke-linejoin="round"/>
<path d="M48.074 28.6735C47.7041 28.3628 47.5164 27.8735 47.6425 27.3066" stroke="#303030" stroke-width="0.522659" stroke-linecap="round" stroke-linejoin="round"/>
<path d="M64.4521 19.4118C64.9946 15.9793 62.7251 12.745 59.383 12.1879C56.0409 11.6307 52.8918 13.9616 52.3493 17.3941C51.8068 20.8266 54.0764 24.0608 57.4185 24.618C60.7606 25.1751 63.9096 22.8442 64.4521 19.4118Z" fill="#303030"/>
<path d="M64.513 21.2085C64.5439 20.3164 64.5495 20.1782 64.5999 19.0387C64.6868 17.0703 63.9078 15.6315 63.9078 15.6315C63.2662 14.9811 59.2706 13.4329 56.5164 16.0315C56.8526 17.8128 55.97 19.1365 55.9672 19.1365C56.323 19.7207 56.4827 20.6272 56.3314 21.2315C56.1857 21.8099 55.4068 21.6487 55.121 21.1106C54.7988 20.5034 54.0479 19.9682 53.3558 19.9049C52.4564 19.8243 51.8091 20.3077 51.6326 20.9667C51.4253 21.7466 51.8932 22.371 52.4956 22.6933C53.098 23.0157 53.9274 23.0876 54.5354 22.7538C54.4794 23.7408 54.7203 24.4142 55.0846 24.9552L53.126 28.7365C53.126 28.7365 55.8691 30.8545 58.2283 31.4531C60.3858 31.9998 59.5032 29.7063 59.5032 29.7063L60.2261 27.9192C61.246 28.0085 62.1706 27.8876 63.0224 27.4099C64.1236 26.7883 64.5775 25.6977 64.6167 24.2013C64.6391 23.3955 64.4822 22.0113 64.5102 21.2085H64.513Z" fill="#FFC4B0"/>
<path d="M59.7103 23.9135C60.3912 24.3509 61.2738 24.3912 61.9351 24.207" stroke="#303030" stroke-width="0.522659" stroke-linecap="round" stroke-linejoin="round"/>
<path d="M62.4699 19.8758C62.5764 19.4902 62.893 19.2916 63.246 19.2485C63.5963 19.2082 64.1006 19.2945 64.1903 19.8758C64.0558 20.4629 62.9406 20.6643 62.4727 19.8758H62.4699Z" fill="white"/>
<path d="M63.9213 20.1463C63.8008 20.3995 63.4926 20.5031 63.232 20.3765C62.9714 20.2499 62.8594 19.9391 62.9798 19.6859C63.1003 19.4326 63.4085 19.329 63.6691 19.4557C63.9297 19.5823 64.0418 19.8931 63.9213 20.1463Z" fill="#303030"/>
<path d="M62.9435 19.6715L63.4506 19.9161L62.8734 19.9564L62.9435 19.6715Z" fill="white"/>
<path d="M64.2463 19.7635C64.0306 19.3434 63.6299 19.2513 63.2769 19.2916C62.9266 19.3318 62.5652 19.6024 62.4699 19.8729" stroke="#303030" stroke-width="0.522659" stroke-linecap="round" stroke-linejoin="round"/>
<path d="M58.231 19.827C58.3655 19.3867 58.783 19.1651 59.2453 19.122C59.7076 19.0817 60.3745 19.191 60.5006 19.8558C60.3325 20.5263 58.8643 20.7392 58.231 19.827Z" fill="white"/>
<path d="M60.1644 20.1865C60.0271 20.4772 59.6741 20.5952 59.3771 20.4484C59.0801 20.3016 58.9512 19.9477 59.0885 19.657C59.2258 19.3664 59.5788 19.2484 59.8758 19.3952C60.1728 19.5419 60.3017 19.8959 60.1644 20.1865Z" fill="#303030"/>
<path d="M59.0463 19.6427L59.6263 19.9218L58.9679 19.9708L59.0463 19.6427Z" fill="white"/>
<path d="M60.5734 19.7318C60.282 19.2455 59.7497 19.1333 59.2873 19.1735C58.825 19.2138 58.3515 19.516 58.231 19.8268" stroke="#303030" stroke-width="0.522659" stroke-linecap="round" stroke-linejoin="round"/>
<path d="M61.7277 18.5695C62.1087 19.4472 62.6299 20.4975 62.868 21.0961C63.1286 21.7407 62.8989 22.8342 61.4279 22.5608" stroke="#303030" stroke-width="0.522659" stroke-linecap="round" stroke-linejoin="round"/>
<path d="M52.5959 21.0212C52.7641 20.9118 53.1703 20.8427 53.5682 20.9751C53.9661 21.1075 54.2855 21.4499 54.3864 21.8499" stroke="#303030" stroke-width="0.522659" stroke-linecap="round" stroke-linejoin="round"/>
<path d="M53.2628 21.5075C53.386 21.4269 53.8203 21.2312 54.221 21.4816" stroke="#303030" stroke-width="0.522659" stroke-linecap="round" stroke-linejoin="round"/>
<path d="M57.8442 18.6069C58.4018 17.9681 59.3825 17.6832 60.2595 17.8789" stroke="#303030" stroke-width="0.522659" stroke-linecap="round" stroke-linejoin="round"/>
<path d="M62.8931 17.9767C63.6356 17.8472 64.3192 18.0371 64.5854 18.3767" stroke="#303030" stroke-width="0.522659" stroke-linecap="round" stroke-linejoin="round"/>
<path d="M53.1287 28.7394C53.1287 28.7394 55.9811 30.9782 58.231 31.4559C59.915 31.8128 59.7749 30.63 59.604 30.0084" stroke="#303030" stroke-width="0.522659" stroke-linecap="round" stroke-linejoin="round"/>
<path d="M60.2286 27.922C57.6677 27.4673 56.6254 26.4141 55.8745 25.545C56.0678 26.9781 57.6172 28.5724 59.7915 29.0012L60.2286 27.9191V27.922Z" fill="#303030"/>
<path d="M51.806 23.4474L53.6777 24.6532C54.4706 25.1625 55.5018 25.0273 56.1406 24.3251C56.6561 23.7582 56.8075 22.9352 56.5273 22.2129L55.6026 19.8359L56.8046 17.2086C56.8046 17.2086 61.9181 15.2978 65.3897 16.7193C64.7957 11.1884 57.8862 8.8546 53.4452 12.2675C48.7407 15.8848 50.4303 21.0215 51.1336 22.6532C51.2765 22.9812 51.5118 23.2546 51.806 23.4474Z" fill="#F17228" stroke="#303030" stroke-width="0.522659"/>
<path d="M51.806 23.4474L53.6777 24.6532C54.4707 25.1625 55.5018 25.0273 56.1406 24.3251C56.6562 23.7582 56.8075 22.9352 56.5273 22.2129L55.6026 19.8359L56.8047 17.2086C56.8047 17.2086 61.9182 15.2978 65.3897 16.7194" stroke="#303030" stroke-width="0.522659" stroke-linecap="round" stroke-linejoin="round"/>
<path d="M54.7283 22.8602C54.7283 23.1336 54.5125 23.3552 54.2463 23.3552C53.9801 23.3552 53.7644 23.1336 53.7644 22.8602C53.7644 22.5868 53.9801 22.3652 54.2463 22.3652C54.5125 22.3652 54.7283 22.5868 54.7283 22.8602Z" fill="#303030"/>
<path d="M53.0499 22.0803C53.0499 22.3537 52.8342 22.5753 52.568 22.5753C52.3018 22.5753 52.0861 22.3537 52.0861 22.0803C52.0861 21.8069 52.3018 21.5853 52.568 21.5853C52.8342 21.5853 53.0499 21.8069 53.0499 22.0803Z" fill="#303030"/>
<path d="M56.8046 17.2085C59.4917 17.8991 62.3889 18.6703 64.7957 18.584C67.2025 18.4977 67.8162 17.8962 65.3897 16.7193C63.3947 15.5739 59.5253 16.1351 56.8046 17.2085Z" fill="#303030"/>
<path d="M58.1047 11.7983C60.9039 11.7955 62.896 12.9696 63.9299 15.1537" stroke="white" stroke-width="0.522659" stroke-linecap="round" stroke-linejoin="round"/>
<path d="M50.0494 32.3224C52.3329 31.9713 53.1007 32.6706 54.8799 37.4533C56.0249 40.5305 57.17 43.6643 58.315 46.8547C59.8365 46.8202 63.8684 47.0562 65.3899 47.0591C66.8272 47.0619 68.2618 47.0648 69.6992 47.0763C70.9965 47.0878 72.2966 46.7713 73.5883 46.6188C74.6278 46.4979 75.7486 46.1382 76.6508 46.6792C76.9786 46.8778 77.3877 47.2145 77.6791 47.7468C77.92 48.1871 78.0685 48.6677 78.1498 49.1627C78.1862 49.3814 78.1862 49.6173 78.077 49.8073C77.9481 50.0317 77.4661 50.2648 77.2868 49.9886C77.3092 50.3224 77.326 50.6619 77.2252 50.9842C77.1215 51.3037 76.8777 51.5972 76.5527 51.6605C76.2305 51.7238 75.855 51.4792 75.8494 51.1396C75.8102 51.4418 75.7121 51.7468 75.502 51.9598C75.2918 52.1727 74.9528 52.2706 74.6894 52.1324C74.2804 51.9166 74.2748 51.3353 74.286 50.8634C74.3168 49.6749 73.0951 49.5886 72.4283 50.3914C72.022 50.8806 71.9155 51.2116 71.4364 51.4993C70.9741 51.7785 70.5146 51.8389 69.8673 51.8101C69.2229 51.7785 68.7522 51.6116 67.9985 51.7123C66.4742 51.9166 64.6305 52.3598 62.7813 52.6734C61.0749 52.9641 59.2341 53.4303 57.4941 53.3324C55.8297 53.2404 53.4649 54.4461 51.7333 50.4058C49.8168 45.931 48.0684 40.7022 48.0684 40.7022C47.3567 37.4073 47.777 33.8734 50.0494 32.3137V32.3224Z" fill="#FFC4B0"/>
<path d="M74.6531 48.3109C75.1407 48.6188 75.5834 49.0821 75.7823 49.6318C75.9812 50.1814 75.942 50.8203 75.9336 51.4073" stroke="#303030" stroke-width="0.522659" stroke-linecap="round" stroke-linejoin="round"/>
<path d="M75.7373 47.3209C76.2024 47.5972 76.5583 48.0375 76.802 48.5267C77.0458 49.0159 77.1859 49.554 77.2812 50.0979" stroke="#303030" stroke-width="0.522659" stroke-linecap="round" stroke-linejoin="round"/>
<path d="M50.3183 49.9912C49.7103 48.279 47.2866 42.4661 46.9532 40.3164C46.6225 38.1668 46.6169 35.7553 47.4883 34.0805C48.3625 32.4056 49.4469 31.6229 50.4752 31.4819C53.2911 31.0934 54.7425 34.7855 55.8408 37.7725C56.9392 40.7596 58.5139 45.7092 58.5139 45.7092C58.5139 45.7092 63.591 45.6373 65.4038 45.8215C66.8132 45.9653 66.9981 46.8603 66.9981 46.8603L65.4374 46.8546C65.4374 46.8546 64.6893 47.6028 64.6249 49.3553C64.5604 51.1078 65.4963 52.3366 65.4963 52.3366L66.5218 52.1236C66.5218 52.1236 66.603 53.5481 64.3783 53.9797C62.2096 54.3999 57.522 54.3855 55.16 54.138C52.8176 53.8934 51.4222 53.0992 50.3183 49.9855V49.9912Z" fill="white" stroke="#303030" stroke-width="0.522659" stroke-linecap="round" stroke-linejoin="round"/>
<path d="M58.6341 45.715C56.8661 45.8934 55.3083 46.5812 54.3612 48.1265" stroke="#303030" stroke-width="0.522659" stroke-linecap="round" stroke-linejoin="round"/>
<path d="M65.4373 46.8574L67.8078 46.8718C67.8078 46.8718 67.2642 47.4589 67.0793 48.961C66.8943 50.4632 67.7461 51.902 67.7461 51.902L65.4934 52.3394C64.3586 50.702 64.3502 48.256 65.4345 46.8574H65.4373Z" fill="white" stroke="#303030" stroke-width="0.522659" stroke-linecap="round" stroke-linejoin="round"/>
</g>
<defs>
<clipPath id="clip0_440_24238">
<rect width="118" height="110" fill="white" transform="translate(0.75 0.348267)"/>
</clipPath>
</defs>
</svg>
