<svg width="20" height="20" viewBox="0 0 20 20" fill="none" xmlns="http://www.w3.org/2000/svg">
<path d="M9.99996 5.20841C10.3451 5.20841 10.625 5.48824 10.625 5.83341V10.8334C10.625 11.1786 10.3451 11.4584 9.99996 11.4584C9.65478 11.4584 9.37496 11.1786 9.37496 10.8334V5.83341C9.37496 5.48824 9.65478 5.20841 9.99996 5.20841Z" fill="#1C274C"/>
<path d="M9.99996 14.1667C10.4602 14.1667 10.8333 13.7937 10.8333 13.3334C10.8333 12.8732 10.4602 12.5001 9.99996 12.5001C9.53972 12.5001 9.16663 12.8732 9.16663 13.3334C9.16663 13.7937 9.53972 14.1667 9.99996 14.1667Z" fill="#1C274C"/>
<path fill-rule="evenodd" clip-rule="evenodd" d="M1.04163 10.0001C1.04163 5.05253 5.05241 1.04175 9.99996 1.04175C14.9475 1.04175 18.9583 5.05253 18.9583 10.0001C18.9583 14.9476 14.9475 18.9584 9.99996 18.9584C5.05241 18.9584 1.04163 14.9476 1.04163 10.0001ZM9.99996 2.29175C5.74276 2.29175 2.29163 5.74289 2.29163 10.0001C2.29163 14.2573 5.74276 17.7084 9.99996 17.7084C14.2572 17.7084 17.7083 14.2573 17.7083 10.0001C17.7083 5.74289 14.2572 2.29175 9.99996 2.29175Z" fill="#1C274C"/>
</svg>
