<svg width="20" height="20" viewBox="0 0 20 20" fill="none" xmlns="http://www.w3.org/2000/svg">
<path d="M2.96262 11.8809C2.3639 9.08688 2.06454 7.68986 2.815 6.76156C3.56546 5.83325 4.99418 5.83325 7.85163 5.83325H12.1484C15.0059 5.83325 16.4346 5.83325 17.1851 6.76156C17.9355 7.68986 17.6362 9.08687 17.0374 11.8809L16.6803 13.5476C16.2745 15.4414 16.0716 16.3882 15.384 16.9441C14.6965 17.4999 13.7281 17.4999 11.7913 17.4999H8.20877C6.27199 17.4999 5.3036 17.4999 4.61604 16.9441C3.92848 16.3882 3.72557 15.4414 3.31976 13.5476L2.96262 11.8809Z" stroke="#538D33" stroke-width="1.5"/>
<path d="M2.5 9.16675H17.5" stroke="#538D33" stroke-width="1.5" stroke-linecap="round" stroke-linejoin="round"/>
<path d="M8.33331 11.6667H11.6666" stroke="#538D33" stroke-width="1.5" stroke-linecap="round" stroke-linejoin="round"/>
<path d="M15 7.5L12.5 2.5" stroke="#538D33" stroke-width="1.5" stroke-linecap="round" stroke-linejoin="round"/>
<path d="M5 7.5L7.5 2.5" stroke="#538D33" stroke-width="1.5" stroke-linecap="round" stroke-linejoin="round"/>
</svg>
