<svg width="24" height="24" viewBox="0 0 24 24" fill="none" xmlns="http://www.w3.org/2000/svg">
<path fill-rule="evenodd" clip-rule="evenodd" d="M8.92098 7.29287C9.31152 7.15483 9.74001 7.35953 9.87805 7.75007C10.1873 8.62497 11.0217 9.25 12.0002 9.25C12.9787 9.25 13.8131 8.62497 14.1224 7.75007C14.2604 7.35953 14.6889 7.15483 15.0794 7.29287C15.47 7.43091 15.6747 7.8594 15.5366 8.24993C15.0222 9.70541 13.6342 10.75 12.0002 10.75C10.3663 10.75 8.97822 9.70541 8.46379 8.24993C8.32575 7.8594 8.53044 7.43091 8.92098 7.29287ZM12.3606 5.5H11.6394C10.0136 5.5 8.93152 5.50267 8.11199 5.60393C7.33366 5.70009 6.9749 5.86728 6.72313 6.07623C6.47137 6.28517 6.24093 6.60698 6.00297 7.35425C5.75242 8.14109 5.55038 9.20417 5.25076 10.8021C4.83078 13.042 4.5492 14.5634 4.49919 15.7093C4.45098 16.8139 4.63607 17.2835 4.89595 17.5966C5.15583 17.9097 5.58325 18.1782 6.67777 18.3344C7.81328 18.4964 9.3605 18.5 11.6394 18.5H12.3606C14.6395 18.5 16.1868 18.4964 17.3223 18.3344C18.4168 18.1782 18.8442 17.9097 19.1041 17.5966C19.364 17.2835 19.5491 16.8139 19.5008 15.7093C19.4508 14.5634 19.1693 13.042 18.7493 10.8021C18.4497 9.20417 18.2476 8.14109 17.9971 7.35425C17.7591 6.60698 17.5287 6.28517 17.2769 6.07623C17.0251 5.86728 16.6664 5.70009 15.8881 5.60393C15.0685 5.50267 13.9864 5.5 12.3606 5.5ZM5.76518 4.92196C4.65428 5.84393 4.36167 7.40452 3.77645 10.5257C2.95353 14.9146 2.54207 17.1091 3.74169 18.5545C4.94131 20 7.17402 20 11.6394 20H12.3606C16.826 20 19.0587 20 20.2584 18.5545C21.458 17.1091 21.0465 14.9146 20.2236 10.5257C19.6384 7.40452 19.3458 5.84393 18.2349 4.92196C17.124 4 15.5362 4 12.3606 4H11.6394C8.46386 4 6.87608 4 5.76518 4.92196Z" fill="#1C274C"/>
</svg>
