<svg width="25" height="24" viewBox="0 0 25 24" fill="none" xmlns="http://www.w3.org/2000/svg">
<path d="M4.29693 5.49383C3.99741 5.85326 3.83337 6.30632 3.83337 6.7742V18.3501C3.83337 20.0069 5.17652 21.3501 6.83337 21.3501H17.8334C19.4902 21.3501 20.8334 20.007 20.8334 18.3501V6.7742C20.8334 6.30633 20.6693 5.85326 20.3698 5.49383L18.5997 3.36973C18.2197 2.91374 17.6569 2.6501 17.0633 2.6501H7.60346C7.0099 2.6501 6.447 2.91374 6.06701 3.36973L4.29693 5.49383Z" stroke="#CEC6C5" stroke-width="1.5"/>
<path d="M3.83337 6.4751H20.8334" stroke="#CEC6C5" stroke-width="1.5"/>
<path d="M15.7333 10.2998C15.7333 12.1776 14.2111 13.6998 12.3333 13.6998C10.4556 13.6998 8.93335 12.1776 8.93335 10.2998" stroke="#CEC6C5" stroke-width="1.5" stroke-linecap="round"/>
</svg>
