<svg width="56" height="56" viewBox="0 0 56 56" fill="none" xmlns="http://www.w3.org/2000/svg">
<path d="M3 50L22 50" stroke="black" stroke-linecap="round"/>
<path d="M41 50L53 50" stroke="black" stroke-linecap="round"/>
<path d="M34 50L38 50" stroke="black" stroke-linecap="round"/>
<path d="M2.29102 22.2481H13.5702C14.5564 22.2481 15.3613 21.4432 15.3613 20.4569V9.17786C15.3613 8.1916 14.5565 7.38672 13.5702 7.38672H2.29102C1.30476 7.38672 0.499878 8.1916 0.499878 9.17786V20.457C0.499878 21.4433 1.30481 22.2481 2.29102 22.2481Z" fill="#74CA45" stroke="black"/>
<path fill-rule="evenodd" clip-rule="evenodd" d="M12.4019 21.7481H13.5702C14.2803 21.7481 14.8614 21.167 14.8614 20.4569V9.17786C14.8614 8.46774 14.2803 7.88672 13.5702 7.88672H12.4019V21.7481Z" fill="#538D33"/>
<path d="M10.4901 7.88672V7.38672H9.99015H5.87109H5.37109V7.88672V13.0784C5.37109 13.6804 5.80012 14.3206 6.49747 14.3206H9.36388C10.0611 14.3206 10.4901 13.6805 10.4901 13.0784V7.88672ZM39.6772 21.7965H39.1772V22.2965V34.7847V35.2847H39.6772H48.0549H48.6746L48.5436 34.679L45.8424 22.1908L45.7571 21.7965H45.3537H39.6772Z" fill="#FFDC6E" stroke="black"/>
<path fill-rule="evenodd" clip-rule="evenodd" d="M39.6772 22.2964H45.3538L46.4463 27.3477L39.6772 24.792V22.2964Z" fill="#CC6326"/>
<path d="M7.9299 26.1402V26.6402H8.4299H26.3596C27.8329 26.6402 29.0363 25.4371 29.0363 23.9638C29.0363 22.4904 27.8331 21.2871 26.3596 21.2871H10.6066C9.13323 21.2871 7.9299 22.4903 7.9299 23.9638V26.1402ZM22.0832 40.7978V40.2978H21.5832H5.10974H4.60974V40.7978C4.60974 45.6229 8.52131 49.5345 13.3465 49.5345C18.1716 49.5345 22.0832 45.6229 22.0832 40.7978Z" fill="#404049" stroke="black"/>
<path d="M17.9492 40.7979V40.2979H17.4492H9.24365H8.74365V40.7979C8.74365 43.3399 10.8044 45.4006 13.3464 45.4006C15.8884 45.4006 17.9492 43.3399 17.9492 40.7979Z" fill="#F0F0FC" stroke="black"/>
<path d="M53.9028 40.7979C53.9028 40.5217 53.6789 40.2979 53.4028 40.2979H36.9293C36.6532 40.2979 36.4293 40.5217 36.4293 40.7979C36.4293 45.623 40.3409 49.5346 45.166 49.5346C49.9912 49.5346 53.9028 45.623 53.9028 40.7979Z" fill="#404049" stroke="black" stroke-linejoin="round"/>
<path d="M49.7689 40.7979V40.2979H49.2689H41.0634H40.5634V40.7979C40.5634 43.3399 42.6241 45.4006 45.1661 45.4006C47.7081 45.4006 49.7689 43.3399 49.7689 40.7979Z" fill="#F0F0FC" stroke="black"/>
<mask id="path-12-inside-1_745_7092" fill="white">
<path fill-rule="evenodd" clip-rule="evenodd" d="M26.688 40.7976H3.51231L3.51221 33.0147C3.51221 28.7342 7.01453 25.2319 11.2951 25.2319H26.688V35.0659H38.4329V40.7976H26.688V40.7976Z"/>
</mask>
<path fill-rule="evenodd" clip-rule="evenodd" d="M26.688 40.7976H3.51231L3.51221 33.0147C3.51221 28.7342 7.01453 25.2319 11.2951 25.2319H26.688V35.0659H38.4329V40.7976H26.688V40.7976Z" fill="#F17228"/>
<path d="M3.51231 40.7976L2.51231 40.7977L2.51233 41.7976H3.51231V40.7976ZM26.688 40.7976V41.7976H27.688V40.7976H26.688ZM3.51221 33.0147H2.51221V33.0147L3.51221 33.0147ZM26.688 25.2319H27.688V24.2319H26.688V25.2319ZM26.688 35.0659H25.688V36.0659H26.688V35.0659ZM38.4329 35.0659H39.4329V34.0659H38.4329V35.0659ZM38.4329 40.7976V41.7976H39.4329V40.7976H38.4329ZM26.688 40.7976V39.7976H25.688V40.7976H26.688ZM3.51231 41.7976H26.688V39.7976H3.51231V41.7976ZM2.51221 33.0147L2.51231 40.7977L4.51231 40.7976L4.51221 33.0147L2.51221 33.0147ZM11.2951 24.2319C6.46227 24.2319 2.51221 28.1819 2.51221 33.0147H4.51221C4.51221 29.2865 7.5668 26.2319 11.2951 26.2319V24.2319ZM26.688 24.2319H11.2951V26.2319H26.688V24.2319ZM27.688 35.0659V25.2319H25.688V35.0659H27.688ZM26.688 36.0659H38.4329V34.0659H26.688V36.0659ZM37.4329 35.0659V40.7976H39.4329V35.0659H37.4329ZM38.4329 39.7976H26.688V41.7976H38.4329V39.7976ZM27.688 40.7976V40.7976H25.688V40.7976H27.688Z" fill="black" mask="url(#path-12-inside-1_745_7092)"/>
<path d="M46.6675 15.4861L46.6674 15.4861L40.6669 16.3969C40.6669 16.3969 40.6669 16.3969 40.6669 16.3969C39.8057 16.5276 39.1772 17.2588 39.1772 18.1297V23.0872V23.5171L39.6022 23.5816L46.6674 24.654L46.6675 24.654C47.8295 24.8303 48.8489 24.2477 49.5467 23.3775C50.2442 22.5079 50.6688 21.3029 50.6688 20.07C50.6688 18.8896 50.2583 17.6851 49.5712 16.8036C48.8831 15.9207 47.863 15.3046 46.6675 15.4861Z" fill="#F17228" stroke="black"/>
<path fill-rule="evenodd" clip-rule="evenodd" d="M46.8223 24.1702C48.6559 24.3826 50.1688 22.2872 50.1688 20.07C50.1688 17.9535 48.7071 15.7506 46.8223 15.9697V24.1702Z" fill="#FFDC6E"/>
<path d="M23.1804 41.2979C23.4565 41.2979 23.6804 41.0741 23.6804 40.7979C23.6804 35.0906 19.0536 30.4639 13.3463 30.4639C7.63905 30.4639 3.01233 35.0906 3.01233 40.7979C3.01233 41.0741 3.23619 41.2979 3.51233 41.2979H23.1804Z" fill="#FFAB17" stroke="black" stroke-linejoin="round"/>
<path d="M16.162 17.1248C16.0938 17.3601 16.2061 17.6102 16.4273 17.7154L21.7439 20.246C21.8814 20.3115 22.0411 20.3107 22.1779 20.244L28.5357 17.144L32.3964 20.2214C32.447 20.2617 32.5049 20.2918 32.567 20.3101L41.9598 23.0736C42.179 23.1381 42.414 23.0459 42.5308 22.8495L43.8691 20.5982C43.9464 20.4682 43.9606 20.3101 43.9079 20.1684C43.8552 20.0266 43.7411 19.9163 43.5976 19.8684C40.7897 18.9308 38.4938 18.0178 35.737 16.9216C35.5567 16.8499 35.3744 16.7774 35.1898 16.704L33.0726 13.9777C33.071 13.8973 33.0674 13.7929 33.0598 13.6694C33.0415 13.3734 32.9999 12.9631 32.9063 12.5041C32.7223 11.6009 32.3225 10.4371 31.4299 9.61715L31.4299 9.61713C30.6518 8.90246 30.2627 8.53836 30.069 8.35381C29.9717 8.26104 29.9266 8.21644 29.9073 8.19679C29.9064 8.19579 29.9055 8.19489 29.9047 8.19409C29.8078 8.0809 29.6625 8.01351 29.5059 8.0194C25.2433 8.17955 22.2394 9.25619 20.1252 10.9196C18.0101 12.5836 16.8372 14.7942 16.162 17.1248Z" fill="#74CA45" stroke="black" stroke-linejoin="round"/>
<path fill-rule="evenodd" clip-rule="evenodd" d="M28.5757 36.3942L28.5604 37.678C28.5478 38.7595 29.4719 39.6357 30.5535 39.6182L32.0341 39.594L33.8392 39.5824C34.6158 39.5775 35.245 38.94 35.2401 38.1634L35.2388 37.974C35.2336 37.1544 34.6041 36.4779 33.8066 36.394H28.5757V36.3942Z" fill="#FFDC6E"/>
<path fill-rule="evenodd" clip-rule="evenodd" d="M31.4342 39.6039L32.034 39.594L33.839 39.5824C34.6156 39.5775 35.2449 38.94 35.24 38.1634L35.2387 37.974C35.2334 37.1544 34.6039 36.4779 33.8064 36.394H31.4343V39.6039H31.4342Z" fill="#FFCA28"/>
<path d="M55.0001 41.2979C55.2762 41.2979 55.5001 41.0741 55.5001 40.7979C55.5001 35.0906 50.8733 30.4639 45.166 30.4639C39.4586 30.4639 34.832 35.0906 34.832 40.7979C34.832 41.0741 35.0559 41.2979 35.332 41.2979H55.0001Z" fill="#FFAB17" stroke="black" stroke-linejoin="round"/>
<path fill-rule="evenodd" clip-rule="evenodd" d="M13.3464 30.9639C18.7776 30.9639 23.1804 35.3667 23.1804 40.7979H18.8614C18.7236 36.2548 15.6948 32.4392 11.5524 31.1277C12.1441 31.0186 12.7446 30.9637 13.3464 30.9639ZM45.166 30.9639C50.5972 30.9639 55.0001 35.3667 55.0001 40.7979H50.6811C50.5433 36.2548 47.5145 32.4392 43.3719 31.1277C43.9637 31.0186 44.5643 30.9637 45.166 30.9639Z" fill="#DB971F"/>
<path fill-rule="evenodd" clip-rule="evenodd" d="M21.9536 10.3164C23.6594 9.60807 25.7701 9.15957 28.386 9.06125C28.7988 10.514 29.9533 11.9825 31.2032 12.8188C31.4585 13.8288 31.4346 14.692 31.4346 14.692L33.7399 17.6606C36.1205 18.6064 38.4956 19.5607 40.913 20.4096C41.0975 20.112 41.3688 19.8782 41.6903 19.7397C39.3971 18.9242 37.14 18.0168 34.8785 17.1184L32.5732 14.1498C32.5732 14.1498 32.5961 13.3237 32.358 12.342C32.163 11.5378 31.7928 10.6294 31.0916 9.98538C29.5343 8.55496 29.5246 8.51904 29.5246 8.51904C29.4408 8.52226 29.3573 8.52569 29.2745 8.52955C26.1655 8.67483 23.7835 9.32298 21.9536 10.3164Z" fill="#538D33"/>
<path d="M39.4762 7.99167C39.7434 5.23867 37.7333 2.7879 34.984 2.51994L34.4862 2.47141L34.4379 2.9693L34.0507 6.96066L30.0699 6.57265L29.5721 6.52412L29.5238 7.02202C29.2567 9.77499 31.2668 12.2258 34.016 12.4937C36.7654 12.7617 39.2091 10.7448 39.4762 7.99167ZM39.4762 7.99167L38.9785 7.94337M39.4762 7.99167L38.9785 7.94337M38.9785 7.94337C38.738 10.4227 36.5379 12.2372 34.0645 11.9961C31.7589 11.7714 30.0296 9.83981 30.0004 7.57061L34.8873 3.51524C34.8872 3.51523 34.8871 3.51523 34.887 3.51522L34.9355 3.01758L35.4332 3.06586L35.4305 3.09348C37.6457 3.55988 39.2028 5.63267 38.9785 7.94337Z" fill="#F6DCCD" stroke="black"/>
<path d="M35.6992 0.531398L35.6992 0.531398C32.1295 0.184302 28.9541 2.79691 28.607 6.36651L28.607 6.36652C28.3173 9.34589 30.0889 12.0493 32.7569 13.0648L32.757 13.0648C33.28 13.2638 33.8291 13.211 34.3046 12.9162L34.3047 12.9161C34.7802 12.6212 35.0714 12.1528 35.1257 11.5959L35.1257 11.5958L35.447 8.29033C35.4871 7.87842 35.8572 7.57392 36.2691 7.61399L39.5752 7.93554L39.5752 7.93554C40.132 7.98964 40.6475 7.79419 41.0285 7.38457L41.0285 7.3845C41.4093 6.97493 41.5669 6.44669 41.4725 5.89524L41.4725 5.89518C40.9905 3.08101 38.679 0.821179 35.6992 0.531398Z" fill="#F17228" stroke="black"/>
<path fill-rule="evenodd" clip-rule="evenodd" d="M35.6507 1.02891C38.4005 1.29631 40.5347 3.38173 40.9797 5.97945C41.0477 6.37723 40.937 6.74843 40.6623 7.04392C40.423 7.30136 40.1172 7.43871 39.7769 7.44407C39.7773 7.41641 39.7779 7.38885 39.7779 7.36108C39.7779 4.12723 37.1564 1.5056 33.9225 1.5056C33.2759 1.5056 32.6539 1.61068 32.0724 1.8041C33.1545 1.17714 34.4062 0.905976 35.6507 1.02891Z" fill="#CC6326"/>
<path d="M27.8414 37.1375L27.8361 37.6427H28.3413H32.1165H32.603L32.6163 37.1564L32.9491 25.0415C32.9864 23.6816 32.2019 22.5189 30.9839 21.971L30.9839 21.971L16.7353 15.5616L16.2793 15.3565L16.0742 15.8125L14.8203 18.5999L14.8203 18.5999C14.0357 20.3443 14.7243 22.6554 16.6467 23.319C16.6467 23.319 16.6468 23.319 16.6468 23.319L27.9452 27.2207L27.8414 37.1375ZM42.3971 23.4763C43.6305 23.4763 44.6351 22.4718 44.6351 21.2384C44.6351 20.0049 43.6305 19.0005 42.3971 19.0005C41.1637 19.0005 40.1591 20.0051 40.1591 21.2384C40.1591 22.4718 41.1637 23.4763 42.3971 23.4763Z" fill="#484A50" stroke="black"/>
<path fill-rule="evenodd" clip-rule="evenodd" d="M21.7588 19.4459L29.4313 22.8971C30.4561 23.358 31.0958 24.3231 31.0688 25.4467L31 37.0176H31.923L32.0447 24.8502C32.0699 23.8145 31.5279 22.9134 30.6403 22.4177C30.6252 22.4094 30.61 22.4011 30.5948 22.3929C30.5642 22.3765 30.5332 22.3607 30.5021 22.3454C30.4864 22.3377 30.4707 22.3301 30.4549 22.3226C30.439 22.3152 30.4231 22.3078 30.4072 22.3006L16.4393 16.0176L16.0543 16.8734L21.7588 19.4459Z" fill="#404049"/>
<path d="M22 53L30 53" stroke="black" stroke-linecap="round"/>
<path d="M2 53L16 53" stroke="black" stroke-linecap="round"/>
<path d="M33 53L52 53" stroke="black" stroke-linecap="round"/>
</svg>
