<svg width="125" height="102" viewBox="0 0 125 102" fill="none" xmlns="http://www.w3.org/2000/svg">
<path d="M118.381 16.072L82.7994 1.87353C79.5584 0.577401 76.8057 2.39305 76.6608 5.92794L76.1725 17.8769C76.0276 21.4118 78.5389 25.327 81.7853 26.6231L84.978 27.8978C84.4414 29.0868 83.277 30.142 80.8677 30.2759C81.2433 30.4526 81.6189 30.6186 81.9892 30.7632C85.7937 32.279 89.3406 32.295 91.7553 30.5972L117.367 40.8216C120.613 42.1177 123.361 40.3021 123.506 36.7672L123.994 24.8182C124.139 21.2833 121.628 17.3681 118.381 16.072Z" fill="#74CA45"/>
<path d="M118.381 16.072L82.7994 1.87353C79.5584 0.577401 76.8057 2.39305 76.6608 5.92794L76.1725 17.8769C76.0276 21.4118 78.5389 25.327 81.7853 26.6231L84.978 27.8978C84.4414 29.0868 83.277 30.142 80.8677 30.2759C81.2433 30.4526 81.6189 30.6186 81.9892 30.7632C85.7937 32.279 89.3406 32.295 91.7553 30.5972L117.367 40.8216C120.613 42.1177 123.361 40.3021 123.506 36.7672L123.994 24.8182C124.139 21.2833 121.628 17.3681 118.381 16.072Z" stroke="#120F0F" stroke-linecap="round" stroke-linejoin="round"/>
<path d="M87.7362 15.6268C86.4859 15.1287 85.4288 15.825 85.3698 17.1854C85.3161 18.5458 86.282 20.0508 87.5323 20.5489C88.7772 21.047 89.8397 20.3507 89.8933 18.9903C89.947 17.6299 88.9811 16.1249 87.7362 15.6268Z" fill="white"/>
<path d="M95.9838 18.9159C94.7335 18.4178 93.6764 19.114 93.6227 20.4744C93.5691 21.8348 94.535 23.3398 95.7799 23.8379C97.0301 24.336 98.0872 23.6398 98.1409 22.2794C98.1946 20.919 97.2287 19.414 95.9838 18.9159Z" fill="white"/>
<path d="M104.242 22.2088C102.992 21.7107 101.935 22.407 101.881 23.7674C101.827 25.1278 102.793 26.6328 104.038 27.1309C105.288 27.629 106.346 26.9327 106.399 25.5723C106.453 24.2119 105.487 22.7069 104.242 22.2088Z" fill="white"/>
<path d="M112.489 25.5028C111.244 25.0047 110.182 25.7009 110.128 27.0613C110.075 28.4217 111.041 29.9267 112.285 30.4248C113.536 30.9229 114.593 30.2267 114.652 28.8663C114.706 27.5059 113.74 26.0009 112.489 25.5028Z" fill="white"/>
<path d="M104.652 59.3515C103.251 59.2284 101.786 60.0853 100.928 61.3975C100.82 59.9996 99.8922 58.9338 98.4917 58.8106C96.6619 58.6499 94.7301 60.1549 94.1721 62.1687C93.5657 64.3593 94.5852 66.1053 95.5404 67.3747C96.2058 68.2637 96.898 68.9547 96.9731 69.0296L98.4112 70.4704L100.563 69.3456C100.676 69.2867 101.706 68.7458 102.822 68.012C104.421 66.9623 106.337 65.4787 106.943 63.2881C107.501 61.2743 106.476 59.5069 104.646 59.3462L104.652 59.3515Z" fill="#F04A62" stroke="black" stroke-linecap="round" stroke-linejoin="round"/>
<path d="M35.0715 29.4121C39.7828 25.894 44.9331 24.1762 49.4875 24.9248L49.927 25.0049C52.865 25.5976 55.2044 27.1745 56.8821 29.46L57.7844 30.6904V30.6875C60.3194 34.1468 62.8551 37.6062 65.3909 41.0654C68.1111 44.7764 70.8318 48.4873 73.551 52.1982C73.3999 52.357 73.2343 52.5677 73.0598 52.8037C72.616 53.4039 71.9659 54.374 71.1711 55.4805C69.5508 57.7364 67.1677 60.794 63.8567 63.709C57.2484 69.5268 46.9267 74.798 31.5374 71.9229L31.4495 72.3906L31.5374 71.9219L31.5305 71.9209L31.1233 71.8564L30.7483 71.791H30.7454C26.1152 70.8591 22.9342 67.4677 21.551 62.6494C20.2076 57.9695 20.572 51.9577 22.9993 45.6621L23.2405 45.0527C25.8826 38.5389 30.216 33.038 35.0715 29.4121Z" fill="#D3EDC4" stroke="#120F0F"/>
<path d="M34.9786 52.2156C31.7803 60.098 31.7528 67.6506 34.3179 72.8719C63.2452 76.5589 73.3679 51.1072 74.304 52.3851C69.2289 45.4599 64.1538 38.5394 59.0832 31.6143C50.0297 31.8891 39.7693 40.4126 34.9786 52.2156Z" fill="#BBE0A6"/>
<path d="M93.3109 65.5756C92.8107 64.0137 92.0352 62.8321 91.48 62.1176C91.1955 61.7557 90.7917 61.2932 90.4475 60.9909C90.1355 60.7161 89.7041 60.3588 89.3692 60.1069C89.1764 59.9603 88.8919 59.7955 88.6854 59.6626C86.6893 58.4718 84.6932 57.281 82.6972 56.0947C85.3265 59.4657 86.5609 64.2198 83.9178 70.7373C80.8341 78.3357 74.8871 82.4533 69.4633 82.3021C68.6694 82.1418 67.8572 82.3433 67.2102 81.9586C69.2063 83.1494 71.2024 84.3403 73.1985 85.5265C73.795 85.8654 74.7954 86.4334 76.4335 86.7677C78.5765 87.2074 80.3982 86.841 80.9947 86.7219C82.2704 86.4654 83.7572 85.8838 84.9732 85.1693C85.9689 84.583 86.5012 84.1708 86.5976 84.0929C87.0519 83.7311 87.6392 83.2319 88.0751 82.8472C88.3 82.6456 88.5799 82.3479 88.791 82.1327C89.1764 81.7388 89.1948 81.7159 90.0896 80.6075C90.2777 80.3693 90.5072 80.035 90.6815 79.7876C91.0257 79.3159 91.3607 78.7205 91.7507 78.0289C91.7507 78.0197 92.2142 77.1907 92.6501 76.119C93.0356 75.1617 93.2375 74.461 93.3338 74.122C93.8982 72.1389 93.9533 70.49 93.9533 69.8717C93.9533 68.4244 93.811 67.1328 93.3109 65.5756Z" fill="#FFD273" stroke="#120F0F" stroke-linecap="round" stroke-linejoin="round"/>
<path d="M60.4695 69.7345C53.5542 64.5361 46.6344 59.3377 39.7192 54.1438C41.6052 51.3088 44.2804 46.6141 45.111 45.1348C52.9761 48.7439 60.8457 52.3576 68.7108 55.9667C71.0556 57.0431 71.7944 60.4736 70.3077 64.1285C68.6649 68.1819 64.9113 70.9849 61.9333 70.3849C61.378 70.2704 60.887 70.0506 60.4649 69.7345H60.4695Z" fill="#FDA26D" stroke="#120F0F" stroke-linecap="round" stroke-linejoin="round"/>
<path d="M69.7936 82.8559C58.8495 81.2895 47.9099 79.7276 36.9658 78.1612C47.3272 79.6452 60.0196 69.9216 65.6683 55.9981C69.6421 46.1966 69.0961 36.867 64.9662 31.293C71.5419 40.1692 78.1175 49.0409 84.6932 57.9172C86.8912 60.8851 87.1848 65.8499 85.0694 71.0621C82.0638 78.4681 75.3092 83.6436 69.7981 82.8559H69.7936Z" fill="#E6FBDA" stroke="#120F0F" stroke-linecap="round" stroke-linejoin="round"/>
<path d="M44.5738 44.9605C42.6236 44.5666 40.1686 46.3987 39.0949 49.0551C38.0165 51.707 38.7278 54.1757 40.678 54.5696C42.6282 54.9635 45.0831 53.1314 46.1569 50.475C47.2352 47.8231 46.524 45.3544 44.5738 44.9605Z" fill="#FFD273" stroke="#120F0F" stroke-linecap="round" stroke-linejoin="round"/>
<path d="M30.4453 79.2469C28.3391 77.992 26.2283 76.7324 24.1221 75.4775C25.4757 76.2836 27.3984 76.279 29.0595 76.6134C40.7562 78.9675 54.114 68.3646 60.5703 52.4533C64.9296 39.2855 64.7093 26.1818 56.5506 21.3223C58.6614 22.5772 60.7676 23.8367 62.8784 25.0917C71.0372 29.9512 73.3729 42.7847 67.8389 56.4288C61.3871 72.3355 46.6711 83.3232 34.979 80.9691C33.3179 80.6347 31.8036 80.0484 30.4499 79.2423L30.4453 79.2469Z" fill="#FDA26D" stroke="#120F0F" stroke-linecap="round" stroke-linejoin="round"/>
<path d="M52.0215 19.5959C63.7182 21.9501 67.9674 36.753 61.511 52.6643C55.0593 68.571 40.3432 79.5587 28.6512 77.2045C16.9545 74.8504 12.7053 60.0474 19.1617 44.1361C25.6134 28.2294 40.3295 17.2417 52.0215 19.5959ZM50.0254 24.5149C40.3295 22.5638 28.128 31.6737 22.7776 44.8644C17.4271 58.0551 20.9513 70.3298 30.6472 72.2809C40.3432 74.2321 52.5446 65.1222 57.8951 51.9315C63.2455 38.7408 59.7214 26.4661 50.0254 24.5149Z" fill="#FFD273" stroke="#120F0F" stroke-linecap="round" stroke-linejoin="round"/>
<path d="M13.0218 48.5972L6.24426 51.501C4.65656 52.1835 2.81648 51.4461 2.13276 49.8613C1.44904 48.2766 2.18782 46.44 3.77552 45.7576C4.2344 45.5606 4.7208 45.4827 5.18426 45.5102L12.5492 45.9224C13.3201 45.9637 13.9074 46.6232 13.8661 47.3927C13.834 47.9377 13.4944 48.3957 13.0218 48.5972Z" fill="#FFD273" stroke="#120F0F" stroke-linecap="round" stroke-linejoin="round"/>
<path d="M16.9361 36.0431L11.7187 30.8355C10.4981 29.6126 10.4981 27.634 11.7187 26.4157C12.9393 25.1974 14.9216 25.1974 16.1422 26.4157C16.4955 26.7684 16.7479 27.1943 16.8948 27.6294L19.2442 34.6095C19.492 35.3377 19.0973 36.1301 18.3677 36.3774C17.8492 36.5515 17.2986 36.4049 16.9361 36.0431Z" fill="#FFD273" stroke="#120F0F" stroke-linecap="round" stroke-linejoin="round"/>
<path d="M12.8061 41.8915L4.11508 40.4168C2.07769 40.0687 0.705663 38.1404 1.05441 36.1069C1.39856 34.0733 3.335 32.7084 5.36781 33.0519C5.95516 33.1527 6.49663 33.3909 6.94633 33.7161L14.0772 38.9007C14.8252 39.4412 14.9858 40.4855 14.4443 41.2274C14.0589 41.7541 13.4164 41.9923 12.8153 41.8915H12.8061Z" fill="#FFD273" stroke="#120F0F" stroke-linecap="round" stroke-linejoin="round"/>
<path d="M68.0682 83.6861L61.0154 86.0311L59.5791 85.0693L66.632 82.7197L68.0682 83.6861Z" fill="#BECFDE" stroke="#120F0F" stroke-linecap="round" stroke-linejoin="round"/>
<path d="M66.632 82.7193L59.5791 85.0689L60.4601 78.5469L67.513 76.1973L66.632 82.7193Z" fill="#ABC5DB" stroke="#120F0F" stroke-linecap="round" stroke-linejoin="round"/>
<path d="M61.0154 86.0306L57.9776 94.8473L57.5371 98.1083L64.5854 95.7587L65.0259 92.4977L68.0682 83.6855L61.0154 86.0306Z" fill="#ABC5DB" stroke="#120F0F" stroke-linecap="round" stroke-linejoin="round"/>
<path d="M68.2243 98.2L61.176 100.545L57.5371 98.1084L64.5854 95.7588L68.2243 98.2Z" fill="#BECFDE" stroke="#120F0F" stroke-linecap="round" stroke-linejoin="round"/>
<path d="M74.9009 81.1484L74.0245 87.6704L68.6327 95.1681L68.2243 98.2001L64.5854 95.7589L65.026 92.4979L68.0683 83.6857L66.632 82.7193L67.5131 76.1973L74.9009 81.1484Z" fill="#CEDFED" stroke="#120F0F" stroke-linecap="round" stroke-linejoin="round"/>
</svg>
