<svg width="79" height="78" viewBox="0 0 79 78" fill="none" xmlns="http://www.w3.org/2000/svg">
<path fill-rule="evenodd" clip-rule="evenodd" d="M18.3475 18.018C18.3475 15.9645 20.0122 14.2998 22.0657 14.2998H53.7119H53.9597C54.0121 14.2998 54.0643 14.3009 54.1162 14.303C67.6198 14.519 78.5 25.5329 78.5 39.0879C78.5 52.6431 67.6197 63.657 54.116 63.8728C54.0642 63.875 54.0121 63.8761 53.9597 63.8761H53.7258L53.7119 63.8761L53.698 63.8761H22.0657C20.0122 63.8761 18.3475 62.2114 18.3475 60.1579C18.3475 58.1043 20.0122 56.4396 22.0657 56.4396H29.5896C31.9792 56.4396 33.3396 53.4139 32.157 51.3375C31.6443 50.4374 30.707 49.8295 29.6712 49.8295H20.0826C18.0291 49.8295 16.3644 48.1648 16.3644 46.1112C16.3644 44.0577 18.0291 42.393 20.0826 42.393H25.8274C27.5826 42.393 28.9237 40.8431 28.9237 39.0879C28.9237 37.3327 27.5826 35.7829 25.8274 35.7829H14.9597C12.9062 35.7829 11.2415 34.1182 11.2415 32.0646C11.2415 30.0111 12.9062 28.3464 14.9597 28.3464H29.6712C30.707 28.3464 31.6443 27.7385 32.157 26.8384C33.3396 24.7619 31.9792 21.7362 29.5896 21.7362H22.0657C20.0122 21.7362 18.3475 20.0715 18.3475 18.018ZM7.93644 32.0646C7.93644 34.1182 6.27174 35.7829 4.21822 35.7829C2.1647 35.7829 0.5 34.1182 0.5 32.0646C0.5 30.0111 2.1647 28.3464 4.21822 28.3464C6.27174 28.3464 7.93644 30.0111 7.93644 32.0646ZM11.3242 63.8761C13.3777 63.8761 15.0424 62.2114 15.0424 60.1579C15.0424 58.1043 13.3777 56.4396 11.3242 56.4396C9.27064 56.4396 7.60593 58.1043 7.60593 60.1579C7.60593 62.2114 9.27064 63.8761 11.3242 63.8761Z" fill="#74CA45"/>
<ellipse cx="53.7119" cy="39.0878" rx="19.8305" ry="19.8305" fill="white"/>
<path d="M53.7945 52.6615C61.3367 52.6615 67.4509 46.5473 67.4509 39.0051C67.4509 31.4628 61.3367 25.3486 53.7945 25.3486C46.2523 25.3486 40.1381 31.4628 40.1381 39.0051C40.1381 46.5473 46.2523 52.6615 53.7945 52.6615Z" fill="#292F33"/>
<path d="M64.7196 39.0052C64.7196 45.0389 59.8282 49.9304 53.7945 49.9304C47.7608 49.9304 42.8694 45.0389 42.8694 39.0052C42.8694 32.9715 47.7608 28.0801 53.7945 28.0801C59.8282 28.0801 64.7196 32.9715 64.7196 39.0052Z" fill="#FFC02D"/>
<path d="M54.9553 33.1128L52.9157 31.0732C53.0684 30.8956 53.1459 30.6655 53.1318 30.4317C53.1177 30.1979 53.0131 29.9788 52.8401 29.8209C52.6671 29.663 52.4394 29.5787 52.2053 29.5859C51.9712 29.593 51.7491 29.6911 51.5862 29.8593C51.3693 30.0762 51.2873 30.3759 51.3363 30.6554C51.1471 30.6218 50.9521 30.6494 50.7796 30.7342C50.6072 30.8191 50.4663 30.9568 50.3775 31.1272C50.2887 31.2976 50.2566 31.492 50.2859 31.6819C50.3151 31.8719 50.4043 32.0475 50.5403 32.1833C50.8736 32.5167 51.3998 32.5312 51.7541 32.2348L53.7937 34.2736L54.9553 33.1128Z" fill="#FFE8B6"/>
<path d="M61.5618 40.8818C62.1426 40.301 63.6111 37.8083 61.5787 35.7759C60.1624 34.3597 59.0209 34.4408 56.8977 33.9146C56.0269 33.6238 54.891 32.5771 54.601 32.2871C54.3102 32.5771 54.4123 33.6391 54.4123 33.6391C54.4123 33.6391 53.147 33.7419 52.8562 34.0319C53.1462 34.3219 54.4958 35.5984 54.732 36.1969C55.3666 38.2116 55.2943 39.2366 56.7114 40.6521C59.0338 42.9745 60.9818 41.4626 61.5618 40.8818Z" fill="#C1694F"/>
<path d="M46.8321 37.8004C46.8321 39.3532 49.3216 40.612 47.7696 40.612C47.4004 40.612 47.0348 40.5393 46.6936 40.398C46.3525 40.2567 46.0426 40.0496 45.7815 39.7885C45.5204 39.5274 45.3133 39.2175 45.172 38.8763C45.0307 38.5352 44.958 38.1696 44.958 37.8004C44.958 37.4312 45.0307 37.0655 45.172 36.7244C45.3133 36.3833 45.5204 36.0734 45.7815 35.8123C46.0426 35.5512 46.3525 35.3441 46.6936 35.2028C47.0348 35.0615 47.4004 34.9888 47.7696 34.9888C49.3224 34.9888 46.8321 36.2476 46.8321 37.8004ZM53.809 45.4239C55.0935 46.0432 57.1315 44.4864 56.5113 45.7717C56.2133 46.3889 55.6822 46.8625 55.035 47.0881C54.3878 47.3138 53.6775 47.2732 53.0603 46.9751C52.443 46.677 51.9695 46.146 51.7438 45.4988C51.5182 44.8516 51.5588 44.1413 51.8569 43.524C52.477 42.2387 52.5244 44.8037 53.809 45.4239Z" fill="#77B255"/>
<path d="M51.3845 39.8085C52.2719 39.8085 52.9912 39.0892 52.9912 38.2019C52.9912 37.3145 52.2719 36.5952 51.3845 36.5952C50.4972 36.5952 49.7779 37.3145 49.7779 38.2019C49.7779 39.0892 50.4972 39.8085 51.3845 39.8085Z" fill="#F4900C"/>
<path d="M58.6144 44.6286C59.0581 44.6286 59.4177 44.269 59.4177 43.8253C59.4177 43.3816 59.0581 43.022 58.6144 43.022C58.1708 43.022 57.8111 43.3816 57.8111 43.8253C57.8111 44.269 58.1708 44.6286 58.6144 44.6286Z" fill="#F4900C"/>
<path d="M48.1713 43.8249C48.6149 43.8249 48.9746 43.4652 48.9746 43.0216C48.9746 42.5779 48.6149 42.2183 48.1713 42.2183C47.7276 42.2183 47.368 42.5779 47.368 43.0216C47.368 43.4652 47.7276 43.8249 48.1713 43.8249Z" fill="#F4900C"/>
</svg>
