<svg width="20" height="21" viewBox="0 0 20 21" fill="none" xmlns="http://www.w3.org/2000/svg">
<path fill-rule="evenodd" clip-rule="evenodd" d="M16.4675 10.2346C16.4675 10.9125 17.0242 11.4641 17.7084 11.4641C18.0534 11.4641 18.3334 11.7416 18.3334 12.0834V14.3137C18.3334 16.1996 16.785 17.7338 14.8817 17.7338H5.11919C3.21585 17.7338 1.66669 16.1996 1.66669 14.3137V12.0834C1.66669 11.7416 1.94669 11.4641 2.29169 11.4641C2.97669 11.4641 3.53335 10.9125 3.53335 10.2346C3.53335 9.57405 2.99919 9.07696 2.29169 9.07696C2.12585 9.07696 1.96752 9.01173 1.85002 8.89531C1.73252 8.77888 1.66669 8.62117 1.66669 8.45767L1.66835 6.15475C1.66835 4.26881 3.21669 2.7338 5.12002 2.7338H14.88C16.7834 2.7338 18.3325 4.26881 18.3325 6.15475L18.3334 8.38584C18.3334 8.54933 18.2675 8.70787 18.1509 8.82347C18.0334 8.93989 17.875 9.00513 17.7084 9.00513C17.0242 9.00513 16.4675 9.55671 16.4675 10.2346ZM11.8767 10.7738L12.8592 9.82589C13.03 9.6624 13.0892 9.42129 13.015 9.19834C12.9417 8.9754 12.75 8.81686 12.5184 8.78466L11.1609 8.58814L10.5534 7.36938C10.4492 7.15965 10.2375 7.02918 10.0017 7.02836H10C9.76502 7.02836 9.55335 7.15882 9.44752 7.36855L8.84002 8.58814L7.48502 8.78383C7.25085 8.81686 7.05919 8.9754 6.98502 9.19834C6.91169 9.42129 6.97085 9.6624 7.14085 9.82589L8.12335 10.7738L7.89169 12.114C7.85169 12.3452 7.94585 12.5747 8.13752 12.7126C8.24585 12.7894 8.37169 12.829 8.49919 12.829C8.59669 12.829 8.69502 12.8051 8.78502 12.758L10 12.1255L11.2125 12.7564C11.4225 12.8678 11.6717 12.8505 11.8625 12.7118C12.055 12.5747 12.1492 12.3452 12.1092 12.114L11.8767 10.7738Z" fill="white"/>
</svg>
