<svg width="20" height="21" viewBox="0 0 20 21" fill="none" xmlns="http://www.w3.org/2000/svg">
<path fill-rule="evenodd" clip-rule="evenodd" d="M7.10971 3.1811C8.93042 2.12319 11.1684 2.14168 12.972 3.22954C14.7579 4.33955 15.8433 6.32061 15.8332 8.45166C15.7916 10.5687 14.6278 12.5588 13.1729 14.0972C12.3332 14.9891 11.3939 15.7778 10.3741 16.4472C10.269 16.5079 10.154 16.5485 10.0346 16.5671C9.91969 16.5622 9.80779 16.5283 9.70898 16.4683C8.15204 15.4626 6.78613 14.1788 5.67696 12.6788C4.74884 11.4266 4.22155 9.9138 4.16669 8.34581C4.16548 6.21066 5.28899 4.23902 7.10971 3.1811ZM8.16182 9.22944C8.46809 9.98449 9.19101 10.477 9.99302 10.477C10.5184 10.4808 11.0235 10.2703 11.3957 9.89252C11.7679 9.51473 11.9763 9.00099 11.9744 8.46578C11.9772 7.64882 11.4962 6.91072 10.7561 6.5961C10.0159 6.28149 9.16256 6.45242 8.59445 7.02908C8.02635 7.60575 7.85556 8.4744 8.16182 9.22944Z" fill="#F17228"/>
<ellipse opacity="0.4" cx="10" cy="18.2338" rx="4.16667" ry="0.833333" fill="#F17228"/>
</svg>
