<svg width="24" height="24" viewBox="0 0 24 24" fill="none" xmlns="http://www.w3.org/2000/svg">
<path fill-rule="evenodd" clip-rule="evenodd" d="M7.33377 3.81876C8.1376 3.75461 8.90071 3.43852 9.51447 2.91548C10.9467 1.69492 13.0533 1.69492 14.4855 2.91548C15.0993 3.43852 15.8624 3.75461 16.6662 3.81876C18.5421 3.96845 20.0316 5.45801 20.1813 7.33383C20.2455 8.13766 20.5615 8.90078 21.0846 9.51453C22.3051 10.9468 22.3051 13.0533 21.0846 14.4856C20.5615 15.0993 20.2455 15.8625 20.1813 16.6663C20.0316 18.5421 18.5421 20.0317 16.6662 20.1814C15.8624 20.2455 15.0993 20.5616 14.4855 21.0846C13.0533 22.3052 10.9467 22.3052 9.51447 21.0846C8.90071 20.5616 8.1376 20.2455 7.33377 20.1814C5.45794 20.0317 3.96839 18.5421 3.8187 16.6663C3.75455 15.8625 3.43846 15.0993 2.91542 14.4856C1.69486 13.0533 1.69486 10.9468 2.91542 9.51453C3.43846 8.90077 3.75455 8.13766 3.8187 7.33383C3.96839 5.45801 5.45794 3.96845 7.33377 3.81876ZM16.5303 8.53039C16.8232 8.2375 16.8232 7.76262 16.5303 7.46973C16.2374 7.17684 15.7626 7.17684 15.4697 7.46973L7.46967 15.4697C7.17678 15.7626 7.17678 16.2375 7.46967 16.5304C7.76256 16.8233 8.23744 16.8233 8.53033 16.5304L16.5303 8.53039ZM9 7.75006C8.30964 7.75006 7.75 8.30971 7.75 9.00006C7.75 9.69042 8.30964 10.2501 9 10.2501C9.69036 10.2501 10.25 9.69042 10.25 9.00006C10.25 8.30971 9.69036 7.75006 9 7.75006ZM15 13.7501C14.3096 13.7501 13.75 14.3097 13.75 15.0001C13.75 15.6904 14.3096 16.2501 15 16.2501C15.6904 16.2501 16.25 15.6904 16.25 15.0001C16.25 14.3097 15.6904 13.7501 15 13.7501Z" fill="#FA4069"/>
</svg>
