<svg width="111" height="110" viewBox="0 0 111 110" fill="none" xmlns="http://www.w3.org/2000/svg">
<path d="M74.6572 96.25H13.9991C13.3126 96.2502 12.6337 96.1063 12.0063 95.8277C11.3789 95.549 10.817 95.1417 10.357 94.6322C9.89687 94.1227 9.54885 93.5224 9.3354 92.8699C9.12195 92.2174 9.04782 91.5274 9.11782 90.8445L15.6525 27.1477C15.7397 26.3013 16.1377 25.5174 16.7695 24.9475C17.4013 24.3776 18.222 24.0623 19.0728 24.0625H69.5852C70.4363 24.0623 71.2572 24.3779 71.889 24.9481C72.5208 25.5184 72.9187 26.3027 73.0055 27.1494L79.5367 90.8445C79.6073 91.5275 79.5335 92.2178 79.3203 92.8705C79.107 93.5231 78.759 94.1238 78.2988 94.6334C77.8387 95.143 77.2765 95.5502 76.6489 95.8287C76.0213 96.1072 75.3438 96.2507 74.6572 96.25Z" fill="#B3EA96"/>
<path d="M79.5367 90.8445L76.6028 62.2394C75.3109 62.0034 74.0008 61.8814 72.6875 61.875C60.3469 61.875 50.3438 71.8781 50.3438 84.2188C50.3438 85.9959 50.562 87.7198 50.9574 89.375H9.27078L9.11953 90.8445C9.04953 91.5274 9.12366 92.2174 9.33711 92.8699C9.55055 93.5224 9.89858 94.1227 10.3587 94.6322C10.8187 95.1417 11.3806 95.549 12.008 95.8277C12.6354 96.1063 13.3143 96.2502 14.0008 96.25H74.6555C75.342 96.2502 76.0209 96.1063 76.6482 95.8277C77.2756 95.549 77.8375 95.1417 78.2976 94.6322C78.7577 94.1227 79.1057 93.5224 79.3192 92.8699C79.5326 92.2174 79.6067 91.5274 79.5367 90.8445Z" fill="#74CA45"/>
<path d="M79.5625 101.406C91.9026 101.406 101.906 91.4026 101.906 79.0625C101.906 66.7224 91.9026 56.7188 79.5625 56.7188C67.2224 56.7188 57.2188 66.7224 57.2188 79.0625C57.2188 91.4026 67.2224 101.406 79.5625 101.406Z" fill="#FFAB17"/>
<path d="M79.5625 94.5312C68.3941 94.5312 59.1678 86.3294 57.5109 75.625C57.3356 76.7491 57.2188 77.8903 57.2188 79.0625C57.2188 91.4031 67.2219 101.406 79.5625 101.406C91.9031 101.406 101.906 91.4031 101.906 79.0625C101.906 77.8903 101.789 76.7491 101.614 75.625C99.9572 86.3294 90.7309 94.5312 79.5625 94.5312Z" fill="#F17228"/>
<path d="M81.6903 79.0624L89.2202 71.5326C89.4853 71.247 89.6294 70.8698 89.6222 70.4802C89.615 70.0906 89.457 69.719 89.1814 69.4435C88.9059 69.1679 88.5343 69.01 88.1447 69.0027C87.7551 68.9955 87.3779 69.1396 87.0924 69.4047L79.5625 76.9346L72.0344 69.4065C71.7502 69.1348 71.3711 68.9851 70.978 68.9893C70.5849 68.9935 70.209 69.1513 69.9307 69.4289C69.6524 69.7066 69.4937 70.082 69.4885 70.4751C69.4834 70.8682 69.6322 71.2477 69.9031 71.5326L77.4364 79.0624L69.9066 86.5922C69.6414 86.8778 69.4973 87.255 69.5046 87.6446C69.5118 88.0342 69.6698 88.4058 69.9453 88.6813C70.2208 88.9569 70.5924 89.1148 70.982 89.1221C71.3716 89.1293 71.7488 88.9852 72.0344 88.7201L79.5625 81.1902L87.0906 88.7183C87.2303 88.8589 87.3963 88.9704 87.5792 89.0465C87.762 89.1226 87.9582 89.1618 88.1563 89.1618C88.3543 89.1618 88.5505 89.1226 88.7334 89.0465C88.9162 88.9704 89.0823 88.8589 89.2219 88.7183C89.5033 88.4361 89.6613 88.0538 89.6613 87.6553C89.6613 87.2568 89.5033 86.8745 89.2219 86.5922L81.6903 79.0624ZM18.2341 65.6476C17.8379 65.6086 17.4423 65.7275 17.1334 65.9785C16.8244 66.2296 16.627 66.5924 16.5841 66.9882L16.4019 68.7619C16.3727 69.1523 16.4969 69.5386 16.7481 69.8388C16.9992 70.139 17.3575 70.3295 17.7469 70.3698C18.1362 70.4101 18.5259 70.297 18.8332 70.0545C19.1405 69.812 19.3411 69.4593 19.3925 69.0713L19.5764 67.2976C19.6623 66.4726 19.0608 65.7335 18.2358 65.6476H18.2341ZM20.7864 40.8305C20.5896 40.8091 20.3905 40.8271 20.2007 40.8832C20.0108 40.9394 19.834 41.0327 19.6805 41.1577C19.527 41.2828 19.3999 41.437 19.3065 41.6116C19.2131 41.7861 19.1553 41.9775 19.1364 42.1746L17.3025 60.0015C17.2755 60.2012 17.2889 60.4044 17.342 60.5989C17.3951 60.7934 17.4867 60.9752 17.6115 61.1336C17.7363 61.2919 17.8916 61.4236 18.0682 61.5207C18.2449 61.6179 18.4393 61.6785 18.6398 61.699C18.8404 61.7195 19.043 61.6995 19.2357 61.6402C19.4283 61.5808 19.6071 61.4833 19.7613 61.3535C19.9155 61.2237 20.0421 61.0642 20.1335 60.8845C20.2248 60.7048 20.2791 60.5085 20.2931 60.3074L22.127 42.4788C22.213 41.6538 21.6114 40.9147 20.7864 40.8288V40.8305Z" fill="white"/>
<path d="M76.0545 58.4977C75.6826 58.4976 75.3239 58.3596 75.0477 58.1104C74.7715 57.8612 74.5975 57.5185 74.5592 57.1485L72.9934 41.8585C72.9734 41.6621 72.9921 41.4637 73.0487 41.2746C73.1053 41.0855 73.1986 40.9094 73.3232 40.7563C73.4479 40.6033 73.6015 40.4763 73.7752 40.3826C73.9489 40.2889 74.1394 40.2303 74.3358 40.2102C74.5322 40.1901 74.7306 40.2089 74.9197 40.2655C75.1088 40.3221 75.2849 40.4154 75.4379 40.54C75.591 40.6647 75.718 40.8182 75.8117 40.992C75.9054 41.1657 75.964 41.3562 75.9841 41.5526L77.5516 56.8408C77.5733 57.0503 77.5507 57.2619 77.4853 57.4621C77.4199 57.6622 77.3131 57.8464 77.172 58.0026C77.0308 58.1588 76.8584 58.2836 76.6659 58.3689C76.4734 58.4542 76.2651 58.4981 76.0545 58.4977ZM22.952 97.754H13.9922C12.2947 97.7522 10.6673 97.077 9.46706 95.8768C8.26678 94.6765 7.59166 93.0491 7.58984 91.3516C7.58984 91.1299 7.59156 90.9116 7.61391 90.6899L14.1641 27.0016C14.2819 25.7815 14.8514 24.6494 15.7608 23.8274C16.6702 23.0055 17.8539 22.553 19.0797 22.5586H69.5766C70.8035 22.554 71.9879 23.0079 72.8973 23.8315C73.8068 24.6551 74.3756 25.7888 74.4922 27.0102L75.0181 32.139C75.0382 32.3353 75.0194 32.5337 74.9628 32.7228C74.9063 32.9119 74.813 33.0881 74.6883 33.2411C74.5637 33.3942 74.4101 33.5212 74.2364 33.6149C74.0626 33.7086 73.8722 33.7672 73.6758 33.7872C73.4794 33.8073 73.281 33.7885 73.0919 33.732C72.9028 33.6754 72.7267 33.5821 72.5736 33.4574C72.4206 33.3328 72.2936 33.1792 72.1999 33.0055C72.1062 32.8318 72.0476 32.6413 72.0275 32.4449L71.5016 27.3093C71.4565 26.8308 71.2339 26.3865 70.8776 26.064C70.5213 25.7414 70.0572 25.5639 69.5766 25.5665H19.0797C18.0811 25.5665 17.2527 26.3124 17.1564 27.3024L10.6063 90.989C10.5959 91.1058 10.5977 91.2296 10.5977 91.3499C10.5977 93.2233 12.1205 94.7462 13.9922 94.7462H22.952C23.3509 94.7462 23.7334 94.9046 24.0155 95.1866C24.2975 95.4687 24.4559 95.8512 24.4559 96.2501C24.4559 96.6489 24.2975 97.0314 24.0155 97.3135C23.7334 97.5955 23.3509 97.754 22.952 97.754ZM65.2969 97.754H33.1563C32.7574 97.754 32.3749 97.5955 32.0928 97.3135C31.8108 97.0314 31.6523 96.6489 31.6523 96.2501C31.6523 95.8512 31.8108 95.4687 32.0928 95.1866C32.3749 94.9046 32.7574 94.7462 33.1563 94.7462H65.2969C65.6957 94.7462 66.0783 94.9046 66.3603 95.1866C66.6423 95.4687 66.8008 95.8512 66.8008 96.2501C66.8008 96.6489 66.6423 97.0314 66.3603 97.3135C66.0783 97.5955 65.6957 97.754 65.2969 97.754Z" fill="#120F0F"/>
<path d="M58.9375 39.3164C58.5386 39.3164 58.1561 39.158 57.8741 38.8759C57.592 38.5939 57.4336 38.2114 57.4336 37.8125V23.2031C57.4336 15.9758 51.5555 10.0977 44.3281 10.0977C37.1008 10.0977 31.2227 15.9758 31.2227 23.2031V37.8125C31.2227 38.2114 31.0642 38.5939 30.7822 38.8759C30.5001 39.158 30.1176 39.3164 29.7188 39.3164C29.3199 39.3164 28.9374 39.158 28.6553 38.8759C28.3733 38.5939 28.2148 38.2114 28.2148 37.8125V23.2031C28.2148 14.3172 35.4439 7.08984 44.3281 7.08984C53.2123 7.08984 60.4414 14.3189 60.4414 23.2031V37.8125C60.4414 38.2114 60.283 38.5939 60.0009 38.8759C59.7189 39.158 59.3364 39.3164 58.9375 39.3164ZM79.5625 102.91C66.4141 102.91 55.7148 92.2127 55.7148 79.0625C55.7148 65.9123 66.4141 55.2148 79.5625 55.2148C92.7109 55.2148 103.41 65.9123 103.41 79.0625C103.41 92.2127 92.7109 102.91 79.5625 102.91ZM79.5625 58.2227C68.0709 58.2227 58.7227 67.5727 58.7227 79.0625C58.7227 90.5523 68.0727 99.9023 79.5625 99.9023C91.0523 99.9023 100.402 90.5523 100.402 79.0625C100.402 67.5727 91.0523 58.2227 79.5625 58.2227Z" fill="#120F0F"/>
</svg>
