<svg width="15" height="15" viewBox="0 0 15 15" fill="none" xmlns="http://www.w3.org/2000/svg">
<path opacity="0.4" d="M7.98176 1.99271L9.28054 4.6027C9.37623 4.7918 9.55885 4.92311 9.76948 4.9523L12.6868 5.37718C12.8571 5.40111 13.0118 5.49099 13.1162 5.62814C13.2195 5.76354 13.2638 5.93513 13.2387 6.1038C13.2183 6.24387 13.1524 6.37344 13.0514 6.47265L10.9376 8.52178C10.7829 8.66477 10.7129 8.87662 10.7503 9.08381L11.2707 11.9646C11.3261 12.3125 11.0957 12.6405 10.7503 12.7064C10.6079 12.7292 10.462 12.7052 10.3337 12.6399L7.73146 11.2841C7.53833 11.1866 7.3102 11.1866 7.11707 11.2841L4.51485 12.6399C4.19511 12.8097 3.79895 12.6941 3.62099 12.379C3.55506 12.2535 3.53172 12.1105 3.55331 11.971L4.07376 9.08965C4.1111 8.88304 4.0405 8.67002 3.88647 8.52703L1.77259 6.47907C1.52112 6.23628 1.51354 5.8365 1.75567 5.58495C1.76093 5.5797 1.76676 5.57386 1.77259 5.56803C1.87295 5.46589 2.00481 5.40111 2.14718 5.38418L5.06447 4.95872C5.27451 4.92895 5.45714 4.7988 5.55341 4.60854L6.80551 1.99271C6.91695 1.76859 7.148 1.62911 7.39889 1.63494H7.47707C7.6947 1.66121 7.88432 1.79602 7.98176 1.99271Z" fill="#FC8A06"/>
<path d="M7.40759 11.2114C7.2946 11.2149 7.18452 11.2453 7.08551 11.2996L4.49601 12.6523C4.17916 12.8035 3.8 12.6861 3.62235 12.3831C3.55654 12.2594 3.53266 12.1175 3.55479 11.9785L4.07199 9.10327C4.10694 8.89427 4.03705 8.68176 3.88503 8.53464L1.77022 6.48721C1.51919 6.24143 1.51453 5.83801 1.76031 5.58639C1.76381 5.58289 1.76672 5.57997 1.77022 5.57705C1.87039 5.4778 1.99969 5.41241 2.1389 5.39198L5.05864 4.96229C5.27006 4.93544 5.45353 4.8035 5.54672 4.61201L6.81584 1.96325C6.9364 1.74958 7.16763 1.62231 7.41225 1.63573C7.40759 1.80912 7.40759 11.0935 7.40759 11.2114Z" fill="#FC8A06"/>
</svg>
