<svg width="18" height="19" viewBox="0 0 18 19" fill="none" xmlns="http://www.w3.org/2000/svg">
<path fill-rule="evenodd" clip-rule="evenodd" d="M12.6147 2.68273C13.6191 3.6526 14.25 5.07646 14.25 6.8889C14.25 9.41174 12.7847 11.4813 11.5336 12.799C10.1375 14.2695 7.86279 14.2695 6.46662 12.7991C5.21542 11.4814 3.75 9.4118 3.75 6.8889C3.75 5.07645 4.38094 3.65259 5.38525 2.68272C6.38051 1.72159 7.69749 1.25 9 1.25C10.3025 1.25 11.6195 1.7216 12.6147 2.68273ZM4.43787 12.0859C4.60294 12.4658 4.42879 12.9076 4.04889 13.0726C3.62758 13.2557 3.34143 13.4432 3.17186 13.6085C3.00435 13.7719 3 13.8614 3 13.8766C3 13.8931 3.00764 14.014 3.25989 14.2237C3.50768 14.4297 3.9112 14.6488 4.47581 14.8473C5.59817 15.242 7.19768 15.5 9 15.5C10.8023 15.5 12.4018 15.242 13.5242 14.8473C14.0888 14.6488 14.4923 14.4297 14.7401 14.2237C14.9924 14.014 15 13.8931 15 13.8766C15 13.8614 14.9956 13.7719 14.8281 13.6085C14.6586 13.4432 14.3724 13.2557 13.9511 13.0726C13.5712 12.9076 13.3971 12.4658 13.5621 12.0859C13.7272 11.706 14.169 11.5318 14.5489 11.6969C15.0657 11.9215 15.5295 12.1973 15.8754 12.5347C16.2234 12.8741 16.5 13.3267 16.5 13.8766C16.5 14.5156 16.1299 15.019 15.699 15.3772C15.2636 15.7391 14.6787 16.0314 14.0217 16.2624C12.7011 16.7268 10.9256 17 9 17C7.0744 17 5.2989 16.7268 3.97825 16.2624C3.32135 16.0314 2.73635 15.7391 2.301 15.3772C1.87012 15.019 1.5 14.5156 1.5 13.8766C1.5 13.3267 1.7766 12.8741 2.12456 12.5347C2.47047 12.1973 2.93432 11.9215 3.45111 11.6969C3.83101 11.5318 4.2728 11.706 4.43787 12.0859ZM10.5 6.5C10.5 7.32843 9.82843 8 9 8C8.17157 8 7.5 7.32843 7.5 6.5C7.5 5.67157 8.17157 5 9 5C9.82843 5 10.5 5.67157 10.5 6.5Z" fill="#74CA45"/>
</svg>
